<?xml version="1.0" standalone="no"?>
<!DOCTYPE svg PUBLIC "-//W3C//DTD SVG 1.1//EN" "http://www.w3.org/Graphics/SVG/1.1/DTD/svg11.dtd" >
<svg xmlns="http://www.w3.org/2000/svg">
<metadata></metadata>
<defs>
<font id="museo_sans900_italic" horiz-adv-x="831" >
<font-face units-per-em="2048" ascent="1536" descent="-512" />
<missing-glyph horiz-adv-x="481" />
<glyph unicode="ff" horiz-adv-x="1568" d="M860 0l152 778h-428l-152 -778h-354l151 778h-129l56 277h129l4 26q13 82 46.5 147.5t80.5 106.5t99 70t111 43t105 19.5t92 5.5q34 0 66 -1.5t47 -3.5l16 -2l-61 -299q-20 4 -53 4q-31 0 -59.5 -4t-60.5 -14t-53.5 -31.5t-25.5 -52.5l-2 -14h430l4 26q11 71 38 129.5 t63 98t82 70t90.5 48t95 28.5t89 14.5t77.5 3.5q34 0 66 -1.5t48 -3.5l15 -2l-62 -299q-20 4 -53 4q-31 0 -59.5 -4t-60.5 -14t-53.5 -31.5t-25.5 -52.5l-2 -14h195l-53 -277h-195l-152 -778h-354z" />
<glyph unicode="fi" horiz-adv-x="1398" d="M797 0l149 778h-362l-152 -778h-354l151 778h-129l56 277h129l4 26q13 82 46.5 147.5t80.5 106.5t99 70t111 43t105 19.5t92 5.5q34 0 66 -1.5t47 -3.5l16 -2l-61 -299q-20 4 -53 4q-31 0 -59.5 -4t-60.5 -14t-53.5 -31.5t-25.5 -52.5l-2 -14h717l-205 -1055h-352z M1030 1188l53 276h347l-54 -276h-346z" />
<glyph unicode="fl" horiz-adv-x="1445" d="M78 0l147 760h-129l56 276h129l8 45q13 72 41 130.5t63.5 98.5t81.5 70.5t90 47.5t93.5 27.5t87.5 14t77 3.5q34 0 66 -1.5t47 -3.5l16 -2l-61 -299q-20 4 -53 4q-181 0 -199 -102l-6 -33h194l-53 -276h-194l-148 -760h-354zM846 281q0 60 14 129l205 1054h354 l-196 -1015q-11 -49 -11 -80q0 -68 80 -68l43 2l-59 -307q-47 -6 -96 -6q-334 0 -334 291z" />
<glyph unicode="ffi" horiz-adv-x="2183" d="M860 0l152 778h-428l-152 -778h-354l151 778h-129l56 277h129l4 26q13 82 46.5 147.5t80.5 106.5t99 70t111 43t105 19.5t92 5.5q34 0 66 -1.5t47 -3.5l16 -2l-61 -299q-20 4 -53 4q-31 0 -59.5 -4t-60.5 -14t-53.5 -31.5t-25.5 -52.5l-2 -14h430l4 26q11 71 38 129.5 t63 98t82 70t90.5 48t95 28.5t89 14.5t77.5 3.5q34 0 66 -1.5t48 -3.5l15 -2l-62 -299q-20 4 -53 4q-31 0 -59.5 -4t-60.5 -14t-53.5 -31.5t-25.5 -52.5l-2 -14h719l-205 -1055h-352l150 778h-365l-152 -778h-354zM1815 1188l53 276h346l-53 -276h-346z" />
<glyph unicode="ffl" horiz-adv-x="2230" d="M1630 281q0 55 15 129l204 1054h355l-197 -1015q-10 -45 -10 -80q0 -68 80 -68l43 2l-60 -307q-47 -6 -96 -6q-334 0 -334 291zM860 0l152 778h-428l-152 -778h-354l151 778h-129l56 277h129l4 26q13 82 46.5 147.5t80.5 106.5t99 70t111 43t105 19.5t92 5.5 q34 0 66 -1.5t47 -3.5l16 -2l-61 -299q-20 4 -53 4q-31 0 -59.5 -4t-60.5 -14t-53.5 -31.5t-25.5 -52.5l-2 -14h430l4 26q11 71 38 129.5t63 98t82 70t90.5 48t95 28.5t89 14.5t77.5 3.5q34 0 66 -1.5t48 -3.5l15 -2l-62 -299q-20 4 -53 4q-31 0 -59.5 -4t-60.5 -14 t-53.5 -31.5t-25.5 -52.5l-2 -14h195l-53 -277h-195l-152 -778h-354z" />
<glyph unicode="fj" horiz-adv-x="1400" d="M78 0l151 778h-129l56 277h129l4 26q13 82 46.5 147.5t80.5 106.5t99 70t111 43t105 19.5t92 5.5q34 0 66 -1.5t47 -3.5l16 -2l-61 -299q-20 4 -53 4q-31 0 -59.5 -4t-60.5 -14t-53.5 -31.5t-25.5 -52.5l-2 -14h719l-209 -1078q-20 -102 -69 -179t-105.5 -118t-129 -66.5 t-126.5 -32.5t-111 -7q-34 0 -65 1.5t-45 2.5l-15 2l58 295q18 -2 45 -2q32 0 61 5t63 17.5t58.5 41.5t32.5 71l149 770h-364l-152 -778h-354zM1032 1188l53 276h347l-54 -276h-346z" />
<glyph unicode=" "  horiz-adv-x="481" />
<glyph unicode="&#x09;" horiz-adv-x="481" />
<glyph unicode="&#xa0;" horiz-adv-x="481" />
<glyph unicode="!" horiz-adv-x="745" d="M190 453l164 1011h369l-229 -1011h-304zM96 0l60 307h323l-59 -307h-324z" />
<glyph unicode="&#x22;" horiz-adv-x="847" d="M569 1004l97 491h249l-96 -491h-250zM178 1004l96 491h250l-96 -491h-250z" />
<glyph unicode="#" horiz-adv-x="1431" d="M82 0l135 369h-199l86 245h201l74 195h-197l88 246h197l151 409h281l-151 -409h221l151 409h281l-152 -409h209l-88 -246h-209l-74 -195h205l-88 -245h-205l-135 -369h-280l135 369h-221l-136 -369h-280zM586 614h221l74 195h-222z" />
<glyph unicode="$" horiz-adv-x="1222" d="M4 184l213 254q6 -5 16 -14t45 -32t72.5 -40.5t95.5 -32t117 -14.5q65 0 120.5 31.5t55.5 97.5q0 30 -30 59t-78.5 55t-106.5 56t-116 69.5t-106.5 87.5t-78.5 118t-30 153q0 127 68.5 228t175 156.5t233.5 68.5l37 184h223l-37 -192q66 -11 126 -31.5t98 -41.5 t66.5 -40.5t40.5 -31.5l13 -13l-193 -264q-5 4 -15 11t-42 25t-66.5 32t-86 25t-103.5 11q-65 0 -122.5 -33t-57.5 -94q0 -32 30.5 -61.5t79 -55.5t107 -55t117.5 -68t107.5 -86t79 -117.5t30.5 -154.5q0 -183 -142 -313.5t-360 -143.5l-33 -180h-223l37 195 q-72 14 -137 38.5t-107 50.5t-73.5 49.5t-45.5 38.5z" />
<glyph unicode="%" horiz-adv-x="1785" d="M494 782q-150 0 -244 89t-94 227q0 99 58.5 190t154.5 146t200 55q149 0 244.5 -93t95.5 -231q0 -100 -60.5 -189t-156.5 -141.5t-198 -52.5zM53 0l1381 1464h325l-1380 -1464h-326zM520 1028q49 0 88 37t39 88q0 39 -28 64.5t-74 25.5q-48 0 -87.5 -39t-39.5 -88 q0 -39 27.5 -63.5t74.5 -24.5zM909 291q0 99 58.5 190t155 146t200.5 55q149 0 244.5 -93t95.5 -231q0 -100 -60.5 -189t-157 -141.5t-198.5 -52.5q-150 0 -244 89t-94 227zM1171 309q0 -39 28 -63.5t75 -24.5q49 0 88 37t39 88q0 39 -28.5 64.5t-74.5 25.5q-48 0 -87.5 -39 t-39.5 -88z" />
<glyph unicode="&#x26;" horiz-adv-x="1445" d="M39 397q0 121 92 232.5t227 150.5v4q-5 2 -13.5 7t-30.5 24.5t-39 43.5t-30.5 67.5t-13.5 93.5q0 98 33.5 178.5t87.5 133t126.5 89t147.5 52.5t152 16q53 0 108 -9.5t84 -19.5l29 -10l-131 -266q-34 8 -77 8q-79 0 -141 -47.5t-62 -134.5q0 -48 32.5 -79.5t92.5 -31.5 h178l35 180h352l-35 -180h182l-59 -307h-182l-27 -141q-44 -233 -199 -354.5t-401 -121.5q-242 0 -380 117t-138 305zM416 424q0 -53 42.5 -88t110.5 -35q98 0 162 47.5t78 122.5l22 121h-200q-37 0 -72 -8.5t-68.5 -26.5t-54 -52.5t-20.5 -80.5z" />
<glyph unicode="'" horiz-adv-x="462" d="M178 1004l96 491h256l-96 -491h-256z" />
<glyph unicode="(" horiz-adv-x="692" d="M231 -195q-120 273 -120 566q0 335 104.5 623.5t333.5 541.5h301q-216 -265 -324 -563t-108 -611q0 -301 94 -557h-281z" />
<glyph unicode=")" horiz-adv-x="694" d="M164 -195h-301q216 265 324 563t108 611q0 301 -94 557h280q121 -276 121 -565q0 -335 -104.5 -624t-333.5 -542z" />
<glyph unicode="*" horiz-adv-x="952" d="M362 633l-225 184l189 176l2 4l-207 43l149 287l191 -92l22 229h312l-70 -229l229 94l41 -299l-245 -51l-2 -4l120 -164l-268 -180l-82 200h-4z" />
<glyph unicode="+" horiz-adv-x="1271" d="M379 0l88 455h-420l51 266h420l88 457h279l-88 -457h420l-52 -266h-420l-88 -455h-278z" />
<glyph unicode="," horiz-adv-x="610" d="M-139 -227l260 567h346l-342 -567h-264z" />
<glyph unicode="-" horiz-adv-x="921" d="M104 434l60 307h643l-59 -307h-644z" />
<glyph unicode="." horiz-adv-x="579" d="M6 0l64 336h336l-64 -336h-336z" />
<glyph unicode="/" horiz-adv-x="905" d="M221 -86h-313l835 1622h316z" />
<glyph unicode="0" horiz-adv-x="1318" d="M104 487q0 83 10.5 173t34.5 188.5t59.5 189.5t90.5 174t122 144t159 97t198 36q486 0 486 -508q0 -83 -10.5 -173t-35 -188.5t-60.5 -190t-91 -175t-122.5 -145t-159.5 -98t-197 -36.5q-484 0 -484 512zM600 303q70 0 128 70.5t92 175.5t52.5 214t18.5 198 q0 200 -125 200q-70 0 -128.5 -71t-92.5 -176.5t-52 -213.5t-18 -196q0 -201 125 -201z" />
<glyph unicode="1" horiz-adv-x="1134" d="M6 0l55 307h312l116 584l25 113h-4q-27 -41 -74 -78l-102 -80l-178 241l483 377h309l-225 -1157h311l-59 -307h-969z" />
<glyph unicode="2" horiz-adv-x="1236" d="M8 0q0 114 28 213t75 172.5t108 137t128.5 111.5t134.5 90.5t128 79.5t108 73t75 76.5t28 84.5q0 56 -38.5 84.5t-94.5 28.5q-42 0 -83 -16t-69.5 -39t-51 -46t-33.5 -39l-11 -16l-252 197q4 6 12 17t35 41.5t58 58.5t80.5 62.5t102 59t123.5 41.5t144 17q85 0 167 -26.5 t149 -76t108 -128.5t41 -175q0 -95 -37.5 -180t-98 -148t-134 -117.5t-150 -98.5t-142 -82t-112.5 -76.5t-59 -73.5h604l-59 -307h-1012z" />
<glyph unicode="3" horiz-adv-x="1206" d="M-25 168l205 254l11.5 -11.5t34.5 -26.5t58.5 -33t83 -26t107.5 -12q109 0 174.5 51t65.5 123q0 68 -65.5 101t-178.5 33h-102l-41 174l219 231q37 39 76 73.5t59 48.5l20 15v4q-49 -10 -141 -10h-334l60 307h923l-43 -223l-354 -354q110 -29 190 -129.5t80 -251.5 q0 -78 -24 -154t-73 -144.5t-118.5 -120t-167 -82t-211.5 -30.5q-101 0 -191 20t-146.5 48.5t-98.5 56.5t-60 48z" />
<glyph unicode="4" horiz-adv-x="1312" d="M4 354l39 217l709 893h469l-158 -813h174l-57 -297h-174l-70 -354h-354l69 354h-647zM451 651h258l63 328q7 36 18 77t18 64l7 23h-4q-51 -89 -100 -152l-260 -336v-4z" />
<glyph unicode="5" horiz-adv-x="1206" d="M-2 168l209 256q4 -5 12.5 -12t36.5 -26.5t59 -34t80 -26.5t99 -12q40 0 81.5 14t78 39.5t60 68t23.5 93.5q0 69 -55.5 108.5t-146.5 39.5q-50 0 -101.5 -12t-77.5 -24l-26 -13l-189 73l209 764h830l-60 -307h-508l-34 -131l-19 -57h4q54 10 109 10q187 0 313.5 -123.5 t126.5 -306.5q0 -161 -86 -294t-226.5 -206.5t-301.5 -73.5q-71 0 -137 10.5t-114.5 27.5t-91 37.5t-70.5 41.5t-48.5 38t-29.5 28z" />
<glyph unicode="6" horiz-adv-x="1269" d="M627 -25q-87 0 -165.5 21.5t-146 67t-117 110t-78 156.5t-28.5 202q0 106 26.5 218t75 218.5t123 201t164.5 165.5t205 112.5t240 41.5q102 0 189 -17t123 -34l36 -17l-146 -291q-94 31 -198 31q-122 0 -213.5 -65.5t-149.5 -175.5h4q27 23 81 37t100 14 q103 0 183.5 -34.5t130.5 -95.5t75.5 -140t25.5 -171q0 -99 -38.5 -197.5t-106.5 -178.5t-171.5 -129.5t-223.5 -49.5zM633 303q80 0 131 65t51 148q0 71 -44.5 118.5t-137.5 47.5q-84 0 -130 -44t-46 -110q0 -99 52.5 -162t123.5 -63z" />
<glyph unicode="7" horiz-adv-x="1167" d="M-6 0l715 1026q31 45 61 78.5t44 43.5l15 11v4q-20 -6 -94 -6h-555l60 307h1050l-49 -250l-850 -1214h-397z" />
<glyph unicode="8" horiz-adv-x="1284" d="M55 401q0 69 32.5 138t84 122.5t89.5 85t73 54.5q-98 105 -98 237q0 83 35.5 162.5t100 144.5t167.5 104.5t227 39.5q209 0 341 -103.5t132 -285.5q0 -61 -26 -127t-66 -119.5t-69 -85.5t-54 -55q131 -105 131 -258q0 -69 -25 -137.5t-75.5 -130.5t-119.5 -109t-164 -75 t-202 -28q-126 0 -225.5 33.5t-161.5 92.5t-94.5 135t-32.5 165zM786 455q0 19 -7 36.5t-25 34.5t-32.5 29.5t-47.5 31t-50.5 28t-58.5 30.5q-133 -108 -133 -217q0 -59 41.5 -98t106.5 -39q83 0 144.5 45t61.5 119zM592 1036q0 -57 45.5 -97.5t136.5 -86.5q105 111 105 213 q0 51 -34 80t-97 29q-72 0 -114 -40t-42 -98z" />
<glyph unicode="9" horiz-adv-x="1267" d="M41 43l145 291q95 -31 199 -31q122 0 213 66t150 176h-5q-9 -6 -25.5 -14.5t-63.5 -22.5t-91 -14q-103 0 -184 34.5t-131 95t-75.5 139.5t-25.5 171q0 99 39.5 197.5t108.5 178t174 129.5t225 50q109 0 203.5 -35t167.5 -102t115.5 -175.5t42.5 -244.5q0 -106 -26.5 -218 t-75 -218.5t-123 -201t-164.5 -165.5t-205 -112.5t-240 -41.5q-102 0 -189 17t-123 34zM682 782q84 0 130 44t46 110q0 99 -52.5 162t-123.5 63q-80 0 -131 -65t-51 -148q0 -71 44.5 -118.5t137.5 -47.5z" />
<glyph unicode=":" horiz-adv-x="620" d="M164 719l65 336h336l-65 -336h-336zM23 0l65 336h336l-66 -336h-335z" />
<glyph unicode=";" horiz-adv-x="636" d="M197 719l65 336h324l-66 -336h-323zM-139 -227l260 567h346l-342 -567h-264z" />
<glyph unicode="&#x3c;" horiz-adv-x="1320" d="M113 479v219l1032 457v-297l-676 -268v-4l676 -267v-296z" />
<glyph unicode="=" horiz-adv-x="1349" d="M147 690v266h1037v-266h-1037zM147 219v266h1037v-266h-1037z" />
<glyph unicode="&#x3e;" horiz-adv-x="1333" d="M180 23v296l676 267v4l-676 268v297l1032 -457v-219z" />
<glyph unicode="?" horiz-adv-x="1017" d="M227 453l19 102q11 60 40 112.5t66.5 90.5t81 71.5t84 62.5t74 56.5t54 59t20.5 65.5q0 44 -35 72.5t-88 28.5q-31 0 -63.5 -9t-58 -22t-46.5 -26.5t-32 -22.5l-11 -9l-162 261q8 6 22 16t59 36t92.5 45.5t118 35.5t138.5 16t132 -15t119.5 -45.5t97 -74t65.5 -103.5 t24 -131q0 -74 -23.5 -138t-61.5 -110.5t-84 -87t-93.5 -73.5t-88.5 -62.5t-69.5 -62.5t-35.5 -66l-15 -73h-340zM150 0l59 307h323l-59 -307h-323z" />
<glyph unicode="@" horiz-adv-x="1761" d="M59 362q0 180 73.5 345.5t197.5 286.5t296.5 193.5t360.5 72.5q123 0 218.5 -21t159 -57.5t105 -90t59 -114.5t17.5 -135q0 -53 -14 -125l-68 -355h152l-47 -243h-549q-207 0 -317.5 97.5t-110.5 242.5q0 71 33.5 140t95 126t160.5 92t219 35h131q2 8 2 14q0 37 -39 64.5 t-95 40t-118 12.5q-117 0 -224.5 -54.5t-182.5 -140t-119.5 -192.5t-44.5 -211q0 -170 110.5 -279.5t319.5 -109.5l-52 -262q-213 0 -379.5 81t-258 224.5t-91.5 322.5zM944 467q0 -47 28.5 -76t84.5 -29h80l53 275h-76q-76 0 -123 -51t-47 -119z" />
<glyph unicode="A" horiz-adv-x="1370" d="M-117 0l762 1464h412l203 -1464h-359l-31 307h-456l-148 -307h-383zM553 594h289l-29 285q-4 41 -7 103.5t-4 105.5l-1 42h-4q-60 -159 -105 -251z" />
<glyph unicode="B" horiz-adv-x="1359" d="M53 0l285 1464h471q164 0 256 -32q110 -38 170.5 -121.5t60.5 -194.5q0 -102 -61 -197.5t-166 -148.5v-4q90 -33 133 -109.5t43 -171.5q0 -168 -99 -285t-259 -167q-98 -33 -234 -33h-600zM586 897h184q71 0 114.5 50t43.5 114q0 96 -113 96h-178zM471 307h215 q55 0 100 25q41 26 66 71.5t25 92.5q0 52 -32.5 83t-96.5 31h-218z" />
<glyph unicode="C" horiz-adv-x="1478" d="M88 625q0 173 68.5 333t184 276t275 185.5t332.5 69.5q109 0 207.5 -21.5t161 -52.5t109 -62.5t66.5 -52.5l21 -22l-202 -246q-6 5 -17 14t-47.5 31t-75 39t-96 31t-114.5 14q-94 0 -177 -31t-141 -82.5t-100.5 -118t-63 -138.5t-20.5 -142q0 -150 87.5 -248t252.5 -98 q62 0 129 18t118 43.5t93.5 51t64.5 43.5l23 18l139 -284q-10 -9 -28.5 -23.5t-78.5 -52t-124.5 -66.5t-162 -52.5t-194.5 -23.5q-210 0 -367.5 83t-240 230t-82.5 337z" />
<glyph unicode="D" horiz-adv-x="1527" d="M55 0l283 1464h469q319 0 498.5 -152.5t179.5 -426.5q0 -182 -63.5 -344.5t-175 -281.5t-272.5 -189t-347 -70h-572zM473 307h148q147 0 261 74t174 197.5t60 273.5q0 149 -87 227t-243 78h-147z" />
<glyph unicode="E" horiz-adv-x="1204" d="M53 0l287 1464h915l-59 -307h-559l-51 -266h444l-61 -307h-445l-53 -277h588l-60 -307h-946z" />
<glyph unicode="F" horiz-adv-x="1128" d="M55 0l283 1464h895l-57 -307h-539l-59 -307h444l-57 -307h-447l-106 -543h-357z" />
<glyph unicode="G" horiz-adv-x="1579" d="M90 623q0 174 68 333.5t184 276.5t281 186.5t350 69.5q106 0 202.5 -19.5t159.5 -47.5t110.5 -55.5t68.5 -46.5l22 -20l-207 -247q-5 4 -15.5 11.5t-44.5 26t-72 33t-96.5 26t-119.5 11.5q-126 0 -227.5 -45.5t-163.5 -120t-94.5 -164t-32.5 -184.5q0 -168 98 -256 t246 -88q48 0 98.5 11t88 26.5t68 31.5t46.5 27l16 11l23 112h-207l59 305h525l-162 -827h-299l8 41l14 61h-4q-5 -5 -14 -13.5t-42 -30.5t-71 -39t-100.5 -30.5t-130.5 -13.5q-122 0 -235 44t-202 124t-142.5 205t-53.5 275z" />
<glyph unicode="H" horiz-adv-x="1593" d="M53 0l285 1464h358l-114 -585h532l115 585h358l-284 -1464h-359l111 573h-533l-110 -573h-359z" />
<glyph unicode="I" horiz-adv-x="702" d="M53 0l285 1464h358l-284 -1464h-359z" />
<glyph unicode="J" horiz-adv-x="1171" d="M2 365q0 57 10 106l17 86h358l-14 -76q-8 -50 -8 -67q0 -111 108 -111q59 0 100 38.5t56 115.5l137 700h-391l59 307h750l-201 -1034q-28 -149 -107.5 -254t-184 -153t-226.5 -48q-124 0 -227.5 42.5t-169.5 133t-66 214.5z" />
<glyph unicode="K" horiz-adv-x="1427" d="M53 0l285 1464h358l-110 -565h137l420 565h416l-555 -719v-4l266 -741h-381l-195 594h-168l-114 -594h-359z" />
<glyph unicode="L" horiz-adv-x="1144" d="M53 0l285 1464h358l-225 -1157h598l-61 -307h-955z" />
<glyph unicode="M" horiz-adv-x="1845" d="M8 0l391 1464h392l96 -618q6 -42 12 -102.5t9 -99.5l3 -40h4q72 146 123 242l334 618h393l-166 -1464h-352l84 659q6 49 18 110.5t21 98.5l8 37h-4q-78 -156 -129 -246l-237 -423h-312l-73 423q-7 41 -15 103.5t-12 104.5l-4 42h-4q-18 -139 -47 -250l-172 -659h-361z " />
<glyph unicode="N" horiz-adv-x="1566" d="M53 0l285 1464h348l272 -684q17 -43 35.5 -105.5t28.5 -103.5l10 -41h4q15 158 33 250l133 684h359l-285 -1464h-346l-275 682q-17 43 -36 105.5t-29 103.5l-10 41h-5q-12 -158 -30 -250l-133 -682h-359z" />
<glyph unicode="O" horiz-adv-x="1671" d="M86 629q0 170 71.5 329.5t188.5 275.5t275 185.5t323 69.5q310 0 500 -179t190 -460q0 -173 -72.5 -335.5t-191 -280t-276 -188.5t-320.5 -71q-155 0 -284.5 49t-217.5 135.5t-137 207.5t-49 262zM455 649q0 -155 90 -250.5t233 -95.5q89 0 177 41t156 110t110.5 167.5 t42.5 205.5q0 150 -90.5 242t-233.5 92q-91 0 -179.5 -40t-155.5 -107.5t-108.5 -163.5t-41.5 -201z" />
<glyph unicode="P" horiz-adv-x="1300" d="M53 0l285 1464h559q132 0 223 -45q102 -49 157.5 -145.5t55.5 -224.5q0 -181 -93 -329t-243 -218q-104 -49 -225 -49h-272l-88 -453h-359zM559 760h174q77 0 121 31q51 34 81 94t30 131q0 66 -38 103.5t-110 37.5h-180z" />
<glyph unicode="Q" horiz-adv-x="1691" d="M86 629q0 170 71.5 329.5t188.5 275.5t275 185.5t323 69.5q310 0 500 -179t190 -460q0 -314 -227 -561l123 -125l-225 -209l-121 143q-181 -123 -410 -123q-155 0 -284.5 49t-217.5 135.5t-137 207.5t-49 262zM455 649q0 -155 90 -250.5t233 -95.5q95 0 187 45l-127 137 l225 209l121 -145q80 131 80 278q0 150 -90.5 242t-233.5 92q-91 0 -179.5 -40t-155.5 -107.5t-108.5 -163.5t-41.5 -201z" />
<glyph unicode="R" horiz-adv-x="1392" d="M53 0l285 1464h545q132 0 215 -34q104 -42 161.5 -128.5t57.5 -207.5q0 -69 -17 -139.5t-51.5 -140t-95.5 -127t-141 -89.5v-4q14 -25 37 -88l188 -506h-385l-164 494h-180l-96 -494h-359zM567 801h154q99 0 163 60t64 165q0 64 -39.5 97.5t-109.5 33.5h-162z" />
<glyph unicode="S" horiz-adv-x="1191" d="M-12 184l213 254q6 -5 16 -14t45 -32t72.5 -40.5t95.5 -32t117 -14.5q65 0 120.5 31.5t55.5 97.5q0 31 -30 60t-78.5 55.5t-106.5 56.5t-116.5 69.5t-107 87t-78.5 117t-30 152.5q0 84 30.5 158t83 128t122 93t148.5 58.5t161 19.5q96 0 183 -17.5t142.5 -42.5t97 -50 t59.5 -43l18 -17l-193 -264q-5 4 -15 11t-42 25t-66.5 32t-86 25t-103.5 11q-65 0 -122.5 -33t-57.5 -94q0 -32 30.5 -62t79 -56t107 -55t117 -68t107 -86t79 -117t30.5 -154q0 -191 -155.5 -325t-388.5 -134q-105 0 -200.5 21.5t-157 52.5t-108 61.5t-67.5 51.5z" />
<glyph unicode="T" horiz-adv-x="1261" d="M330 0l225 1157h-442l59 307h1243l-59 -307h-443l-225 -1157h-358z" />
<glyph unicode="U" horiz-adv-x="1529" d="M129 430q0 58 12 119l178 915h359l-180 -925q-6 -30 -6 -58q0 -87 57 -132.5t158 -45.5q120 0 198 61t101 175l180 925h358l-182 -936q-50 -251 -228.5 -402t-439.5 -151q-116 0 -217.5 30t-179.5 86t-123 143.5t-45 195.5z" />
<glyph unicode="V" horiz-adv-x="1398" d="M383 0l-236 1464h383l97 -833q4 -41 6.5 -100t2.5 -97l1 -39h4q55 144 100 236l422 833h408l-803 -1464h-385z" />
<glyph unicode="W" horiz-adv-x="2078" d="M297 0l-94 1464h372l23 -915q1 -40 0 -78.5t-2 -56.5l-2 -19h4q14 64 53 154l402 915h297l43 -915q2 -37 1 -71t-3 -58l-2 -25h4q14 72 47 154l366 915h392l-644 -1464h-415l-39 739q-4 101 4 172h-4q-23 -78 -64 -172l-327 -739h-412z" />
<glyph unicode="X" horiz-adv-x="1372" d="M-86 0l586 737l-305 727h391l106 -295q15 -41 29.5 -87.5t21.5 -72.5l7 -26h4q50 92 120 186l216 295h417l-596 -745l310 -719h-383l-115 301q-16 41 -30 86t-21 69l-6 25h-4q-51 -88 -121 -180l-224 -301h-403z" />
<glyph unicode="Y" horiz-adv-x="1292" d="M336 0l117 600l-306 864h388l98 -352q12 -44 23.5 -97t17.5 -83l6 -31h4q63 109 129 211l223 352h430l-659 -878l-113 -586h-358z" />
<glyph unicode="Z" horiz-adv-x="1306" d="M-39 0l45 225l696 801q36 41 71 74t52 46l17 13v4q-45 -6 -111 -6h-518l57 307h1106l-45 -221l-702 -805q-36 -41 -71 -74t-52 -46l-17 -13v-4q47 6 113 6h559l-59 -307h-1141z" />
<glyph unicode="[" horiz-adv-x="753" d="M14 -195l338 1731h504l-49 -246h-209l-240 -1239h209l-49 -246h-504z" />
<glyph unicode="\" horiz-adv-x="876" d="M416 -86l-211 1622h282l211 -1622h-282z" />
<glyph unicode="]" horiz-adv-x="759" d="M-25 51h209l240 1239h-209l49 246h504l-338 -1731h-502z" />
<glyph unicode="^" horiz-adv-x="1290" d="M0 494l416 970h219l416 -970h-297l-230 614l-227 -614h-297z" />
<glyph unicode="_" horiz-adv-x="1273" d="M-92 0h1220l-51 -266h-1218z" />
<glyph unicode="`" horiz-adv-x="991" d="M344 1559l-180 307h338l104 -307h-262z" />
<glyph unicode="a" horiz-adv-x="1138" d="M-12 248q0 77 31 141t85 107.5t121 75.5t145.5 50t151 26.5t144.5 8.5h14q4 28 4 39q0 97 -133 97q-59 0 -135.5 -24.5t-123.5 -48.5l-46 -24l-76 267q9 5 25 12.5t66 27.5t101 35.5t122.5 28t136.5 12.5q58 0 112.5 -9t111 -33t98.5 -60.5t68.5 -96.5t26.5 -137 q0 -40 -10 -102l-123 -641h-323l12 63q3 16 7.5 32.5t7.5 24.5l3 9h-4q-5 -6 -13.5 -16.5t-39 -37t-64 -47t-86.5 -37t-108 -16.5q-127 0 -218 73t-91 200zM344 313q0 -31 21.5 -49t64.5 -18q67 0 132 59.5t77 126.5l4 23h-33q-37 0 -75 -5t-85 -18.5t-76.5 -44t-29.5 -74.5 z" />
<glyph unicode="b" horiz-adv-x="1306" d="M14 0l283 1464h354l-78 -397l-22 -94h4q51 50 126 78t150 28q191 0 299.5 -123.5t108.5 -334.5q0 -139 -49.5 -261.5t-130.5 -205.5t-185 -131t-212 -48q-90 0 -170 32t-127 97h-5q-2 -26 -8 -59l-8 -45h-330zM451 453q0 -81 41.5 -133t123.5 -52q99 0 182 90t83 236 q0 86 -44.5 136t-121.5 50q-42 0 -87.5 -22.5t-85.5 -62t-65.5 -103.5t-25.5 -139z" />
<glyph unicode="c" horiz-adv-x="1132" d="M33 459q0 113 47.5 224t131 199t209.5 142.5t271 54.5q84 0 159 -16t122.5 -39t82.5 -45.5t50 -38.5l16 -16l-178 -222q-4 3 -11.5 8.5t-31.5 20t-49.5 25t-64.5 19.5t-78 9q-95 0 -169.5 -48t-111.5 -116.5t-37 -140.5q0 -89 55 -149t162 -60q67 0 146 32t124 64l46 31 l90 -268l-22 -16.5t-60.5 -37t-96 -47t-125 -37t-151.5 -16.5q-127 0 -228.5 38t-165.5 104t-98 153t-34 189z" />
<glyph unicode="d" horiz-adv-x="1308" d="M37 428q0 143 48.5 266t130 206.5t189 131t224.5 47.5q77 0 151.5 -22.5t114.5 -71.5h4q2 27 6 47l84 432h354l-284 -1464h-332l14 70l13 59h-4q-54 -72 -134.5 -113t-169.5 -41q-192 0 -300.5 122.5t-108.5 330.5zM395 455q0 -86 44.5 -136.5t121.5 -50.5q93 0 177.5 93 t84.5 233q0 81 -41 133.5t-123 52.5q-99 0 -181.5 -89.5t-82.5 -235.5z" />
<glyph unicode="e" horiz-adv-x="1150" d="M35 436q0 181 79 328.5t218 231t311 83.5q218 0 334.5 -112t116.5 -301q0 -43 -10 -94.5t-20 -81.5l-9 -31h-666q0 -89 54.5 -139t152.5 -50q68 0 146.5 27t122.5 53l44 27l90 -264q-8 -6 -22 -15t-59 -33t-92 -42t-116.5 -33t-136.5 -15q-131 0 -235.5 37t-169.5 101 t-99 146.5t-34 176.5zM436 662h312q2 24 2 36q0 51 -30 83t-83 32q-72 0 -123 -41.5t-78 -109.5z" />
<glyph unicode="f" horiz-adv-x="784" d="M78 0l147 760h-129l56 276h129l8 45q13 72 41 130.5t63.5 98.5t81.5 70.5t90 47.5t93.5 27.5t87.5 14t77 3.5q34 0 66 -1.5t47 -3.5l16 -2l-61 -299q-20 4 -53 4q-181 0 -199 -102l-6 -33h194l-53 -276h-194l-148 -760h-354z" />
<glyph unicode="g" horiz-adv-x="1286" d="M125 -68q4 -3 12 -7.5t36 -16t59 -20.5t80.5 -16t101.5 -7q107 0 185 47.5t97 155.5l6 34l9 39h-2q-54 -57 -113.5 -83.5t-140.5 -26.5q-102 0 -181.5 34.5t-128.5 95.5t-74.5 140t-25.5 172q0 112 38.5 219.5t108 194t178.5 139.5t238 53q199 0 283 -112h6q2 20 4 32 l10 56h332l-190 -979q-22 -111 -70 -199t-109.5 -144.5t-138.5 -94t-154 -53t-159 -15.5q-81 0 -155.5 11t-123.5 27t-86 32t-54 27l-17 11zM403 504q0 -80 40 -129t122 -49q74 0 131.5 49.5t85 117.5t27.5 138q0 153 -170 153q-107 0 -171.5 -80.5t-64.5 -199.5z" />
<glyph unicode="h" horiz-adv-x="1302" d="M12 0l285 1464h354l-90 -463l-20 -90h4q45 71 139.5 119.5t194.5 48.5q71 0 129 -16.5t104.5 -50.5t72 -93t25.5 -139q0 -41 -14 -116l-129 -664h-354l118 606q7 44 7 62q0 90 -95 90q-101 0 -182.5 -86t-103.5 -205l-90 -467h-355z" />
<glyph unicode="i" horiz-adv-x="614" d="M246 1188l53 276h346l-53 -276h-346zM12 0l203 1055h354l-204 -1055h-353z" />
<glyph unicode="j" horiz-adv-x="616" d="M248 1188l53 276h346l-53 -276h-346zM14 8l203 1047h354l-209 -1078q-14 -74 -43.5 -135t-66 -102t-83 -72t-90.5 -48.5t-93.5 -28t-87 -14t-76.5 -3.5q-34 0 -65 1.5t-45 2.5l-15 2l57 295q18 -2 45 -2q32 0 61 5t63 17.5t58.5 41.5t32.5 71z" />
<glyph unicode="k" horiz-adv-x="1232" d="M12 0l285 1464h354l-147 -757h96l279 348h411l-424 -500v-4l236 -551h-375l-154 410h-127l-79 -410h-355z" />
<glyph unicode="l" horiz-adv-x="661" d="M61 281q0 55 15 129l205 1054h354l-197 -1015q-10 -45 -10 -80q0 -68 80 -68l43 2l-59 -307q-48 -6 -97 -6q-334 0 -334 291z" />
<glyph unicode="m" horiz-adv-x="1878" d="M12 0l205 1055h342l-16 -82l-21 -76h4q140 182 320 182q225 0 280 -178h4q56 73 152 125.5t201 52.5q301 0 301 -288q0 -55 -17 -148l-122 -643h-355l121 614q6 33 6 62q0 82 -69 82q-92 0 -161 -93t-95 -229l-86 -436h-355l121 614q6 33 6 62q0 82 -69 82 q-90 0 -160 -93.5t-96 -228.5l-86 -436h-355z" />
<glyph unicode="n" horiz-adv-x="1302" d="M12 0l205 1055h342l-10 -54q-4 -24 -11 -50t-12 -40l-4 -14h4q46 73 147 127.5t206 54.5q71 0 129 -16.5t104.5 -50.5t72 -93t25.5 -139q0 -41 -14 -116l-129 -664h-354l118 606q7 44 7 62q0 90 -95 90q-101 0 -182.5 -86t-103.5 -205l-90 -467h-355z" />
<glyph unicode="o" horiz-adv-x="1298" d="M31 449q0 135 56.5 254.5t148.5 200.5t210.5 128t241.5 47q240 0 393.5 -130t153.5 -343q0 -135 -56.5 -255t-149 -201t-210.5 -128t-241 -47q-241 0 -394 130t-153 344zM389 465q0 -90 54 -142.5t141 -52.5q113 0 203 88t90 226q0 92 -54 146t-139 54q-111 0 -203 -90.5 t-92 -228.5z" />
<glyph unicode="p" horiz-adv-x="1302" d="M362 -4l-77 -406h-353l283 1465h320l-11 -54q-3 -16 -7.5 -32.5t-7.5 -25.5l-3 -9h4q56 68 140 106.5t177 38.5q190 0 299 -124t109 -334q0 -139 -49.5 -261.5t-131 -205.5t-185.5 -131t-212 -48q-174 0 -276 111h-4q-5 -37 -15 -90zM449 455q0 -82 40.5 -134.5 t122.5 -52.5q101 0 183 90t82 236q0 86 -44 136t-120 50q-42 0 -87.5 -22.5t-85.5 -62t-65.5 -103t-25.5 -137.5z" />
<glyph unicode="q" horiz-adv-x="1308" d="M37 428q0 143 48.5 266t130 206.5t189 131t224.5 47.5q192 0 284 -112h5q2 22 8 57l6 31h332l-285 -1465h-354l80 414l22 90h-4q-44 -46 -115 -82.5t-162 -36.5q-192 0 -300.5 122.5t-108.5 330.5zM395 455q0 -86 44.5 -136.5t121.5 -50.5q93 0 177.5 93t84.5 233 q0 81 -41 133.5t-123 52.5q-99 0 -181.5 -89.5t-82.5 -235.5z" />
<glyph unicode="r" horiz-adv-x="880" d="M12 0l205 1055h340l-35 -178l-16 -66h2q53 111 155 186.5t211 75.5l62 -4l-68 -348q-26 6 -69 6q-34 0 -73 -10.5t-84.5 -37.5t-84.5 -67.5t-72 -106t-49 -147.5l-69 -358h-355z" />
<glyph unicode="s" horiz-adv-x="962" d="M-41 129l176 227q4 -4 12.5 -10t35.5 -22.5t56 -29t73.5 -22.5t88.5 -10q46 0 80.5 13.5t34.5 39.5q0 21 -31 42.5t-77.5 39.5t-100.5 48t-100.5 65t-77.5 94.5t-31 132.5q0 99 64 178.5t165 121.5t214 42q71 0 138 -12.5t112 -30.5t79.5 -35.5t51.5 -30.5l16 -12 l-152 -241q-4 3 -10.5 8t-30 18.5t-50 23.5t-68.5 18t-86 8t-79.5 -14.5t-35.5 -41.5q0 -16 23 -32t60 -32.5t82 -36t90 -48.5t82 -64.5t60 -89.5t23 -119q0 -153 -123 -246.5t-322 -93.5q-73 0 -145.5 16t-124 38.5t-92 45t-60.5 38.5z" />
<glyph unicode="t" horiz-adv-x="839" d="M127 328q0 34 10 82l70 350h-133l53 276h145l60 303h340l-60 -303h224l-54 -276h-223l-57 -301q-6 -27 -6 -56q0 -102 155 -102l56 2l-60 -307q-53 -6 -94 -6q-90 0 -164.5 19t-134.5 58t-93.5 105.5t-33.5 155.5z" />
<glyph unicode="u" horiz-adv-x="1288" d="M57 274q0 36 15 117l129 664h354l-119 -606q-6 -37 -6 -62q0 -90 94 -90q98 0 175 85.5t100 205.5l90 467h354l-205 -1055h-342l11 53l26 105h-4q-47 -75 -141.5 -129t-198.5 -54q-71 0 -129 16.5t-104.5 50.5t-72.5 93t-26 139z" />
<glyph unicode="v" horiz-adv-x="1124" d="M236 0l-158 1055h350l53 -561l4 -183h4q39 113 74 183l273 561h374l-565 -1055h-409z" />
<glyph unicode="w" horiz-adv-x="1695" d="M199 0l-90 1055h352l8 -623q0 -25 -2 -52.5t-4 -42.5l-2 -15h4q1 0 5 14.5t13.5 42.5t20.5 53l268 623h297l23 -623q1 -16 -0.5 -43.5t-3.5 -46.5l-1 -20h5q9 53 34 110l252 623h377l-502 -1055h-393l-22 487v113h-4q-16 -56 -41 -113l-215 -487h-379z" />
<glyph unicode="x" horiz-adv-x="1138" d="M-90 0l442 532l-250 523h373l86 -226l23 -77h4q27 50 45 77l160 226h409l-450 -543l243 -512h-364l-94 227l-19 62h-4q-23 -44 -37 -62l-164 -227h-403z" />
<glyph unicode="y" horiz-adv-x="1120" d="M-33 -102q44 -33 105 -33q125 0 190 106l31 49l-248 1035h369l86 -523q4 -25 6.5 -64t3.5 -65v-26h4q37 92 64 149l235 529h397l-659 -1168q-92 -162 -215.5 -239.5t-245.5 -77.5q-69 0 -138 20.5t-104 41.5l-34 20z" />
<glyph unicode="z" horiz-adv-x="1105" d="M-49 0l33 176l469 486q29 29 56 53t39 33l13 10v4q-24 -4 -90 -4h-360l59 297h940l-33 -178l-469 -486q-28 -28 -56.5 -52t-43.5 -34l-14 -10v-4q28 6 96 6h383l-60 -297h-962z" />
<glyph unicode="{" horiz-adv-x="829" d="M160 78q0 41 8 80l33 170q6 30 6 53q0 40 -14.5 69.5t-35.5 43t-41.5 21t-35.5 8.5l-14 1l59 307q7 0 19 1t44 12t58.5 30.5t53.5 61t38 98.5l41 211q15 78 53 135t83.5 88t107.5 49.5t112 23.5t111 5l86 -4l-49 -254q-23 4 -52 4q-36 0 -67 -7t-62.5 -33t-39.5 -70 l-54 -271q-10 -52 -37 -94.5t-58 -67t-60 -42t-49 -23.5l-19 -6v-4q5 -2 14 -5.5t31 -19.5t39 -38t31 -63.5t14 -92.5q0 -28 -6 -66l-45 -229q-2 -8 -2 -25q0 -86 131 -86l51 4l-49 -254q-39 -4 -90 -4q-35 0 -73.5 5.5t-89 24t-89 47.5t-65.5 82.5t-27 123.5z" />
<glyph unicode="|" horiz-adv-x="724" d="M221 -338v1980h295v-1980h-295z" />
<glyph unicode="}" horiz-adv-x="835" d="M27 49q36 0 67.5 7.5t63 33.5t39.5 70l57 284q10 52 37 95t58 67.5t60 41.5t49 24l19 6v4q-5 2 -14 5.5t-31 19.5t-39 38t-31 63.5t-14 92.5q0 29 6 66l41 215q2 8 2 24q0 86 -131 86l-51 -4l49 254q39 4 90 4q36 0 74 -5.5t88.5 -23.5t89 -47t65.5 -82.5t27 -123.5 q0 -41 -8 -80l-28 -156q-7 -35 -7 -53q0 -40 14.5 -69.5t35.5 -43t42 -21.5t35 -9l15 -1l-60 -307q-7 0 -19 -1t-44 -12t-58.5 -30t-53.5 -60.5t-38 -98.5l-45 -226q-15 -78 -53 -135t-83.5 -88t-107.5 -49.5t-112 -23.5t-111 -5l-86 4l49 254q23 -4 52 -4z" />
<glyph unicode="~" horiz-adv-x="1257" d="M80 391q0 416 356 416q53 0 98.5 -17t77.5 -41t60 -48t57.5 -41t58.5 -17q51 0 82 40t31 116h273q0 -206 -89 -311t-266 -105q-53 0 -98.5 17t-77.5 41t-60 48t-58 41t-60 17q-49 0 -80 -40.5t-31 -115.5h-274z" />
<glyph unicode="&#xa1;" horiz-adv-x="659" d="M193 748l59 307h323l-59 -307h-323zM-51 -410l229 1012h303l-164 -1012h-368z" />
<glyph unicode="&#xa2;" horiz-adv-x="1230" d="M397 -25l37 189q-152 47 -244 175t-92 308q0 113 33.5 215.5t89 178.5t128 135t151 93.5t157.5 45.5l33 172h225l-34 -187q77 -21 137.5 -64.5t92.5 -90t52.5 -90t26.5 -71.5l6 -28l-317 -114q0 3 -1 8.5t-5 21t-10.5 29.5t-19.5 31t-29 29.5t-42 21t-57 8.5 q-92 0 -176 -97.5t-84 -236.5q0 -88 43.5 -135t115.5 -47q43 0 82.5 15t65.5 36.5t46 43t29 36.5l9 15l305 -129q-4 -7 -10.5 -18.5t-30.5 -45t-51.5 -64.5t-71.5 -70.5t-91 -69t-110.5 -53t-130.5 -30.5l-32 -166h-226z" />
<glyph unicode="&#xa3;" horiz-adv-x="1247" d="M125 612l45 230h86l45 225q37 188 187 305t354 117q71 0 138 -19t112 -46t79.5 -54t50.5 -46l17 -19l-223 -222l-9 9t-25 20.5t-39 25.5t-50.5 20t-61.5 9q-60 0 -108.5 -36t-60.5 -95l-39 -194h340l-45 -230h-338l-60 -305h594l-59 -307h-1071l59 307h111l59 305h-88z " />
<glyph unicode="&#xa5;" horiz-adv-x="1320" d="M350 0l68 342h-334l37 197h334l12 57l-31 100h-284l38 197h189l-170 571h391l57 -293q12 -60 23.5 -128t16.5 -106l5 -38h5q59 139 135 272l162 293h426l-394 -571h191l-39 -197h-287l-67 -100l-13 -57h336l-37 -197h-336l-67 -342h-367z" />
<glyph unicode="&#xa7;" horiz-adv-x="1067" d="M242 367l-45 538q-10 118 17 223t88 185.5t162 128t230 47.5q78 0 151.5 -17.5t123 -42t87.5 -49t56 -42.5l18 -17l-176 -201q-4 3 -11.5 9t-33 21t-53.5 26t-72 20.5t-90 9.5q-133 0 -192.5 -82.5t-46.5 -224.5l45 -532h-258zM131 242q4 -3 11.5 -9t33 -21t53.5 -26 t72 -20.5t90 -9.5q133 0 192.5 82.5t47.5 224.5l-45 532h258l45 -538q10 -118 -17.5 -223t-88 -185.5t-162 -128t-230.5 -47.5q-78 0 -151.5 17.5t-123 42t-87.5 49t-56 42.5l-18 17z" />
<glyph unicode="&#xa8;" horiz-adv-x="993" d="M444 1579l58 287h258l-58 -287h-258zM16 1579l58 287h258l-58 -287h-258z" />
<glyph unicode="&#xa9;" horiz-adv-x="1665" d="M115 733q0 154 58 293.5t156.5 240.5t234.5 160.5t286 59.5q153 0 290.5 -59.5t236.5 -160.5t157.5 -240.5t58.5 -293.5t-58.5 -294.5t-157.5 -242t-237 -161.5t-290 -60q-120 0 -232 38.5t-202.5 108.5t-158.5 163t-105 209t-37 239zM346 733q0 -150 66 -276t182 -198.5 t256 -72.5q143 0 261 72.5t185.5 198t67.5 276.5q0 150 -67.5 274.5t-185.5 196.5t-261 72q-140 0 -256 -72t-182 -197t-66 -274zM502 727q0 161 104.5 272t247.5 111q74 0 136 -24.5t96.5 -59t58.5 -69t33 -59.5l8 -24l-205 -79q-1 4 -3.5 11t-12.5 24t-22 30t-34 24 t-47 11q-48 0 -84.5 -48t-36.5 -120q0 -81 33.5 -124.5t87.5 -43.5q25 0 46.5 10.5t34.5 25t22 29t13 24.5l3 11l205 -79q-3 -10 -9 -25.5t-31.5 -56.5t-59.5 -72t-96 -56.5t-136 -25.5q-143 0 -247.5 111t-104.5 272z" />
<glyph unicode="&#xaa;" horiz-adv-x="849" d="M362 784q-78 0 -133 49t-55 130q0 50 18 90.5t45.5 66.5t68 45t76 29t79 15.5t69 6.5t52.5 1h20q6 22 6 34q0 27 -22.5 41.5t-61.5 14.5q-35 0 -79 -13t-71 -26l-26 -13l-51 160q13 8 37.5 19.5t103.5 31t162 19.5q122 0 185 -58t63 -161q0 -30 -6 -68l-78 -399h-221 l14 80h-4q-3 -4 -7.5 -10.5t-22.5 -22.5t-38 -28.5t-53.5 -23t-69.5 -10.5zM461 967q36 0 69 28t39 64l2 10h-20q-55 0 -93 -17t-38 -55q0 -30 41 -30zM100 549l33 174h625l-35 -174h-623z" />
<glyph unicode="&#xab;" horiz-adv-x="1341" d="M584 578l436 421h342l-465 -436l266 -405h-313zM317 158l-266 420l391 421h336l-413 -436l266 -405h-314z" />
<glyph unicode="&#xac;" horiz-adv-x="1288" d="M111 690v266h1036v-686h-277v420h-759z" />
<glyph unicode="&#xad;" horiz-adv-x="880" d="M-31 434l60 307h643l-60 -307h-643z" />
<glyph unicode="&#xae;" horiz-adv-x="1665" d="M115 733q0 154 58 293.5t156.5 240.5t234.5 160.5t286 59.5q153 0 290.5 -59.5t236.5 -160.5t157.5 -240.5t58.5 -293.5t-58.5 -294.5t-157.5 -242t-237 -161.5t-290 -60q-120 0 -232 38.5t-202.5 108.5t-158.5 163t-105 209t-37 239zM346 733q0 -150 66 -276t182 -198.5 t256 -72.5q143 0 261 72.5t185.5 198t67.5 276.5q0 150 -67.5 274.5t-185.5 196.5t-261 72q-140 0 -256 -72t-182 -197t-66 -274zM584 383v711h334q115 0 182 -64t67 -172q0 -76 -40 -123.5t-78 -58.5v-4q8 -6 26 -41l129 -248h-241l-101 242h-57v-242h-221zM805 772h55 q40 0 61 22.5t21 63.5q0 84 -78 84h-59v-170z" />
<glyph unicode="&#xaf;" horiz-adv-x="993" d="M86 1602l45 229h563l-45 -229h-563z" />
<glyph unicode="&#xb0;" horiz-adv-x="858" d="M500 788q-151 0 -247.5 90t-96.5 228q0 99 57.5 189.5t150 145t191.5 54.5q151 0 248.5 -91.5t97.5 -227.5q0 -101 -58.5 -192t-151 -143.5t-191.5 -52.5zM516 1034q47 0 87 36.5t40 82.5q0 43 -29 69.5t-75 26.5q-49 0 -87 -38.5t-38 -84.5q0 -41 28 -66.5t74 -25.5z " />
<glyph unicode="&#xb1;" horiz-adv-x="1400" d="M78 455v266h420v457h278v-457h420v-266h-420v-455h-278v455h-420zM98 -143h1078v-267h-1078v267z" />
<glyph unicode="&#xb2;" d="M-27 866q0 97 28.5 176.5t74.5 130.5t101 91t110.5 68t101.5 53t74.5 53t28.5 61q0 26 -23.5 40.5t-56.5 14.5q-36 0 -77 -23t-64 -46l-23 -23l-154 160q6 7 16.5 18t46 40t73 51.5t93.5 40.5t111 18q48 0 94 -10t88 -31.5t74 -52t51 -74.5t19 -96q0 -61 -23 -113.5 t-61 -89.5t-84 -68t-93.5 -53.5t-88 -41.5t-69.5 -37.5t-36 -35.5h381l-43 -221h-670z" />
<glyph unicode="&#xb3;" d="M315 846q-61 0 -118 14.5t-94 35t-65 40.5t-41 34l-13 15l147 170q2 -3 7 -8t22 -18t36.5 -22.5t52 -17.5t68.5 -8q55 0 89 26t34 67q0 32 -32 49.5t-80 17.5h-76l-37 117l152 141l57 47v4q-43 -4 -70 -4h-211l43 223h602l-30 -161l-203 -189q72 -24 112 -89.5t40 -147.5 q0 -62 -26.5 -121t-75 -107.5t-124.5 -78t-166 -29.5z" />
<glyph unicode="&#xb4;" horiz-adv-x="991" d="M90 1559l227 307h363l-303 -307h-287z" />
<glyph unicode="&#xb6;" horiz-adv-x="1351" d="M403 -102l117 596q-75 0 -146 32.5t-126 88.5t-88 137t-33 172q0 144 80 270t207 198t264 72h762l-60 -307h-485l-246 -1259h-246zM776 -102l225 1157h246l-225 -1157h-246z" />
<glyph unicode="&#xb7;" horiz-adv-x="602" d="M104 436l64 336h324l-64 -336h-324z" />
<glyph unicode="&#xb8;" horiz-adv-x="991" d="M170 -238q45 -16 90 -16q38 0 63 13.5t25 39.5q0 37 -76 37l-55 -4l117 227l141 -34l-4 -15l-37 -84q50 -9 88.5 -42.5t38.5 -92.5q0 -61 -25.5 -106t-67 -69t-86 -35t-91.5 -11q-37 0 -75.5 4.5t-58.5 9.5l-20 4z" />
<glyph unicode="&#xb9;" d="M12 866l43 221h183l53 279q4 17 9 33.5t8 24.5l3 8h-4q-14 -21 -28 -31l-56 -41l-121 172l304 237h221l-131 -682h184l-43 -221h-625z" />
<glyph unicode="&#xba;" horiz-adv-x="940" d="M524 788q-145 0 -238 82t-93 217q0 113 61.5 205.5t158 142.5t203.5 50q146 0 239 -82t93 -217q0 -112 -62 -205t-159 -143t-203 -50zM545 999q61 0 109 47t48 121q0 49 -29.5 79t-74.5 30q-60 0 -110 -49.5t-50 -122.5q0 -48 30 -76.5t77 -28.5zM111 549l34 174h693 l-35 -174h-692z" />
<glyph unicode="&#xbb;" horiz-adv-x="1341" d="M549 158l414 436l-267 405h314l266 -419l-391 -422h-336zM-35 158l465 436l-266 405h313l266 -419l-436 -422h-342z" />
<glyph unicode="&#xbc;" horiz-adv-x="2080" d="M1524 0l35 178h-402l31 172l442 553h322l-99 -506h109l-41 -219h-109l-34 -178h-254zM1456 397h143l37 185q4 23 11.5 48.5t12.5 39.5l5 14h-4q-29 -57 -62 -94l-143 -189v-4zM692 0h-258l971 1464h258zM92 561l43 221h182l54 279q4 17 9 33.5t8 23.5l3 8h-4 q-15 -20 -29 -30l-55 -41l-121 172l303 237h222l-132 -682h185l-43 -221h-625z" />
<glyph unicode="&#xbd;" horiz-adv-x="2084" d="M702 0h-258l971 1464h258zM94 561l43 221h182l54 279q4 17 9 33.5t8 23.5l3 8h-4q-15 -20 -29 -30l-55 -41l-121 172l303 237h222l-131 -682h184l-43 -221h-625zM1196 0q0 97 28.5 176.5t74.5 130.5t101 91t110 68t101 53t74.5 53t28.5 61q0 26 -23.5 40.5t-56.5 14.5 q-36 0 -77 -23t-64 -46l-23 -23l-153 160q6 7 16.5 18t46 40t73 51.5t93.5 40.5t111 18q60 0 117 -16.5t104 -48t75.5 -83.5t28.5 -117q0 -71 -31.5 -130.5t-78.5 -97t-104 -71t-106.5 -54.5t-87.5 -43.5t-46 -41.5h381l-43 -221h-670z" />
<glyph unicode="&#xbe;" horiz-adv-x="2076" d="M395 541q-61 0 -118 14.5t-94 34.5t-65.5 40.5t-41.5 35.5l-13 14l148 170q2 -3 7 -8t22 -18t36.5 -22.5t52 -17.5t68.5 -8q55 0 89 25.5t34 66.5q0 32 -32 50t-80 18h-76l-37 117l151 141l58 47v4q-43 -4 -70 -4h-211l43 223h602l-30 -161l-203 -189q71 -24 111 -89.5 t40 -147.5q0 -62 -26.5 -121t-74.5 -107.5t-124 -78t-166 -29.5zM688 0h-258l971 1464h258zM1520 0l34 178h-401l31 172l442 553h322l-99 -506h109l-41 -219h-109l-34 -178h-254zM1452 397h143l37 185q4 23 11.5 48.5t12.5 39.5l5 14h-4q-29 -57 -62 -94l-143 -189v-4z" />
<glyph unicode="&#xbf;" horiz-adv-x="1003" d="M440 748l60 307h323l-59 -307h-324zM-63 -61q0 74 23.5 138t61.5 110.5t84 87t93.5 73.5t88.5 62.5t69.5 62.5t35.5 66l13 63h339l-16 -92q-11 -60 -40 -112.5t-66.5 -90.5t-81 -71.5t-84 -62.5t-74 -56.5t-54 -59t-20.5 -65.5q0 -44 35 -72.5t88 -28.5q48 0 101 22.5 t81 44.5l29 22l162 -261q-8 -6 -22 -16t-59 -36t-92.5 -45.5t-118 -35.5t-138.5 -16t-132 15t-119.5 45.5t-97 74t-65.5 103.5t-24 131z" />
<glyph unicode="&#xc0;" horiz-adv-x="1370" d="M-117 0l762 1464h412l203 -1464h-359l-31 307h-456l-148 -307h-383zM553 594h289l-29 285q-4 41 -7 103.5t-4 105.5l-1 42h-4q-60 -159 -105 -251zM725 1559l-180 307h338l104 -307h-262z" />
<glyph unicode="&#xc1;" horiz-adv-x="1370" d="M-117 0l762 1464h412l203 -1464h-359l-31 307h-456l-148 -307h-383zM553 594h289l-29 285q-4 41 -7 103.5t-4 105.5l-1 42h-4q-60 -159 -105 -251zM719 1559l227 307h363l-303 -307h-287z" />
<glyph unicode="&#xc2;" horiz-adv-x="1370" d="M-117 0l762 1464h412l203 -1464h-359l-31 307h-456l-148 -307h-383zM553 594h289l-29 285q-4 41 -7 103.5t-4 105.5l-1 42h-4q-60 -159 -105 -251zM487 1559l265 307h344l141 -307h-266l-64 167h-4l-129 -167h-287z" />
<glyph unicode="&#xc3;" horiz-adv-x="1370" d="M-117 0l762 1464h412l203 -1464h-359l-31 307h-456l-148 -307h-383zM553 594h289l-29 285q-4 41 -7 103.5t-4 105.5l-1 42h-4q-60 -159 -105 -251zM477 1559q64 313 305 313q35 0 64 -12.5t48.5 -31t36.5 -36.5t35.5 -30.5t37.5 -12.5q69 0 90 117h231 q-30 -152 -106.5 -233t-196.5 -81q-33 0 -62 12.5t-49 31t-38 36.5t-37 30.5t-37 12.5q-66 0 -90 -116h-232z" />
<glyph unicode="&#xc4;" horiz-adv-x="1370" d="M-117 0l762 1464h412l203 -1464h-359l-31 307h-456l-148 -307h-383zM553 594h289l-29 285q-4 41 -7 103.5t-4 105.5l-1 42h-4q-60 -159 -105 -251zM963 1579l57 287h258l-57 -287h-258zM535 1579l57 287h258l-57 -287h-258z" />
<glyph unicode="&#xc5;" horiz-adv-x="1370" d="M-117 0l762 1464h412l203 -1464h-359l-31 307h-456l-148 -307h-383zM553 594h289l-29 285q-4 41 -7 103.5t-4 105.5l-1 42h-4q-60 -159 -105 -251zM877 1530q-85 0 -144 38.5t-59 110.5q0 96 77 148.5t173 52.5q85 0 144.5 -40.5t59.5 -115.5q0 -48 -23.5 -86.5 t-61.5 -61.5t-80.5 -34.5t-85.5 -11.5zM887 1632q36 0 62 25t26 63q0 26 -16 42t-44 16q-35 0 -60.5 -26t-25.5 -66q0 -25 15.5 -39.5t42.5 -14.5z" />
<glyph unicode="&#xc6;" horiz-adv-x="1988" d="M-127 0l885 1464h1282l-60 -307h-559l-51 -266h447l-62 -307h-446l-54 -277h586l-59 -307h-944l114 590h-340l-342 -590h-397zM942 1157l-164 -280h230l53 280h-119z" />
<glyph unicode="&#xc7;" horiz-adv-x="1478" d="M483 -238q45 -16 90 -16q38 0 63.5 13.5t25.5 39.5q0 37 -76 37l-56 -4l80 158q-245 45 -383.5 215.5t-138.5 419.5q0 173 68.5 333t184 276t275 185.5t332.5 69.5q109 0 207.5 -21.5t161 -52.5t109 -62.5t66.5 -52.5l21 -22l-202 -246q-6 5 -17 14t-47.5 31t-75 39 t-96 31t-114.5 14q-94 0 -177 -31t-141 -82.5t-100.5 -118t-63 -138.5t-20.5 -142q0 -150 87.5 -248t252.5 -98q62 0 129 18t118 43.5t93.5 51t64.5 43.5l23 18l139 -284q-10 -9 -28.5 -23.5t-78.5 -52t-124.5 -66.5t-162 -52.5t-194.5 -23.5h-10l-20 -49q50 -9 88 -42.5 t38 -92.5q0 -61 -25.5 -106t-67 -69t-86 -35t-91.5 -11q-37 0 -75.5 4.5t-58.5 9.5l-19 4z" />
<glyph unicode="&#xc8;" horiz-adv-x="1204" d="M53 0l287 1464h915l-59 -307h-559l-51 -266h444l-61 -307h-445l-53 -277h588l-60 -307h-946zM684 1559l-180 307h338l104 -307h-262z" />
<glyph unicode="&#xc9;" horiz-adv-x="1204" d="M53 0l287 1464h915l-59 -307h-559l-51 -266h444l-61 -307h-445l-53 -277h588l-60 -307h-946zM678 1559l227 307h363l-303 -307h-287z" />
<glyph unicode="&#xca;" horiz-adv-x="1204" d="M53 0l287 1464h915l-59 -307h-559l-51 -266h444l-61 -307h-445l-53 -277h588l-60 -307h-946zM446 1559l265 307h344l141 -307h-266l-64 167h-4l-129 -167h-287z" />
<glyph unicode="&#xcb;" horiz-adv-x="1204" d="M53 0l287 1464h915l-59 -307h-559l-51 -266h444l-61 -307h-445l-53 -277h588l-60 -307h-946zM922 1579l57 287h258l-57 -287h-258zM494 1579l57 287h258l-57 -287h-258z" />
<glyph unicode="&#xcc;" horiz-adv-x="702" d="M53 0l285 1464h358l-284 -1464h-359zM389 1559l-180 307h338l104 -307h-262z" />
<glyph unicode="&#xcd;" horiz-adv-x="702" d="M53 0l285 1464h358l-284 -1464h-359zM381 1559l227 307h363l-303 -307h-287z" />
<glyph unicode="&#xce;" horiz-adv-x="702" d="M53 0l285 1464h358l-284 -1464h-359zM150 1559l264 307h344l141 -307h-266l-64 167h-4l-129 -167h-286z" />
<glyph unicode="&#xcf;" horiz-adv-x="702" d="M53 0l285 1464h358l-284 -1464h-359zM625 1579l57 287h258l-57 -287h-258zM197 1579l57 287h258l-57 -287h-258z" />
<glyph unicode="&#xd0;" horiz-adv-x="1566" d="M92 582l55 286h117l115 596h469q319 0 498.5 -152.5t179.5 -426.5q0 -182 -63.5 -344.5t-175 -281.5t-272.5 -189t-347 -70h-572l113 582h-117zM514 307h148q147 0 261 74t174 197.5t60 273.5q0 149 -87 227t-243 78h-147l-57 -289h213l-56 -286h-213z" />
<glyph unicode="&#xd1;" horiz-adv-x="1566" d="M53 0l285 1464h348l272 -684q17 -43 35.5 -105.5t28.5 -103.5l10 -41h4q15 158 33 250l133 684h359l-285 -1464h-346l-275 682q-17 43 -36 105.5t-29 103.5l-10 41h-5q-12 -158 -30 -250l-133 -682h-359zM569 1559q64 313 305 313q35 0 64 -12.5t48.5 -31t36.5 -36.5 t35.5 -30.5t37.5 -12.5q69 0 90 117h231q-30 -152 -106.5 -233t-196.5 -81q-33 0 -62 12.5t-49 31t-38 36.5t-37 30.5t-37 12.5q-66 0 -90 -116h-232z" />
<glyph unicode="&#xd2;" horiz-adv-x="1671" d="M86 629q0 170 71.5 329.5t188.5 275.5t275 185.5t323 69.5q310 0 500 -179t190 -460q0 -173 -72.5 -335.5t-191 -280t-276 -188.5t-320.5 -71q-155 0 -284.5 49t-217.5 135.5t-137 207.5t-49 262zM455 649q0 -155 90 -250.5t233 -95.5q89 0 177 41t156 110t110.5 167.5 t42.5 205.5q0 150 -90.5 242t-233.5 92q-91 0 -179.5 -40t-155.5 -107.5t-108.5 -163.5t-41.5 -201zM870 1559l-180 307h338l105 -307h-263z" />
<glyph unicode="&#xd3;" horiz-adv-x="1671" d="M86 629q0 170 71.5 329.5t188.5 275.5t275 185.5t323 69.5q310 0 500 -179t190 -460q0 -173 -72.5 -335.5t-191 -280t-276 -188.5t-320.5 -71q-155 0 -284.5 49t-217.5 135.5t-137 207.5t-49 262zM455 649q0 -155 90 -250.5t233 -95.5q89 0 177 41t156 110t110.5 167.5 t42.5 205.5q0 150 -90.5 242t-233.5 92q-91 0 -179.5 -40t-155.5 -107.5t-108.5 -163.5t-41.5 -201zM864 1559l228 307h362l-303 -307h-287z" />
<glyph unicode="&#xd4;" horiz-adv-x="1671" d="M86 629q0 170 71.5 329.5t188.5 275.5t275 185.5t323 69.5q310 0 500 -179t190 -460q0 -173 -72.5 -335.5t-191 -280t-276 -188.5t-320.5 -71q-155 0 -284.5 49t-217.5 135.5t-137 207.5t-49 262zM455 649q0 -155 90 -250.5t233 -95.5q89 0 177 41t156 110t110.5 167.5 t42.5 205.5q0 150 -90.5 242t-233.5 92q-91 0 -179.5 -40t-155.5 -107.5t-108.5 -163.5t-41.5 -201zM633 1559l264 307h344l141 -307h-266l-63 167h-4l-129 -167h-287z" />
<glyph unicode="&#xd5;" horiz-adv-x="1671" d="M86 629q0 170 71.5 329.5t188.5 275.5t275 185.5t323 69.5q310 0 500 -179t190 -460q0 -173 -72.5 -335.5t-191 -280t-276 -188.5t-320.5 -71q-155 0 -284.5 49t-217.5 135.5t-137 207.5t-49 262zM455 649q0 -155 90 -250.5t233 -95.5q89 0 177 41t156 110t110.5 167.5 t42.5 205.5q0 150 -90.5 242t-233.5 92q-91 0 -179.5 -40t-155.5 -107.5t-108.5 -163.5t-41.5 -201zM623 1559q64 313 305 313q35 0 64 -12.5t48.5 -31t36 -36.5t35 -30.5t37.5 -12.5q69 0 90 117h231q-30 -152 -106.5 -233t-196.5 -81q-33 0 -62 12.5t-49 31t-38 36.5 t-37 30.5t-37 12.5q-66 0 -90 -116h-231z" />
<glyph unicode="&#xd6;" horiz-adv-x="1671" d="M86 629q0 170 71.5 329.5t188.5 275.5t275 185.5t323 69.5q310 0 500 -179t190 -460q0 -173 -72.5 -335.5t-191 -280t-276 -188.5t-320.5 -71q-155 0 -284.5 49t-217.5 135.5t-137 207.5t-49 262zM455 649q0 -155 90 -250.5t233 -95.5q89 0 177 41t156 110t110.5 167.5 t42.5 205.5q0 150 -90.5 242t-233.5 92q-91 0 -179.5 -40t-155.5 -107.5t-108.5 -163.5t-41.5 -201zM1108 1579l57 287h258l-57 -287h-258zM680 1579l57 287h258l-57 -287h-258z" />
<glyph unicode="&#xd7;" horiz-adv-x="1370" d="M125 188l373 400l-373 401l188 189l367 -394l369 394l188 -189l-375 -401l375 -400l-188 -188l-369 393l-367 -393z" />
<glyph unicode="&#xd8;" horiz-adv-x="1679" d="M92 629q0 170 71.5 329.5t188.5 275.5t275 185.5t323 69.5q221 0 391 -98l121 131l133 -107l-120 -131q165 -173 165 -434q0 -173 -72.5 -335.5t-191 -280t-276 -188.5t-320.5 -71q-242 0 -415 115l-136 -147l-133 108l142 152q-146 176 -146 426zM1270 827 q0 102 -47 185l-615 -662q74 -47 176 -47q89 0 177 41t156 110t110.5 167.5t42.5 205.5zM461 649q0 -96 35 -168l600 647q-71 33 -150 33q-91 0 -179.5 -40t-155.5 -107.5t-108.5 -163.5t-41.5 -201z" />
<glyph unicode="&#xd9;" horiz-adv-x="1529" d="M129 430q0 58 12 119l178 915h359l-180 -925q-6 -30 -6 -58q0 -87 57 -132.5t158 -45.5q120 0 198 61t101 175l180 925h358l-182 -936q-50 -251 -228.5 -402t-439.5 -151q-116 0 -217.5 30t-179.5 86t-123 143.5t-45 195.5zM803 1559l-180 307h338l104 -307h-262z" />
<glyph unicode="&#xda;" horiz-adv-x="1529" d="M129 430q0 58 12 119l178 915h359l-180 -925q-6 -30 -6 -58q0 -87 57 -132.5t158 -45.5q120 0 198 61t101 175l180 925h358l-182 -936q-50 -251 -228.5 -402t-439.5 -151q-116 0 -217.5 30t-179.5 86t-123 143.5t-45 195.5zM797 1559l227 307h362l-303 -307h-286z" />
<glyph unicode="&#xdb;" horiz-adv-x="1529" d="M129 430q0 58 12 119l178 915h359l-180 -925q-6 -30 -6 -58q0 -87 57 -132.5t158 -45.5q120 0 198 61t101 175l180 925h358l-182 -936q-50 -251 -228.5 -402t-439.5 -151q-116 0 -217.5 30t-179.5 86t-123 143.5t-45 195.5zM565 1559l264 307h345l141 -307h-266l-64 167 h-4l-129 -167h-287z" />
<glyph unicode="&#xdc;" horiz-adv-x="1529" d="M129 430q0 58 12 119l178 915h359l-180 -925q-6 -30 -6 -58q0 -87 57 -132.5t158 -45.5q120 0 198 61t101 175l180 925h358l-182 -936q-50 -251 -228.5 -402t-439.5 -151q-116 0 -217.5 30t-179.5 86t-123 143.5t-45 195.5zM1040 1579l58 287h258l-58 -287h-258z M612 1579l58 287h258l-58 -287h-258z" />
<glyph unicode="&#xdd;" horiz-adv-x="1292" d="M336 0l117 600l-306 864h388l98 -352q12 -44 23.5 -97t17.5 -83l6 -31h4q63 109 129 211l223 352h430l-659 -878l-113 -586h-358zM662 1559l227 307h362l-303 -307h-286z" />
<glyph unicode="&#xde;" horiz-adv-x="1302" d="M53 0l285 1464h358l-43 -217h203q132 0 223 -45q102 -49 157.5 -146t55.5 -225q0 -181 -92.5 -328.5t-243.5 -217.5q-104 -49 -225 -49h-274l-45 -236h-359zM518 543h174q78 0 121 30q51 34 81 94t30 132q0 66 -38 103.5t-110 37.5h-182z" />
<glyph unicode="&#xdf;" horiz-adv-x="1306" d="M14 0l213 1100q18 94 71.5 169.5t128.5 122.5t164 72t183 25q192 0 320.5 -95.5t128.5 -250.5q0 -66 -22 -120.5t-53.5 -89.5t-63.5 -63.5t-54 -57t-22 -56.5q0 -31 20.5 -63.5t49.5 -63.5t58 -65.5t49.5 -82.5t20.5 -102q0 -108 -62.5 -199.5t-163.5 -142.5t-214 -51 q-82 0 -151 10.5t-97 21.5l-29 11l58 284q75 -32 186 -32q46 0 82.5 22.5t36.5 73.5q0 31 -21 63t-51 62t-60.5 62.5t-51.5 75.5t-21 89q0 58 22.5 109t55 86t64.5 65.5t54.5 60.5t22.5 58q0 39 -28.5 62.5t-79.5 23.5q-70 0 -120.5 -32.5t-64.5 -106.5l-204 -1055h-355z " />
<glyph unicode="&#xe0;" horiz-adv-x="1138" d="M-12 248q0 77 31 141t85 107.5t121 75.5t145.5 50t151 26.5t144.5 8.5h14q4 28 4 39q0 97 -133 97q-59 0 -135.5 -24.5t-123.5 -48.5l-46 -24l-76 267q9 5 25 12.5t66 27.5t101 35.5t122.5 28t136.5 12.5q58 0 112.5 -9t111 -33t98.5 -60.5t68.5 -96.5t26.5 -137 q0 -40 -10 -102l-123 -641h-323l12 63q3 16 7.5 32.5t7.5 24.5l3 9h-4q-5 -6 -13.5 -16.5t-39 -37t-64 -47t-86.5 -37t-108 -16.5q-127 0 -218 73t-91 200zM344 313q0 -31 21.5 -49t64.5 -18q67 0 132 59.5t77 126.5l4 23h-33q-37 0 -75 -5t-85 -18.5t-76.5 -44t-29.5 -74.5 zM520 1157l-180 307h338l104 -307h-262z" />
<glyph unicode="&#xe1;" horiz-adv-x="1138" d="M-12 248q0 77 31 141t85 107.5t121 75.5t145.5 50t151 26.5t144.5 8.5h14q4 28 4 39q0 97 -133 97q-59 0 -135.5 -24.5t-123.5 -48.5l-46 -24l-76 267q9 5 25 12.5t66 27.5t101 35.5t122.5 28t136.5 12.5q58 0 112.5 -9t111 -33t98.5 -60.5t68.5 -96.5t26.5 -137 q0 -40 -10 -102l-123 -641h-323l12 63q3 16 7.5 32.5t7.5 24.5l3 9h-4q-5 -6 -13.5 -16.5t-39 -37t-64 -47t-86.5 -37t-108 -16.5q-127 0 -218 73t-91 200zM344 313q0 -31 21.5 -49t64.5 -18q67 0 132 59.5t77 126.5l4 23h-33q-37 0 -75 -5t-85 -18.5t-76.5 -44t-29.5 -74.5 zM514 1157l227 307h363l-303 -307h-287z" />
<glyph unicode="&#xe2;" horiz-adv-x="1138" d="M-12 248q0 77 31 141t85 107.5t121 75.5t145.5 50t151 26.5t144.5 8.5h14q4 28 4 39q0 97 -133 97q-59 0 -135.5 -24.5t-123.5 -48.5l-46 -24l-76 267q9 5 25 12.5t66 27.5t101 35.5t122.5 28t136.5 12.5q58 0 112.5 -9t111 -33t98.5 -60.5t68.5 -96.5t26.5 -137 q0 -40 -10 -102l-123 -641h-323l12 63q3 16 7.5 32.5t7.5 24.5l3 9h-4q-5 -6 -13.5 -16.5t-39 -37t-64 -47t-86.5 -37t-108 -16.5q-127 0 -218 73t-91 200zM344 313q0 -31 21.5 -49t64.5 -18q67 0 132 59.5t77 126.5l4 23h-33q-37 0 -75 -5t-85 -18.5t-76.5 -44t-29.5 -74.5 zM283 1157l264 307h344l141 -307h-266l-64 168h-4l-129 -168h-286z" />
<glyph unicode="&#xe3;" horiz-adv-x="1138" d="M-12 248q0 77 31 141t85 107.5t121 75.5t145.5 50t151 26.5t144.5 8.5h14q4 28 4 39q0 97 -133 97q-59 0 -135.5 -24.5t-123.5 -48.5l-46 -24l-76 267q9 5 25 12.5t66 27.5t101 35.5t122.5 28t136.5 12.5q58 0 112.5 -9t111 -33t98.5 -60.5t68.5 -96.5t26.5 -137 q0 -40 -10 -102l-123 -641h-323l12 63q3 16 7.5 32.5t7.5 24.5l3 9h-4q-5 -6 -13.5 -16.5t-39 -37t-64 -47t-86.5 -37t-108 -16.5q-127 0 -218 73t-91 200zM344 313q0 -31 21.5 -49t64.5 -18q67 0 132 59.5t77 126.5l4 23h-33q-37 0 -75 -5t-85 -18.5t-76.5 -44t-29.5 -74.5 zM272 1157q64 313 306 313q35 0 64 -12.5t48.5 -30.5t36 -36t35 -30.5t37.5 -12.5q69 0 90 116h231q-30 -152 -106.5 -232.5t-196.5 -80.5q-33 0 -62 12.5t-49 30.5t-38 36.5t-37 31t-37 12.5q-66 0 -90 -117h-232z" />
<glyph unicode="&#xe4;" horiz-adv-x="1138" d="M-12 248q0 77 31 141t85 107.5t121 75.5t145.5 50t151 26.5t144.5 8.5h14q4 28 4 39q0 97 -133 97q-59 0 -135.5 -24.5t-123.5 -48.5l-46 -24l-76 267q9 5 25 12.5t66 27.5t101 35.5t122.5 28t136.5 12.5q58 0 112.5 -9t111 -33t98.5 -60.5t68.5 -96.5t26.5 -137 q0 -40 -10 -102l-123 -641h-323l12 63q3 16 7.5 32.5t7.5 24.5l3 9h-4q-5 -6 -13.5 -16.5t-39 -37t-64 -47t-86.5 -37t-108 -16.5q-127 0 -218 73t-91 200zM344 313q0 -31 21.5 -49t64.5 -18q67 0 132 59.5t77 126.5l4 23h-33q-37 0 -75 -5t-85 -18.5t-76.5 -44t-29.5 -74.5 zM758 1178l57 286h258l-57 -286h-258zM330 1178l57 286h258l-57 -286h-258z" />
<glyph unicode="&#xe5;" horiz-adv-x="1138" d="M-12 248q0 77 31 141t85 107.5t121 75.5t145.5 50t151 26.5t144.5 8.5h14q4 28 4 39q0 97 -133 97q-59 0 -135.5 -24.5t-123.5 -48.5l-46 -24l-76 267q9 5 25 12.5t66 27.5t101 35.5t122.5 28t136.5 12.5q58 0 112.5 -9t111 -33t98.5 -60.5t68.5 -96.5t26.5 -137 q0 -40 -10 -102l-123 -641h-323l12 63q3 16 7.5 32.5t7.5 24.5l3 9h-4q-5 -6 -13.5 -16.5t-39 -37t-64 -47t-86.5 -37t-108 -16.5q-127 0 -218 73t-91 200zM344 313q0 -31 21.5 -49t64.5 -18q67 0 132 59.5t77 126.5l4 23h-33q-37 0 -75 -5t-85 -18.5t-76.5 -44t-29.5 -74.5 zM672 1128q-84 0 -143.5 39t-59.5 111q0 96 77 148.5t173 52.5q85 0 145 -40.5t60 -115.5q0 -48 -23.5 -87t-61.5 -61.5t-81 -34.5t-86 -12zM682 1231q36 0 62 25t26 63q0 26 -15.5 41.5t-43.5 15.5q-35 0 -60.5 -26t-25.5 -66q0 -53 57 -53z" />
<glyph unicode="&#xe6;" horiz-adv-x="1744" d="M-12 248q0 77 31 141t85 107.5t121 75.5t145.5 50t151 26.5t144.5 8.5h14q4 20 4 41q0 48 -36.5 71.5t-96.5 23.5q-59 0 -135.5 -24.5t-123.5 -48.5l-46 -24l-76 267q9 5 25 12.5t66 27.5t101 35.5t122.5 28t136.5 12.5q179 0 299 -108h4q146 108 313 108 q218 0 334.5 -112t116.5 -301q0 -43 -10 -94.5t-20 -81.5l-9 -31h-666q0 -96 58.5 -142.5t148.5 -46.5q68 0 146.5 27t122.5 53l44 27l90 -264q-8 -6 -22 -15t-59 -33t-92 -42t-116.5 -33t-136.5 -15q-292 0 -438 187h-4q-10 -17 -24 -34.5t-48 -47t-74 -51t-104 -38 t-137 -16.5q-145 0 -247.5 73t-102.5 200zM1030 662h311q2 24 2 36q0 51 -29.5 83t-82.5 32q-72 0 -123 -41.5t-78 -109.5zM344 313q0 -31 21.5 -49t64.5 -18q67 0 132 59.5t77 126.5l4 23h-33q-37 0 -75 -5t-85 -18.5t-76.5 -44t-29.5 -74.5z" />
<glyph unicode="&#xe7;" horiz-adv-x="1134" d="M281 -238q45 -16 90 -16q38 0 63 13.5t25 39.5q0 37 -76 37l-55 -4l82 160q-181 37 -278 164t-97 303q0 113 47.5 224t131 199t209.5 142.5t271 54.5q84 0 159 -16t122.5 -39t82.5 -45.5t50 -38.5l16 -16l-178 -222q-4 3 -11.5 8.5t-31.5 20t-49.5 25t-64.5 19.5t-78 9 q-95 0 -169.5 -48t-111.5 -116.5t-37 -140.5q0 -89 55 -149t162 -60q67 0 146 32t124 64l46 31l90 -268q-7 -6 -21 -16.5t-60 -36.5t-95.5 -46.5t-124.5 -37t-150 -17.5l-20 -49q50 -9 88.5 -42.5t38.5 -92.5q0 -49 -17.5 -88t-45 -63.5t-64 -40.5t-72 -22.5t-72.5 -6.5 t-75.5 4.5t-57.5 9.5l-20 4z" />
<glyph unicode="&#xe8;" horiz-adv-x="1150" d="M35 436q0 181 79 328.5t218 231t311 83.5q218 0 334.5 -112t116.5 -301q0 -43 -10 -94.5t-20 -81.5l-9 -31h-666q0 -89 54.5 -139t152.5 -50q68 0 146.5 27t122.5 53l44 27l90 -264q-8 -6 -22 -15t-59 -33t-92 -42t-116.5 -33t-136.5 -15q-131 0 -235.5 37t-169.5 101 t-99 146.5t-34 176.5zM436 662h312q2 24 2 36q0 51 -30 83t-83 32q-72 0 -123 -41.5t-78 -109.5zM553 1157l-180 307h338l104 -307h-262z" />
<glyph unicode="&#xe9;" horiz-adv-x="1150" d="M35 436q0 181 79 328.5t218 231t311 83.5q218 0 334.5 -112t116.5 -301q0 -43 -10 -94.5t-20 -81.5l-9 -31h-666q0 -89 54.5 -139t152.5 -50q68 0 146.5 27t122.5 53l44 27l90 -264q-8 -6 -22 -15t-59 -33t-92 -42t-116.5 -33t-136.5 -15q-131 0 -235.5 37t-169.5 101 t-99 146.5t-34 176.5zM436 662h312q2 24 2 36q0 51 -30 83t-83 32q-72 0 -123 -41.5t-78 -109.5zM547 1157l227 307h363l-303 -307h-287z" />
<glyph unicode="&#xea;" horiz-adv-x="1150" d="M35 436q0 181 79 328.5t218 231t311 83.5q218 0 334.5 -112t116.5 -301q0 -43 -10 -94.5t-20 -81.5l-9 -31h-666q0 -89 54.5 -139t152.5 -50q68 0 146.5 27t122.5 53l44 27l90 -264q-8 -6 -22 -15t-59 -33t-92 -42t-116.5 -33t-136.5 -15q-131 0 -235.5 37t-169.5 101 t-99 146.5t-34 176.5zM436 662h312q2 24 2 36q0 51 -30 83t-83 32q-72 0 -123 -41.5t-78 -109.5zM315 1157l265 307h344l141 -307h-266l-64 168h-4l-129 -168h-287z" />
<glyph unicode="&#xeb;" horiz-adv-x="1150" d="M35 436q0 181 79 328.5t218 231t311 83.5q218 0 334.5 -112t116.5 -301q0 -43 -10 -94.5t-20 -81.5l-9 -31h-666q0 -89 54.5 -139t152.5 -50q68 0 146.5 27t122.5 53l44 27l90 -264q-8 -6 -22 -15t-59 -33t-92 -42t-116.5 -33t-136.5 -15q-131 0 -235.5 37t-169.5 101 t-99 146.5t-34 176.5zM436 662h312q2 24 2 36q0 51 -30 83t-83 32q-72 0 -123 -41.5t-78 -109.5zM791 1178l57 286h258l-57 -286h-258zM362 1178l58 286h258l-57 -286h-259z" />
<glyph unicode="&#xec;" horiz-adv-x="614" d="M12 0l203 1055h354l-204 -1055h-353zM264 1157l-180 307h338l104 -307h-262z" />
<glyph unicode="&#xed;" horiz-adv-x="614" d="M12 0l203 1055h354l-204 -1055h-353zM256 1157l227 307h363l-303 -307h-287z" />
<glyph unicode="&#xee;" horiz-adv-x="614" d="M12 0l203 1055h354l-204 -1055h-353zM27 1157l264 307h344l141 -307h-266l-64 168h-4l-129 -168h-286z" />
<glyph unicode="&#xef;" horiz-adv-x="614" d="M12 0l203 1055h354l-204 -1055h-353zM502 1178l57 286h258l-57 -286h-258zM74 1178l57 286h258l-57 -286h-258z" />
<glyph unicode="&#xf0;" horiz-adv-x="1214" d="M195 909l41 201l213 80q-98 51 -185 67l144 254q245 -63 411 -182l385 144l-39 -201l-200 -76q174 -200 174 -485q0 -74 -15 -153.5t-45.5 -163t-81.5 -158t-117 -133.5t-159.5 -93.5t-202.5 -34.5q-119 0 -213.5 34.5t-154.5 95t-91.5 139.5t-31.5 170q0 100 41.5 196 t114.5 171.5t181.5 122t233.5 46.5q36 0 75 -8t60 -16l21 -8h4q-29 73 -127 155zM385 418q0 -67 32 -107.5t103 -40.5q104 0 173 89t69 192q0 60 -37.5 94.5t-106.5 34.5q-111 0 -172 -78t-61 -184z" />
<glyph unicode="&#xf1;" horiz-adv-x="1302" d="M12 0l205 1055h342l-10 -54q-4 -24 -11 -50t-12 -40l-4 -14h4q46 73 147 127.5t206 54.5q71 0 129 -16.5t104.5 -50.5t72 -93t25.5 -139q0 -41 -14 -116l-129 -664h-354l118 606q7 44 7 62q0 90 -95 90q-101 0 -182.5 -86t-103.5 -205l-90 -467h-355zM375 1157 q64 313 305 313q35 0 64 -12.5t48.5 -30.5t36 -36t35 -30.5t37.5 -12.5q69 0 90 116h232q-30 -152 -106.5 -232.5t-196.5 -80.5q-33 0 -62 12.5t-49.5 30.5t-38.5 36.5t-37 31t-37 12.5q-66 0 -90 -117h-231z" />
<glyph unicode="&#xf2;" horiz-adv-x="1298" d="M31 449q0 135 56.5 254.5t148.5 200.5t210.5 128t241.5 47q240 0 393.5 -130t153.5 -343q0 -135 -56.5 -255t-149 -201t-210.5 -128t-241 -47q-241 0 -394 130t-153 344zM389 465q0 -90 54 -142.5t141 -52.5q113 0 203 88t90 226q0 92 -54 146t-139 54q-111 0 -203 -90.5 t-92 -228.5zM608 1157l-180 307h338l104 -307h-262z" />
<glyph unicode="&#xf3;" horiz-adv-x="1298" d="M31 449q0 135 56.5 254.5t148.5 200.5t210.5 128t241.5 47q240 0 393.5 -130t153.5 -343q0 -135 -56.5 -255t-149 -201t-210.5 -128t-241 -47q-241 0 -394 130t-153 344zM389 465q0 -90 54 -142.5t141 -52.5q113 0 203 88t90 226q0 92 -54 146t-139 54q-111 0 -203 -90.5 t-92 -228.5zM602 1157l227 307h363l-303 -307h-287z" />
<glyph unicode="&#xf4;" horiz-adv-x="1298" d="M31 449q0 135 56.5 254.5t148.5 200.5t210.5 128t241.5 47q240 0 393.5 -130t153.5 -343q0 -135 -56.5 -255t-149 -201t-210.5 -128t-241 -47q-241 0 -394 130t-153 344zM389 465q0 -90 54 -142.5t141 -52.5q113 0 203 88t90 226q0 92 -54 146t-139 54q-111 0 -203 -90.5 t-92 -228.5zM371 1157l264 307h344l141 -307h-266l-63 168h-5l-129 -168h-286z" />
<glyph unicode="&#xf5;" horiz-adv-x="1298" d="M31 449q0 135 56.5 254.5t148.5 200.5t210.5 128t241.5 47q240 0 393.5 -130t153.5 -343q0 -135 -56.5 -255t-149 -201t-210.5 -128t-241 -47q-241 0 -394 130t-153 344zM389 465q0 -90 54 -142.5t141 -52.5q113 0 203 88t90 226q0 92 -54 146t-139 54q-111 0 -203 -90.5 t-92 -228.5zM360 1157q64 313 306 313q35 0 64 -12.5t48.5 -30.5t36 -36t35 -30.5t37.5 -12.5q69 0 90 116h231q-30 -152 -106.5 -232.5t-196.5 -80.5q-33 0 -62 12.5t-49 30.5t-38 36.5t-37 31t-37 12.5q-66 0 -90 -117h-232z" />
<glyph unicode="&#xf6;" horiz-adv-x="1298" d="M31 449q0 135 56.5 254.5t148.5 200.5t210.5 128t241.5 47q240 0 393.5 -130t153.5 -343q0 -135 -56.5 -255t-149 -201t-210.5 -128t-241 -47q-241 0 -394 130t-153 344zM389 465q0 -90 54 -142.5t141 -52.5q113 0 203 88t90 226q0 92 -54 146t-139 54q-111 0 -203 -90.5 t-92 -228.5zM846 1178l57 286h258l-57 -286h-258zM418 1178l57 286h258l-57 -286h-258z" />
<glyph unicode="&#xf7;" horiz-adv-x="1478" d="M586 901v277h299v-277h-299zM176 455v266h1118v-266h-1118zM586 0v276h299v-276h-299z" />
<glyph unicode="&#xf8;" horiz-adv-x="1298" d="M31 449q0 135 56.5 254.5t148.5 200.5t210.5 128t241.5 47q170 0 297 -65l123 131l127 -103l-119 -127q119 -129 119 -309q0 -135 -56.5 -255t-149 -201t-210.5 -128t-241 -47q-158 0 -283 58l-127 -135l-127 104l117 125q-127 130 -127 322zM389 465q0 -43 12 -78 l359 383q-32 14 -76 14q-111 0 -203 -90.5t-92 -228.5zM877 584q0 20 -9 65l-346 -373q27 -6 62 -6q113 0 203 88t90 226z" />
<glyph unicode="&#xf9;" horiz-adv-x="1288" d="M57 274q0 36 15 117l129 664h354l-119 -606q-6 -37 -6 -62q0 -90 94 -90q98 0 175 85.5t100 205.5l90 467h354l-205 -1055h-342l11 53l26 105h-4q-47 -75 -141.5 -129t-198.5 -54q-71 0 -129 16.5t-104.5 50.5t-72.5 93t-26 139zM594 1157l-180 307h338l104 -307h-262z " />
<glyph unicode="&#xfa;" horiz-adv-x="1288" d="M57 274q0 36 15 117l129 664h354l-119 -606q-6 -37 -6 -62q0 -90 94 -90q98 0 175 85.5t100 205.5l90 467h354l-205 -1055h-342l11 53l26 105h-4q-47 -75 -141.5 -129t-198.5 -54q-71 0 -129 16.5t-104.5 50.5t-72.5 93t-26 139zM588 1157l227 307h363l-304 -307h-286z " />
<glyph unicode="&#xfb;" horiz-adv-x="1288" d="M57 274q0 36 15 117l129 664h354l-119 -606q-6 -37 -6 -62q0 -90 94 -90q98 0 175 85.5t100 205.5l90 467h354l-205 -1055h-342l11 53l26 105h-4q-47 -75 -141.5 -129t-198.5 -54q-71 0 -129 16.5t-104.5 50.5t-72.5 93t-26 139zM356 1157l265 307h344l141 -307h-266 l-64 168h-4l-129 -168h-287z" />
<glyph unicode="&#xfc;" horiz-adv-x="1288" d="M57 274q0 36 15 117l129 664h354l-119 -606q-6 -37 -6 -62q0 -90 94 -90q98 0 175 85.5t100 205.5l90 467h354l-205 -1055h-342l11 53l26 105h-4q-47 -75 -141.5 -129t-198.5 -54q-71 0 -129 16.5t-104.5 50.5t-72.5 93t-26 139zM831 1178l58 286h258l-57 -286h-259z M403 1178l58 286h258l-57 -286h-259z" />
<glyph unicode="&#xfd;" horiz-adv-x="1120" d="M-33 -102q44 -33 105 -33q125 0 190 106l31 49l-248 1035h369l86 -523q4 -25 6.5 -64t3.5 -65v-26h4q37 92 64 149l235 529h397l-659 -1168q-92 -162 -215.5 -239.5t-245.5 -77.5q-69 0 -138 20.5t-104 41.5l-34 20zM508 1157l227 307h363l-303 -307h-287z" />
<glyph unicode="&#xfe;" horiz-adv-x="1304" d="M-66 -410l363 1874h348l-82 -426q-3 -16 -7.5 -32.5t-7.5 -25.5l-3 -9h4q53 52 127.5 80t152.5 28q190 0 299 -124t109 -334q0 -139 -49.5 -261.5t-131 -205.5t-185.5 -131t-212 -48q-76 0 -152.5 28.5t-123.5 82.5h-4q-4 -37 -14 -90l-78 -406h-353zM451 455 q0 -82 40.5 -134.5t122.5 -52.5q101 0 183 90t82 236q0 86 -44 136t-120 50q-42 0 -87.5 -22.5t-85.5 -62t-65.5 -103t-25.5 -137.5z" />
<glyph unicode="&#xff;" horiz-adv-x="1120" d="M-33 -102q44 -33 105 -33q125 0 190 106l31 49l-248 1035h369l86 -523q4 -25 6.5 -64t3.5 -65v-26h4q37 92 64 149l235 529h397l-659 -1168q-92 -162 -215.5 -239.5t-245.5 -77.5q-69 0 -138 20.5t-104 41.5l-34 20zM752 1178l57 286h258l-57 -286h-258zM324 1178l57 286 h258l-57 -286h-258z" />
<glyph unicode="&#x100;" horiz-adv-x="1370" d="M-117 0l762 1464h412l203 -1464h-359l-31 307h-456l-148 -307h-383zM553 594h289l-29 285q-4 41 -7 103.5t-4 105.5l-1 42h-4q-60 -159 -105 -251zM600 1602l45 229h563l-45 -229h-563z" />
<glyph unicode="&#x101;" horiz-adv-x="1138" d="M-12 248q0 77 31 141t85 107.5t121 75.5t145.5 50t151 26.5t144.5 8.5h14q4 28 4 39q0 97 -133 97q-59 0 -135.5 -24.5t-123.5 -48.5l-46 -24l-76 267q9 5 25 12.5t66 27.5t101 35.5t122.5 28t136.5 12.5q58 0 112.5 -9t111 -33t98.5 -60.5t68.5 -96.5t26.5 -137 q0 -40 -10 -102l-123 -641h-323l12 63q3 16 7.5 32.5t7.5 24.5l3 9h-4q-5 -6 -13.5 -16.5t-39 -37t-64 -47t-86.5 -37t-108 -16.5q-127 0 -218 73t-91 200zM344 313q0 -31 21.5 -49t64.5 -18q67 0 132 59.5t77 126.5l4 23h-33q-37 0 -75 -5t-85 -18.5t-76.5 -44t-29.5 -74.5 zM395 1200l45 230h564l-46 -230h-563z" />
<glyph unicode="&#x102;" horiz-adv-x="1370" d="M-117 0l762 1464h412l203 -1464h-359l-31 307h-456l-148 -307h-383zM553 594h289l-29 285q-4 41 -7 103.5t-4 105.5l-1 42h-4q-60 -159 -105 -251zM895 1548q-105 0 -186 35.5t-121.5 104.5t-22.5 157l4 21h240l-4 -23q-11 -57 17.5 -88t74.5 -31t88 31t53 88l4 23h240 l-4 -21q-30 -145 -134.5 -221t-248.5 -76z" />
<glyph unicode="&#x103;" horiz-adv-x="1138" d="M-12 248q0 77 31 141t85 107.5t121 75.5t145.5 50t151 26.5t144.5 8.5h14q4 28 4 39q0 97 -133 97q-59 0 -135.5 -24.5t-123.5 -48.5l-46 -24l-76 267q9 5 25 12.5t66 27.5t101 35.5t122.5 28t136.5 12.5q58 0 112.5 -9t111 -33t98.5 -60.5t68.5 -96.5t26.5 -137 q0 -40 -10 -102l-123 -641h-323l12 63q3 16 7.5 32.5t7.5 24.5l3 9h-4q-5 -6 -13.5 -16.5t-39 -37t-64 -47t-86.5 -37t-108 -16.5q-127 0 -218 73t-91 200zM344 313q0 -31 21.5 -49t64.5 -18q67 0 132 59.5t77 126.5l4 23h-33q-37 0 -75 -5t-85 -18.5t-76.5 -44t-29.5 -74.5 zM690 1147q-105 0 -186 35.5t-121.5 104.5t-22.5 157l5 20h239l-4 -22q-11 -57 17.5 -88t74.5 -31t88.5 31t53.5 88l4 22h239l-4 -20q-30 -145 -134.5 -221t-248.5 -76z" />
<glyph unicode="&#x104;" horiz-adv-x="1370" d="M848 -258q0 131 172 254v4h-119l-31 307h-456l-148 -307h-383l762 1464h412l203 -1464q-115 -94 -115 -131q0 -17 18.5 -28.5t36.5 -14.5l19 -2l-136 -254q-10 1 -25.5 3.5t-56 14t-71.5 28.5t-56.5 50.5t-25.5 75.5zM553 594h289l-29 285q-4 41 -7 103.5t-4 105.5l-1 42 h-4q-60 -159 -105 -251z" />
<glyph unicode="&#x105;" horiz-adv-x="1138" d="M494 -258q0 131 172 254v4h-84l12 63q3 16 7.5 32.5t7.5 24.5l3 9h-4q-5 -6 -13.5 -16.5t-39 -37t-64 -47t-86.5 -37t-108 -16.5q-127 0 -218 73t-91 200q0 77 31 141t85 107.5t121 75.5t145.5 50t151 26.5t144.5 8.5h14q4 28 4 39q0 97 -133 97q-59 0 -135.5 -24.5 t-123.5 -48.5l-46 -24l-76 267q9 5 25 12.5t66 27.5t101 35.5t122.5 28t136.5 12.5q58 0 112.5 -9t111 -33t98.5 -60.5t68.5 -96.5t26.5 -137q0 -40 -10 -102l-123 -641q-114 -93 -114 -131q0 -17 18.5 -28.5t36.5 -14.5l18 -2l-135 -254q-10 1 -25.5 3.5t-56 14t-71.5 28.5 t-56.5 50.5t-25.5 75.5zM344 313q0 -31 21.5 -49t64.5 -18q67 0 132 59.5t77 126.5l4 23h-33q-37 0 -75 -5t-85 -18.5t-76.5 -44t-29.5 -74.5z" />
<glyph unicode="&#x106;" horiz-adv-x="1478" d="M88 625q0 173 68.5 333t184 276t275 185.5t332.5 69.5q109 0 207.5 -21.5t161 -52.5t109 -62.5t66.5 -52.5l21 -22l-202 -246q-6 5 -17 14t-47.5 31t-75 39t-96 31t-114.5 14q-94 0 -177 -31t-141 -82.5t-100.5 -118t-63 -138.5t-20.5 -142q0 -150 87.5 -248t252.5 -98 q62 0 129 18t118 43.5t93.5 51t64.5 43.5l23 18l139 -284q-10 -9 -28.5 -23.5t-78.5 -52t-124.5 -66.5t-162 -52.5t-194.5 -23.5q-210 0 -367.5 83t-240 230t-82.5 337zM850 1559l227 307h363l-303 -307h-287z" />
<glyph unicode="&#x107;" horiz-adv-x="1132" d="M33 459q0 113 47.5 224t131 199t209.5 142.5t271 54.5q84 0 159 -16t122.5 -39t82.5 -45.5t50 -38.5l16 -16l-178 -222q-4 3 -11.5 8.5t-31.5 20t-49.5 25t-64.5 19.5t-78 9q-95 0 -169.5 -48t-111.5 -116.5t-37 -140.5q0 -89 55 -149t162 -60q67 0 146 32t124 64l46 31 l90 -268l-22 -16.5t-60.5 -37t-96 -47t-125 -37t-151.5 -16.5q-127 0 -228.5 38t-165.5 104t-98 153t-34 189zM553 1157l227 307h363l-303 -307h-287z" />
<glyph unicode="&#x108;" horiz-adv-x="1478" d="M88 625q0 173 68.5 333t184 276t275 185.5t332.5 69.5q109 0 207.5 -21.5t161 -52.5t109 -62.5t66.5 -52.5l21 -22l-202 -246q-6 5 -17 14t-47.5 31t-75 39t-96 31t-114.5 14q-94 0 -177 -31t-141 -82.5t-100.5 -118t-63 -138.5t-20.5 -142q0 -150 87.5 -248t252.5 -98 q62 0 129 18t118 43.5t93.5 51t64.5 43.5l23 18l139 -284q-10 -9 -28.5 -23.5t-78.5 -52t-124.5 -66.5t-162 -52.5t-194.5 -23.5q-210 0 -367.5 83t-240 230t-82.5 337zM618 1559l265 307h344l141 -307h-266l-64 167h-4l-129 -167h-287z" />
<glyph unicode="&#x109;" horiz-adv-x="1132" d="M33 459q0 113 47.5 224t131 199t209.5 142.5t271 54.5q84 0 159 -16t122.5 -39t82.5 -45.5t50 -38.5l16 -16l-178 -222q-4 3 -11.5 8.5t-31.5 20t-49.5 25t-64.5 19.5t-78 9q-95 0 -169.5 -48t-111.5 -116.5t-37 -140.5q0 -89 55 -149t162 -60q67 0 146 32t124 64l46 31 l90 -268l-22 -16.5t-60.5 -37t-96 -47t-125 -37t-151.5 -16.5q-127 0 -228.5 38t-165.5 104t-98 153t-34 189zM322 1157l264 307h344l141 -307h-266l-64 168h-4l-129 -168h-286z" />
<glyph unicode="&#x10a;" horiz-adv-x="1478" d="M88 625q0 173 68.5 333t184 276t275 185.5t332.5 69.5q109 0 207.5 -21.5t161 -52.5t109 -62.5t66.5 -52.5l21 -22l-202 -246q-6 5 -17 14t-47.5 31t-75 39t-96 31t-114.5 14q-94 0 -177 -31t-141 -82.5t-100.5 -118t-63 -138.5t-20.5 -142q0 -150 87.5 -248t252.5 -98 q62 0 129 18t118 43.5t93.5 51t64.5 43.5l23 18l139 -284q-10 -9 -28.5 -23.5t-78.5 -52t-124.5 -66.5t-162 -52.5t-194.5 -23.5q-210 0 -367.5 83t-240 230t-82.5 337zM866 1595l54 271h292l-53 -271h-293z" />
<glyph unicode="&#x10b;" horiz-adv-x="1132" d="M33 459q0 113 47.5 224t131 199t209.5 142.5t271 54.5q84 0 159 -16t122.5 -39t82.5 -45.5t50 -38.5l16 -16l-178 -222q-4 3 -11.5 8.5t-31.5 20t-49.5 25t-64.5 19.5t-78 9q-95 0 -169.5 -48t-111.5 -116.5t-37 -140.5q0 -89 55 -149t162 -60q67 0 146 32t124 64l46 31 l90 -268l-22 -16.5t-60.5 -37t-96 -47t-125 -37t-151.5 -16.5q-127 0 -228.5 38t-165.5 104t-98 153t-34 189zM569 1194l54 270h292l-53 -270h-293z" />
<glyph unicode="&#x10c;" horiz-adv-x="1478" d="M88 625q0 173 68.5 333t184 276t275 185.5t332.5 69.5q109 0 207.5 -21.5t161 -52.5t109 -62.5t66.5 -52.5l21 -22l-202 -246q-6 5 -17 14t-47.5 31t-75 39t-96 31t-114.5 14q-94 0 -177 -31t-141 -82.5t-100.5 -118t-63 -138.5t-20.5 -142q0 -150 87.5 -248t252.5 -98 q62 0 129 18t118 43.5t93.5 51t64.5 43.5l23 18l139 -284q-10 -9 -28.5 -23.5t-78.5 -52t-124.5 -66.5t-162 -52.5t-194.5 -23.5q-210 0 -367.5 83t-240 230t-82.5 337zM842 1559l-142 307h267l63 -168h4l129 168h287l-264 -307h-344z" />
<glyph unicode="&#x10d;" horiz-adv-x="1132" d="M33 459q0 113 47.5 224t131 199t209.5 142.5t271 54.5q84 0 159 -16t122.5 -39t82.5 -45.5t50 -38.5l16 -16l-178 -222q-4 3 -11.5 8.5t-31.5 20t-49.5 25t-64.5 19.5t-78 9q-95 0 -169.5 -48t-111.5 -116.5t-37 -140.5q0 -89 55 -149t162 -60q67 0 146 32t124 64l46 31 l90 -268l-22 -16.5t-60.5 -37t-96 -47t-125 -37t-151.5 -16.5q-127 0 -228.5 38t-165.5 104t-98 153t-34 189zM545 1157l-142 307h267l63 -168h4l129 168h287l-264 -307h-344z" />
<glyph unicode="&#x10e;" horiz-adv-x="1527" d="M55 0l283 1464h469q319 0 498.5 -152.5t179.5 -426.5q0 -182 -63.5 -344.5t-175 -281.5t-272.5 -189t-347 -70h-572zM473 307h148q147 0 261 74t174 197.5t60 273.5q0 149 -87 227t-243 78h-147zM743 1559l-141 307h266l64 -168h4l129 168h287l-265 -307h-344z" />
<glyph unicode="&#x10f;" horiz-adv-x="1370" d="M37 428q0 143 48.5 266t130 206.5t189 131t224.5 47.5q77 0 151.5 -22.5t114.5 -71.5h4q2 27 6 47l84 432h354l-284 -1464h-332l14 70l13 59h-4q-54 -72 -134.5 -113t-169.5 -41q-192 0 -300.5 122.5t-108.5 330.5zM395 455q0 -86 44.5 -136.5t121.5 -50.5q93 0 177.5 93 t84.5 233q0 81 -41 133.5t-123 52.5q-99 0 -181.5 -89.5t-82.5 -235.5zM1436 1464h278v-37q0 -81 -24 -143.5t-84 -148.5h-252q47 85 66.5 141t19.5 127q0 15 -4 61z" />
<glyph unicode="&#x110;" horiz-adv-x="1566" d="M92 582l55 286h117l115 596h469q319 0 498.5 -152.5t179.5 -426.5q0 -182 -63.5 -344.5t-175 -281.5t-272.5 -189t-347 -70h-572l113 582h-117zM514 307h148q147 0 261 74t174 197.5t60 273.5q0 149 -87 227t-243 78h-147l-57 -289h213l-56 -286h-213z" />
<glyph unicode="&#x111;" horiz-adv-x="1306" d="M668 1135l39 194h256l26 135h354l-26 -135h137l-39 -194h-137l-219 -1135h-332l14 70l13 59h-4q-54 -72 -134.5 -113t-169.5 -41q-192 0 -300.5 122.5t-108.5 330.5q0 143 48.5 266t130 206.5t189 131t224.5 47.5q77 0 151.5 -22.5t114.5 -71.5h4q2 27 6 47l19 103h-256z M395 455q0 -86 44.5 -136.5t121.5 -50.5q93 0 177.5 93t84.5 233q0 81 -41 133.5t-123 52.5q-99 0 -181.5 -89.5t-82.5 -235.5z" />
<glyph unicode="&#x112;" horiz-adv-x="1204" d="M53 0l287 1464h915l-59 -307h-559l-51 -266h444l-61 -307h-445l-53 -277h588l-60 -307h-946zM559 1602l45 229h563l-45 -229h-563z" />
<glyph unicode="&#x113;" horiz-adv-x="1150" d="M35 436q0 181 79 328.5t218 231t311 83.5q218 0 334.5 -112t116.5 -301q0 -43 -10 -94.5t-20 -81.5l-9 -31h-666q0 -89 54.5 -139t152.5 -50q68 0 146.5 27t122.5 53l44 27l90 -264q-8 -6 -22 -15t-59 -33t-92 -42t-116.5 -33t-136.5 -15q-131 0 -235.5 37t-169.5 101 t-99 146.5t-34 176.5zM436 662h312q2 24 2 36q0 51 -30 83t-83 32q-72 0 -123 -41.5t-78 -109.5zM428 1200l45 230h563l-45 -230h-563z" />
<glyph unicode="&#x114;" horiz-adv-x="1204" d="M53 0l287 1464h915l-59 -307h-559l-51 -266h444l-61 -307h-445l-53 -277h588l-60 -307h-946zM854 1548q-105 0 -186 35.5t-121.5 104.5t-22.5 157l4 21h240l-4 -23q-11 -57 17.5 -88t74.5 -31t88 31t53 88l4 23h240l-4 -21q-30 -145 -134.5 -221t-248.5 -76z" />
<glyph unicode="&#x115;" horiz-adv-x="1150" d="M35 436q0 181 79 328.5t218 231t311 83.5q218 0 334.5 -112t116.5 -301q0 -43 -10 -94.5t-20 -81.5l-9 -31h-666q0 -89 54.5 -139t152.5 -50q68 0 146.5 27t122.5 53l44 27l90 -264q-8 -6 -22 -15t-59 -33t-92 -42t-116.5 -33t-136.5 -15q-131 0 -235.5 37t-169.5 101 t-99 146.5t-34 176.5zM436 662h312q2 24 2 36q0 51 -30 83t-83 32q-72 0 -123 -41.5t-78 -109.5zM723 1147q-105 0 -186 35.5t-121.5 104.5t-22.5 157l4 20h240l-4 -22q-11 -57 17.5 -88t74.5 -31t88 31t53 88l4 22h240l-4 -20q-30 -145 -134.5 -221t-248.5 -76z" />
<glyph unicode="&#x116;" horiz-adv-x="1204" d="M53 0l287 1464h915l-59 -307h-559l-51 -266h444l-61 -307h-445l-53 -277h588l-60 -307h-946zM694 1595l54 271h292l-53 -271h-293z" />
<glyph unicode="&#x117;" horiz-adv-x="1150" d="M35 436q0 181 79 328.5t218 231t311 83.5q218 0 334.5 -112t116.5 -301q0 -43 -10 -94.5t-20 -81.5l-9 -31h-666q0 -89 54.5 -139t152.5 -50q68 0 146.5 27t122.5 53l44 27l90 -264q-8 -6 -22 -15t-59 -33t-92 -42t-116.5 -33t-136.5 -15q-131 0 -235.5 37t-169.5 101 t-99 146.5t-34 176.5zM436 662h312q2 24 2 36q0 51 -30 83t-83 32q-72 0 -123 -41.5t-78 -109.5zM563 1194l53 270h293l-53 -270h-293z" />
<glyph unicode="&#x118;" horiz-adv-x="1204" d="M53 0l287 1464h915l-59 -307h-559l-51 -266h444l-61 -307h-445l-53 -277h588l-60 -307q-114 -93 -114 -131q0 -17 18.5 -28.5t36.5 -14.5l18 -2l-135 -254q-10 1 -25.5 3.5t-56 14t-71.5 28.5t-56.5 50.5t-25.5 75.5q0 131 172 254v4h-707z" />
<glyph unicode="&#x119;" horiz-adv-x="1157" d="M37 436q0 181 79 328.5t218 231t311 83.5q218 0 334.5 -112t116.5 -301q0 -43 -10 -94.5t-20 -81.5l-9 -31h-666q0 -89 54.5 -139t152.5 -50q68 0 146.5 27t122.5 53l44 27l90 -264q-10 -8 -95.5 -57.5t-139 -96.5t-53.5 -90q0 -17 19.5 -28.5t39.5 -14.5l19 -2 l-136 -254q-10 1 -25.5 3.5t-56 14t-71.5 28.5t-56.5 50.5t-25.5 75.5q0 121 145 229v4q-129 1 -231 38.5t-166 101.5t-97.5 145.5t-33.5 175.5zM438 662h312q2 24 2 36q0 51 -30 83t-83 32q-72 0 -123 -41.5t-78 -109.5z" />
<glyph unicode="&#x11a;" horiz-adv-x="1204" d="M53 0l287 1464h915l-59 -307h-559l-51 -266h444l-61 -307h-445l-53 -277h588l-60 -307h-946zM670 1559l-142 307h267l63 -168h4l129 168h287l-264 -307h-344z" />
<glyph unicode="&#x11b;" horiz-adv-x="1150" d="M35 436q0 181 79 328.5t218 231t311 83.5q218 0 334.5 -112t116.5 -301q0 -43 -10 -94.5t-20 -81.5l-9 -31h-666q0 -89 54.5 -139t152.5 -50q68 0 146.5 27t122.5 53l44 27l90 -264q-8 -6 -22 -15t-59 -33t-92 -42t-116.5 -33t-136.5 -15q-131 0 -235.5 37t-169.5 101 t-99 146.5t-34 176.5zM436 662h312q2 24 2 36q0 51 -30 83t-83 32q-72 0 -123 -41.5t-78 -109.5zM539 1157l-142 307h267l63 -168h4l129 168h287l-264 -307h-344z" />
<glyph unicode="&#x11c;" horiz-adv-x="1579" d="M90 623q0 174 68 333.5t184 276.5t281 186.5t350 69.5q106 0 202.5 -19.5t159.5 -47.5t110.5 -55.5t68.5 -46.5l22 -20l-207 -247q-5 4 -15.5 11.5t-44.5 26t-72 33t-96.5 26t-119.5 11.5q-126 0 -227.5 -45.5t-163.5 -120t-94.5 -164t-32.5 -184.5q0 -168 98 -256 t246 -88q48 0 98.5 11t88 26.5t68 31.5t46.5 27l16 11l23 112h-207l59 305h525l-162 -827h-299l8 41l14 61h-4q-5 -5 -14 -13.5t-42 -30.5t-71 -39t-100.5 -30.5t-130.5 -13.5q-122 0 -235 44t-202 124t-142.5 205t-53.5 275zM618 1559l265 307h344l141 -307h-266l-64 167 h-4l-129 -167h-287z" />
<glyph unicode="&#x11d;" horiz-adv-x="1286" d="M125 -68q4 -3 12 -7.5t36 -16t59 -20.5t80.5 -16t101.5 -7q107 0 185 47.5t97 155.5l6 34l9 39h-2q-54 -57 -113.5 -83.5t-140.5 -26.5q-102 0 -181.5 34.5t-128.5 95.5t-74.5 140t-25.5 172q0 112 38.5 219.5t108 194t178.5 139.5t238 53q199 0 283 -112h6q2 20 4 32 l10 56h332l-190 -979q-22 -111 -70 -199t-109.5 -144.5t-138.5 -94t-154 -53t-159 -15.5q-81 0 -155.5 11t-123.5 27t-86 32t-54 27l-17 11zM403 504q0 -80 40 -129t122 -49q74 0 131.5 49.5t85 117.5t27.5 138q0 153 -170 153q-107 0 -171.5 -80.5t-64.5 -199.5zM340 1157 l264 307h344l142 -307h-267l-63 168h-4l-129 -168h-287z" />
<glyph unicode="&#x11e;" horiz-adv-x="1579" d="M90 623q0 174 68 333.5t184 276.5t281 186.5t350 69.5q106 0 202.5 -19.5t159.5 -47.5t110.5 -55.5t68.5 -46.5l22 -20l-207 -247q-5 4 -15.5 11.5t-44.5 26t-72 33t-96.5 26t-119.5 11.5q-126 0 -227.5 -45.5t-163.5 -120t-94.5 -164t-32.5 -184.5q0 -168 98 -256 t246 -88q48 0 98.5 11t88 26.5t68 31.5t46.5 27l16 11l23 112h-207l59 305h525l-162 -827h-299l8 41l14 61h-4q-5 -5 -14 -13.5t-42 -30.5t-71 -39t-100.5 -30.5t-130.5 -13.5q-122 0 -235 44t-202 124t-142.5 205t-53.5 275zM1026 1548q-105 0 -186 35.5t-121.5 104.5 t-22.5 157l4 21h240l-4 -23q-11 -57 17.5 -88t74.5 -31t88 31t53 88l5 23h239l-4 -21q-30 -145 -134.5 -221t-248.5 -76z" />
<glyph unicode="&#x11f;" horiz-adv-x="1286" d="M125 -68q4 -3 12 -7.5t36 -16t59 -20.5t80.5 -16t101.5 -7q107 0 185 47.5t97 155.5l6 34l9 39h-2q-54 -57 -113.5 -83.5t-140.5 -26.5q-102 0 -181.5 34.5t-128.5 95.5t-74.5 140t-25.5 172q0 112 38.5 219.5t108 194t178.5 139.5t238 53q199 0 283 -112h6q2 20 4 32 l10 56h332l-190 -979q-22 -111 -70 -199t-109.5 -144.5t-138.5 -94t-154 -53t-159 -15.5q-81 0 -155.5 11t-123.5 27t-86 32t-54 27l-17 11zM403 504q0 -80 40 -129t122 -49q74 0 131.5 49.5t85 117.5t27.5 138q0 153 -170 153q-107 0 -171.5 -80.5t-64.5 -199.5zM748 1147 q-105 0 -186 35.5t-121.5 104.5t-22.5 157l4 20h240l-5 -22q-11 -57 18 -88t75 -31t88 31t53 88l4 22h240l-5 -20q-30 -145 -134 -221t-248 -76z" />
<glyph unicode="&#x120;" horiz-adv-x="1579" d="M90 623q0 174 68 333.5t184 276.5t281 186.5t350 69.5q106 0 202.5 -19.5t159.5 -47.5t110.5 -55.5t68.5 -46.5l22 -20l-207 -247q-5 4 -15.5 11.5t-44.5 26t-72 33t-96.5 26t-119.5 11.5q-126 0 -227.5 -45.5t-163.5 -120t-94.5 -164t-32.5 -184.5q0 -168 98 -256 t246 -88q48 0 98.5 11t88 26.5t68 31.5t46.5 27l16 11l23 112h-207l59 305h525l-162 -827h-299l8 41l14 61h-4q-5 -5 -14 -13.5t-42 -30.5t-71 -39t-100.5 -30.5t-130.5 -13.5q-122 0 -235 44t-202 124t-142.5 205t-53.5 275zM866 1595l54 271h292l-53 -271h-293z" />
<glyph unicode="&#x121;" horiz-adv-x="1286" d="M125 -68q4 -3 12 -7.5t36 -16t59 -20.5t80.5 -16t101.5 -7q107 0 185 47.5t97 155.5l6 34l9 39h-2q-54 -57 -113.5 -83.5t-140.5 -26.5q-102 0 -181.5 34.5t-128.5 95.5t-74.5 140t-25.5 172q0 112 38.5 219.5t108 194t178.5 139.5t238 53q199 0 283 -112h6q2 20 4 32 l10 56h332l-190 -979q-22 -111 -70 -199t-109.5 -144.5t-138.5 -94t-154 -53t-159 -15.5q-81 0 -155.5 11t-123.5 27t-86 32t-54 27l-17 11zM403 504q0 -80 40 -129t122 -49q74 0 131.5 49.5t85 117.5t27.5 138q0 153 -170 153q-107 0 -171.5 -80.5t-64.5 -199.5zM588 1194 l53 270h293l-53 -270h-293z" />
<glyph unicode="&#x122;" horiz-adv-x="1579" d="M90 623q0 174 68 333.5t184 276.5t281 186.5t350 69.5q106 0 202.5 -19.5t159.5 -47.5t110.5 -55.5t68.5 -46.5l22 -20l-207 -247q-5 4 -15.5 11.5t-44.5 26t-72 33t-96.5 26t-119.5 11.5q-126 0 -227.5 -45.5t-163.5 -120t-94.5 -164t-32.5 -184.5q0 -168 98 -256 t246 -88q48 0 98.5 11t88 26.5t68 31.5t46.5 27l16 11l23 112h-207l59 305h525l-162 -827h-299l8 41l14 61h-4q-5 -5 -14 -13.5t-42 -30.5t-71 -39t-100.5 -30.5t-130.5 -13.5q-122 0 -235 44t-202 124t-142.5 205t-53.5 275zM512 -100h279v-37q0 -81 -24 -144t-85 -149 h-252q47 85 66.5 141t19.5 127q0 16 -4 62z" />
<glyph unicode="&#x123;" horiz-adv-x="1286" d="M125 -68q4 -3 12 -7.5t36 -16t59 -20.5t80.5 -16t101.5 -7q107 0 185 47.5t97 155.5l6 34l9 39h-2q-54 -57 -113.5 -83.5t-140.5 -26.5q-102 0 -181.5 34.5t-128.5 95.5t-74.5 140t-25.5 172q0 112 38.5 219.5t108 194t178.5 139.5t238 53q199 0 283 -112h6q2 20 4 32 l10 56h332l-190 -979q-22 -111 -70 -199t-109.5 -144.5t-138.5 -94t-154 -53t-159 -15.5q-81 0 -155.5 11t-123.5 27t-86 32t-54 27l-17 11zM403 504q0 -80 40 -129t122 -49q74 0 131.5 49.5t85 117.5t27.5 138q0 153 -170 153q-107 0 -171.5 -80.5t-64.5 -199.5zM1102 1147 h-277v37q0 76 24.5 137t84.5 143h250q-47 -81 -66.5 -135.5t-19.5 -122.5q0 -13 4 -59z" />
<glyph unicode="&#x124;" horiz-adv-x="1593" d="M53 0l285 1464h358l-114 -585h532l115 585h358l-284 -1464h-359l111 573h-533l-110 -573h-359zM596 1559l264 307h344l142 -307h-267l-63 167h-4l-129 -167h-287z" />
<glyph unicode="&#x125;" horiz-adv-x="1302" d="M12 0l285 1464h354l-90 -463l-20 -90h4q45 71 139.5 119.5t194.5 48.5q71 0 129 -16.5t104.5 -50.5t72 -93t25.5 -139q0 -41 -14 -116l-129 -664h-354l118 606q7 44 7 62q0 90 -95 90q-101 0 -182.5 -86t-103.5 -205l-90 -467h-355zM109 1559l264 307h344l141 -307h-266 l-64 167h-4l-129 -167h-286z" />
<glyph unicode="&#x126;" horiz-adv-x="1679" d="M176 1059l43 219h125l37 186h358l-37 -186h533l37 186h358l-37 -186h123l-43 -219h-123l-204 -1059h-359l111 573h-533l-110 -573h-359l205 1059h-125zM625 879h532l35 180h-533z" />
<glyph unicode="&#x127;" horiz-adv-x="1304" d="M117 1135l37 194h118l27 135h354l-26 -135h274l-37 -194h-276l-25 -134l-20 -90h4q45 71 139.5 119.5t194.5 48.5q71 0 129 -16.5t104.5 -50.5t72 -93t25.5 -139q0 -41 -14 -116l-129 -664h-354l119 606q6 38 6 62q0 90 -95 90q-101 0 -182.5 -86t-103.5 -205l-90 -467 h-355l219 1135h-116z" />
<glyph unicode="&#x128;" horiz-adv-x="702" d="M53 0l285 1464h358l-284 -1464h-359zM139 1559q64 313 305 313q35 0 64 -12.5t48.5 -31t36.5 -36.5t35.5 -30.5t37.5 -12.5q69 0 90 117h231q-30 -152 -106.5 -233t-196.5 -81q-33 0 -62 12.5t-49 31t-38 36.5t-37 30.5t-37 12.5q-66 0 -90 -116h-232z" />
<glyph unicode="&#x129;" horiz-adv-x="614" d="M12 0l203 1055h354l-204 -1055h-353zM16 1157q64 313 306 313q35 0 64 -12.5t48.5 -30.5t36 -36t35 -30.5t37.5 -12.5q69 0 90 116h231q-30 -152 -106.5 -232.5t-196.5 -80.5q-33 0 -62 12.5t-49 30.5t-38 36.5t-37 31t-37 12.5q-66 0 -90 -117h-232z" />
<glyph unicode="&#x12a;" horiz-adv-x="702" d="M53 0l285 1464h358l-284 -1464h-359zM262 1602l45 229h563l-45 -229h-563z" />
<glyph unicode="&#x12b;" horiz-adv-x="614" d="M12 0l203 1055h354l-204 -1055h-353zM139 1200l45 230h564l-46 -230h-563z" />
<glyph unicode="&#x12c;" horiz-adv-x="702" d="M53 0l285 1464h358l-284 -1464h-359zM557 1548q-105 0 -186 35.5t-121.5 104.5t-22.5 157l4 21h240l-4 -23q-11 -57 17.5 -88t74.5 -31t88 31t53 88l5 23h239l-4 -21q-30 -145 -134.5 -221t-248.5 -76z" />
<glyph unicode="&#x12d;" horiz-adv-x="614" d="M12 0l203 1055h354l-204 -1055h-353zM434 1147q-105 0 -186 35.5t-121.5 104.5t-22.5 157l5 20h239l-4 -22q-11 -57 17.5 -88t74.5 -31t88.5 31t53.5 88l4 22h239l-4 -20q-30 -145 -134.5 -221t-248.5 -76z" />
<glyph unicode="&#x12e;" horiz-adv-x="702" d="M53 0l285 1464h358l-284 -1464q-115 -94 -115 -131q0 -17 18.5 -28.5t36.5 -14.5l19 -2l-135 -254q-10 1 -25.5 3.5t-56.5 14t-72 28.5t-56.5 50.5t-25.5 75.5q0 131 172 254v4h-119z" />
<glyph unicode="&#x12f;" horiz-adv-x="614" d="M12 0l203 1055h354l-204 -1055q-115 -94 -115 -131q0 -17 18.5 -28.5t37.5 -14.5l18 -2l-136 -254q-10 1 -25.5 3.5t-56 14t-71.5 28.5t-56.5 50.5t-25.5 75.5q0 131 172 254v4h-113zM246 1188l53 276h346l-53 -276h-346z" />
<glyph unicode="&#x130;" horiz-adv-x="702" d="M53 0l285 1464h358l-284 -1464h-359zM397 1595l54 271h292l-53 -271h-293z" />
<glyph unicode="&#x131;" horiz-adv-x="614" d="M12 0l203 1055h354l-204 -1055h-353z" />
<glyph unicode="&#x132;" horiz-adv-x="1421" d="M551 -8l61 323q36 0 77 11.5t85 36.5t79 74.5t48 115.5l176 911h359l-179 -915q-27 -138 -80 -240t-118 -161.5t-152.5 -95.5t-170.5 -48t-185 -12zM53 0l285 1464h358l-284 -1464h-359z" />
<glyph unicode="&#x133;" horiz-adv-x="1230" d="M246 1188l53 276h346l-53 -276h-346zM12 0l203 1055h354l-204 -1055h-353zM862 1188l53 276h347l-54 -276h-346zM629 8l202 1047h355l-209 -1078q-20 -102 -69 -179t-105.5 -118t-129 -66.5t-126.5 -32.5t-111 -7q-34 0 -65 1.5t-45 2.5l-15 2l58 295q18 -2 45 -2 q32 0 61 5t63 17.5t58.5 41.5t32.5 71z" />
<glyph unicode="&#x134;" horiz-adv-x="1171" d="M2 365q0 57 10 106l17 86h358l-14 -76q-8 -50 -8 -67q0 -111 108 -111q59 0 100 38.5t56 115.5l137 700h-391l59 307h750l-201 -1034q-28 -149 -107.5 -254t-184 -153t-226.5 -48q-124 0 -227.5 42.5t-169.5 133t-66 214.5zM432 1559l264 307h344l142 -307h-267l-63 167 h-4l-129 -167h-287z" />
<glyph unicode="&#x135;" horiz-adv-x="616" d="M27 1157l264 307h344l141 -307h-266l-64 168h-4l-129 -168h-286zM14 8l203 1047h354l-209 -1078q-14 -74 -43.5 -135t-66 -102t-83 -72t-90.5 -48.5t-93.5 -28t-87 -14t-76.5 -3.5q-34 0 -65 1.5t-45 2.5l-15 2l57 295q18 -2 45 -2q32 0 61 5t63 17.5t58.5 41.5t32.5 71z " />
<glyph unicode="&#x136;" horiz-adv-x="1427" d="M53 0l285 1464h358l-110 -565h137l420 565h416l-555 -719v-4l266 -741h-381l-195 594h-168l-114 -594h-359zM459 -100h278v-37q0 -81 -24 -144t-84 -149h-252q47 85 66.5 141t19.5 127q0 16 -4 62z" />
<glyph unicode="&#x137;" horiz-adv-x="1230" d="M12 0l285 1464h354l-147 -757h96l279 348h411l-424 -500v-4l236 -551h-375l-154 410h-127l-79 -410h-355zM424 -100h278v-37q0 -81 -24 -144t-84 -149h-252q47 85 66.5 141t19.5 127q0 16 -4 62z" />
<glyph unicode="&#x138;" horiz-adv-x="1226" d="M12 0l207 1055h354l-71 -369h100l287 369h411l-440 -520v-5l232 -530h-383l-138 389h-129l-75 -389h-355z" />
<glyph unicode="&#x139;" horiz-adv-x="1144" d="M53 0l285 1464h358l-225 -1157h598l-61 -307h-955zM379 1559l227 307h363l-303 -307h-287z" />
<glyph unicode="&#x13a;" horiz-adv-x="661" d="M61 281q0 55 15 129l205 1054h354l-197 -1015q-10 -45 -10 -80q0 -68 80 -68l43 2l-59 -307q-48 -6 -97 -6q-334 0 -334 291zM319 1559l228 307h362l-303 -307h-287z" />
<glyph unicode="&#x13b;" horiz-adv-x="1144" d="M53 0l285 1464h358l-225 -1157h598l-61 -307h-955zM377 -100h278v-37q0 -81 -24 -144t-84 -149h-252q47 85 66.5 141t19.5 127q0 16 -4 62z" />
<glyph unicode="&#x13c;" horiz-adv-x="661" d="M61 281q0 55 15 129l205 1054h354l-197 -1015q-10 -45 -10 -80q0 -68 80 -68l43 2l-59 -307q-48 -6 -97 -6q-334 0 -334 291zM96 -100h279v-37q0 -81 -24 -144t-85 -149h-252q47 85 66.5 141t19.5 127q0 16 -4 62z" />
<glyph unicode="&#x13d;" horiz-adv-x="1144" d="M53 0l285 1464h358l-225 -1157h598l-61 -307h-955zM840 1464h278v-37q0 -81 -24 -143.5t-84 -148.5h-252q47 85 66.5 141t19.5 127q0 15 -4 61z" />
<glyph unicode="&#x13e;" horiz-adv-x="722" d="M61 281q0 55 15 129l205 1054h354l-197 -1015q-10 -45 -10 -80q0 -68 80 -68l43 2l-59 -307q-48 -6 -97 -6q-334 0 -334 291zM731 1464h279v-37q0 -81 -24 -143.5t-85 -148.5h-252q47 85 66.5 141t19.5 127q0 15 -4 61z" />
<glyph unicode="&#x13f;" horiz-adv-x="1144" d="M53 0l285 1464h358l-225 -1157h598l-61 -307h-955zM729 645l64 336h323l-63 -336h-324z" />
<glyph unicode="&#x140;" horiz-adv-x="956" d="M61 281q0 55 15 129l205 1054h354l-197 -1015q-10 -45 -10 -80q0 -68 80 -68l43 2l-59 -307q-48 -6 -97 -6q-334 0 -334 291zM645 645l64 336h323l-63 -336h-324z" />
<glyph unicode="&#x141;" horiz-adv-x="1196" d="M72 358l63 340l119 62l137 704h359l-99 -499l232 118l-66 -340l-231 -118l-62 -318h598l-59 -307h-957l80 418z" />
<glyph unicode="&#x142;" horiz-adv-x="755" d="M37 399l65 340l111 58l131 667h354l-90 -463l158 82l-66 -340l-157 -81l-41 -213q-10 -45 -10 -80q0 -68 79 -68l43 2l-59 -307q-47 -6 -96 -6q-334 0 -334 291q0 60 14 129l8 47z" />
<glyph unicode="&#x143;" horiz-adv-x="1566" d="M53 0l285 1464h348l272 -684q17 -43 35.5 -105.5t28.5 -103.5l10 -41h4q15 158 33 250l133 684h359l-285 -1464h-346l-275 682q-17 43 -36 105.5t-29 103.5l-10 41h-5q-12 -158 -30 -250l-133 -682h-359zM811 1559l227 307h363l-303 -307h-287z" />
<glyph unicode="&#x144;" horiz-adv-x="1302" d="M12 0l205 1055h342l-10 -54q-4 -24 -11 -50t-12 -40l-4 -14h4q46 73 147 127.5t206 54.5q71 0 129 -16.5t104.5 -50.5t72 -93t25.5 -139q0 -41 -14 -116l-129 -664h-354l118 606q7 44 7 62q0 90 -95 90q-101 0 -182.5 -86t-103.5 -205l-90 -467h-355zM616 1157l228 307 h362l-303 -307h-287z" />
<glyph unicode="&#x145;" horiz-adv-x="1566" d="M53 0l285 1464h348l272 -684q17 -43 35.5 -105.5t28.5 -103.5l10 -41h4q15 158 33 250l133 684h359l-285 -1464h-346l-275 682q-17 43 -36 105.5t-29 103.5l-10 41h-5q-12 -158 -30 -250l-133 -682h-359zM532 -100h279v-37q0 -81 -24 -144t-85 -149h-251q47 85 66.5 141 t19.5 127q0 4 -5 62z" />
<glyph unicode="&#x146;" horiz-adv-x="1302" d="M12 0l205 1055h342l-10 -54q-4 -24 -11 -50t-12 -40l-4 -14h4q46 73 147 127.5t206 54.5q71 0 129 -16.5t104.5 -50.5t72 -93t25.5 -139q0 -41 -14 -116l-129 -664h-354l118 606q7 44 7 62q0 90 -95 90q-101 0 -182.5 -86t-103.5 -205l-90 -467h-355zM395 -100h279v-37 q0 -81 -24 -144t-85 -149h-252q47 85 66.5 141t19.5 127q0 16 -4 62z" />
<glyph unicode="&#x147;" horiz-adv-x="1566" d="M53 0l285 1464h348l272 -684q17 -43 35.5 -105.5t28.5 -103.5l10 -41h4q15 158 33 250l133 684h359l-285 -1464h-346l-275 682q-17 43 -36 105.5t-29 103.5l-10 41h-5q-12 -158 -30 -250l-133 -682h-359zM803 1559l-141 307h266l63 -168h4l129 168h287l-264 -307h-344z " />
<glyph unicode="&#x148;" horiz-adv-x="1302" d="M12 0l205 1055h342l-10 -54q-4 -24 -11 -50t-12 -40l-4 -14h4q46 73 147 127.5t206 54.5q71 0 129 -16.5t104.5 -50.5t72 -93t25.5 -139q0 -41 -14 -116l-129 -664h-354l118 606q7 44 7 62q0 90 -95 90q-101 0 -182.5 -86t-103.5 -205l-90 -467h-355zM608 1157l-141 307 h266l64 -168h4l129 168h287l-265 -307h-344z" />
<glyph unicode="&#x149;" horiz-adv-x="1302" d="M12 0l205 1055h342l-10 -54q-4 -24 -11 -50t-12 -40l-4 -14h4q46 73 147 127.5t206 54.5q71 0 129 -16.5t104.5 -50.5t72 -93t25.5 -139q0 -41 -14 -116l-129 -664h-354l118 606q7 44 7 62q0 90 -95 90q-101 0 -182.5 -86t-103.5 -205l-90 -467h-355zM100 1464h279v-37 q0 -81 -24 -143.5t-85 -148.5h-252q47 85 66.5 141t19.5 127q0 15 -4 61z" />
<glyph unicode="&#x14a;" horiz-adv-x="1564" d="M53 0l285 1464h348l272 -684q17 -43 35.5 -105.5t28.5 -103.5l10 -41h4q15 158 33 250l133 684h359l-258 -1325q-20 -105 -56 -190t-78.5 -142t-99 -99.5t-110 -66t-120.5 -37.5t-121.5 -18t-121.5 -4l61 324q66 0 142.5 29t120.5 92l-265 655q-17 43 -36 105.5 t-29 103.5l-10 41h-5q-12 -158 -30 -250l-133 -682h-359z" />
<glyph unicode="&#x14b;" horiz-adv-x="1302" d="M12 0l205 1055h342l-10 -54q-4 -24 -11 -50t-12 -40l-4 -14h4q46 73 147 127.5t206 54.5q71 0 129 -16.5t104.5 -50.5t72 -93t25.5 -139q0 -41 -14 -116l-133 -687q-20 -102 -69 -179t-105.5 -118t-129 -66.5t-126.5 -32.5t-111 -7q-34 0 -65 1.5t-45 2.5l-15 2l58 295 q18 -2 45 -2q32 0 61 5t63 17.5t58.5 41.5t32.5 71l116 598q7 44 7 62q0 90 -95 90q-101 0 -182.5 -86t-103.5 -205l-90 -467h-355z" />
<glyph unicode="&#x14c;" horiz-adv-x="1671" d="M86 629q0 170 71.5 329.5t188.5 275.5t275 185.5t323 69.5q310 0 500 -179t190 -460q0 -173 -72.5 -335.5t-191 -280t-276 -188.5t-320.5 -71q-155 0 -284.5 49t-217.5 135.5t-137 207.5t-49 262zM455 649q0 -155 90 -250.5t233 -95.5q89 0 177 41t156 110t110.5 167.5 t42.5 205.5q0 150 -90.5 242t-233.5 92q-91 0 -179.5 -40t-155.5 -107.5t-108.5 -163.5t-41.5 -201zM745 1602l46 229h563l-45 -229h-564z" />
<glyph unicode="&#x14d;" horiz-adv-x="1298" d="M31 449q0 135 56.5 254.5t148.5 200.5t210.5 128t241.5 47q240 0 393.5 -130t153.5 -343q0 -135 -56.5 -255t-149 -201t-210.5 -128t-241 -47q-241 0 -394 130t-153 344zM389 465q0 -90 54 -142.5t141 -52.5q113 0 203 88t90 226q0 92 -54 146t-139 54q-111 0 -203 -90.5 t-92 -228.5zM483 1200l45 230h564l-45 -230h-564z" />
<glyph unicode="&#x14e;" horiz-adv-x="1671" d="M86 629q0 170 71.5 329.5t188.5 275.5t275 185.5t323 69.5q310 0 500 -179t190 -460q0 -173 -72.5 -335.5t-191 -280t-276 -188.5t-320.5 -71q-155 0 -284.5 49t-217.5 135.5t-137 207.5t-49 262zM455 649q0 -155 90 -250.5t233 -95.5q89 0 177 41t156 110t110.5 167.5 t42.5 205.5q0 150 -90.5 242t-233.5 92q-91 0 -179.5 -40t-155.5 -107.5t-108.5 -163.5t-41.5 -201zM1040 1548q-105 0 -186 35.5t-121 104.5t-22 157l4 21h239l-4 -23q-11 -57 17.5 -88t74.5 -31t88.5 31t53.5 88l4 23h239l-4 -21q-30 -145 -134.5 -221t-248.5 -76z" />
<glyph unicode="&#x14f;" horiz-adv-x="1298" d="M31 449q0 135 56.5 254.5t148.5 200.5t210.5 128t241.5 47q240 0 393.5 -130t153.5 -343q0 -135 -56.5 -255t-149 -201t-210.5 -128t-241 -47q-241 0 -394 130t-153 344zM389 465q0 -90 54 -142.5t141 -52.5q113 0 203 88t90 226q0 92 -54 146t-139 54q-111 0 -203 -90.5 t-92 -228.5zM778 1147q-105 0 -186 35.5t-121 104.5t-22 157l4 20h239l-4 -22q-11 -57 17.5 -88t74.5 -31t88.5 31t53.5 88l4 22h239l-4 -20q-30 -145 -134.5 -221t-248.5 -76z" />
<glyph unicode="&#x150;" horiz-adv-x="1671" d="M86 629q0 170 71.5 329.5t188.5 275.5t275 185.5t323 69.5q310 0 500 -179t190 -460q0 -173 -72.5 -335.5t-191 -280t-276 -188.5t-320.5 -71q-155 0 -284.5 49t-217.5 135.5t-137 207.5t-49 262zM455 649q0 -155 90 -250.5t233 -95.5q89 0 177 41t156 110t110.5 167.5 t42.5 205.5q0 150 -90.5 242t-233.5 92q-91 0 -179.5 -40t-155.5 -107.5t-108.5 -163.5t-41.5 -201zM1065 1559l227 307h346l-303 -307h-270zM639 1559l217 307h297l-223 -307h-291z" />
<glyph unicode="&#x151;" horiz-adv-x="1298" d="M31 449q0 135 56.5 254.5t148.5 200.5t210.5 128t241.5 47q240 0 393.5 -130t153.5 -343q0 -135 -56.5 -255t-149 -201t-210.5 -128t-241 -47q-241 0 -394 130t-153 344zM389 465q0 -90 54 -142.5t141 -52.5q113 0 203 88t90 226q0 92 -54 146t-139 54q-111 0 -203 -90.5 t-92 -228.5zM803 1157l227 307h346l-303 -307h-270zM377 1157l217 307h297l-223 -307h-291z" />
<glyph unicode="&#x152;" horiz-adv-x="2031" d="M84 627q0 114 34 225t94 204t142.5 172.5t178 135t203 86.5t214.5 31q99 0 192.5 -8.5t145.5 -8.5h795l-60 -307h-559l-51 -266h447l-62 -307h-446l-54 -277h590l-59 -307h-795q-39 0 -118.5 -8t-155.5 -8q-194 0 -348.5 83t-241 230t-86.5 330zM451 641 q0 -150 94.5 -246t245.5 -96q40 0 77.5 3.5t55.5 7.5l18 3l162 838q-53 14 -143 14q-130 0 -247.5 -70.5t-190 -192t-72.5 -261.5z" />
<glyph unicode="&#x153;" horiz-adv-x="1984" d="M31 449q0 135 56.5 254.5t148.5 200.5t210.5 128t241.5 47q244 0 395 -164h4q164 164 390 164q218 0 334 -112t116 -301q0 -43 -9.5 -94.5t-19.5 -81.5l-10 -31h-665q0 -94 57 -141.5t150 -47.5q68 0 146.5 27t122.5 53l44 27l90 -264q-8 -6 -22 -15t-59 -33t-92 -42 t-116.5 -33t-136.5 -15q-264 0 -408 170h-4q-88 -82 -197 -126t-220 -44q-241 0 -394 130t-153 344zM1270 662h311q2 24 2 36q0 51 -30 83t-83 32q-72 0 -122.5 -41.5t-77.5 -109.5zM389 465q0 -90 54 -142.5t141 -52.5q113 0 203 88t90 226q0 92 -54 146t-139 54 q-111 0 -203 -90.5t-92 -228.5z" />
<glyph unicode="&#x154;" horiz-adv-x="1392" d="M53 0l285 1464h545q132 0 215 -34q104 -42 161.5 -128.5t57.5 -207.5q0 -69 -17 -139.5t-51.5 -140t-95.5 -127t-141 -89.5v-4q14 -25 37 -88l188 -506h-385l-164 494h-180l-96 -494h-359zM567 801h154q99 0 163 60t64 165q0 64 -39.5 97.5t-109.5 33.5h-162zM696 1559 l228 307h362l-303 -307h-287z" />
<glyph unicode="&#x155;" horiz-adv-x="880" d="M12 0l205 1055h340l-35 -178l-16 -66h2q53 111 155 186.5t211 75.5l62 -4l-68 -348q-26 6 -69 6q-34 0 -73 -10.5t-84.5 -37.5t-84.5 -67.5t-72 -106t-49 -147.5l-69 -358h-355zM479 1157l228 307h362l-303 -307h-287z" />
<glyph unicode="&#x156;" horiz-adv-x="1392" d="M53 0l285 1464h545q132 0 215 -34q104 -42 161.5 -128.5t57.5 -207.5q0 -69 -17 -139.5t-51.5 -140t-95.5 -127t-141 -89.5v-4q14 -25 37 -88l188 -506h-385l-164 494h-180l-96 -494h-359zM567 801h154q99 0 163 60t64 165q0 64 -39.5 97.5t-109.5 33.5h-162zM459 -100 h278v-37q0 -81 -24 -144t-84 -149h-252q47 85 66.5 141t19.5 127q0 16 -4 62z" />
<glyph unicode="&#x157;" horiz-adv-x="880" d="M12 0l205 1055h340l-35 -178l-16 -66h2q53 111 155 186.5t211 75.5l62 -4l-68 -348q-26 6 -69 6q-34 0 -73 -10.5t-84.5 -37.5t-84.5 -67.5t-72 -106t-49 -147.5l-69 -358h-355zM39 -100h278v-37q0 -81 -24 -144t-84 -149h-252q47 85 66.5 141t19.5 127q0 16 -4 62z" />
<glyph unicode="&#x158;" horiz-adv-x="1392" d="M53 0l285 1464h545q132 0 215 -34q104 -42 161.5 -128.5t57.5 -207.5q0 -69 -17 -139.5t-51.5 -140t-95.5 -127t-141 -89.5v-4q14 -25 37 -88l188 -506h-385l-164 494h-180l-96 -494h-359zM567 801h154q99 0 163 60t64 165q0 64 -39.5 97.5t-109.5 33.5h-162zM688 1559 l-141 307h266l64 -168h4l129 168h286l-264 -307h-344z" />
<glyph unicode="&#x159;" horiz-adv-x="880" d="M12 0l205 1055h340l-35 -178l-16 -66h2q53 111 155 186.5t211 75.5l62 -4l-68 -348q-26 6 -69 6q-34 0 -73 -10.5t-84.5 -37.5t-84.5 -67.5t-72 -106t-49 -147.5l-69 -358h-355zM471 1157l-141 307h266l63 -168h5l129 168h286l-264 -307h-344z" />
<glyph unicode="&#x15a;" horiz-adv-x="1191" d="M-12 184l213 254q6 -5 16 -14t45 -32t72.5 -40.5t95.5 -32t117 -14.5q65 0 120.5 31.5t55.5 97.5q0 31 -30 60t-78.5 55.5t-106.5 56.5t-116.5 69.5t-107 87t-78.5 117t-30 152.5q0 84 30.5 158t83 128t122 93t148.5 58.5t161 19.5q96 0 183 -17.5t142.5 -42.5t97 -50 t59.5 -43l18 -17l-193 -264q-5 4 -15 11t-42 25t-66.5 32t-86 25t-103.5 11q-65 0 -122.5 -33t-57.5 -94q0 -32 30.5 -62t79 -56t107 -55t117 -68t107 -86t79 -117t30.5 -154q0 -191 -155.5 -325t-388.5 -134q-105 0 -200.5 21.5t-157 52.5t-108 61.5t-67.5 51.5zM631 1559 l227 307h363l-303 -307h-287z" />
<glyph unicode="&#x15b;" horiz-adv-x="962" d="M-41 129l176 227q4 -4 12.5 -10t35.5 -22.5t56 -29t73.5 -22.5t88.5 -10q46 0 80.5 13.5t34.5 39.5q0 21 -31 42.5t-77.5 39.5t-100.5 48t-100.5 65t-77.5 94.5t-31 132.5q0 99 64 178.5t165 121.5t214 42q71 0 138 -12.5t112 -30.5t79.5 -35.5t51.5 -30.5l16 -12 l-152 -241q-4 3 -10.5 8t-30 18.5t-50 23.5t-68.5 18t-86 8t-79.5 -14.5t-35.5 -41.5q0 -16 23 -32t60 -32.5t82 -36t90 -48.5t82 -64.5t60 -89.5t23 -119q0 -153 -123 -246.5t-322 -93.5q-73 0 -145.5 16t-124 38.5t-92 45t-60.5 38.5zM428 1157l227 307h363l-303 -307 h-287z" />
<glyph unicode="&#x15c;" horiz-adv-x="1191" d="M-12 184l213 254q6 -5 16 -14t45 -32t72.5 -40.5t95.5 -32t117 -14.5q65 0 120.5 31.5t55.5 97.5q0 31 -30 60t-78.5 55.5t-106.5 56.5t-116.5 69.5t-107 87t-78.5 117t-30 152.5q0 84 30.5 158t83 128t122 93t148.5 58.5t161 19.5q96 0 183 -17.5t142.5 -42.5t97 -50 t59.5 -43l18 -17l-193 -264q-5 4 -15 11t-42 25t-66.5 32t-86 25t-103.5 11q-65 0 -122.5 -33t-57.5 -94q0 -32 30.5 -62t79 -56t107 -55t117 -68t107 -86t79 -117t30.5 -154q0 -191 -155.5 -325t-388.5 -134q-105 0 -200.5 21.5t-157 52.5t-108 61.5t-67.5 51.5zM399 1559 l265 307h344l141 -307h-266l-64 167h-4l-129 -167h-287z" />
<glyph unicode="&#x15d;" horiz-adv-x="962" d="M-41 129l176 227q4 -4 12.5 -10t35.5 -22.5t56 -29t73.5 -22.5t88.5 -10q46 0 80.5 13.5t34.5 39.5q0 21 -31 42.5t-77.5 39.5t-100.5 48t-100.5 65t-77.5 94.5t-31 132.5q0 99 64 178.5t165 121.5t214 42q71 0 138 -12.5t112 -30.5t79.5 -35.5t51.5 -30.5l16 -12 l-152 -241q-4 3 -10.5 8t-30 18.5t-50 23.5t-68.5 18t-86 8t-79.5 -14.5t-35.5 -41.5q0 -16 23 -32t60 -32.5t82 -36t90 -48.5t82 -64.5t60 -89.5t23 -119q0 -153 -123 -246.5t-322 -93.5q-73 0 -145.5 16t-124 38.5t-92 45t-60.5 38.5zM197 1157l264 307h344l141 -307h-266 l-64 168h-4l-129 -168h-286z" />
<glyph unicode="&#x15e;" horiz-adv-x="1191" d="M274 -238q46 -16 91 -16q38 0 63 13.5t25 39.5q0 37 -76 37l-55 -4l77 154q-78 11 -149 36t-117 52t-80 52t-49 42l-16 16l213 254q6 -5 16 -14t45 -32t72.5 -40.5t95.5 -32t117 -14.5q65 0 120.5 31.5t55.5 97.5q0 31 -30 60t-78.5 55.5t-106.5 56.5t-116.5 69.5 t-107 87t-78.5 117t-30 152.5q0 84 30.5 158t83 128t122 93t148.5 58.5t161 19.5q96 0 183 -17.5t142.5 -42.5t97 -50t59.5 -43l18 -17l-193 -264q-5 4 -15 11t-42 25t-66.5 32t-86 25t-103.5 11q-65 0 -122.5 -33t-57.5 -94q0 -32 30.5 -62t79 -56t107 -55t117 -68t107 -86 t79 -117t30.5 -154q0 -188 -149.5 -320.5t-376.5 -138.5l-20 -49q50 -9 88.5 -42.5t38.5 -92.5q0 -49 -17.5 -88t-45 -63.5t-64 -40.5t-72 -22.5t-72.5 -6.5t-75.5 4.5t-57.5 9.5l-20 4z" />
<glyph unicode="&#x15f;" horiz-adv-x="962" d="M131 -238q45 -16 90 -16q38 0 63 13.5t25 39.5q0 37 -76 37l-55 -4l80 158q-81 17 -155.5 52t-108.5 61l-35 26l176 227q4 -4 12.5 -10t35.5 -22.5t56 -29t73.5 -22.5t88.5 -10q46 0 80.5 13.5t34.5 39.5q0 21 -31 42.5t-77.5 39.5t-100.5 48t-100.5 65t-77.5 94.5 t-31 132.5q0 99 64 178.5t165 121.5t214 42q71 0 138 -12.5t112 -30.5t79.5 -35.5t51.5 -30.5l16 -12l-152 -241q-4 3 -10.5 8t-30 18.5t-50 23.5t-68.5 18t-86 8t-79.5 -14.5t-35.5 -41.5q0 -16 23 -32t60 -32.5t82 -36t90 -48.5t82 -64.5t60 -89.5t23 -119 q0 -150 -118.5 -242.5t-311.5 -97.5l-21 -49q50 -9 88.5 -42.5t38.5 -92.5q0 -61 -25.5 -106t-67 -69t-86 -35t-91.5 -11q-37 0 -75.5 4.5t-58.5 9.5l-20 4z" />
<glyph unicode="&#x160;" horiz-adv-x="1191" d="M-12 184l213 254q6 -5 16 -14t45 -32t72.5 -40.5t95.5 -32t117 -14.5q65 0 120.5 31.5t55.5 97.5q0 31 -30 60t-78.5 55.5t-106.5 56.5t-116.5 69.5t-107 87t-78.5 117t-30 152.5q0 84 30.5 158t83 128t122 93t148.5 58.5t161 19.5q96 0 183 -17.5t142.5 -42.5t97 -50 t59.5 -43l18 -17l-193 -264q-5 4 -15 11t-42 25t-66.5 32t-86 25t-103.5 11q-65 0 -122.5 -33t-57.5 -94q0 -32 30.5 -62t79 -56t107 -55t117 -68t107 -86t79 -117t30.5 -154q0 -191 -155.5 -325t-388.5 -134q-105 0 -200.5 21.5t-157 52.5t-108 61.5t-67.5 51.5zM623 1559 l-142 307h267l63 -168h4l129 168h287l-264 -307h-344z" />
<glyph unicode="&#x161;" horiz-adv-x="962" d="M-41 129l176 227q4 -4 12.5 -10t35.5 -22.5t56 -29t73.5 -22.5t88.5 -10q46 0 80.5 13.5t34.5 39.5q0 21 -31 42.5t-77.5 39.5t-100.5 48t-100.5 65t-77.5 94.5t-31 132.5q0 99 64 178.5t165 121.5t214 42q71 0 138 -12.5t112 -30.5t79.5 -35.5t51.5 -30.5l16 -12 l-152 -241q-4 3 -10.5 8t-30 18.5t-50 23.5t-68.5 18t-86 8t-79.5 -14.5t-35.5 -41.5q0 -16 23 -32t60 -32.5t82 -36t90 -48.5t82 -64.5t60 -89.5t23 -119q0 -153 -123 -246.5t-322 -93.5q-73 0 -145.5 16t-124 38.5t-92 45t-60.5 38.5zM420 1157l-141 307h266l63 -168h4 l129 168h287l-264 -307h-344z" />
<glyph unicode="&#x162;" horiz-adv-x="1261" d="M330 0l225 1157h-442l59 307h1243l-59 -307h-443l-225 -1157h-94l-33 -74q50 -9 88.5 -42.5t38.5 -92.5q0 -61 -25.5 -106t-67 -69t-86 -35t-91.5 -11q-37 0 -75.5 4.5t-58.5 9.5l-20 4l33 174q45 -16 90 -16q38 0 63 13.5t25 39.5q0 37 -76 37l-55 -4l86 168h-100z" />
<glyph unicode="&#x163;" horiz-adv-x="845" d="M135 -238q45 -16 90 -16q38 0 63 13.5t25 39.5q0 37 -75 37l-56 -4l111 215q-160 83 -160 281q0 34 10 82l70 350h-133l53 276h146l59 303h340l-60 -303h224l-54 -276h-223l-57 -301q-6 -27 -6 -56q0 -102 155 -102l56 2l-60 -307q-53 -6 -94 -6q-62 0 -127 10l-33 -74 q50 -9 88.5 -42.5t38.5 -92.5q0 -61 -25.5 -106t-67 -69t-86 -35t-91.5 -11q-37 0 -75.5 4.5t-58.5 9.5l-20 4z" />
<glyph unicode="&#x164;" horiz-adv-x="1261" d="M330 0l225 1157h-442l59 307h1243l-59 -307h-443l-225 -1157h-358zM647 1559l-141 307h266l64 -168h4l129 168h286l-264 -307h-344z" />
<glyph unicode="&#x165;" horiz-adv-x="839" d="M127 328q0 34 10 82l70 350h-133l53 276h145l60 303h340l-60 -303h224l-54 -276h-223l-57 -301q-6 -27 -6 -56q0 -102 155 -102l56 2l-60 -307q-53 -6 -94 -6q-90 0 -164.5 19t-134.5 58t-93.5 105.5t-33.5 155.5zM784 1464h279v-34q0 -75 -24.5 -135t-84.5 -140h-252 q47 80 66.5 132.5t19.5 119.5q0 17 -4 57z" />
<glyph unicode="&#x166;" horiz-adv-x="1308" d="M168 557l51 260h289l67 340h-442l60 307h1243l-60 -307h-442l-68 -340h305l-51 -260h-303l-108 -557h-359l109 557h-291z" />
<glyph unicode="&#x167;" horiz-adv-x="884" d="M33 428l43 219h135l22 113h-133l54 276h145l59 303h340l-59 -303h223l-53 -276h-223l-23 -113h223l-43 -219h-221v-25q0 -102 156 -102l55 2l-59 -307q-53 -6 -94 -6q-90 0 -164.5 19t-134.5 58t-93.5 105.5t-33.5 155.5q0 34 10 82l4 18h-135z" />
<glyph unicode="&#x168;" horiz-adv-x="1529" d="M129 430q0 58 12 119l178 915h359l-180 -925q-6 -30 -6 -58q0 -87 57 -132.5t158 -45.5q120 0 198 61t101 175l180 925h358l-182 -936q-50 -251 -228.5 -402t-439.5 -151q-116 0 -217.5 30t-179.5 86t-123 143.5t-45 195.5zM555 1559q64 313 305 313q35 0 64 -12.5 t48.5 -31t36 -36.5t35 -30.5t37.5 -12.5q69 0 90 117h232q-30 -152 -106.5 -233t-196.5 -81q-33 0 -62 12.5t-49 31t-38 36.5t-37 30.5t-37 12.5q-67 0 -91 -116h-231z" />
<glyph unicode="&#x169;" horiz-adv-x="1288" d="M57 274q0 36 15 117l129 664h354l-119 -606q-6 -37 -6 -62q0 -90 94 -90q98 0 175 85.5t100 205.5l90 467h354l-205 -1055h-342l11 53l26 105h-4q-47 -75 -141.5 -129t-198.5 -54q-71 0 -129 16.5t-104.5 50.5t-72.5 93t-26 139zM346 1157q64 313 305 313q35 0 64 -12.5 t48.5 -30.5t36 -36t35 -30.5t37.5 -12.5q70 0 91 116h231q-30 -152 -106.5 -232.5t-196.5 -80.5q-33 0 -62 12.5t-49 30.5t-38 36.5t-37 31t-37 12.5q-66 0 -90 -117h-232z" />
<glyph unicode="&#x16a;" horiz-adv-x="1529" d="M129 430q0 58 12 119l178 915h359l-180 -925q-6 -30 -6 -58q0 -87 57 -132.5t158 -45.5q120 0 198 61t101 175l180 925h358l-182 -936q-50 -251 -228.5 -402t-439.5 -151q-116 0 -217.5 30t-179.5 86t-123 143.5t-45 195.5zM678 1602l45 229h563l-45 -229h-563z" />
<glyph unicode="&#x16b;" horiz-adv-x="1288" d="M57 274q0 36 15 117l129 664h354l-119 -606q-6 -37 -6 -62q0 -90 94 -90q98 0 175 85.5t100 205.5l90 467h354l-205 -1055h-342l11 53l26 105h-4q-47 -75 -141.5 -129t-198.5 -54q-71 0 -129 16.5t-104.5 50.5t-72.5 93t-26 139zM469 1200l45 230h563l-45 -230h-563z" />
<glyph unicode="&#x16c;" horiz-adv-x="1529" d="M129 430q0 58 12 119l178 915h359l-180 -925q-6 -30 -6 -58q0 -87 57 -132.5t158 -45.5q120 0 198 61t101 175l180 925h358l-182 -936q-50 -251 -228.5 -402t-439.5 -151q-116 0 -217.5 30t-179.5 86t-123 143.5t-45 195.5zM973 1548q-105 0 -186 35.5t-121.5 104.5 t-22.5 157l4 21h240l-4 -23q-11 -57 17.5 -88t74.5 -31t88 31t53 88l4 23h240l-4 -21q-30 -145 -134.5 -221t-248.5 -76z" />
<glyph unicode="&#x16d;" horiz-adv-x="1288" d="M57 274q0 36 15 117l129 664h354l-119 -606q-6 -37 -6 -62q0 -90 94 -90q98 0 175 85.5t100 205.5l90 467h354l-205 -1055h-342l11 53l26 105h-4q-47 -75 -141.5 -129t-198.5 -54q-71 0 -129 16.5t-104.5 50.5t-72.5 93t-26 139zM764 1147q-105 0 -186 35.5t-121.5 104.5 t-22.5 157l4 20h240l-4 -22q-11 -57 17.5 -88t74.5 -31t88 31t53 88l4 22h240l-4 -20q-30 -145 -134.5 -221t-248.5 -76z" />
<glyph unicode="&#x16e;" horiz-adv-x="1529" d="M129 430q0 58 12 119l178 915h359l-180 -925q-6 -30 -6 -58q0 -87 57 -132.5t158 -45.5q120 0 198 61t101 175l180 925h358l-182 -936q-50 -251 -228.5 -402t-439.5 -151q-116 0 -217.5 30t-179.5 86t-123 143.5t-45 195.5zM954 1530q-85 0 -143.5 38.5t-58.5 110.5 q0 66 39.5 113t94.5 67.5t115 20.5q85 0 145 -40.5t60 -115.5q0 -48 -23.5 -86.5t-61.5 -61.5t-81 -34.5t-86 -11.5zM965 1632q36 0 62 25t26 63q0 26 -16 42t-44 16q-35 0 -60.5 -26t-25.5 -66q0 -25 15.5 -39.5t42.5 -14.5z" />
<glyph unicode="&#x16f;" horiz-adv-x="1288" d="M57 274q0 36 15 117l129 664h354l-119 -606q-6 -37 -6 -62q0 -90 94 -90q98 0 175 85.5t100 205.5l90 467h354l-205 -1055h-342l11 53l26 105h-4q-47 -75 -141.5 -129t-198.5 -54q-71 0 -129 16.5t-104.5 50.5t-72.5 93t-26 139zM745 1128q-84 0 -143 39t-59 111 q0 96 77 148.5t173 52.5q85 0 144.5 -40.5t59.5 -115.5q0 -48 -23.5 -87t-61.5 -61.5t-81 -34.5t-86 -12zM756 1231q36 0 62 25t26 63q0 26 -16 41.5t-44 15.5q-35 0 -60.5 -26t-25.5 -66q0 -25 15 -39t43 -14z" />
<glyph unicode="&#x170;" horiz-adv-x="1529" d="M129 430q0 58 12 119l178 915h359l-180 -925q-6 -30 -6 -58q0 -87 57 -132.5t158 -45.5q120 0 198 61t101 175l180 925h358l-182 -936q-50 -251 -228.5 -402t-439.5 -151q-116 0 -217.5 30t-179.5 86t-123 143.5t-45 195.5zM997 1559l228 307h346l-303 -307h-271z M571 1559l217 307h297l-223 -307h-291z" />
<glyph unicode="&#x171;" horiz-adv-x="1288" d="M57 274q0 36 15 117l129 664h354l-119 -606q-6 -37 -6 -62q0 -90 94 -90q98 0 175 85.5t100 205.5l90 467h354l-205 -1055h-342l11 53l26 105h-4q-47 -75 -141.5 -129t-198.5 -54q-71 0 -129 16.5t-104.5 50.5t-72.5 93t-26 139zM788 1157l228 307h346l-303 -307h-271z M362 1157l218 307h297l-224 -307h-291z" />
<glyph unicode="&#x172;" horiz-adv-x="1529" d="M520 -258q0 120 146 229v4q-150 5 -269.5 57t-193.5 155t-74 243q0 58 12 119l181 915h356l-180 -925q-6 -30 -6 -58q0 -87 57 -132.5t158 -45.5q119 0 196.5 60.5t100.5 175.5l182 925h358l-184 -936q-16 -80 -46 -149.5t-63.5 -117.5t-79.5 -92t-82.5 -70.5 t-84.5 -55.5q-94 -57 -142.5 -97.5t-48.5 -76.5q0 -17 19.5 -28.5t39.5 -14.5l19 -2l-135 -254q-10 1 -25.5 3.5t-56.5 14t-72 28.5t-56.5 50.5t-25.5 75.5z" />
<glyph unicode="&#x173;" horiz-adv-x="1288" d="M627 -258q0 131 172 254v4h-103l11 53l26 105h-4q-47 -75 -141.5 -129t-198.5 -54q-71 0 -129 16.5t-104.5 50.5t-72.5 93t-26 139q0 36 15 117l129 664h354l-119 -606q-6 -37 -6 -62q0 -90 94 -90q98 0 175 85.5t100 205.5l90 467h354l-205 -1055q-114 -93 -114 -131 q0 -17 18 -28.5t36 -14.5l19 -2l-135 -254q-10 1 -25.5 3.5t-56 14t-71.5 28.5t-56.5 50.5t-25.5 75.5z" />
<glyph unicode="&#x174;" horiz-adv-x="2078" d="M297 0l-94 1464h372l23 -915q1 -40 0 -78.5t-2 -56.5l-2 -19h4q14 64 53 154l402 915h297l43 -915q2 -37 1 -71t-3 -58l-2 -25h4q14 72 47 154l366 915h392l-644 -1464h-415l-39 739q-4 101 4 172h-4q-23 -78 -64 -172l-327 -739h-412zM834 1559l264 307h344l141 -307 h-266l-64 167h-4l-129 -167h-286z" />
<glyph unicode="&#x175;" horiz-adv-x="1695" d="M199 0l-90 1055h352l8 -623q0 -25 -2 -52.5t-4 -42.5l-2 -15h4q1 0 5 14.5t13.5 42.5t20.5 53l268 623h297l23 -623q1 -16 -0.5 -43.5t-3.5 -46.5l-1 -20h5q9 53 34 110l252 623h377l-502 -1055h-393l-22 487v113h-4q-16 -56 -41 -113l-215 -487h-379zM555 1157l264 307 h344l142 -307h-267l-63 168h-4l-129 -168h-287z" />
<glyph unicode="&#x176;" horiz-adv-x="1292" d="M336 0l117 600l-306 864h388l98 -352q12 -44 23.5 -97t17.5 -83l6 -31h4q63 109 129 211l223 352h430l-659 -878l-113 -586h-358zM430 1559l264 307h344l142 -307h-267l-63 167h-4l-129 -167h-287z" />
<glyph unicode="&#x177;" horiz-adv-x="1120" d="M-33 -102q44 -33 105 -33q125 0 190 106l31 49l-248 1035h369l86 -523q4 -25 6.5 -64t3.5 -65v-26h4q37 92 64 149l235 529h397l-659 -1168q-92 -162 -215.5 -239.5t-245.5 -77.5q-69 0 -138 20.5t-104 41.5l-34 20zM276 1157l265 307h344l141 -307h-266l-64 168h-4 l-129 -168h-287z" />
<glyph unicode="&#x178;" horiz-adv-x="1292" d="M336 0l117 600l-306 864h388l98 -352q12 -44 23.5 -97t17.5 -83l6 -31h4q63 109 129 211l223 352h430l-659 -878l-113 -586h-358zM905 1579l58 287h258l-58 -287h-258zM477 1579l58 287h258l-58 -287h-258z" />
<glyph unicode="&#x179;" horiz-adv-x="1306" d="M-39 0l45 225l696 801q36 41 71 74t52 46l17 13v4q-45 -6 -111 -6h-518l57 307h1106l-45 -221l-702 -805q-36 -41 -71 -74t-52 -46l-17 -13v-4q47 6 113 6h559l-59 -307h-1141zM705 1559l227 307h362l-303 -307h-286z" />
<glyph unicode="&#x17a;" horiz-adv-x="1105" d="M-49 0l33 176l469 486q29 29 56 53t39 33l13 10v4q-24 -4 -90 -4h-360l59 297h940l-33 -178l-469 -486q-28 -28 -56.5 -52t-43.5 -34l-14 -10v-4q28 6 96 6h383l-60 -297h-962zM494 1157l227 307h362l-303 -307h-286z" />
<glyph unicode="&#x17b;" horiz-adv-x="1306" d="M-39 0l45 225l696 801q36 41 71 74t52 46l17 13v4q-45 -6 -111 -6h-518l57 307h1106l-45 -221l-702 -805q-36 -41 -71 -74t-52 -46l-17 -13v-4q47 6 113 6h559l-59 -307h-1141zM721 1595l53 271h293l-53 -271h-293z" />
<glyph unicode="&#x17c;" horiz-adv-x="1105" d="M-49 0l33 176l469 486q29 29 56 53t39 33l13 10v4q-24 -4 -90 -4h-360l59 297h940l-33 -178l-469 -486q-28 -28 -56.5 -52t-43.5 -34l-14 -10v-4q28 6 96 6h383l-60 -297h-962zM510 1194l53 270h293l-53 -270h-293z" />
<glyph unicode="&#x17d;" horiz-adv-x="1306" d="M-39 0l45 225l696 801q36 41 71 74t52 46l17 13v4q-45 -6 -111 -6h-518l57 307h1106l-45 -221l-702 -805q-36 -41 -71 -74t-52 -46l-17 -13v-4q47 6 113 6h559l-59 -307h-1141zM696 1559l-141 307h266l64 -168h4l129 168h287l-265 -307h-344z" />
<glyph unicode="&#x17e;" horiz-adv-x="1105" d="M-49 0l33 176l469 486q29 29 56 53t39 33l13 10v4q-24 -4 -90 -4h-360l59 297h940l-33 -178l-469 -486q-28 -28 -56.5 -52t-43.5 -34l-14 -10v-4q28 6 96 6h383l-60 -297h-962zM485 1157l-141 307h266l64 -168h4l129 168h287l-265 -307h-344z" />
<glyph unicode="&#x17f;" horiz-adv-x="679" d="M78 0l147 760h-129l56 276h129l8 45q13 72 41 130.5t63.5 98.5t81.5 70.5t90 47.5t93.5 27.5t87.5 14t77 3.5q34 0 66 -1.5t47 -3.5l16 -2l-61 -299q-20 4 -53 4q-181 0 -199 -102l-207 -1069h-354z" />
<glyph unicode="&#x192;" horiz-adv-x="1220" d="M-57 55q84 -12 137 -12q29 0 57.5 5t62 17.5t59 40.5t36.5 68l127 461h-127l55 276h152l59 205q23 79 61.5 142t87.5 102t100 66t109 40t103.5 18t93.5 5q34 0 86 -4.5t88 -9.5l35 -5l-59 -294q-119 12 -152 12q-175 0 -211 -131l-41 -146h195l-56 -276h-219l-143 -520 q-22 -79 -61 -142t-89 -102t-102.5 -66t-111.5 -40t-104.5 -18t-92.5 -5q-36 0 -84.5 5t-79.5 10l-31 5z" />
<glyph unicode="&#x218;" horiz-adv-x="1191" d="M-12 184l213 254q6 -5 16 -14t45 -32t72.5 -40.5t95.5 -32t117 -14.5q65 0 120.5 31.5t55.5 97.5q0 31 -30 60t-78.5 55.5t-106.5 56.5t-116.5 69.5t-107 87t-78.5 117t-30 152.5q0 84 30.5 158t83 128t122 93t148.5 58.5t161 19.5q96 0 183 -17.5t142.5 -42.5t97 -50 t59.5 -43l18 -17l-193 -264q-5 4 -15 11t-42 25t-66.5 32t-86 25t-103.5 11q-65 0 -122.5 -33t-57.5 -94q0 -32 30.5 -62t79 -56t107 -55t117 -68t107 -86t79 -117t30.5 -154q0 -191 -155.5 -325t-388.5 -134q-105 0 -200.5 21.5t-157 52.5t-108 61.5t-67.5 51.5zM303 -100 h279v-37q0 -81 -24 -144t-85 -149h-252q47 85 66.5 141t19.5 127q0 16 -4 62z" />
<glyph unicode="&#x219;" horiz-adv-x="962" d="M-41 129l176 227q4 -4 12.5 -10t35.5 -22.5t56 -29t73.5 -22.5t88.5 -10q46 0 80.5 13.5t34.5 39.5q0 21 -31 42.5t-77.5 39.5t-100.5 48t-100.5 65t-77.5 94.5t-31 132.5q0 99 64 178.5t165 121.5t214 42q71 0 138 -12.5t112 -30.5t79.5 -35.5t51.5 -30.5l16 -12 l-152 -241q-4 3 -10.5 8t-30 18.5t-50 23.5t-68.5 18t-86 8t-79.5 -14.5t-35.5 -41.5q0 -16 23 -32t60 -32.5t82 -36t90 -48.5t82 -64.5t60 -89.5t23 -119q0 -153 -123 -246.5t-322 -93.5q-73 0 -145.5 16t-124 38.5t-92 45t-60.5 38.5zM188 -100h279v-37q0 -81 -24 -144 t-85 -149h-252q47 86 67 141.5t20 126.5q0 4 -5 62z" />
<glyph unicode="&#x21a;" horiz-adv-x="1261" d="M330 0l225 1157h-442l59 307h1243l-59 -307h-443l-225 -1157h-358zM342 -100h279v-37q0 -81 -24 -144t-85 -149h-252q47 85 66.5 141t19.5 127q0 16 -4 62z" />
<glyph unicode="&#x21b;" horiz-adv-x="839" d="M127 328q0 34 10 82l70 350h-133l53 276h145l60 303h340l-60 -303h224l-54 -276h-223l-57 -301q-6 -27 -6 -56q0 -102 155 -102l56 2l-60 -307q-53 -6 -94 -6q-90 0 -164.5 19t-134.5 58t-93.5 105.5t-33.5 155.5zM201 -100h278v-37q0 -81 -24 -144t-84 -149h-252 q47 85 66.5 141t19.5 127q0 16 -4 62z" />
<glyph unicode="&#x2c6;" horiz-adv-x="995" d="M-29 1559l265 307h344l141 -307h-266l-64 167h-4l-129 -167h-287z" />
<glyph unicode="&#x2c7;" horiz-adv-x="995" d="M195 1559l-142 307h266l64 -168h4l129 168h287l-264 -307h-344z" />
<glyph unicode="&#x2d8;" horiz-adv-x="991" d="M377 1548q-105 0 -186 35.5t-121.5 104.5t-22.5 157l4 21h240l-4 -23q-11 -57 17.5 -88t74.5 -31t88 31t53 88l4 23h240l-4 -21q-30 -145 -134.5 -221t-248.5 -76z" />
<glyph unicode="&#x2d9;" horiz-adv-x="993" d="M217 1595l53 271h293l-53 -271h-293z" />
<glyph unicode="&#x2da;" horiz-adv-x="993" d="M358 1530q-85 0 -143.5 38.5t-58.5 110.5q0 96 77 148.5t173 52.5q85 0 144.5 -40.5t59.5 -115.5q0 -48 -23.5 -86.5t-61.5 -61.5t-81 -34.5t-86 -11.5zM369 1632q36 0 62 25t26 63q0 26 -16 42t-44 16q-35 0 -60.5 -26t-25.5 -66q0 -25 15.5 -39.5t42.5 -14.5z" />
<glyph unicode="&#x2db;" horiz-adv-x="995" d="M168 -258q0 50 25.5 99.5t68.5 89.5t86.5 70.5t91.5 55.5l178 -28q-3 0 -38.5 -28.5t-72 -68.5t-36.5 -63q0 -17 17 -28.5t34 -14.5l17 -2l-136 -254q-10 1 -25.5 3.5t-56 14t-71.5 28.5t-56.5 50.5t-25.5 75.5z" />
<glyph unicode="&#x2dc;" horiz-adv-x="993" d="M-47 1559q64 313 305 313q35 0 64 -12.5t48.5 -31t36 -36.5t35 -30.5t37.5 -12.5q69 0 90 117h232q-30 -152 -106.5 -233t-196.5 -81q-33 0 -62 12.5t-49.5 31t-38.5 36.5t-37 30.5t-37 12.5q-66 0 -90 -116h-231z" />
<glyph unicode="&#x2dd;" horiz-adv-x="993" d="M313 1559l228 307h346l-303 -307h-271zM-113 1559l217 307h297l-223 -307h-291z" />
<glyph unicode="&#x3bc;" horiz-adv-x="1333" d="M-53 -410l284 1465h355l-119 -606q-6 -37 -6 -62q0 -90 94 -90q98 0 174.5 85.5t99.5 205.5l91 467h354l-205 -1055h-342l10 53q4 24 11 50t12 41l4 14h-4q-47 -75 -141.5 -129t-198.5 -54q-48 0 -109 11h-4q-2 -101 -18 -183l-41 -213h-301z" />
<glyph unicode="&#x1e9e;" horiz-adv-x="1466" d="M37 0l196 1014q38 204 177.5 327t334.5 123h730l-48 -245l-241 -306l-53 -59v-4q90 -30 146 -128t56 -212q0 -153 -88 -282.5t-231 -188.5q-49 -21 -115 -30t-190 -9h-174l59 307h141q111 0 152 25q37 24 57.5 64.5t20.5 82.5q0 51 -29.5 77t-110.5 26h-137l49 245 l140 199q31 44 59 77.5t40 44.5l13 11v4q-12 -6 -86 -6h-155q-57 0 -102.5 -47.5t-59.5 -118.5l-193 -991h-358z" />
<glyph unicode="&#x2000;" horiz-adv-x="940" />
<glyph unicode="&#x2001;" horiz-adv-x="1880" />
<glyph unicode="&#x2002;" horiz-adv-x="940" />
<glyph unicode="&#x2003;" horiz-adv-x="1880" />
<glyph unicode="&#x2004;" horiz-adv-x="626" />
<glyph unicode="&#x2005;" horiz-adv-x="470" />
<glyph unicode="&#x2006;" horiz-adv-x="313" />
<glyph unicode="&#x2007;" horiz-adv-x="313" />
<glyph unicode="&#x2008;" horiz-adv-x="235" />
<glyph unicode="&#x2009;" horiz-adv-x="40" />
<glyph unicode="&#x200a;" horiz-adv-x="104" />
<glyph unicode="&#x2010;" horiz-adv-x="921" d="M104 434l60 307h643l-59 -307h-644z" />
<glyph unicode="&#x2011;" horiz-adv-x="921" d="M104 434l60 307h643l-59 -307h-644z" />
<glyph unicode="&#x2012;" horiz-adv-x="921" d="M104 434l60 307h643l-59 -307h-644z" />
<glyph unicode="&#x2013;" horiz-adv-x="1499" d="M111 455l51 266h1220l-51 -266h-1220z" />
<glyph unicode="&#x2014;" horiz-adv-x="1908" d="M111 455l51 266h1630l-51 -266h-1630z" />
<glyph unicode="&#x2018;" horiz-adv-x="550" d="M133 973l283 522h252l-211 -522h-324z" />
<glyph unicode="&#x2019;" horiz-adv-x="538" d="M145 973l211 522h324l-283 -522h-252z" />
<glyph unicode="&#x201a;" horiz-adv-x="577" d="M-102 -182l211 522h323l-282 -522h-252z" />
<glyph unicode="&#x201c;" horiz-adv-x="956" d="M539 973l282 522h252l-211 -522h-323zM133 973l283 522h252l-211 -522h-324z" />
<glyph unicode="&#x201d;" horiz-adv-x="944" d="M551 973l211 522h323l-282 -522h-252zM145 973l211 522h324l-283 -522h-252z" />
<glyph unicode="&#x201e;" horiz-adv-x="983" d="M303 -182l211 522h324l-283 -522h-252zM-102 -182l211 522h323l-282 -522h-252z" />
<glyph unicode="&#x2020;" horiz-adv-x="1005" d="M195 -102l174 890h-267l52 267h266l80 409h338l-80 -409h268l-51 -267h-268l-175 -890h-337z" />
<glyph unicode="&#x2021;" horiz-adv-x="1069" d="M225 -102l80 409h-264l49 266h266l43 215h-266l51 267h267l79 409h338l-80 -409h269l-51 -267h-269l-43 -215h269l-52 -266h-268l-80 -409h-338z" />
<glyph unicode="&#x2022;" horiz-adv-x="956" d="M475 215q-158 0 -269.5 111.5t-111.5 269.5t111.5 269.5t269.5 111.5t269.5 -111.5t111.5 -269.5t-111.5 -269.5t-269.5 -111.5z" />
<glyph unicode="&#x2026;" horiz-adv-x="1894" d="M1333 0l64 336h323l-63 -336h-324zM670 0l63 336h324l-64 -336h-323zM6 0l64 336h323l-63 -336h-324z" />
<glyph unicode="&#x202f;" horiz-adv-x="376" />
<glyph unicode="&#x2030;" horiz-adv-x="2611" d="M494 782q-150 0 -244 89t-94 227q0 99 58.5 190t154.5 146t200 55q149 0 244.5 -93t95.5 -231q0 -100 -60.5 -189t-156.5 -141.5t-198 -52.5zM53 0l1381 1464h325l-1380 -1464h-326zM520 1028q49 0 88 37t39 88q0 39 -28 64.5t-74 25.5q-48 0 -87.5 -39t-39.5 -88 q0 -39 27.5 -63.5t74.5 -24.5zM1737 291q0 99 58.5 190t154.5 146t200 55q149 0 244.5 -93t95.5 -231q0 -100 -60.5 -189t-156.5 -141.5t-198 -52.5q-150 0 -244 89t-94 227zM909 291q0 99 58.5 190t155 146t200.5 55q149 0 244.5 -93t95.5 -231q0 -100 -60.5 -189 t-157 -141.5t-198.5 -52.5q-150 0 -244 89t-94 227zM1999 309q0 -39 27.5 -63.5t74.5 -24.5q49 0 88 37t39 88q0 39 -28 64.5t-74 25.5q-48 0 -87.5 -39t-39.5 -88zM1171 309q0 -39 28 -63.5t75 -24.5q49 0 88 37t39 88q0 39 -28.5 64.5t-74.5 25.5q-48 0 -87.5 -39 t-39.5 -88z" />
<glyph unicode="&#x2039;" horiz-adv-x="780" d="M317 158l-266 420l391 421h336l-413 -436l266 -405h-314z" />
<glyph unicode="&#x203a;" horiz-adv-x="782" d="M-10 158l413 436l-266 405h314l266 -419l-391 -422h-336z" />
<glyph unicode="&#x2044;" horiz-adv-x="399" d="M-276 0h-259l971 1464h258z" />
<glyph unicode="&#x205f;" horiz-adv-x="470" />
<glyph unicode="&#x2070;" d="M348 846q-315 0 -315 319q0 80 13.5 162.5t45.5 167t78.5 149t118.5 105.5t160 41q317 0 317 -320q0 -66 -10 -134.5t-30.5 -139.5t-55 -133.5t-79 -111t-107.5 -77t-136 -28.5zM350 1081q42 0 78 56.5t55 141.5t19 173q0 100 -56 100q-43 0 -78.5 -57t-54 -141 t-18.5 -172q0 -101 55 -101z" />
<glyph unicode="&#x2074;" d="M336 866l35 178h-402l31 173l442 552h322l-98 -505h108l-41 -220h-108l-35 -178h-254zM268 1264h144l37 184q4 23 11 48.5t12 39.5l5 14h-4q-28 -57 -61 -94l-144 -188v-4z" />
<glyph unicode="&#x2075;" d="M328 846q-60 0 -116.5 13.5t-94.5 33t-67 39.5t-42 34l-14 13l151 176q8 -8 22.5 -20.5t62 -33t98.5 -20.5t94 29t43 80q0 37 -31 59.5t-78 22.5q-36 0 -70 -7t-50 -13l-17 -7l-131 49l133 475h551l-43 -223h-336l-12 -47l-12 -33l2 -2q31 9 80 9q114 0 196 -77.5 t82 -191.5q0 -64 -28.5 -127.5t-78.5 -115t-127 -83.5t-167 -32z" />
<glyph unicode="&#x2076;" d="M367 846q-144 0 -240 89t-96 257q0 79 24 162.5t71.5 161t110 139t147 98.5t175.5 37q63 0 119.5 -13t81.5 -27l26 -13l-100 -209q-55 24 -135 24q-119 0 -176 -106h4q41 12 78 12q118 0 193 -74.5t75 -185.5q0 -85 -43 -164.5t-127 -133.5t-188 -54zM381 1081 q38 0 62 33.5t24 73.5q0 35 -21.5 59.5t-68.5 24.5q-49 0 -65.5 -21t-16.5 -63q0 -47 24.5 -77t61.5 -30z" />
<glyph unicode="&#x2077;" d="M-47 866l481 631q12 16 23 28t17 17l5 4v4q-38 -4 -65 -4h-314l43 223h684l-32 -174l-547 -729h-295z" />
<glyph unicode="&#x2078;" d="M342 846q-93 0 -170.5 27.5t-127.5 87t-50 141.5q0 125 180 256q-57 57 -57 135q0 72 31.5 130.5t82.5 94t111 54t121 18.5q145 0 229 -62.5t84 -164.5q0 -39 -19.5 -83t-48.5 -81t-48 -57t-33 -33q92 -68 92 -166q0 -71 -35 -129t-91.5 -93.5t-121.5 -55t-129 -19.5z M457 1143q0 23 -20 44.5t-42 34.5t-67 35q-72 -67 -72 -124q0 -33 27.5 -51.5t66.5 -18.5q40 0 73.5 21.5t33.5 58.5zM362 1501q0 -32 25.5 -56.5t73.5 -47.5q16 13 39.5 49t23.5 74q0 25 -22.5 39t-52.5 14q-35 0 -61 -18.5t-26 -53.5z" />
<glyph unicode="&#x2079;" d="M10 899l101 209q55 -25 135 -25q118 0 176 107h-4q-41 -12 -78 -12q-118 0 -193 74.5t-75 185.5q0 85 43 164.5t127 133.5t188 54q144 0 240 -89t96 -257q0 -79 -24 -162.5t-71.5 -161t-110 -139t-147 -98.5t-175.5 -37q-63 0 -120 13t-82 27zM420 1364q49 0 65.5 21 t16.5 63q0 47 -24.5 76.5t-61.5 29.5q-38 0 -62 -33t-24 -73q0 -36 21.5 -60t68.5 -24z" />
<glyph unicode="&#x2080;" d="M166 -342q-316 0 -316 319q0 80 13.5 162.5t45.5 167t78.5 149t118.5 105.5t160 41q318 0 318 -319q0 -80 -14 -163t-46.5 -166.5t-79 -148.5t-119 -106t-159.5 -41zM168 -106q42 0 77.5 56.5t54.5 141t19 172.5q0 101 -55 101q-43 0 -78.5 -57.5t-54 -141.5t-18.5 -172 q0 -100 55 -100z" />
<glyph unicode="&#x2081;" d="M-180 -322l43 222h182l53 278q4 17 9 33.5t9 24.5l3 8h-4q-15 -21 -29 -31l-55 -41l-121 172l303 238h221l-131 -682h184l-43 -222h-624z" />
<glyph unicode="&#x2082;" d="M-225 -322q0 97 28.5 176.5t74.5 130.5t101 91t110 68t101 53t74.5 53t28.5 61q0 26 -23.5 41t-56.5 15q-36 0 -77 -23.5t-64 -46.5l-23 -23l-153 160q6 7 16.5 18t46 40t73 51.5t93.5 40.5t111 18q82 0 154 -27.5t121.5 -89t49.5 -147.5q0 -71 -31.5 -130.5t-78.5 -97 t-104 -71t-107 -54.5t-88 -43.5t-46 -41.5h381l-43 -222h-669z" />
<glyph unicode="&#x2083;" d="M102 -342q-61 0 -118 14.5t-94 35t-65 40.5t-41 34l-13 15l147 170q2 -3 7 -8t22 -17.5t36.5 -22t52 -17.5t68.5 -8q55 0 89 25.5t34 66.5q0 32 -32 49.5t-80 17.5h-76l-37 117l152 141l57 47v4q-43 -4 -70 -4h-211l43 224h602l-30 -162l-203 -189q72 -24 112 -89.5 t40 -147.5q0 -62 -26.5 -121t-75 -107.5t-124.5 -78t-166 -29.5z" />
<glyph unicode="&#x2084;" d="M125 -322l35 179h-402l31 172l442 553h322l-98 -506h108l-41 -219h-108l-35 -179h-254zM57 76h144l37 184q4 23 11 48.5t12 39.5l5 14h-4q-28 -57 -61 -94l-144 -188v-4z" />
<glyph unicode="&#x2085;" d="M100 -342q-60 0 -116.5 13.5t-94 33t-66.5 39.5t-43 34l-13 13l151 176l8 -8t23 -17.5t37.5 -22t50.5 -17.5t63 -8q51 0 94.5 28.5t43.5 79.5q0 37 -31 59.5t-78 22.5q-36 0 -70 -7t-51 -13l-16 -7l-131 49l133 476h551l-43 -224h-336l-12 -47l-13 -32l2 -3q31 9 80 9 q114 0 196.5 -77.5t82.5 -191.5q0 -64 -28.5 -127.5t-79 -115t-127.5 -83.5t-167 -32z" />
<glyph unicode="&#x2086;" d="M164 -342q-144 0 -240 89t-96 257q0 79 24 162.5t71.5 161t110 139t147 98.5t175.5 37q63 0 120 -13t82 -27l26 -13l-101 -209q-55 25 -135 25q-118 0 -176 -107h4q41 12 78 12q118 0 193 -74.5t75 -185.5q0 -85 -43 -164.5t-127 -133.5t-188 -54zM178 -106q38 0 62 33 t24 73q0 35 -21.5 59.5t-68.5 24.5q-49 0 -65.5 -21t-16.5 -63q0 -47 24.5 -76.5t61.5 -29.5z" />
<glyph unicode="&#x2087;" d="M-231 -322l481 631q12 16 23.5 28t16.5 17l5 4v4q-39 -4 -66 -4h-313l43 224h684l-33 -174l-547 -730h-294z" />
<glyph unicode="&#x2088;" d="M139 -342q-93 0 -170.5 27.5t-127.5 87t-50 141.5q0 125 180 256q-57 57 -57 135q0 72 31.5 130.5t82.5 94t111 54t121 18.5q145 0 229 -62.5t84 -164.5q0 -39 -19.5 -83t-48.5 -81t-48 -57t-33 -33q92 -68 92 -166q0 -71 -35 -129t-91.5 -93.5t-121.5 -55t-129 -19.5z M254 -45q0 33 -31.5 57.5t-97.5 57.5q-72 -67 -72 -125q0 -33 27.5 -51.5t66.5 -18.5q40 0 73.5 21.5t33.5 58.5zM160 313q0 -33 25.5 -57t72.5 -47q17 13 40.5 49t23.5 74q0 25 -23 39t-53 14q-35 0 -60.5 -18t-25.5 -54z" />
<glyph unicode="&#x2089;" d="M-190 -289l100 209q55 -24 135 -24q119 0 176 106h-4q-41 -12 -78 -12q-118 0 -193 74.5t-75 185.5q0 85 43 164.5t127 133.5t188 54q144 0 240 -89t96 -257q0 -79 -24 -162.5t-71.5 -161t-110 -139t-147 -98.5t-175.5 -37q-63 0 -119.5 13t-81.5 27zM219 176 q49 0 65.5 21t16.5 63q0 47 -24.5 77t-61.5 30q-38 0 -62 -33.5t-24 -73.5q0 -36 21.5 -60t68.5 -24z" />
<glyph unicode="&#x20ac;" horiz-adv-x="1222" d="M88 780l39 197h129q104 224 310.5 368t445.5 144q78 0 153 -11.5t111 -22.5l35 -11l-144 -307q-75 20 -157 20q-105 0 -197.5 -47.5t-155.5 -132.5h445l-80 -197h-453q-12 -67 -14 -98h428l-80 -197h-315q35 -80 104.5 -126t169.5 -46q45 0 95.5 7.5t78.5 15.5l27 8v-334 q-102 -35 -221 -35q-255 0 -427 138.5t-218 371.5h-166l39 197h112q2 40 13 98h-107z" />
<glyph unicode="&#x2122;" horiz-adv-x="2101" d="M1038 549l72 915h242l149 -358l27 -90h4q15 59 27 90l149 358h242l67 -915h-260l-20 356l2 66h-4l-105 -256h-200l-105 256h-4l2 -66l-25 -356h-260zM455 549v692h-291v223h835v-223h-286v-692h-258z" />
<glyph unicode="&#x2212;" horiz-adv-x="1290" d="M-33 455v266h1118v-266h-1118z" />
<glyph unicode="&#x221e;" horiz-adv-x="1087" d="M426 293q-173 0 -297.5 124.5t-124.5 297.5q0 174 124 297t298 123q175 0 297.5 -122.5t122.5 -297.5q0 -174 -123 -298t-297 -124z" />
<glyph unicode="&#x2248;" horiz-adv-x="1290" d="M117 659l-129 203q166 166 338 166q65 0 124 -22.5t96.5 -49t87 -49t97.5 -22.5q56 0 112 31.5t97 78.5l129 -202q-166 -166 -338 -166q-65 0 -124 22.5t-96.5 49t-87 49t-97.5 22.5q-106 0 -209 -111zM117 190l-129 203q166 166 338 166q65 0 124 -22.5t96.5 -49t87 -49 t97.5 -22.5q56 0 112 31.5t97 78.5l129 -202q-166 -166 -338 -166q-65 0 -124 22.5t-96.5 49t-87 49t-97.5 22.5q-106 0 -209 -111z" />
<glyph unicode="&#x2260;" horiz-adv-x="1290" d="M111 96l77 123h-180v266h350l131 205h-481v266h654l141 222l155 -101l-77 -121h163v-266h-333l-131 -205h464v-266h-634l-140 -219z" />
<glyph unicode="&#x2264;" horiz-adv-x="1290" d="M2 479v219l1032 457v-297l-676 -268v-4l676 -267v-296zM8 -143h1026v-267h-1026v267z" />
<glyph unicode="&#x2265;" horiz-adv-x="1290" d="M18 23v296l676 267v4l-676 268v297l1033 -457v-219zM20 -143h1027v-267h-1027v267z" />
<glyph unicode="&#xe000;" horiz-adv-x="1054" d="M0 1055h1055v-1055h-1055v1055z" />
<glyph horiz-adv-x="686" d="M109 -100h278v-37q0 -81 -24 -144t-84 -149h-252q47 85 66.5 141t19.5 127q0 16 -4 62z" />
<glyph horiz-adv-x="2314" d="M225 -10v311l-258 148v569l258 145v310l543 290l274 -145l271 145l542 -290v-310l254 -145v-569l-254 -148v-311l-542 -289l-271 145l-274 -145zM307 61l488 -258l247 136l242 -136l488 258v285l233 131v510l-233 135v279l-488 258l-242 -131l-247 131l-488 -258v-279 l-233 -135v-510l233 -131v-285zM377 131v248l-203 123v461l203 118v252l440 234l225 -121l220 121l438 -234v-252l205 -118v-461l-205 -123v-248l-438 -233l-220 118l-225 -118zM754 186h264v351h360v221h-360v262h174q22 0 27.5 -9.5t5.5 -33.5v-43h235v209 q0 53 -20.5 75.5t-75.5 22.5h-709v-221h99v-834z" />
<glyph horiz-adv-x="1228" d="M-82 487q0 83 10.5 173t34.5 188.5t59.5 189.5t90.5 174t122 144t159 97t198 36q485 0 485 -508q0 -83 -10.5 -173t-35 -188.5t-60.5 -190t-91 -175t-122.5 -145t-159.5 -98t-197 -36.5q-483 0 -483 512zM414 303q70 0 128 70.5t92 175.5t52.5 214t18.5 198 q0 200 -125 200q-70 0 -128.5 -71t-92.5 -176.5t-52 -213.5t-18 -196q0 -201 125 -201z" />
<glyph horiz-adv-x="1228" d="M-88 0l55 307h312l116 584l25 113h-4q-27 -41 -74 -78l-102 -80l-179 241l484 377h309l-225 -1157h311l-59 -307h-969z" />
<glyph horiz-adv-x="1228" d="M-135 0q0 114 28 213t75 172.5t108 137t128.5 111.5t134.5 90.5t128 79.5t108 73t75 76.5t28 84.5q0 56 -38.5 84.5t-94.5 28.5q-42 0 -83 -16t-69.5 -39t-51 -46t-33.5 -39l-11 -16l-252 197q4 6 12 17t35 41.5t58 58.5t80.5 62.5t102 59t123.5 41.5t144 17 q85 0 167 -26.5t149 -76t108 -128.5t41 -175q0 -95 -37.5 -180t-98 -148t-134 -117.5t-150 -98.5t-142 -82t-112.5 -76.5t-59 -73.5h604l-59 -307h-1012z" />
<glyph horiz-adv-x="1228" d="M-145 168l204 254l11.5 -11.5t34.5 -26.5t58.5 -33t83 -26t107.5 -12q109 0 174.5 51t65.5 123q0 68 -65.5 101t-178.5 33h-102l-41 174l219 231q37 39 76 73.5t60 48.5l20 15v4q-50 -10 -142 -10h-334l60 307h924l-43 -223l-355 -354q110 -29 190.5 -129.5t80.5 -251.5 q0 -78 -24 -154t-73 -144.5t-118.5 -120t-167 -82t-211.5 -30.5q-101 0 -191 20t-146.5 48.5t-98.5 56.5t-60 48z" />
<glyph horiz-adv-x="1228" d="M-158 354l39 217l709 893h469l-158 -813h174l-57 -297h-174l-70 -354h-354l69 354h-647zM289 651h258l63 328q7 36 18 77t18 64l7 23h-4q-51 -89 -100 -152l-260 -336v-4z" />
<glyph horiz-adv-x="1228" d="M-131 168l209 256q4 -5 12.5 -12t36.5 -26.5t59 -34t80 -26.5t99 -12q40 0 81.5 14t78 39.5t60 68t23.5 93.5q0 69 -55.5 108.5t-146.5 39.5q-50 0 -101.5 -12t-77.5 -24l-26 -13l-189 73l209 764h830l-60 -307h-508l-34 -131l-19 -57h4q54 10 109 10q187 0 313.5 -123.5 t126.5 -306.5q0 -161 -86 -294t-226.5 -206.5t-301.5 -73.5q-71 0 -137 10.5t-114.5 27.5t-91 37.5t-70.5 41.5t-48.5 38t-29.5 28z" />
<glyph horiz-adv-x="1228" d="M467 -25q-87 0 -165.5 21.5t-146 67t-117 110t-78 156.5t-28.5 202q0 106 26.5 218t75 218.5t123 201t164.5 165.5t205 112.5t240 41.5q102 0 189 -17t123 -34l36 -17l-145 -291q-95 31 -199 31q-122 0 -213 -65.5t-149 -175.5h4q27 23 81 37t99 14q137 0 232.5 -60.5 t139.5 -158t44 -222.5q0 -79 -24 -158.5t-71.5 -150.5t-111.5 -126t-151 -87.5t-183 -32.5zM473 303q80 0 131 65t51 148q0 71 -44.5 118.5t-137.5 47.5q-84 0 -130 -44t-46 -110q0 -99 52.5 -162t123.5 -63z" />
<glyph horiz-adv-x="1228" d="M-119 0l715 1026q31 45 61.5 78.5t44.5 43.5l15 11v4q-20 -6 -94 -6h-555l59 307h1051l-50 -250l-849 -1214h-398z" />
<glyph horiz-adv-x="1228" d="M-115 401q0 69 32.5 138t84 122.5t89.5 85t73 54.5q-98 105 -98 237q0 83 35.5 162.5t100 144.5t167.5 104.5t227 39.5q209 0 341 -103.5t132 -285.5q0 -61 -26 -127t-66 -119.5t-69 -85.5t-54 -55q131 -105 131 -258q0 -69 -25 -137.5t-75.5 -130.5t-119.5 -109 t-164 -75t-202 -28q-126 0 -225.5 33.5t-161.5 92.5t-94.5 135t-32.5 165zM616 455q0 19 -7 36.5t-25 34.5t-32.5 29.5t-47.5 31t-50.5 28t-58.5 30.5q-133 -108 -133 -217q0 -59 41.5 -98t106.5 -39q83 0 144.5 45t61.5 119zM422 1036q0 -57 45.5 -97.5t136.5 -86.5 q105 111 105 213q0 51 -34 80t-97 29q-72 0 -114 -40t-42 -98z" />
<glyph horiz-adv-x="1228" d="M-113 43l146 291q94 -31 198 -31q122 0 213 66t150 176h-4q-9 -6 -25.5 -14.5t-63.5 -22.5t-91 -14q-103 0 -184 34.5t-131 95t-75.5 139.5t-25.5 171q0 99 39.5 197.5t108.5 178t174 129.5t225 50q109 0 203 -35t167.5 -102t115.5 -175t42 -245q0 -106 -26.5 -218 t-75 -218.5t-122.5 -201t-164 -165.5t-205 -112.5t-240 -41.5q-102 0 -189 17t-123 34zM528 782q84 0 130.5 44t46.5 110q0 99 -53 162t-124 63q-80 0 -131 -65t-51 -148q0 -71 44.5 -118.5t137.5 -47.5z" />
<glyph horiz-adv-x="993" d="M162 557l59 307h643l-59 -307h-643z" />
<glyph horiz-adv-x="772" d="M283 -133q-121 276 -121 565q0 335 104.5 623.5t333.5 541.5h301q-216 -265 -324 -562.5t-108 -610.5q0 -301 94 -557h-280z" />
<glyph horiz-adv-x="772" d="M219 -133h-301q216 265 324 562.5t108 610.5q0 301 -94 557h281q120 -273 120 -565q0 -335 -104.5 -623.5t-333.5 -541.5z" />
<glyph horiz-adv-x="835" d="M66 -133l337 1730h504l-49 -245h-209l-239 -1239h208l-49 -246h-503z" />
<glyph horiz-adv-x="837" d="M27 113h209l239 1239h-209l49 245h504l-338 -1730h-501z" />
<glyph horiz-adv-x="911" d="M211 139q0 41 8 80l33 170q6 30 6 53q0 40 -14.5 69.5t-35 43t-41.5 21.5t-35 9l-15 1l59 307q7 0 19 1t44 12t58.5 30.5t53.5 61t38 98.5l41 211q15 78 53 135t83.5 88t107.5 49.5t112 23.5t111 5l86 -4l-49 -254q-22 4 -51 4q-36 0 -67.5 -7.5t-63 -33.5t-39.5 -70 l-54 -270q-10 -52 -37 -95t-58 -67.5t-60 -41.5t-48 -23l-20 -7v-4q5 -2 14 -5.5t31 -19.5t39 -38t31 -63.5t14 -92.5q0 -28 -6 -65l-45 -230q-2 -8 -2 -24q0 -86 131 -86l51 4l-49 -254q-39 -4 -90 -4q-36 0 -74 5.5t-88.5 23.5t-89 47t-65.5 82.5t-27 123.5z" />
<glyph horiz-adv-x="913" d="M78 111q26 0 49.5 4.5t50 15t45.5 34t25 56.5l57 285q10 52 37 94.5t58 67t60 42t48 23.5l20 6v4q-5 2 -14 5.5t-31 20t-39 38.5t-31 63.5t-14 92.5q0 21 7 65l40 215q3 12 3 25q0 86 -132 86l-51 -4l49 254q40 4 91 4q35 0 73.5 -5.5t89 -24t89 -47.5t65.5 -82.5 t27 -123.5q0 -37 -9 -80l-28 -155q-6 -30 -6 -54q0 -40 14.5 -69.5t35.5 -43t41.5 -21t35.5 -8.5l14 -1l-60 -307q-7 0 -19 -1t-44 -12t-58.5 -30.5t-53.5 -61t-38 -98.5l-45 -225q-15 -78 -53 -135t-83.5 -88t-107.5 -49.5t-112 -23.5t-111 -5l-86 4l50 254q22 -4 51 -4z " />
<glyph horiz-adv-x="1806" d="M137 600q0 120 33.5 235.5t93 214t145.5 181.5t187.5 141.5t222 91.5t246.5 33q123 0 218.5 -21t159 -57.5t105 -90t59 -114.5t17.5 -135q0 -55 -12 -114l-70 -365h152l-47 -244h-549q-207 0 -317.5 97.5t-110.5 242.5q0 71 33.5 140t95 126.5t160.5 92.5t219 35h131 q0 2 1 7t1 7q0 37 -39 64.5t-95 40t-118 12.5q-117 0 -225 -54.5t-182.5 -140t-119.5 -192.5t-45 -211q0 -170 111 -280t320 -110l-52 -262q-213 0 -379.5 81.5t-258 224.5t-91.5 323zM1022 705q0 -47 28.5 -76t84.5 -29h79l54 274h-76q-76 0 -123 -50.5t-47 -118.5z" />
<glyph horiz-adv-x="1425" d="M915 281l-266 419l436 422h342l-464 -436l266 -405h-314zM383 281l-266 419l391 422h336l-414 -436l266 -405h-313z" />
<glyph horiz-adv-x="1423" d="M614 281l414 436l-266 405h313l266 -420l-391 -421h-336zM31 281l465 436l-267 405h314l266 -420l-436 -421h-342z" />
<glyph horiz-adv-x="862" d="M383 281l-266 419l391 422h336l-414 -436l266 -405h-313z" />
<glyph horiz-adv-x="864" d="M55 281l414 436l-266 405h313l266 -420l-391 -421h-336z" />
<glyph horiz-adv-x="1570" d="M168 578l51 266h1221l-51 -266h-1221z" />
<glyph horiz-adv-x="1980" d="M168 578l51 266h1630l-51 -266h-1630z" />
<glyph horiz-adv-x="675" d="M160 539l63 335h324l-64 -335h-323z" />
<glyph horiz-adv-x="1130" d="M584 1157l59 307h324l-60 -307h-323zM76 344q0 74 23.5 138t61.5 110.5t84 87t93.5 73.5t88.5 62.5t69.5 62.5t35.5 66l15 68h340l-19 -97q-11 -60 -40 -112.5t-66.5 -90.5t-80.5 -71.5t-84 -62.5t-74 -56.5t-53.5 -59t-20.5 -65.5q0 -44 34.5 -72t87.5 -28q48 0 101 22 t82 44l28 22l162 -260q-8 -6 -22 -16t-59 -36t-92.5 -46t-118 -36t-138.5 -16t-132 15t-119.5 45.5t-97 74t-65.5 103.5t-24 131z" />
<glyph horiz-adv-x="794" d="M338 1157l59 307h324l-59 -307h-324zM94 0l230 1012h303l-164 -1012h-369z" />
<glyph horiz-adv-x="1040" d="M543 348q-158 0 -269.5 111.5t-111.5 269.5t111.5 269.5t269.5 111.5t269.5 -111.5t111.5 -269.5t-111.5 -269.5t-269.5 -111.5z" />
<glyph horiz-adv-x="1214" d="M59 430q0 101 23 202t72 196.5t118 169.5t168.5 118.5t216.5 44.5q103 0 185.5 -24t137 -65t90.5 -99.5t51.5 -124.5t15.5 -143q0 -104 -23.5 -206.5t-73 -197t-118.5 -167t-168 -116t-213 -43.5q-129 0 -224.5 35.5t-150.5 99.5t-81 143.5t-26 176.5zM416 436 q0 -166 125 -166q60 0 108 41.5t75 106.5t41.5 136.5t14.5 139.5q0 172 -123 172q-60 0 -108 -42.5t-76 -109t-42.5 -139t-14.5 -139.5z" />
<glyph horiz-adv-x="1067" d="M-2 0l57 297h293l62 317l32 152h-4q-39 -39 -92 -66l-119 -59l-118 252l442 244h301l-162 -840h275l-58 -297h-909z" />
<glyph horiz-adv-x="1136" d="M-14 0l47 236q649 353 649 530q0 47 -34 69.5t-81 22.5q-62 0 -137.5 -36t-120.5 -72l-45 -35l-147 248q8 8 24 21.5t67.5 47.5t107 60t140 47.5t169.5 21.5q80 0 152 -19.5t132.5 -59t96.5 -108.5t36 -159q0 -74 -29.5 -144.5t-76.5 -124.5t-112.5 -104t-128.5 -85 t-134 -66v-4q49 10 141 10h304l-60 -297h-960z" />
<glyph horiz-adv-x="1112" d="M-119 -84l187 227q5 -4 13.5 -11.5t38 -26.5t61 -33.5t79.5 -26.5t96 -12q112 0 178 49.5t66 126.5q0 50 -37.5 84t-87.5 47.5t-106 13.5h-121l-53 162l194 199q36 37 74.5 69t58.5 46l19 14v2q-48 -8 -140 -8h-268l57 299h883l-39 -201l-364 -344q127 -24 209 -125 t82 -246q0 -91 -43.5 -177.5t-120 -154.5t-192 -109.5t-249.5 -41.5q-68 0 -130.5 10t-109 25.5t-86.5 34.5t-66.5 38t-46 34.5t-27.5 25.5z" />
<glyph horiz-adv-x="1259" d="M-61 47l41 217l682 873h464l-155 -793h174l-58 -297h-174l-55 -285h-348l55 285h-626zM375 344h248l63 320q7 37 17.5 77t17.5 63t8 23h-4q0 -1 -14 -24.5t-39 -61t-47 -65.5l-250 -328v-4z" />
<glyph horiz-adv-x="1140" d="M-82 -86l182 229q5 -4 13.5 -11.5t37.5 -26.5t60.5 -33.5t80 -26.5t97.5 -12q43 0 87 13t82.5 37.5t62.5 66.5t24 94q0 71 -53.5 111t-140.5 40q-53 0 -107.5 -11.5t-82.5 -22.5l-28 -11l-180 68l199 719h803l-58 -299h-487l-35 -131l-18 -56h4q53 15 108 15 q197 0 319 -116t122 -290q0 -116 -51.5 -215.5t-138 -165.5t-198.5 -103.5t-233 -37.5q-87 0 -167.5 18t-133.5 44t-93 52t-59 44z" />
<glyph horiz-adv-x="1222" d="M76 489q0 121 35 248.5t105 245.5t164.5 211t224.5 149t274 56q102 0 188.5 -17.5t122.5 -35.5l35 -17l-140 -262q-77 37 -196 37q-113 0 -205 -69t-149 -171h4q27 20 84 33.5t98 13.5q101 0 181.5 -32.5t131.5 -89.5t78 -130.5t27 -158.5q0 -92 -38.5 -184.5 t-106.5 -168.5t-171.5 -124t-222.5 -48q-109 0 -202.5 31t-166 92.5t-114 161.5t-41.5 229zM432 487q0 -95 48.5 -156t125.5 -61q70 0 122 61t52 150q0 68 -43.5 113t-132.5 45q-79 0 -125.5 -42t-46.5 -110z" />
<glyph horiz-adv-x="1116" d="M-70 -238l674 955q30 43 56 74t36 41l11 10v4q-10 -6 -84 -6h-533l57 297h1029l-48 -236l-809 -1139h-389z" />
<glyph horiz-adv-x="1224" d="M33 360q0 63 27.5 126t72 114t83 86t77.5 62q-88 88 -88 208q0 81 34.5 159t96.5 141t160.5 102t216.5 39q204 0 334.5 -91t130.5 -251q0 -55 -23 -119t-58.5 -120t-61 -91t-48.5 -61q117 -95 117 -234q0 -82 -39.5 -162t-110 -146t-180.5 -106.5t-239 -40.5 q-241 0 -371.5 109.5t-130.5 275.5zM745 426q0 15 -5.5 28.5t-20 27.5t-26 23.5t-38.5 24.5t-41 22t-49 24t-49 24q-125 -87 -125 -197q0 -58 41.5 -96.5t108.5 -38.5q83 0 143.5 43.5t60.5 114.5zM547 973q0 -55 49 -93.5t147 -82.5q86 93 86 202q0 48 -33.5 76.5 t-93.5 28.5q-73 0 -114 -38.5t-41 -92.5z" />
<glyph horiz-adv-x="1224" d="M121 70q77 -37 196 -37q113 0 205.5 68.5t149.5 170.5h-4q-27 -20 -84.5 -33.5t-98.5 -13.5q-101 0 -181.5 33t-131 89.5t-77.5 130.5t-27 159q0 73 24 147.5t71 141.5t110.5 120t150 84t182.5 31q109 0 202.5 -31t166 -92.5t114 -161.5t41.5 -229q0 -121 -35 -248 t-104.5 -245t-164 -211t-224.5 -149t-274 -56q-64 0 -123.5 7t-98 17t-68 20.5t-42.5 17.5l-14 7zM426 655q0 -68 43.5 -112.5t132.5 -44.5q79 0 125.5 41.5t46.5 109.5q0 95 -48.5 156t-125.5 61q-70 0 -122 -61t-52 -150z" />
<glyph horiz-adv-x="1228" d="M-66 430q0 101 23 202t72 196.5t118 169.5t168.5 118.5t216.5 44.5q103 0 185.5 -24t137 -65t90.5 -99.5t51.5 -124.5t15.5 -143q0 -104 -23.5 -206.5t-73 -197t-118.5 -167t-168 -116t-213 -43.5q-129 0 -224.5 35.5t-150.5 99.5t-81 143.5t-26 176.5zM291 436 q0 -166 125 -166q60 0 108 41.5t75 106.5t41.5 136.5t14.5 139.5q0 172 -123 172q-60 0 -108 -42.5t-76 -109t-42.5 -139t-14.5 -139.5z" />
<glyph horiz-adv-x="1228" d="M-35 0l58 297h292l62 317l33 152h-4q-40 -39 -93 -66l-118 -59l-119 252l442 244h301l-162 -840h275l-58 -297h-909z" />
<glyph horiz-adv-x="1228" d="M-96 0l47 236q649 353 649 530q0 47 -34 69.5t-81 22.5q-62 0 -137.5 -36t-120.5 -72l-45 -35l-147 248q8 8 24 21.5t67.5 47.5t107 60t140 47.5t169.5 21.5q80 0 152 -19.5t133 -59t97 -108.5t36 -159q0 -92 -43.5 -176t-118 -149t-152.5 -112.5t-168 -86.5v-4 q50 10 142 10h303l-60 -297h-960z" />
<glyph horiz-adv-x="1228" d="M-164 -80l187 227q5 -4 13.5 -11.5t38 -26.5t60.5 -33.5t78.5 -26.5t95.5 -12q112 0 178 49.5t66 126.5q0 71 -71 107t-160 36h-119l-53 162l192 199q36 36 74.5 67.5t57.5 45.5l20 14v2q-48 -8 -140 -8h-266l57 299h879l-39 -201l-362 -342q126 -24 207 -125t81 -244 q0 -91 -43 -177.5t-119 -154t-191 -108.5t-249 -41q-92 0 -175 18t-135 44t-91 52t-56 44z" />
<glyph horiz-adv-x="1228" d="M-197 47l41 217l682 873h465l-155 -793h174l-58 -297h-174l-55 -285h-348l55 285h-627zM240 344h247l64 320q7 37 17.5 77t17.5 63t8 23h-4q0 -1 -14.5 -24.5t-39.5 -61t-47 -65.5l-249 -328v-4z" />
<glyph horiz-adv-x="1228" d="M-162 -86l182 229q5 -4 13.5 -11.5t37.5 -26.5t60.5 -33.5t80 -26.5t97.5 -12q43 0 87 13t82.5 37.5t62.5 66.5t24 94q0 71 -53.5 111t-140.5 40q-53 0 -107 -11.5t-82 -22.5l-28 -11l-181 68l199 719h803l-57 -299h-488l-35 -131l-18 -56h4q53 15 108 15q197 0 319 -116 t122 -290q0 -116 -51.5 -215.5t-138 -165.5t-198.5 -103.5t-233 -37.5q-87 0 -167.5 18t-133.5 44t-93 52t-59 44z" />
<glyph horiz-adv-x="1228" d="M-68 489q0 121 35 248.5t105 245.5t164.5 211t224.5 149t274 56q102 0 188.5 -17.5t122.5 -35.5l35 -17l-139 -262q-78 37 -197 37q-113 0 -205 -69t-149 -171h4q27 20 84.5 33.5t98.5 13.5q198 0 307.5 -117.5t109.5 -293.5q0 -92 -38.5 -184.5t-106 -168.5t-171 -124 t-222.5 -48q-109 0 -202.5 31t-166.5 92.5t-114.5 161.5t-41.5 229zM289 487q0 -95 48.5 -156t125.5 -61q70 0 122 61t52 150q0 68 -43.5 113t-132.5 45q-79 0 -125.5 -42t-46.5 -110z" />
<glyph horiz-adv-x="1228" d="M-133 -238l674 955q30 43 55.5 74t35.5 41l11 10v4q-10 -6 -84 -6h-532l57 297h1028l-47 -236l-809 -1139h-389z" />
<glyph horiz-adv-x="1228" d="M-117 360q0 63 27.5 126t72 114t83 86t77.5 62q-88 88 -88 208q0 81 34.5 159t96.5 141t160.5 102t216.5 39q204 0 334.5 -91t130.5 -251q0 -55 -22.5 -119t-58 -120t-61.5 -91t-48 -61q116 -94 116 -234q0 -82 -39.5 -162t-110 -146t-180.5 -106.5t-239 -40.5 q-241 0 -371.5 109.5t-130.5 275.5zM596 426q0 15 -5.5 28.5t-20 27.5t-26 23.5t-38.5 24.5t-41 22t-49 24t-49 24q-125 -87 -125 -197q0 -58 41.5 -96.5t107.5 -38.5q83 0 144 43.5t61 114.5zM397 973q0 -55 49.5 -93.5t147.5 -82.5q86 93 86 202q0 48 -33.5 76.5 t-93.5 28.5q-73 0 -114.5 -38.5t-41.5 -92.5z" />
<glyph horiz-adv-x="1228" d="M-6 70q77 -37 196 -37q113 0 205.5 68.5t149.5 170.5h-4q-27 -20 -84.5 -33.5t-98.5 -13.5q-101 0 -181.5 33t-131 89.5t-77.5 130.5t-27 159q0 73 24 147.5t71 141.5t110.5 120t150 84t182.5 31q109 0 202.5 -31t166.5 -92.5t114.5 -161.5t41.5 -229q0 -121 -35 -248 t-105 -245t-164.5 -211t-224.5 -149t-274 -56q-64 0 -123.5 7t-98 17t-68 20.5t-43.5 17.5l-13 7zM299 655q0 -68 43.5 -112.5t132.5 -44.5q79 0 125.5 41.5t46.5 109.5q0 95 -48.5 156t-125.5 61q-70 0 -122 -61t-52 -150z" />
<glyph horiz-adv-x="1130" d="M-6 170l192 242q5 -5 15.5 -13.5t42 -30t63.5 -38t78.5 -30t89.5 -13.5q68 0 110 20t42 55q0 22 -26 43t-68 40.5t-92.5 42.5t-100.5 54.5t-92 70.5t-68 97t-26 128q0 134 114.5 242.5t313.5 133.5l36 187h224l-39 -191q56 -9 107.5 -26.5t85 -35.5t59.5 -35t37 -27 l12 -11l-168 -262q-5 4 -13 10.5t-35 23.5t-55.5 30t-71 23.5t-83.5 10.5q-156 0 -156 -77q0 -23 35 -46.5t87.5 -43.5t114 -52.5t114 -71t87.5 -102t35 -141.5q0 -111 -63 -197.5t-158.5 -134t-210.5 -61.5l-35 -189h-223l39 195q-64 12 -123 35t-98.5 47t-70 46.5 t-44.5 37.5z" />
<glyph horiz-adv-x="1150" d="M76 541q0 131 61 252.5t179.5 211.5t271.5 119l33 164h233l-33 -162q55 -10 106.5 -30t86.5 -42t62 -42.5t40 -33.5l12 -13l-190 -232q-3 4 -9.5 10t-27.5 22t-44 28t-59 22t-73 10q-72 0 -130 -24t-91.5 -62t-51.5 -80.5t-18 -83.5q0 -74 51.5 -123t157.5 -49 q59 0 120 26.5t93 52.5l31 26l117 -270q-6 -5 -18 -14t-51 -32.5t-80.5 -42.5t-105.5 -36t-128 -21l-31 -153h-234l35 178q-152 45 -233.5 159t-81.5 265z" />
<glyph horiz-adv-x="1269" d="M-16 0l57 297h113l32 176h-88l43 221h88l21 97q43 205 201 318.5t372 113.5q71 0 137.5 -14t112 -34t80.5 -40t51 -34l17 -14l-185 -237q-10 7 -28 17t-79 27t-126 17q-68 0 -126.5 -36.5t-70.5 -94.5l-18 -86h368l-43 -221h-368l-33 -176h592l-60 -297h-1060z" />
<glyph horiz-adv-x="1368" d="M102 281l39 196h316l-47 121h-246l39 197h133l-152 403h389l64 -242l55 -225h4q60 125 123 225l152 242h426l-310 -403h152l-39 -197h-264l-92 -121h334l-39 -196h-348l-54 -281h-358l53 281h-330z" />
<glyph horiz-adv-x="1198" d="M-59 55q84 -12 137 -12q29 0 57.5 5t62 17.5t59 40.5t36.5 68l100 371h-127l56 276h151l59 205q109 373 543 373q34 0 86 -4.5t87 -9.5l36 -5l-59 -295q-119 13 -152 13q-175 0 -211 -131l-41 -146h195l-55 -276h-220l-116 -430q-19 -68 -50.5 -124t-69 -94t-84 -67 t-89.5 -45.5t-92 -26.5t-87 -13t-77 -3q-36 0 -84.5 5t-79.5 10l-31 5z" />
<glyph horiz-adv-x="1200" d="M100 645l35 176h148q85 177 255 289.5t400 112.5q77 0 144 -10.5t96 -20.5l28 -10l-121 -260q-61 18 -139 18q-163 0 -270 -119h373l-74 -176h-395q-15 -58 -15 -92h379l-67 -176h-269q68 -113 221 -113q43 0 88.5 7t70.5 15l24 7v-285q-91 -33 -195 -33 q-244 0 -394.5 111t-195.5 291h-180l35 176h129q0 30 12 92h-123z" />
<glyph d="M289 541q-316 0 -316 319q0 80 13.5 162.5t45.5 167t78.5 149t118.5 105.5t160 41q318 0 318 -320q0 -66 -10 -134.5t-30.5 -139.5t-55 -133.5t-79 -111t-107.5 -77t-136 -28.5zM291 776q42 0 77.5 57t54.5 141.5t19 172.5q0 100 -55 100q-43 0 -78.5 -57t-54 -141 t-18.5 -172q0 -101 55 -101z" />
<glyph d="M-23 561l43 221h183l53 279q4 17 9 33.5t8 23.5l3 8h-4q-14 -20 -28 -30l-56 -41l-120 172l303 237h221l-131 -682h184l-43 -221h-625z" />
<glyph d="M-66 561q0 97 28.5 176.5t74.5 130.5t101 91t110.5 68t101.5 53t74.5 53t28.5 61q0 26 -23.5 40.5t-56.5 14.5q-36 0 -77 -23t-64 -46l-23 -23l-154 160q6 7 16.5 18t46 40t73 51.5t93.5 40.5t111 18q48 0 94 -10t88 -31.5t74 -52t51 -74.5t19 -96q0 -61 -23 -113.5 t-61 -89.5t-84 -68t-93.5 -53.5t-88 -41.5t-69.5 -37.5t-36 -35.5h381l-43 -221h-670z" />
<glyph d="M268 541q-61 0 -118 14.5t-94 34.5t-65 40.5t-41 35.5l-13 14l147 170q2 -3 7 -8t22 -18t36.5 -22.5t52 -17.5t68.5 -8q55 0 89 25.5t34 66.5q0 32 -32 50t-80 18h-76l-37 117l151 141l58 47v4q-43 -4 -70 -4h-211l43 223h602l-30 -161l-203 -189q71 -24 111 -89.5 t40 -147.5q0 -62 -26.5 -121t-74.5 -107.5t-124 -78t-166 -29.5z" />
<glyph d="M266 561l35 178h-401l30 172l443 553h321l-98 -506h109l-41 -219h-109l-35 -178h-254zM199 958h143l37 185q4 23 11.5 48.5t12.5 39.5l5 14h-5q-28 -57 -61 -94l-143 -188v-5z" />
<glyph d="M272 541q-60 0 -116.5 13.5t-94 33.5t-66.5 39.5t-43 32.5l-13 14l151 176q8 -8 22 -20.5t61.5 -33t98.5 -20.5t94.5 29t43.5 80q0 37 -31 59.5t-78 22.5q-36 0 -70 -6.5t-51 -13.5l-16 -7l-131 49l133 475h551l-43 -223h-336l-12 -47l-13 -33l2 -2q31 8 80 8 q114 0 196.5 -77t82.5 -191q0 -64 -28.5 -127.5t-79 -115t-127.5 -83.5t-167 -32z" />
<glyph d="M307 541q-144 0 -240 89t-96 257q0 99 39 204t106.5 193t169 144.5t214.5 56.5q63 0 119.5 -13.5t82.5 -26.5l25 -13l-100 -209q-55 24 -135 24q-120 0 -177 -106h4q40 12 78 12q118 0 193.5 -75t75.5 -185q0 -85 -43.5 -164.5t-127.5 -133.5t-188 -54zM322 776 q38 0 62 33.5t24 73.5q0 35 -22 59.5t-69 24.5q-48 0 -64.5 -21t-16.5 -63q0 -47 24.5 -77t61.5 -30z" />
<glyph d="M-82 561l481 631q12 16 23 28t16 16l6 5v4q-38 -4 -65 -4h-313l43 223h684l-33 -174l-547 -729h-295z" />
<glyph d="M293 541q-93 0 -170.5 27.5t-127.5 87t-50 141.5q0 125 180 256q-57 57 -57 135q0 72 31.5 130.5t82.5 94t111 54t121 18.5q145 0 229 -63t84 -165q0 -39 -19.5 -83t-49 -80.5t-48 -56.5t-32.5 -33q92 -68 92 -166q0 -71 -35 -129t-91.5 -93.5t-121.5 -55t-129 -19.5z M408 838q0 23 -20 44.5t-42 34.5t-67 35q-72 -67 -72 -125q0 -33 27 -51t67 -18t73.5 21.5t33.5 58.5zM313 1196q0 -32 25.5 -56.5t73.5 -47.5q16 13 39.5 48.5t23.5 73.5q0 25 -23 39.5t-53 14.5q-35 0 -60.5 -18t-25.5 -54z" />
<glyph d="M-37 594l100 209q56 -25 136 -25q118 0 176 107h-4q-44 -13 -78 -13q-118 0 -193 75t-75 186q0 85 43 164.5t127 133.5t188 54q144 0 240 -89t96 -257q0 -99 -39 -204t-106.5 -193t-169 -144.5t-214.5 -56.5q-63 0 -119.5 13.5t-82.5 26.5zM373 1059q49 0 65.5 21 t16.5 63q0 47 -24.5 76.5t-61.5 29.5q-38 0 -62 -33t-24 -73q0 -36 21.5 -60t68.5 -24z" />
<glyph d="M229 -20q-315 0 -315 319q0 80 13.5 162.5t45.5 167t78.5 149t118.5 105.5t160 41q317 0 317 -320q0 -66 -10 -134.5t-30.5 -139.5t-55 -133.5t-79 -111t-107.5 -77t-136 -28.5zM231 215q42 0 78 56.5t55 141.5t19 173q0 100 -55 100q-64 0 -108 -117t-44 -254 q0 -100 55 -100z" />
<glyph d="M-119 0l43 221h182l54 279q4 17 9 33.5t8 24.5l3 7h-4q-15 -20 -29 -30l-55 -41l-121 172l303 237h222l-131 -682h184l-43 -221h-625z" />
<glyph d="M-166 0q0 97 28.5 176.5t74.5 130.5t101 91t110 68t101 53t74.5 53t28.5 61q0 26 -23.5 40.5t-56.5 14.5q-36 0 -76.5 -23t-63.5 -46l-23 -23l-154 160q6 7 16.5 18t46 40t73 51.5t93.5 40.5t111 18q82 0 154 -27.5t122 -90t50 -147.5q0 -71 -31.5 -130.5t-78.5 -97 t-104 -71t-107 -54.5t-88 -43.5t-46 -41.5h381l-43 -221h-670z" />
<glyph d="M154 -20q-61 0 -118 14.5t-94 34.5t-65.5 40.5t-41.5 34.5l-13 15l147 170q2 -3 7 -8t22 -18t37 -22.5t52.5 -17.5t68.5 -8q55 0 89 25.5t34 66.5q0 32 -32.5 50t-80.5 18h-76l-37 117l152 141l57 47v4q-42 -4 -69 -4h-211l43 223h602l-31 -162l-203 -188 q71 -24 111.5 -90t40.5 -148q0 -62 -26.5 -121t-74.5 -107t-124 -77.5t-166 -29.5z" />
<glyph d="M184 0l35 178h-401l30 172l443 553h321l-98 -506h109l-41 -219h-109l-35 -178h-254zM117 397h143l37 185q4 23 11.5 48.5t12.5 39.5l5 14h-4q-29 -57 -62 -94l-143 -189v-4z" />
<glyph d="M174 -20q-60 0 -116.5 13.5t-94.5 33t-67 39.5t-42 34l-14 13l152 176q8 -8 22 -20.5t61.5 -33t98.5 -20.5t94 29t43 80q0 37 -30.5 59.5t-77.5 22.5q-36 0 -70 -7t-51 -13l-16 -7l-132 49l134 475h550l-43 -223h-335l-13 -47l-12 -33l2 -2q31 8 80 8q114 0 196 -77 t82 -191q0 -64 -28.5 -127.5t-78.5 -115t-127 -83.5t-167 -32z" />
<glyph d="M205 -20q-144 0 -240 89t-96 257q0 79 24 162.5t71.5 161t110 139t147 98.5t175.5 37q63 0 120 -13.5t83 -26.5l25 -14l-101 -208q-55 24 -135 24q-119 0 -176 -106h4q41 12 78 12q118 0 193 -74.5t75 -185.5q0 -85 -43 -164.5t-127 -133.5t-188 -54zM219 215 q38 0 62 33.5t24 73.5q0 35 -21.5 59.5t-68.5 24.5q-49 0 -65.5 -21t-16.5 -63q0 -47 24.5 -77t61.5 -30z" />
<glyph d="M-211 0l481 631q12 16 23.5 28t16.5 17l5 4v4q-38 -4 -65 -4h-313l43 223h684l-33 -174l-547 -729h-295z" />
<glyph d="M190 -20q-93 0 -170.5 27.5t-127.5 87t-50 141.5q0 124 181 256q-58 58 -58 135q0 72 31.5 130.5t82.5 94t111 54t121 18.5q145 0 229.5 -63t84.5 -165q0 -39 -19.5 -83t-49 -81t-48.5 -57t-33 -33q92 -68 92 -166q0 -57 -23.5 -106t-61.5 -83.5t-87.5 -59t-101.5 -36 t-103 -11.5zM305 276q0 33 -31.5 57.5t-97.5 57.5q-72 -67 -72 -125q0 -33 27.5 -51t67.5 -18t73 21t33 58zM211 635q0 -57 98 -105q17 13 40.5 49t23.5 74q0 25 -23 39.5t-53 14.5q-35 0 -60.5 -18t-25.5 -54z" />
<glyph d="M-135 33l100 209q55 -25 135 -25q118 0 176 107h-4q-44 -13 -77 -13q-118 0 -193.5 75t-75.5 185q0 85 43.5 165t127.5 134t188 54q144 0 240 -89t96 -257q0 -99 -39 -204t-106.5 -193t-169 -144.5t-214.5 -56.5q-63 0 -119.5 13t-82.5 27zM274 498q49 0 65.5 21t16.5 63 q0 47 -24.5 76.5t-61.5 29.5q-38 0 -62 -33t-24 -73q0 -36 21.5 -60t68.5 -24z" />
</font>
</defs>
</svg>
