<?xml version="1.0" standalone="no"?>
<!DOCTYPE svg PUBLIC "-//W3C//DTD SVG 1.1//EN" "http://www.w3.org/Graphics/SVG/1.1/DTD/svg11.dtd" >
<svg xmlns="http://www.w3.org/2000/svg">
<metadata></metadata>
<defs>
<font id="museo_sans100_italic" horiz-adv-x="770" >
<font-face units-per-em="2048" ascent="1536" descent="-512" />
<missing-glyph horiz-adv-x="579" />
<glyph unicode="ff" horiz-adv-x="1265" d="M739 0l185 946h-547l-184 -946h-87l185 946h-129l14 78h129l10 51q19 93 57 163.5t80 108.5t92.5 61t86 29.5t69.5 6.5l64 -4l-19 -80q-16 4 -45 4q-30 0 -58.5 -5t-67.5 -23.5t-70.5 -49t-60.5 -88t-44 -133.5l-8 -41h547l10 51q19 93 57 163.5t80 108.5t92.5 61 t86 29.5t69.5 6.5l64 -4l-19 -80q-16 4 -45 4q-30 0 -58.5 -5t-67.5 -23.5t-70.5 -49t-60.5 -88t-44 -133.5l-8 -41h281l-15 -78h-280l-185 -946h-86z" />
<glyph unicode="fi" horiz-adv-x="1071" d="M686 0l184 946h-493l-184 -946h-87l185 946h-129l14 78h129l10 51q19 93 57 163.5t80 108.5t92.5 61t86 29.5t69.5 6.5l64 -4l-19 -80q-16 4 -45 4q-30 0 -58.5 -5t-67.5 -23.5t-70.5 -49t-60.5 -88t-44 -133.5l-8 -41h582l-201 -1024h-86zM928 1284l30 150h103l-31 -150 h-102z" />
<glyph unicode="fl" horiz-adv-x="1107" d="M106 0l183 940h-129l14 78h129l10 51q19 95 58 167t80.5 110.5t92.5 62t86.5 29.5t69.5 6l64 -4l-19 -80q-16 4 -45 4t-58 -5t-68 -24t-71 -49.5t-60.5 -87t-43.5 -131.5l-10 -49h281l-15 -78h-280l-182 -940h-87zM721 158q0 24 6 59l238 1217h86l-234 -1203 q-6 -35 -6 -59q0 -33 9 -54.5t26 -30t30.5 -11t34.5 -2.5l27 2l-18 -80q-17 -4 -35 -4q-25 0 -49 6t-52 22t-45.5 51.5t-17.5 86.5z" />
<glyph unicode="ffi" horiz-adv-x="1714" d="M106 0l185 946h-129l14 78h129l10 51q19 93 57 163.5t80 108.5t92.5 61t86 29.5t69.5 6.5l64 -4l-19 -80q-16 4 -45 4q-30 0 -58.5 -5t-67.5 -23.5t-70.5 -49t-60.5 -88t-44 -133.5l-8 -41h547l10 51q19 93 57 163.5t80 108.5t92.5 61t86 29.5t69.5 6.5l64 -4l-19 -80 q-16 4 -45 4q-30 0 -58.5 -5t-67.5 -23.5t-70.5 -49t-60.5 -88t-44 -133.5l-8 -41h590l-201 -1024h-86l184 946h-501l-185 -946h-86l185 946h-547l-184 -946h-87zM1569 1284l30 150h103l-31 -150h-102z" />
<glyph unicode="ffl" horiz-adv-x="1740" d="M739 0l185 946h-547l-184 -946h-87l185 946h-129l14 78h129l10 51q19 93 57 163.5t80 108.5t92.5 61t86 29.5t69.5 6.5l64 -4l-19 -80q-16 4 -45 4q-30 0 -58.5 -5t-67.5 -23.5t-70.5 -49t-60.5 -88t-44 -133.5l-8 -41h547l10 51q19 93 57 163.5t80 108.5t92.5 61 t86 29.5t69.5 6.5l64 -4l-19 -80q-16 4 -45 4q-30 0 -58.5 -5t-67.5 -23.5t-70.5 -49t-60.5 -88t-44 -133.5l-8 -41h279l-15 -78h-278l-185 -946h-86zM1354 158q0 24 6 59l237 1217h86l-233 -1203q-6 -35 -6 -59q0 -33 9 -54.5t26 -30t30.5 -11t34.5 -2.5l27 2l-19 -80 q-16 -4 -34 -4q-25 0 -49 6t-52 22t-45.5 51.5t-17.5 86.5z" />
<glyph unicode="fj" horiz-adv-x="1081" d="M106 0l185 946h-129l14 78h129l10 51q19 93 57 163.5t80 108.5t92.5 61t86 29.5t69.5 6.5l64 -4l-19 -80q-16 4 -45 4q-30 0 -58.5 -5t-67.5 -23.5t-70.5 -49t-60.5 -88t-44 -133.5l-8 -41h590l-207 -1065q-19 -97 -55.5 -169.5t-76.5 -111.5t-89 -62t-84.5 -29.5 t-71.5 -6.5l-71 4l16 80q16 -4 45 -4t57.5 5t68 24t71 49t60.5 87t44 132l191 989h-502l-184 -946h-87zM936 1284l29 150h102l-29 -150h-102z" />
<glyph unicode=" "  horiz-adv-x="579" />
<glyph unicode="&#x09;" horiz-adv-x="579" />
<glyph unicode="&#xa0;" horiz-adv-x="579" />
<glyph unicode="!" horiz-adv-x="614" d="M213 358l211 1076h88l-211 -1076h-88zM127 0l27 125h120l-26 -125h-121z" />
<glyph unicode="&#x22;" horiz-adv-x="598" d="M463 1143l59 309h88l-59 -309h-88zM250 1143l59 309h88l-59 -309h-88z" />
<glyph unicode="#" horiz-adv-x="1499" d="M223 0l152 408h-309l30 81h310l167 453h-309l31 82h309l152 410h90l-152 -410h387l152 410h90l-152 -410h304l-31 -82h-303l-168 -453h303l-31 -81h-303l-151 -408h-91l152 408h-387l-152 -408h-90zM496 489h387l168 453h-387z" />
<glyph unicode="$" horiz-adv-x="1126" d="M51 154l66 61q5 -6 14 -16.5t42 -37t70.5 -47t99 -37t128.5 -16.5q98 0 185 41.5t142.5 120t55.5 176.5q0 66 -33.5 119t-87 88t-118.5 67t-130 65t-118.5 72t-87 98t-33.5 134q0 153 130 277.5t322 136.5l39 193h88l-37 -193q58 -4 110.5 -19t86.5 -33.5t59.5 -36 t36.5 -29.5l11 -11l-58 -70q-4 5 -12.5 12.5t-36.5 27.5t-60 35t-82.5 27.5t-103.5 12.5q-87 0 -164 -30t-128 -78t-80 -106.5t-29 -115.5q0 -59 33.5 -106t87 -80.5t118.5 -64.5t130 -66t118.5 -77t87 -105.5t33.5 -143.5q0 -106 -57 -200.5t-160 -155.5t-229 -68l-37 -188 h-88l37 193q-69 6 -132 26t-103 44.5t-70 48t-43 39.5z" />
<glyph unicode="%" horiz-adv-x="1449" d="M475 924q-107 0 -170 64t-63 171q0 113 96 206t217 93q105 0 168 -64t63 -167q0 -118 -95.5 -210.5t-215.5 -92.5zM14 0l1356 1434h117l-1358 -1434h-115zM479 1006q87 0 153 66.5t66 156.5q0 64 -41 105.5t-106 41.5q-86 0 -153.5 -67.5t-67.5 -155.5q0 -64 41 -105.5 t108 -41.5zM705 211q0 113 96 206t217 93q105 0 168 -64t63 -167q0 -118 -95.5 -211t-215.5 -93q-107 0 -170 64t-63 172zM793 205q0 -64 41 -106t108 -42q87 0 153 67t66 157q0 64 -41 105.5t-106 41.5q-86 0 -153.5 -67.5t-67.5 -155.5z" />
<glyph unicode="&#x26;" horiz-adv-x="1363" d="M86 328q0 151 98 279.5t256 168.5v4q-6 2 -16.5 6.5t-37 24.5t-46.5 46t-36.5 74t-16.5 107q0 177 133.5 298.5t341.5 121.5q36 0 77.5 -5.5t64.5 -10.5l24 -6l-41 -76q-74 16 -127 16q-157 0 -268 -94t-111 -244q0 -34 6 -62.5t25 -59.5t50.5 -52t87.5 -35t132 -14h334 l41 209h88l-41 -209h199l-17 -82h-199l-45 -229q-104 -529 -542 -529q-194 0 -304 97t-110 256zM178 328q0 -118 85 -192.5t237 -74.5q367 0 454 443l45 229h-329q-99 0 -187 -26.5t-156.5 -76t-108.5 -127.5t-40 -175z" />
<glyph unicode="'" horiz-adv-x="385" d="M250 1143l59 309h88l-59 -309h-88z" />
<glyph unicode="(" horiz-adv-x="563" d="M246 -195q-94 257 -94 539q0 627 411 1141h94q-421 -536 -421 -1143q0 -278 96 -537h-86z" />
<glyph unicode=")" horiz-adv-x="569" d="M14 -195h-94q422 538 422 1143q0 278 -96 537h86q94 -257 94 -539q0 -626 -412 -1141z" />
<glyph unicode="*" horiz-adv-x="962" d="M303 705l-67 53l253 268v4l-294 94l43 84l294 -110l56 336h96l-76 -336l342 108l13 -86l-342 -100v-4l145 -262l-76 -52l-139 275h-4z" />
<glyph unicode="+" horiz-adv-x="1398" d="M537 0l106 539h-485l14 82h485l107 538h88l-107 -538h484l-15 -82h-483l-106 -539h-88z" />
<glyph unicode="," horiz-adv-x="501" d="M-53 -193l172 318h112l-194 -318h-90z" />
<glyph unicode="-" horiz-adv-x="722" d="M66 539l14 82h565l-14 -82h-565z" />
<glyph unicode="." horiz-adv-x="489" d="M70 0l24 129h125l-24 -129h-125z" />
<glyph unicode="/" horiz-adv-x="786" d="M55 -86h-96l829 1602h97z" />
<glyph unicode="0" horiz-adv-x="1280" d="M145 428q0 82 10 173t33.5 192t58 195.5t87.5 180.5t117.5 149.5t152 101.5t187.5 38q385 0 385 -457q0 -83 -10 -173.5t-33 -191t-57.5 -194t-87 -179.5t-117 -149.5t-152.5 -101t-189 -37.5q-200 0 -292.5 120t-92.5 333zM236 424q0 -363 296 -363q87 0 162 35t130 93 t100 137.5t74 165.5t48.5 178.5t28 175.5t8.5 158q0 176 -69 272t-226 96q-113 0 -207.5 -61.5t-157 -160.5t-106 -225.5t-62.5 -253t-19 -247.5z" />
<glyph unicode="1" horiz-adv-x="903" d="M2 0l14 82h326l225 1157l17 72h-4q-21 -27 -95 -88l-196 -166l-53 65l370 312h88l-264 -1352h318l-17 -82h-729z" />
<glyph unicode="2" horiz-adv-x="1140" d="M23 0q3 92 37.5 174t91.5 145t129.5 120t152.5 106.5t159.5 97.5t151.5 99.5t127.5 106.5t88 125t32.5 148q0 113 -74 181.5t-206 68.5q-64 0 -128 -21t-109.5 -50.5t-81.5 -59.5t-54 -51l-18 -21l-64 52q8 10 22 26t61.5 56.5t97.5 72t125.5 57t150.5 25.5 q184 0 277 -92t93 -242q0 -84 -30 -158.5t-81 -133t-117.5 -112.5t-142 -101t-151.5 -93t-148.5 -95t-131 -100t-100.5 -115t-56 -134h782l-16 -82h-870z" />
<glyph unicode="3" horiz-adv-x="1140" d="M12 174l70 59q5 -7 14 -18.5t42.5 -41t72.5 -52.5t103 -41.5t135 -18.5q102 0 200 53.5t163 152t65 214.5q0 132 -93.5 203.5t-234.5 71.5h-107l-12 61l494 469l75 66v4q-38 -4 -110 -4h-580l17 82h821l-12 -62l-568 -534q48 0 98 -9t106 -34t98.5 -63t71 -103t28.5 -148 q0 -133 -75.5 -251t-196.5 -186.5t-253 -68.5q-84 0 -159 20.5t-123 49.5t-83.5 58.5t-50.5 50.5z" />
<glyph unicode="4" horiz-adv-x="1204" d="M39 410l12 61l920 963h92l-184 -942h213l-17 -82h-213l-80 -410h-88l80 410h-735zM186 492h605l131 671l30 129h-4q-45 -51 -90 -98l-672 -700v-2z" />
<glyph unicode="5" horiz-adv-x="1144" d="M41 182l76 51l5 -10t16 -24t28.5 -34t42.5 -36t57 -34t73 -24t91 -10q119 0 227.5 59.5t176 164.5t67.5 227q0 134 -92.5 218.5t-241.5 84.5q-75 0 -148.5 -21.5t-110.5 -43.5l-36 -21l-63 23l215 682h668l-17 -82h-588l-133 -424l-30 -88h4q12 7 33 17t84.5 27t125.5 17 q190 0 306 -108.5t116 -280.5q0 -145 -79.5 -269.5t-209 -196t-274.5 -71.5q-61 0 -115 11.5t-92 29.5t-70.5 40t-52.5 44.5t-34 40.5t-20 29z" />
<glyph unicode="6" horiz-adv-x="1216" d="M547 -25q-133 0 -227 66.5t-139.5 179.5t-45.5 262q0 72 15.5 157.5t48 179.5t78.5 184.5t111 173t141.5 144.5t174.5 99t205 37q71 0 135.5 -14t93.5 -28l29 -15l-53 -76q-9 5 -26 13t-70.5 21t-108.5 13q-120 0 -229.5 -58t-190.5 -154t-139 -210t-90 -237h4 q75 91 189.5 143.5t234.5 52.5q173 0 277 -97.5t104 -266.5q0 -103 -37.5 -204.5t-103 -183t-166 -132t-215.5 -50.5zM541 61q182 0 309 140.5t127 343.5q0 130 -79 204t-216 74q-53 0 -114.5 -16.5t-121.5 -49.5t-109 -77t-79.5 -103.5t-30.5 -123.5q0 -71 20 -139 t57.5 -125.5t99 -92.5t137.5 -35z" />
<glyph unicode="7" horiz-adv-x="1040" d="M80 0l835 1219q22 32 47.5 65.5t40.5 50.5l15 17v4q-41 -4 -113 -4h-688l16 82h908l-13 -62l-948 -1372h-100z" />
<glyph unicode="8" horiz-adv-x="1232" d="M96 344q0 81 34 158.5t77 128t99 96.5t83.5 63t46.5 27q-143 97 -143 244q0 74 34 145t95 127t152.5 90.5t197.5 34.5q184 0 281.5 -81.5t97.5 -223.5q0 -67 -27 -138t-62.5 -123.5t-79 -101t-69 -71t-39.5 -33.5q168 -107 168 -260q0 -127 -75.5 -232t-196.5 -162 t-258 -57q-178 0 -297 97t-119 272zM948 424q0 43 -20 81.5t-49.5 65.5t-77 55.5t-89 48t-100.5 47.5t-96 48q-18 -10 -37 -20.5t-53 -34t-63.5 -48.5t-62.5 -61.5t-56 -74.5t-38.5 -87.5t-15.5 -99.5q0 -130 93.5 -206.5t228.5 -76.5q107 0 206 43.5t164.5 128.5t65.5 191z M387 1063q0 -42 18.5 -79.5t45 -64t73 -55t83 -46t96 -45t92.5 -44.5q21 16 44 35.5t65 64t73.5 90t55.5 109t24 125.5q0 101 -77.5 160t-207.5 59q-166 0 -275.5 -91t-109.5 -218z" />
<glyph unicode="9" horiz-adv-x="1216" d="M92 33l53 76q9 -5 26 -13t70.5 -21.5t108.5 -13.5q97 0 187.5 38.5t162 103t131.5 150.5t101.5 178.5t66.5 189.5h-4q-75 -91 -189.5 -144t-234.5 -53q-173 0 -277 98t-104 267q0 103 37.5 204.5t103.5 182.5t166.5 131.5t215.5 50.5q132 0 226.5 -66.5t139.5 -179.5 t45 -262q0 -72 -15.5 -157.5t-48 -179.5t-78.5 -184.5t-111 -173t-141.5 -144.5t-174.5 -99t-205 -37q-71 0 -135.5 14.5t-93.5 28.5zM571 610q67 0 146.5 27.5t150 74t117.5 118.5t47 151q0 71 -20 139t-57 125t-98.5 92t-137.5 35q-182 0 -309 -140t-127 -343 q0 -130 77.5 -204.5t210.5 -74.5z" />
<glyph unicode=":" horiz-adv-x="612" d="M299 895l25 129h125l-25 -129h-125zM125 0l25 129h124l-24 -129h-125z" />
<glyph unicode=";" horiz-adv-x="624" d="M311 895l25 129h125l-25 -129h-125zM-6 -193l172 318h113l-195 -318h-90z" />
<glyph unicode="&#x3c;" horiz-adv-x="1196" d="M104 543v73l900 404v-98l-773 -340v-4l773 -340v-99z" />
<glyph unicode="=" horiz-adv-x="1458" d="M252 702v82h934v-82h-934zM252 375v82h934v-82h-934z" />
<glyph unicode="&#x3e;" horiz-adv-x="1198" d="M182 139v99l772 340v4l-772 340v98l899 -404v-73z" />
<glyph unicode="?" horiz-adv-x="960" d="M274 358l19 91q15 71 50.5 133t80 107.5t95.5 87.5t99 82t87 82.5t62.5 97.5t23.5 118q0 95 -67 155t-183 60q-68 0 -138 -21.5t-105 -42.5l-36 -22l-35 76q6 4 16.5 10.5t45 23t69.5 29t86.5 23t100.5 10.5q157 0 248.5 -82t91.5 -215q0 -74 -24.5 -138t-65 -111.5 t-89.5 -90t-101 -83t-97 -81.5t-80 -94.5t-47 -113.5l-19 -91h-88zM190 0l27 125h121l-27 -125h-121z" />
<glyph unicode="@" horiz-adv-x="1593" d="M109 356q0 116 34 230t93 211t141.5 180.5t176.5 142t201 92t212 33.5q113 0 196.5 -24t131 -66.5t69.5 -94.5t22 -116q0 -34 -6 -72l-135 -694h144l-17 -82h-526q-152 0 -247 94t-95 240q0 88 40 174t104.5 149.5t149.5 102.5t171 39h323q4 28 4 45q0 99 -76 161 t-245 62q-149 0 -291.5 -66t-248 -175.5t-170 -258.5t-64.5 -307q0 -228 142.5 -375t373.5 -147l-17 -84q-168 0 -303 78.5t-211.5 217t-76.5 310.5zM596 432q0 -110 72 -182t188 -72h297l123 635h-293q-98 0 -187.5 -53t-144.5 -141.5t-55 -186.5z" />
<glyph unicode="A" horiz-adv-x="1243" d="M25 0h-99l813 1434h92l261 -1434h-91l-88 496h-608zM350 578h547l-102 581l-25 172h-4q-51 -111 -86 -172z" />
<glyph unicode="B" horiz-adv-x="1271" d="M102 0l281 1434h461q84 0 151 -25q81 -33 125.5 -101.5t44.5 -166.5q0 -137 -71 -237.5t-185 -145.5v-4q79 -28 128.5 -102.5t49.5 -182.5q0 -148 -73 -261t-193 -167q-86 -41 -196 -41h-523zM346 795h389q138 0 238 97.5t100 248.5q0 98 -60 154.5t-169 56.5h-389z M207 82h405q96 0 162 31q100 44 160.5 137t60.5 217q0 115 -70.5 180.5t-191.5 65.5h-403z" />
<glyph unicode="C" horiz-adv-x="1507" d="M133 586q0 140 46.5 274t128.5 240.5t188.5 188t234 125.5t256.5 44q96 0 182.5 -18.5t140.5 -45t94 -53t58 -45.5l17 -18l-62 -64q-6 7 -17 17.5t-50.5 38t-85.5 48.5t-121 38.5t-156 17.5q-145 0 -284.5 -62t-244.5 -167t-169 -252t-64 -307q0 -230 141 -378.5 t371 -148.5q86 0 171.5 20t146 48.5t109 57.5t72.5 49l24 20l51 -68q-10 -9 -28 -23t-77 -50.5t-122 -64t-158 -50.5t-189 -23q-185 0 -323 79.5t-209.5 217.5t-71.5 314z" />
<glyph unicode="D" horiz-adv-x="1517" d="M102 0l281 1434h428q287 0 449.5 -145t162.5 -408q0 -180 -63 -341.5t-174 -280.5t-271 -189t-344 -70h-469zM205 82h348q165 0 309.5 61t247 166.5t162 253t59.5 314.5q0 228 -140.5 351.5t-389.5 123.5h-346z" />
<glyph unicode="E" horiz-adv-x="1165" d="M102 0l281 1434h784l-18 -82h-694l-115 -588h571l-16 -82h-569l-119 -600h733l-14 -82h-824z" />
<glyph unicode="F" horiz-adv-x="1052" d="M102 0l281 1434h723l-16 -82h-635l-117 -598h549l-17 -82h-548l-132 -672h-88z" />
<glyph unicode="G" horiz-adv-x="1554" d="M131 567q0 141 45.5 276t127.5 245t188.5 194t235.5 130t261 46q92 0 176 -16.5t138 -40t95 -47t59 -40.5l18 -16l-62 -65q-6 6 -18 15.5t-52.5 33.5t-86 43t-118 34t-149.5 15q-148 0 -288.5 -65t-245.5 -173.5t-168.5 -258.5t-63.5 -310q0 -225 136.5 -366.5 t361.5 -141.5q88 0 176 26t151 63t114 74t76 63l26 26l51 260h-254l14 82h344l-127 -653h-88l25 127l14 61h-4q-9 -9 -25 -23t-69 -51t-110 -65t-143 -51t-171 -23q-265 0 -427.5 166t-162.5 426z" />
<glyph unicode="H" horiz-adv-x="1529" d="M102 0l281 1434h88l-131 -674h909l131 674h88l-280 -1434h-88l133 678h-909l-134 -678h-88z" />
<glyph unicode="I" horiz-adv-x="532" d="M102 0l281 1434h88l-281 -1434h-88z" />
<glyph unicode="J" horiz-adv-x="1044" d="M23 285q0 39 12 106l8 45h88l-8 -45q-10 -52 -10 -92q0 -240 237 -240q44 0 86.5 10t87 35t80.5 62t64.5 95t42.5 130l184 961h-340l16 82h428l-204 -1055q-21 -110 -68.5 -191t-110.5 -126t-129 -66t-137 -21q-67 0 -124 17.5t-103.5 53t-73 97t-26.5 142.5z" />
<glyph unicode="K" horiz-adv-x="1187" d="M102 0l281 1434h88l-125 -639h258l543 639h106l-575 -678v-4l323 -752h-96l-303 713h-272l-140 -713h-88z" />
<glyph unicode="L" horiz-adv-x="1028" d="M102 0l281 1434h88l-264 -1352h684l-19 -82h-770z" />
<glyph unicode="M" horiz-adv-x="1734" d="M57 0l398 1434h80l241 -902l39 -161h4q54 89 101 161l593 902h91l-166 -1434h-88l127 1094l30 190h-4q-63 -120 -110 -190l-543 -818h-90l-225 818q-8 30 -18 78.5t-17 81.5l-6 34h-5q-20 -124 -38 -194l-306 -1094h-88z" />
<glyph unicode="N" horiz-adv-x="1529" d="M102 0l281 1434h72l598 -1125q16 -29 36.5 -74t32.5 -75l13 -31h4q8 108 22 180l219 1125h88l-280 -1434h-72l-598 1124q-16 29 -36.5 74.5t-33.5 75.5l-12 31h-4q-8 -109 -22 -181l-220 -1124h-88z" />
<glyph unicode="O" horiz-adv-x="1695" d="M131 590q0 172 74.5 333.5t194.5 278t278 186.5t319 70q270 0 440.5 -168t170.5 -430q0 -175 -75 -339.5t-195.5 -283.5t-278.5 -190.5t-318 -71.5q-270 0 -440 172.5t-170 442.5zM223 590q0 -233 144.5 -382t373.5 -149q142 0 283 64.5t249 171t175.5 255.5t67.5 308 q0 226 -145 371t-374 145q-145 0 -286 -63t-248 -167.5t-173.5 -250.5t-66.5 -303z" />
<glyph unicode="P" horiz-adv-x="1220" d="M102 0l281 1434h448q143 0 230 -50q74 -42 116 -116t42 -170q0 -161 -84 -285t-217 -180q-95 -39 -207 -39h-404l-117 -594h-88zM324 676h378q102 0 181 33q110 46 176.5 147.5t66.5 241.5q0 121 -78 187.5t-217 66.5h-376z" />
<glyph unicode="Q" horiz-adv-x="1718" d="M131 590q0 172 74.5 333.5t194.5 278t278 186.5t319 70q270 0 440.5 -168t170.5 -430q0 -185 -80.5 -354.5t-218.5 -296.5l141 -186l-61 -54l-144 189q-112 -87 -242 -135t-262 -48q-270 0 -440 172.5t-170 442.5zM223 590q0 -233 144.5 -382t373.5 -149q243 0 455 166 l-147 195l61 53l147 -197q119 114 189 266t70 316q0 226 -145 371t-374 145q-145 0 -286 -63t-248 -167.5t-173.5 -250.5t-66.5 -303z" />
<glyph unicode="R" horiz-adv-x="1265" d="M104 0l279 1434h455q124 0 198 -39t116 -112.5t42 -168.5q0 -177 -108 -304t-271 -159v-4q9 -16 21 -51l208 -596h-94l-221 635h-414l-122 -635h-89zM332 717h379q164 0 277.5 111t113.5 286q0 111 -69.5 174.5t-194.5 63.5h-383z" />
<glyph unicode="S" horiz-adv-x="1093" d="M35 154l65 61q5 -6 14 -16.5t42 -37t71 -47t99.5 -37t128.5 -16.5q98 0 185 41.5t142.5 120t55.5 176.5q0 66 -33.5 119t-87.5 88t-118.5 67t-129.5 65t-119 72t-87.5 98t-33.5 134q0 77 37.5 152t101 133.5t156.5 94.5t197 36q68 0 129.5 -13.5t100.5 -33t68.5 -38.5 t42.5 -33l13 -13l-57 -70q-4 5 -12.5 12.5t-36.5 27.5t-60 35t-82.5 27.5t-103.5 12.5q-87 0 -164 -30t-128 -78t-80 -106.5t-29 -115.5q0 -59 33.5 -106t87 -80.5t118.5 -64.5t130 -66t118.5 -77t87 -105.5t33.5 -143.5q0 -82 -36.5 -159.5t-98.5 -135.5t-151.5 -93.5 t-188.5 -35.5q-59 0 -114 10t-96 25.5t-76.5 34.5t-59.5 38.5t-41 35t-25 25.5z" />
<glyph unicode="T" horiz-adv-x="1187" d="M426 0l262 1352h-532l14 82h1157l-14 -82h-537l-262 -1352h-88z" />
<glyph unicode="U" horiz-adv-x="1472" d="M168 383q0 55 12 117l182 934h89l-183 -936q-10 -46 -10 -107q0 -157 98 -244.5t275 -87.5q203 0 347 119t185 324l183 932h88l-189 -953q-45 -235 -211.5 -370.5t-402.5 -135.5q-214 0 -338.5 109t-124.5 299z" />
<glyph unicode="V" horiz-adv-x="1234" d="M444 0l-254 1434h89l204 -1160l23 -172h4q51 104 90 172l657 1160h99l-815 -1434h-97z" />
<glyph unicode="W" horiz-adv-x="1873" d="M346 0l-98 1434h88l74 -1168l4 -153h4q36 81 71 153l570 1168h102l80 -1168l4 -153h4q35 83 66 153l530 1168h99l-658 -1434h-110l-78 1081q-3 41 -4.5 98t-1.5 93v37h-5q-57 -134 -102 -226l-532 -1083h-107z" />
<glyph unicode="X" horiz-adv-x="1167" d="M-53 0l608 764l-281 670h95l186 -453l66 -160h4q59 86 116 156l369 457h111l-553 -684l321 -750h-94l-229 539l-62 153h-4q-56 -79 -113 -149l-436 -543h-104z" />
<glyph unicode="Y" horiz-adv-x="1126" d="M389 0l123 623l-328 811h95l227 -566l59 -161h4q64 87 119 159l449 568h108l-645 -813l-123 -621h-88z" />
<glyph unicode="Z" horiz-adv-x="1193" d="M-29 0l15 70l1001 1151q28 33 59.5 65.5t48.5 49.5l17 16v4q-30 -4 -102 -4h-734l19 82h948l-14 -70l-1004 -1151q-28 -33 -59 -65.5t-48 -49.5l-18 -16v-4q31 4 103 4h780l-14 -82h-998z" />
<glyph unicode="[" horiz-adv-x="544" d="M174 -113h133l-16 -82h-221l325 1680h221l-16 -82h-133z" />
<glyph unicode="\" horiz-adv-x="772" d="M457 -86l-205 1602h86l205 -1602h-86z" />
<glyph unicode="]" horiz-adv-x="544" d="M-43 -113h133l293 1516h-133l16 82h221l-325 -1680h-221z" />
<glyph unicode="^" horiz-adv-x="1228" d="M39 516l403 918h66l403 -918h-94l-342 795l-342 -795h-94z" />
<glyph unicode="_" horiz-adv-x="1173" d="M-41 0h1016l-14 -82h-1016z" />
<glyph unicode="`" horiz-adv-x="1042" d="M426 1536l-117 227h107l92 -227h-82z" />
<glyph unicode="a" horiz-adv-x="1056" d="M29 231q0 80 31 144t86.5 106t122.5 71.5t149 44.5t155 21.5t152 6.5h80q14 79 14 131q0 99 -52.5 154t-176.5 55q-50 0 -100.5 -10t-86.5 -24.5t-65 -29.5t-44 -25l-15 -10l-37 78l16.5 11t45.5 25.5t72.5 32t96 25t117.5 11.5q156 0 237.5 -70.5t81.5 -210.5 q0 -52 -12 -117l-127 -651h-86l27 133q4 24 10 47.5t10 35.5l4 11h-4q2 0 -13.5 -26t-48.5 -63t-78 -74t-113 -63t-142 -26q-131 0 -219 69t-88 187zM119 240q0 -78 57.5 -131.5t167.5 -53.5q78 0 152.5 40.5t130.5 105t96 142t57 155.5l11 47h-66q-606 0 -606 -305z" />
<glyph unicode="b" horiz-adv-x="1189" d="M61 0l279 1434h86l-100 -523q-4 -21 -11.5 -44.5t-12.5 -36.5l-5 -13h4q58 102 165.5 167t229.5 65q178 0 275.5 -108t97.5 -296q0 -144 -47 -270.5t-124 -213t-178 -136.5t-208 -50q-123 0 -211.5 60.5t-118.5 171.5h-4q0 -48 -10 -101l-21 -106h-86zM231 377 q0 -140 70.5 -229t210.5 -89q83 0 165.5 40.5t150 113t109.5 184.5t42 244q0 151 -75.5 237.5t-207.5 86.5q-84 0 -159.5 -34.5t-130.5 -93t-95 -134t-60 -159.5t-20 -167z" />
<glyph unicode="c" horiz-adv-x="1132" d="M80 403q0 141 55.5 264.5t144.5 205.5t200.5 129t224.5 47q71 0 134 -15t102.5 -36.5t69 -43t41.5 -36.5l13 -15l-61 -63q-4 5 -12 13.5t-35.5 30t-58.5 38t-82.5 30t-106.5 13.5q-97 0 -193 -40.5t-173 -111.5t-125 -176.5t-48 -224.5q0 -160 103.5 -256.5t261.5 -96.5 q63 0 124.5 15t104 37t75.5 44t49 37l17 15l33 -78q-6 -6 -18 -16.5t-52.5 -37t-84 -47t-110 -37t-134.5 -16.5q-201 0 -330 116.5t-129 311.5z" />
<glyph unicode="d" horiz-adv-x="1191" d="M82 379q0 144 47 270.5t124 213t178 136.5t208 50q122 0 211 -60.5t119 -171.5h4q0 47 10 94l102 523h86l-278 -1434h-86l22 119q4 21 10 43t11 34l4 11h-4q-57 -97 -160 -164.5t-233 -67.5q-181 0 -278 107.5t-97 296.5zM172 383q0 -151 76 -237.5t209 -86.5 q84 0 159.5 35.5t129.5 95t94 135.5t60 159t20 163q0 139 -71 228.5t-210 89.5q-83 0 -165.5 -41t-150 -113.5t-109.5 -184.5t-42 -243z" />
<glyph unicode="e" horiz-adv-x="1134" d="M82 403q0 122 45 239t122.5 207t190 145t238.5 55q177 0 266.5 -99t89.5 -264q0 -34 -6.5 -74t-13.5 -63l-6 -23h-822q-12 -58 -12 -112q0 -155 94 -255t267 -100q55 0 110 13.5t95 32.5t72 37.5t48 31.5l17 14l32 -77q-7 -6 -19 -15t-51 -32.5t-80.5 -41.5t-102.5 -32.5 t-121 -14.5q-200 0 -326.5 116.5t-126.5 311.5zM207 606h727q8 39 8 86q0 137 -73 207t-191 70q-96 0 -186.5 -40t-167 -123.5t-117.5 -199.5z" />
<glyph unicode="f" horiz-adv-x="632" d="M106 0l183 940h-129l14 78h129l10 51q19 95 58 167t80.5 110.5t92.5 62t86.5 29.5t69.5 6l64 -4l-19 -80q-16 4 -45 4t-58 -5t-68 -24t-71 -49.5t-60.5 -87t-43.5 -131.5l-10 -49h281l-15 -78h-280l-182 -940h-87z" />
<glyph unicode="g" horiz-adv-x="1175" d="M68 -279q13 -8 37 -19t94 -29.5t135 -18.5q173 0 296.5 88t160.5 264l22 109q4 21 10.5 44.5t11.5 36.5l5 13h-4q-131 -209 -365 -209q-178 0 -282.5 108t-104.5 293q0 87 22 177.5t67.5 175t108 150t150.5 105.5t189 40q58 0 109.5 -10.5t98.5 -33t81 -62.5t48 -95h5 q-2 24 2 49l24 127h86l-198 -1028q-18 -91 -56.5 -164t-89.5 -121.5t-115 -80.5t-131.5 -46t-140.5 -14q-179 0 -326 80zM174 403q0 -150 79.5 -234.5t219.5 -84.5q87 0 161 38t124 100t85.5 141.5t51.5 162.5t16 164q0 144 -77 209.5t-209 65.5q-104 0 -191.5 -50 t-143 -131t-86 -180t-30.5 -201z" />
<glyph unicode="h" horiz-adv-x="1202" d="M61 0l279 1434h86l-111 -580l-26 -94h4q22 43 63.5 90.5t101 93.5t143 75.5t171.5 29.5q140 0 212.5 -66.5t72.5 -191.5q0 -55 -17 -142l-125 -649h-86l119 618q19 101 19 156q0 95 -53 143t-144 48q-93 0 -182.5 -39.5t-159 -106t-119.5 -155t-69 -185.5l-93 -479h-86z " />
<glyph unicode="i" horiz-adv-x="448" d="M303 1284l31 150h102l-30 -150h-103zM61 0l201 1024h86l-201 -1024h-86z" />
<glyph unicode="j" horiz-adv-x="448" d="M303 1284l29 150h102l-28 -150h-103zM55 -43l207 1067h86l-207 -1065q-19 -97 -55.5 -169.5t-76.5 -111.5t-89 -62t-84.5 -29.5t-71.5 -6.5l-71 4l16 80q16 -4 45 -4t57.5 5t68 24t71 49t60.5 87t44 132z" />
<glyph unicode="k" horiz-adv-x="980" d="M61 0l281 1434h86l-160 -813h174l414 403h117l-455 -442v-4l291 -578h-98l-269 541h-188l-107 -541h-86z" />
<glyph unicode="l" horiz-adv-x="475" d="M88 158q0 24 6 59l238 1217h86l-234 -1203q-6 -35 -6 -59q0 -33 9 -54.5t26 -30t31 -11t35 -2.5l26 2l-18 -80q-17 -4 -35 -4q-25 0 -49 6t-52 22t-45.5 51.5t-17.5 86.5z" />
<glyph unicode="m" horiz-adv-x="1882" d="M61 0l199 1024h86l-33 -170l-26 -94h4q61 122 188.5 205.5t261.5 83.5q146 0 207.5 -70.5t61.5 -208.5h4q64 121 186 200t254 79q139 0 211 -69.5t72 -195.5q0 -52 -17 -135l-125 -649h-86l119 618q19 101 19 150q0 96 -47 148.5t-158 52.5q-87 0 -169.5 -43t-143 -111.5 t-102.5 -150.5t-58 -164l-97 -500h-86l119 618q19 101 19 156q0 92 -44.5 143.5t-152.5 51.5q-86 0 -169 -41.5t-145.5 -108.5t-107 -151t-61.5 -170l-97 -498h-86z" />
<glyph unicode="n" horiz-adv-x="1202" d="M61 0l199 1024h86l-31 -170q-4 -21 -11 -44.5t-12 -36.5l-5 -13h4q17 34 46 71t74.5 76.5t98 70.5t121.5 51t141 20q140 0 212.5 -66.5t72.5 -191.5q0 -55 -17 -142l-125 -649h-86l119 618q19 101 19 156q0 95 -53 143t-144 48q-125 0 -238.5 -67.5t-190 -178 t-101.5 -240.5l-93 -479h-86z" />
<glyph unicode="o" horiz-adv-x="1275" d="M80 420q0 127 53.5 244.5t140 201t201 133.5t232.5 50q201 0 326.5 -123.5t125.5 -315.5q0 -128 -54 -247t-141 -203t-201 -134.5t-231 -50.5q-201 0 -326.5 125t-125.5 320zM170 422q0 -159 101 -261t261 -102q99 0 196 43.5t172.5 116.5t122 176t46.5 213 q0 156 -101 256.5t-261 100.5q-136 0 -259.5 -72.5t-200.5 -199t-77 -271.5z" />
<glyph unicode="p" horiz-adv-x="1191" d="M168 106l-100 -516h-86l278 1434h86l-20 -113q-4 -21 -10 -44t-10 -35l-5 -13h4q58 99 158.5 164.5t232.5 65.5q179 0 277 -108t98 -296q0 -144 -46.5 -270.5t-123.5 -213t-177 -136.5t-206 -50q-124 0 -214 59.5t-120 172.5h-4q-2 -48 -12 -101zM233 383 q0 -140 72.5 -232t208.5 -92q83 0 165.5 40.5t150 113t109.5 184.5t42 244q0 151 -76 237.5t-209 86.5q-103 0 -192.5 -53.5t-147.5 -138t-90.5 -187t-32.5 -203.5z" />
<glyph unicode="q" horiz-adv-x="1191" d="M82 377q0 145 47 272t124.5 213.5t179 136.5t208.5 50q122 0 210 -60t118 -170h4q2 35 10 82l23 123h86l-279 -1434h-86l100 516q4 24 11.5 49t12.5 39l5 13h-4q-59 -100 -159.5 -166t-235.5 -66q-179 0 -277 107.5t-98 294.5zM172 383q0 -151 76.5 -237.5t208.5 -86.5 q84 0 159.5 35.5t130 95t95 135.5t60.5 159t20 163q0 139 -71 228.5t-210 89.5q-83 0 -166 -41t-150.5 -113.5t-110 -184.5t-42.5 -243z" />
<glyph unicode="r" horiz-adv-x="696" d="M61 0l199 1024h86l-37 -184l-26 -95h4q60 123 159 205t222 82q26 0 61 -6l-18 -86q-32 4 -45 4q-72 0 -138 -37.5t-114.5 -96.5t-88.5 -134.5t-64.5 -146.5t-37.5 -138l-76 -391h-86z" />
<glyph unicode="s" horiz-adv-x="903" d="M8 123l60 59q4 -5 12 -13.5t35.5 -29.5t59.5 -37t84.5 -29.5t109.5 -13.5q105 0 190.5 60.5t85.5 163.5q0 43 -26.5 77t-69 57.5t-94 45.5t-102.5 46.5t-93.5 54.5t-69 75.5t-26.5 103.5q0 73 32 133t85 96.5t116.5 56.5t130.5 20q59 0 111 -11.5t84.5 -27.5t56.5 -32.5 t34 -27.5l11 -12l-59 -64q-3 4 -9 10t-27.5 21.5t-46.5 27.5t-67.5 22t-89.5 10t-93 -12.5t-87 -37t-66.5 -68t-25.5 -99.5q0 -51 35.5 -90.5t89 -63.5t116 -53t116 -58.5t89 -81t35.5 -118.5q0 -86 -51.5 -157.5t-134.5 -111t-178 -39.5q-71 0 -134.5 15t-103.5 37 t-69.5 44t-42.5 37z" />
<glyph unicode="t" horiz-adv-x="641" d="M158 272q0 52 12 119l106 549h-135l15 78h135l57 291h86l-57 -291h268l-14 -78h-269l-108 -563q-10 -49 -10 -101q0 -204 182 -204l59 4l-16 -80q-16 -4 -43 -4q-268 0 -268 280z" />
<glyph unicode="u" horiz-adv-x="1191" d="M106 233q0 55 17 142l125 649h86l-119 -614q-18 -89 -18 -160q0 -91 45 -141t157 -50q93 0 181.5 43t155 112.5t113.5 157t64 177.5l93 475h86l-199 -1024h-86l33 170l26 94h-4q-23 -44 -63 -90t-99 -93t-142 -76.5t-173 -29.5q-122 0 -200.5 62.5t-78.5 195.5z" />
<glyph unicode="v" horiz-adv-x="958" d="M313 0l-204 1024h88l155 -809q4 -22 8 -49.5t6 -44.5l1 -17h4q30 62 59 111l469 809h96l-600 -1024h-82z" />
<glyph unicode="w" horiz-adv-x="1632" d="M276 0l-161 1024h88l123 -809l12 -111h4q30 62 57 111l435 805h100l123 -805q4 -22 7.5 -49.5t5.5 -44.5l1 -17h4q28 60 55 111l439 809h94l-559 -1024h-92l-131 801l-13 110h-4q-30 -61 -57 -110l-434 -801h-97z" />
<glyph unicode="x" horiz-adv-x="976" d="M-53 0l479 545l-250 479h100l183 -371l24 -57h2q20 24 43 51l322 377h108l-430 -489l275 -535h-96l-209 422l-29 59h-4q-16 -22 -41 -53l-369 -428h-108z" />
<glyph unicode="y" horiz-adv-x="1003" d="M-133 -305q5 -5 14 -12t40 -19t65 -12q72 0 128.5 49t108.5 133l109 174l-230 1016h91l178 -831l18 -97h2q26 48 55 97l500 831h98l-776 -1270q-114 -184 -282 -184q-47 0 -89 14t-61 28l-18 15z" />
<glyph unicode="z" horiz-adv-x="1021" d="M-27 0l13 70l766 780q90 94 96 94v4q-35 -4 -103 -4h-563l15 80h790l-14 -70l-768 -780q-22 -22 -46 -45t-38.5 -36.5t-14.5 -12.5v-4q37 4 105 4h614l-14 -80h-838z" />
<glyph unicode="{" horiz-adv-x="661" d="M188 57q0 39 15 123l37 193q6 38 6 65q0 44 -13.5 78.5t-33 52.5t-39.5 29.5t-34 14.5l-13 3l16 82q7 1 19.5 4t45.5 19t60.5 40t55.5 72t40 109l33 166q20 102 58 176.5t75 111.5t84.5 58t75.5 25t59 4h17l-15 -80h-10q-18 0 -37 -3t-54 -19.5t-63.5 -45.5t-57.5 -87.5 t-44 -137.5l-37 -190q-12 -61 -38.5 -110.5t-55.5 -76.5t-56 -45t-45 -24l-18 -5v-4q5 -2 13 -7t28 -23t35.5 -39t28 -57t12.5 -76q0 -28 -6 -58l-43 -217q-13 -67 -13 -106q0 -50 13 -87t30.5 -55.5t41.5 -29t39.5 -13t31.5 -2.5h10l-16 -80q-6 -2 -18 -2q-19 0 -42 4 t-56 20t-59 41.5t-44.5 74.5t-18.5 114z" />
<glyph unicode="|" horiz-adv-x="612" d="M266 -317v1925h88v-1925h-88z" />
<glyph unicode="}" horiz-adv-x="659" d="M-53 -115q19 0 38.5 3t54.5 19.5t63 45.5t56.5 87.5t43.5 137.5l41 215q12 64 38.5 115t55.5 78t56 45t45 23l18 5v5q-5 2 -12.5 7t-27.5 22t-35 37.5t-27.5 55.5t-12.5 74q0 28 6 58l37 192q12 62 12 107q0 50 -13 86.5t-30.5 55t-41.5 29.5t-39 13t-31 2h-11l17 80 q8 2 18 2q19 0 42 -4t56 -20t58.5 -41.5t44 -74.5t18.5 -114q0 -44 -14 -123l-33 -168q-6 -38 -6 -66q0 -44 13.5 -78.5t33 -52.5t39.5 -29.5t34 -14.5l13 -3l-16 -82q-7 -1 -19.5 -4t-45.5 -19t-60.5 -39.5t-55.5 -71.5t-40 -109l-37 -191q-15 -74 -38.5 -134t-49.5 -98.5 t-58 -67t-59 -43t-58 -22.5t-49.5 -10t-39.5 -2h-17l15 82h10z" />
<glyph unicode="~" horiz-adv-x="1196" d="M145 436q0 152 64.5 223.5t171.5 71.5q54 0 98.5 -16.5t72 -41.5t56.5 -54.5t53 -54.5t61 -41.5t81 -16.5q48 0 81 23t47.5 60.5t19.5 69t5 64.5h82q0 -152 -64 -223.5t-171 -71.5q-54 0 -98.5 16.5t-72 41.5t-56.5 54.5t-53 54.5t-61 41.5t-81 16.5q-39 0 -68.5 -16.5 t-45 -39.5t-25.5 -55t-12.5 -56.5t-2.5 -49.5h-82z" />
<glyph unicode="&#xa1;" horiz-adv-x="534" d="M262 899l27 125h121l-27 -125h-121zM25 -410l211 1076h88l-211 -1076h-88z" />
<glyph unicode="&#xa2;" horiz-adv-x="1167" d="M440 -27l33 174q-157 19 -245.5 128.5t-88.5 293.5q0 94 22.5 191.5t69.5 189.5t112 165t156.5 119.5t196.5 51.5l33 172h88l-35 -174q56 -7 104 -26.5t80 -45t58 -55t41 -58t24.5 -51.5t12.5 -37l4 -14l-84 -32q-2 10 -6.5 26t-25 56.5t-50 72t-85.5 57t-126 25.5 q-151 0 -266 -91.5t-172.5 -235t-57.5 -312.5q0 -153 76 -242.5t232 -89.5q68 0 132.5 24.5t107 59.5t75.5 70t48 59l16 25l84 -33q-3 -6 -9.5 -16t-28 -39t-46 -55.5t-64 -59.5t-81.5 -57.5t-98.5 -42.5t-115.5 -21l-33 -172h-88z" />
<glyph unicode="&#xa3;" horiz-adv-x="1179" d="M178 682l17 82h90l67 342q28 147 157 249.5t298 102.5q55 0 105.5 -11t84 -26.5t59 -31t36.5 -26.5l12 -11l-68 -62q-3 3 -9.5 8.5t-28.5 20t-47 25t-64 19.5t-80 9q-147 0 -246.5 -82.5t-122.5 -202.5l-63 -323h405l-16 -82h-406l-116 -600h719l-17 -82h-938l17 82h131 l116 600h-92z" />
<glyph unicode="&#xa5;" horiz-adv-x="1212" d="M442 0l90 455h-333l14 82h334l18 86l-41 98h-274l16 82h226l-256 631h96l225 -566l61 -161h5q61 87 116 159l449 568h108l-501 -631h221l-17 -82h-270l-76 -98l-18 -86h328l-15 -82h-327l-91 -455h-88z" />
<glyph unicode="&#xa7;" horiz-adv-x="806" d="M201 127l53 985q8 141 112 243.5t261 102.5q34 0 66 -7t53.5 -17t38 -20.5t24.5 -17.5l8 -7l-61 -62q-6 5 -16 13t-44.5 21t-70.5 13q-119 0 -197 -78.5t-84 -195.5l-57 -973h-86zM68 4q6 -5 16 -13t44.5 -21t70.5 -13q119 0 196.5 78.5t83.5 195.5l58 973h86l-54 -985 q-8 -141 -111.5 -243.5t-260.5 -102.5q-54 0 -101.5 17.5t-68.5 35.5l-21 17z" />
<glyph unicode="&#xa8;" horiz-adv-x="1042" d="M496 1614l28 149h94l-28 -149h-94zM215 1614l29 149h94l-29 -149h-94z" />
<glyph unicode="&#xa9;" horiz-adv-x="1738" d="M162 717q0 152 57 289.5t153.5 236.5t230 157t280.5 58q150 0 285 -58t232.5 -157t154.5 -236t57 -290t-57 -291t-154.5 -236.5t-232.5 -156.5t-285 -58q-197 0 -362.5 98t-262 269t-96.5 375zM254 717q0 -183 83 -333.5t227.5 -236.5t318.5 -86q177 0 323.5 86 t230 236.5t83.5 333.5q0 136 -49.5 257.5t-134 208.5t-202.5 138t-251 51q-174 0 -318.5 -86t-227.5 -236.5t-83 -332.5zM467 715q0 82 28.5 158.5t81.5 138t139 98.5t191 37q60 0 116 -18.5t94 -45t67.5 -53t43.5 -44.5l13 -19l-67 -60q-4 6 -11.5 16.5t-33.5 36.5t-55 46 t-74 36.5t-91 16.5q-165 0 -257.5 -101.5t-92.5 -240.5q0 -65 22.5 -125.5t64.5 -109t110.5 -78t152.5 -29.5q48 0 92.5 15.5t74.5 37.5t53 44.5t34 37.5l11 16l67 -59q-5 -7 -14.5 -19.5t-42 -43.5t-68.5 -54.5t-93 -43t-116 -19.5q-106 0 -191.5 36.5t-139 97.5 t-81.5 136.5t-28 157.5z" />
<glyph unicode="&#xaa;" horiz-adv-x="878" d="M444 782q-74 0 -134 43t-60 125q0 50 19 90t47 65.5t70 44.5t79.5 28t84 14.5t73.5 6.5t59 1h43l2 10q15 80 -15.5 124t-107.5 44q-44 0 -91 -15t-72 -29l-25 -15l-35 65q11 8 31 19.5t79 31t115 19.5q207 0 207 -184q0 -37 -10 -82l-78 -393h-80l21 104h-4 q-3 -5 -9.5 -13t-28 -28t-45.5 -35.5t-60.5 -28t-74.5 -12.5zM461 858q58 0 114.5 45.5t89.5 101t42 101.5l4 20h-27q-346 0 -346 -170q0 -43 31 -70.5t92 -27.5zM164 539l14 75h518l-14 -75h-518z" />
<glyph unicode="&#xab;" horiz-adv-x="997" d="M682 158l-262 426l418 415h116l-432 -426l258 -415h-98zM365 158l-263 426l394 415h116l-407 -426l258 -415h-98z" />
<glyph unicode="&#xac;" horiz-adv-x="1337" d="M203 702v82h934v-448h-86v366h-848z" />
<glyph unicode="&#xad;" horiz-adv-x="884" d="M33 539l14 82h565l-14 -82h-565z" />
<glyph unicode="&#xae;" horiz-adv-x="1738" d="M162 717q0 152 57 289.5t153.5 236.5t230 157t280.5 58q150 0 285 -58t232.5 -157t154.5 -236t57 -290t-57 -291t-154.5 -236.5t-232.5 -156.5t-285 -58q-197 0 -362.5 98t-262 269t-96.5 375zM254 717q0 -183 83 -333.5t227.5 -236.5t318.5 -86q177 0 323.5 86 t230 236.5t83.5 333.5q0 136 -49.5 257.5t-134 208.5t-202.5 138t-251 51q-174 0 -318.5 -86t-227.5 -236.5t-83 -332.5zM645 307v819h273q105 0 171 -65t66 -172q0 -87 -45.5 -145t-112.5 -74v-4q9 -10 27 -45l162 -314h-101l-174 342h-176v-342h-90zM735 727h172 q71 0 113.5 43.5t42.5 118.5q0 73 -42.5 114t-113.5 41h-172v-317z" />
<glyph unicode="&#xaf;" horiz-adv-x="1042" d="M164 1610l14 82h490l-15 -82h-489z" />
<glyph unicode="&#xb0;" horiz-adv-x="761" d="M451 920q-104 0 -169 64.5t-65 164.5q0 119 96 212t217 93q102 0 167 -65t65 -164q0 -120 -97 -212.5t-214 -92.5zM455 1001q87 0 153 67t66 157q0 64 -41.5 105.5t-106.5 41.5q-87 0 -154 -67t-67 -156q0 -64 41 -106t109 -42z" />
<glyph unicode="&#xb1;" horiz-adv-x="1443" d="M170 539v82h485v538h88v-538h484v-82h-484v-539h-88v539h-485zM211 -231h975v-82h-975v82z" />
<glyph unicode="&#xb2;" d="M6 866q2 79 35.5 145t85 112t113.5 86.5t123 77.5t111.5 75t82 88t31.5 109q0 62 -42 102.5t-114 40.5q-52 0 -105 -26t-81 -52l-27 -25l-43 58l13 13t35 28.5t55.5 36t71 28.5t83.5 13q115 0 174.5 -59.5t59.5 -153.5q0 -68 -27.5 -124.5t-72 -96.5t-99.5 -76 t-113.5 -70t-109.5 -69.5t-91 -83.5t-55 -103h465l-14 -74h-545z" />
<glyph unicode="&#xb3;" d="M311 846q-52 0 -100 13.5t-80.5 33t-57.5 39.5t-37 34l-11 13l61 49q3 -4 9.5 -11.5t28 -26t46 -33t63.5 -26t80 -11.5q93 0 167.5 71t74.5 172q0 73 -55.5 116.5t-130.5 43.5h-66l-14 49l272 260l62 51v5q-37 -7 -78 -7h-336l14 74h522l-10 -53l-323 -307 q25 -2 52.5 -9.5t58.5 -25.5t55.5 -42.5t40.5 -65t16 -89.5q0 -125 -97 -221t-227 -96z" />
<glyph unicode="&#xb4;" horiz-adv-x="1042" d="M256 1536l182 227h123l-207 -227h-98z" />
<glyph unicode="&#xb6;" horiz-adv-x="1132" d="M463 -102l115 596q-165 0 -286.5 116t-121.5 289q0 141 82.5 266t213.5 197t271 72h451l-14 -82h-343l-282 -1454h-86zM676 -102l256 1325h86l-256 -1325h-86z" />
<glyph unicode="&#xb7;" horiz-adv-x="567" d="M201 520l24 129h125l-24 -129h-125z" />
<glyph unicode="&#xb8;" horiz-adv-x="1042" d="M233 -332q33 -10 80 -10q50 0 88.5 20.5t38.5 67.5q0 30 -28.5 48t-81.5 18l-25 -2l92 227l64 -10l-2 -17l-51 -133q50 -8 83 -42t33 -89q0 -54 -33.5 -93t-79.5 -55t-96 -16q-27 0 -51.5 2.5t-35.5 5.5l-11 2z" />
<glyph unicode="&#xb9;" d="M63 866l15 74h196l127 659l13 46h-4q-11 -17 -56 -56l-104 -86l-45 60l229 192h78l-160 -815h191l-15 -74h-465z" />
<glyph unicode="&#xba;" horiz-adv-x="978" d="M532 784q-127 0 -206.5 78t-79.5 199q0 105 56 197t146 145t187 53q127 0 208 -78.5t81 -197.5q0 -106 -57 -198.5t-147.5 -145t-187.5 -52.5zM532 860q119 0 215.5 94t96.5 224q0 89 -58.5 145.5t-150.5 56.5q-121 0 -215 -92.5t-94 -220.5q0 -92 57 -149.5t149 -57.5z M174 539l14 75h603l-15 -75h-602z" />
<glyph unicode="&#xbb;" horiz-adv-x="995" d="M373 158l407 426l-258 415h99l262 -426l-394 -415h-116zM31 158l432 426l-258 415h98l262 -426l-418 -415h-116z" />
<glyph unicode="&#xbc;" horiz-adv-x="1892" d="M494 0h-97l967 1434h94zM117 545l14 73h197l127 660l12 45h-4q-10 -16 -55 -55l-105 -86l-45 59l229 193h78l-159 -816h190l-14 -73h-465zM1442 0l49 248h-447l11 53l569 588h70l-111 -567h139l-14 -74h-139l-49 -248h-78zM1178 322h327l58 301l32 133h-4 q-45 -56 -92 -103l-321 -327v-4z" />
<glyph unicode="&#xbd;" horiz-adv-x="1859" d="M494 0h-97l967 1434h94zM117 545l14 73h197l127 660l12 45h-4q-10 -16 -55 -55l-105 -86l-45 59l229 193h78l-159 -816h190l-14 -73h-465zM1061 0q2 79 35.5 145t85 112t113 86.5t122.5 77t111.5 74.5t82 88t31.5 109q0 62 -42 103t-113 41q-52 0 -105.5 -26t-80.5 -52 l-27 -25l-43 58l13 13t35 28t55.5 35.5t71 28.5t83.5 13q115 0 174 -59.5t59 -153.5q0 -68 -27 -124t-72 -96.5t-100 -76t-113 -69.5t-109 -69.5t-91 -83.5t-55 -103h465l-14 -74h-545z" />
<glyph unicode="&#xbe;" horiz-adv-x="1929" d="M530 0h-96l967 1434h94zM1479 0l49 248h-447l11 53l569 588h70l-111 -567h139l-14 -74h-139l-50 -248h-77zM1214 322h328l57 301l33 133h-4q-45 -56 -92 -103l-322 -327v-4zM393 524q-52 0 -100.5 13.5t-80.5 33t-57.5 39.5t-36.5 34l-12 13l62 50q3 -4 9.5 -11.5 t28 -26.5t46 -33t63.5 -26t80 -12q93 0 167.5 71.5t74.5 172.5q0 73 -55.5 116t-130.5 43h-66l-14 50l272 260l62 51v4q-37 -6 -78 -6h-336l14 74h522l-10 -54l-323 -307q33 -3 67.5 -15.5t71.5 -37t60.5 -71t23.5 -107.5q0 -125 -97 -221.5t-227 -96.5z" />
<glyph unicode="&#xbf;" horiz-adv-x="880" d="M510 899l27 125h120l-26 -125h-121zM-37 -133q0 74 24.5 138t64.5 111.5t89 90.5t101 83.5t97 81.5t80 94.5t48 113.5l18 86h88l-18 -86q-15 -71 -51 -133t-81 -107.5t-96 -88t-98.5 -82.5t-86 -82.5t-62 -97.5t-23.5 -118q0 -95 67 -155t183 -60q68 0 138 21.5t105 42.5 l36 22l35 -76q-6 -4 -16.5 -10.5t-45 -23t-69.5 -29t-86.5 -23t-100.5 -10.5q-157 0 -248.5 82t-91.5 215z" />
<glyph unicode="&#xc0;" horiz-adv-x="1243" d="M25 0h-99l813 1434h92l261 -1434h-91l-88 496h-608zM350 578h547l-102 581l-25 172h-4q-51 -111 -86 -172zM766 1536l-117 227h107l92 -227h-82z" />
<glyph unicode="&#xc1;" horiz-adv-x="1243" d="M25 0h-99l813 1434h92l261 -1434h-91l-88 496h-608zM350 578h547l-102 581l-25 172h-4q-51 -111 -86 -172zM756 1536l182 227h123l-207 -227h-98z" />
<glyph unicode="&#xc2;" horiz-adv-x="1243" d="M25 0h-99l813 1434h92l261 -1434h-91l-88 496h-608zM350 578h547l-102 581l-25 172h-4q-51 -111 -86 -172zM584 1536l209 227h106l119 -227h-94l-82 164h-4l-148 -164h-106z" />
<glyph unicode="&#xc3;" horiz-adv-x="1243" d="M25 0h-99l813 1434h92l261 -1434h-91l-88 496h-608zM350 578h547l-102 581l-25 172h-4q-51 -111 -86 -172zM524 1542q41 221 197 221q37 0 65.5 -15.5t46.5 -37.5t34 -44.5t36 -38t45 -15.5t45.5 15.5t32.5 40t18.5 46t10.5 43.5h82q-22 -112 -69 -166.5t-130 -54.5 q-44 0 -77.5 24t-50.5 52t-43 52t-56 24t-54.5 -28t-35 -58t-15.5 -60h-82z" />
<glyph unicode="&#xc4;" horiz-adv-x="1243" d="M25 0h-99l813 1434h92l261 -1434h-91l-88 496h-608zM350 578h547l-102 581l-25 172h-4q-51 -111 -86 -172zM918 1614l28 149h94l-28 -149h-94zM637 1614l29 149h94l-29 -149h-94z" />
<glyph unicode="&#xc5;" horiz-adv-x="1243" d="M25 0h-99l813 1434h92l261 -1434h-91l-88 496h-608zM350 578h547l-102 581l-25 172h-4q-51 -111 -86 -172zM817 1516q-61 0 -94 31.5t-33 88.5q0 60 46 107t106 47q61 0 94 -32.5t33 -88.5q0 -60 -46 -106.5t-106 -46.5zM817 1587q33 0 56.5 23.5t23.5 58.5q0 23 -15 37 t-40 14q-33 0 -56.5 -24t-23.5 -60q0 -22 14.5 -35.5t40.5 -13.5z" />
<glyph unicode="&#xc6;" horiz-adv-x="1716" d="M25 0h-101l867 1434h925l-16 -82h-696l-115 -588h571l-16 -82h-572l-116 -600h735l-16 -82h-824l133 682h-348zM842 1352l-357 -588h316l114 588h-73z" />
<glyph unicode="&#xc7;" horiz-adv-x="1511" d="M528 -332q33 -10 80 -10q50 0 88.5 20.5t38.5 67.5q0 30 -28.5 48t-81.5 18l-25 -2l68 170q-246 23 -388.5 189t-142.5 417q0 140 46.5 274t128.5 240.5t188.5 188t234 125.5t256.5 44q96 0 182.5 -18.5t140.5 -45t94 -53t58 -45.5l17 -18l-62 -64q-6 7 -17 17.5 t-50.5 38t-85.5 48.5t-121 38.5t-156 17.5q-145 0 -284.5 -62t-244.5 -167t-169 -252t-64 -307q0 -230 141 -378.5t371 -148.5q86 0 171.5 20t146 48.5t109 57.5t72.5 49l24 20l51 -68q-10 -9 -28 -23t-77 -50.5t-122 -64t-158 -50.5t-189 -23h-2l-37 -98q50 -8 83.5 -42 t33.5 -89q0 -54 -33.5 -93t-79.5 -55t-96 -16q-27 0 -51.5 2.5t-35.5 5.5l-11 2z" />
<glyph unicode="&#xc8;" horiz-adv-x="1165" d="M102 0l281 1434h784l-18 -82h-694l-115 -588h571l-16 -82h-569l-119 -600h733l-14 -82h-824zM778 1536l-116 227h106l92 -227h-82z" />
<glyph unicode="&#xc9;" horiz-adv-x="1165" d="M102 0l281 1434h784l-18 -82h-694l-115 -588h571l-16 -82h-569l-119 -600h733l-14 -82h-824zM768 1536l182 227h123l-207 -227h-98z" />
<glyph unicode="&#xca;" horiz-adv-x="1165" d="M102 0l281 1434h784l-18 -82h-694l-115 -588h571l-16 -82h-569l-119 -600h733l-14 -82h-824zM596 1536l209 227h106l119 -227h-94l-82 164h-4l-148 -164h-106z" />
<glyph unicode="&#xcb;" horiz-adv-x="1165" d="M102 0l281 1434h784l-18 -82h-694l-115 -588h571l-16 -82h-569l-119 -600h733l-14 -82h-824zM930 1614l28 149h95l-29 -149h-94zM649 1614l29 149h94l-29 -149h-94z" />
<glyph unicode="&#xcc;" horiz-adv-x="532" d="M102 0l281 1434h88l-281 -1434h-88zM408 1536l-117 227h106l92 -227h-81z" />
<glyph unicode="&#xcd;" horiz-adv-x="532" d="M102 0l281 1434h88l-281 -1434h-88zM397 1536l183 227h122l-206 -227h-99z" />
<glyph unicode="&#xce;" horiz-adv-x="532" d="M102 0l281 1434h88l-281 -1434h-88zM225 1536l209 227h107l118 -227h-94l-82 164h-4l-147 -164h-107z" />
<glyph unicode="&#xcf;" horiz-adv-x="532" d="M102 0l281 1434h88l-281 -1434h-88zM559 1614l29 149h94l-29 -149h-94zM279 1614l28 149h94l-28 -149h-94z" />
<glyph unicode="&#xd0;" horiz-adv-x="1544" d="M139 682l17 82h123l131 670h428q287 0 449.5 -145t162.5 -408q0 -180 -63 -341.5t-174 -280.5t-271 -189t-344 -70h-469l133 682h-123zM231 82h349q165 0 309.5 61t247 166.5t162 253t59.5 314.5q0 228 -141 351.5t-390 123.5h-346l-116 -588h376l-16 -82h-377z" />
<glyph unicode="&#xd1;" horiz-adv-x="1529" d="M102 0l281 1434h72l598 -1125q16 -29 36.5 -74t32.5 -75l13 -31h4q8 108 22 180l219 1125h88l-280 -1434h-72l-598 1124q-16 29 -36.5 74.5t-33.5 75.5l-12 31h-4q-8 -109 -22 -181l-220 -1124h-88zM662 1542q41 221 196 221q37 0 65.5 -15.5t46.5 -37.5t34 -44.5t36 -38 t45 -15.5t45.5 15.5t32.5 40t18.5 46t10.5 43.5h82q-22 -112 -69 -166.5t-130 -54.5q-44 0 -77.5 24t-50.5 52t-43 52t-56 24t-54.5 -28t-35 -58t-15.5 -60h-81z" />
<glyph unicode="&#xd2;" horiz-adv-x="1695" d="M131 590q0 172 74.5 333.5t194.5 278t278 186.5t319 70q270 0 440.5 -168t170.5 -430q0 -175 -75 -339.5t-195.5 -283.5t-278.5 -190.5t-318 -71.5q-270 0 -440 172.5t-170 442.5zM223 590q0 -233 144.5 -382t373.5 -149q142 0 283 64.5t249 171t175.5 255.5t67.5 308 q0 226 -145 371t-374 145q-145 0 -286 -63t-248 -167.5t-173.5 -250.5t-66.5 -303zM983 1536l-117 227h107l92 -227h-82z" />
<glyph unicode="&#xd3;" horiz-adv-x="1695" d="M131 590q0 172 74.5 333.5t194.5 278t278 186.5t319 70q270 0 440.5 -168t170.5 -430q0 -175 -75 -339.5t-195.5 -283.5t-278.5 -190.5t-318 -71.5q-270 0 -440 172.5t-170 442.5zM223 590q0 -233 144.5 -382t373.5 -149q142 0 283 64.5t249 171t175.5 255.5t67.5 308 q0 226 -145 371t-374 145q-145 0 -286 -63t-248 -167.5t-173.5 -250.5t-66.5 -303zM973 1536l182 227h123l-207 -227h-98z" />
<glyph unicode="&#xd4;" horiz-adv-x="1695" d="M131 590q0 172 74.5 333.5t194.5 278t278 186.5t319 70q270 0 440.5 -168t170.5 -430q0 -175 -75 -339.5t-195.5 -283.5t-278.5 -190.5t-318 -71.5q-270 0 -440 172.5t-170 442.5zM223 590q0 -233 144.5 -382t373.5 -149q142 0 283 64.5t249 171t175.5 255.5t67.5 308 q0 226 -145 371t-374 145q-145 0 -286 -63t-248 -167.5t-173.5 -250.5t-66.5 -303zM801 1536l209 227h106l119 -227h-94l-82 164h-4l-148 -164h-106z" />
<glyph unicode="&#xd5;" horiz-adv-x="1695" d="M131 590q0 172 74.5 333.5t194.5 278t278 186.5t319 70q270 0 440.5 -168t170.5 -430q0 -175 -75 -339.5t-195.5 -283.5t-278.5 -190.5t-318 -71.5q-270 0 -440 172.5t-170 442.5zM223 590q0 -233 144.5 -382t373.5 -149q142 0 283 64.5t249 171t175.5 255.5t67.5 308 q0 226 -145 371t-374 145q-145 0 -286 -63t-248 -167.5t-173.5 -250.5t-66.5 -303zM741 1542q41 221 197 221q37 0 65.5 -15.5t46.5 -37.5t34 -44.5t36 -38t45 -15.5t45.5 15.5t32.5 40t18.5 46t10.5 43.5h82q-22 -112 -69 -166.5t-130 -54.5q-44 0 -77.5 24t-50.5 52 t-43 52t-56 24t-54.5 -28t-35 -58t-15.5 -60h-82z" />
<glyph unicode="&#xd6;" horiz-adv-x="1695" d="M131 590q0 172 74.5 333.5t194.5 278t278 186.5t319 70q270 0 440.5 -168t170.5 -430q0 -175 -75 -339.5t-195.5 -283.5t-278.5 -190.5t-318 -71.5q-270 0 -440 172.5t-170 442.5zM223 590q0 -233 144.5 -382t373.5 -149q142 0 283 64.5t249 171t175.5 255.5t67.5 308 q0 226 -145 371t-374 145q-145 0 -286 -63t-248 -167.5t-173.5 -250.5t-66.5 -303zM1135 1614l28 149h94l-28 -149h-94zM854 1614l29 149h94l-29 -149h-94z" />
<glyph unicode="&#xd7;" horiz-adv-x="1413" d="M178 57l459 523l-459 522l58 57l456 -518l457 518l57 -57l-461 -522l461 -523l-57 -57l-457 518l-456 -518z" />
<glyph unicode="&#xd8;" horiz-adv-x="1703" d="M135 590q0 172 74.5 333.5t194.5 278t278 186.5t319 70q224 0 381 -119l131 144l66 -56l-131 -143q78 -81 121 -190t43 -234q0 -175 -75 -339.5t-195.5 -283.5t-278.5 -190.5t-318 -71.5q-228 0 -383 121l-131 -143l-67 53l135 148q-164 172 -164 436zM1520 858 q0 215 -134 359l-964 -1055q134 -103 323 -103q142 0 283 64.5t249 171t175.5 255.5t67.5 308zM227 590q0 -226 133 -371l963 1055q-137 100 -322 100q-145 0 -286 -63t-248 -167.5t-173.5 -250.5t-66.5 -303z" />
<glyph unicode="&#xd9;" horiz-adv-x="1472" d="M168 383q0 55 12 117l182 934h89l-183 -936q-10 -46 -10 -107q0 -157 98 -244.5t275 -87.5q203 0 347 119t185 324l183 932h88l-189 -953q-45 -235 -211.5 -370.5t-402.5 -135.5q-214 0 -338.5 109t-124.5 299zM874 1536l-116 227h106l92 -227h-82z" />
<glyph unicode="&#xda;" horiz-adv-x="1472" d="M168 383q0 55 12 117l182 934h89l-183 -936q-10 -46 -10 -107q0 -157 98 -244.5t275 -87.5q203 0 347 119t185 324l183 932h88l-189 -953q-45 -235 -211.5 -370.5t-402.5 -135.5q-214 0 -338.5 109t-124.5 299zM864 1536l183 227h122l-206 -227h-99z" />
<glyph unicode="&#xdb;" horiz-adv-x="1472" d="M168 383q0 55 12 117l182 934h89l-183 -936q-10 -46 -10 -107q0 -157 98 -244.5t275 -87.5q203 0 347 119t185 324l183 932h88l-189 -953q-45 -235 -211.5 -370.5t-402.5 -135.5q-214 0 -338.5 109t-124.5 299zM692 1536l209 227h107l118 -227h-94l-82 164h-4l-147 -164 h-107z" />
<glyph unicode="&#xdc;" horiz-adv-x="1472" d="M168 383q0 55 12 117l182 934h89l-183 -936q-10 -46 -10 -107q0 -157 98 -244.5t275 -87.5q203 0 347 119t185 324l183 932h88l-189 -953q-45 -235 -211.5 -370.5t-402.5 -135.5q-214 0 -338.5 109t-124.5 299zM1026 1614l29 149h94l-29 -149h-94zM745 1614l29 149h94 l-28 -149h-95z" />
<glyph unicode="&#xdd;" horiz-adv-x="1126" d="M389 0l123 623l-328 811h95l227 -566l59 -161h4q64 87 119 159l449 568h108l-645 -813l-123 -621h-88zM682 1536l182 227h123l-207 -227h-98z" />
<glyph unicode="&#xde;" horiz-adv-x="1222" d="M102 0l281 1434h88l-53 -267h362q145 0 230 -49q74 -42 115.5 -116.5t41.5 -170.5q0 -161 -83.5 -284.5t-217.5 -179.5q-95 -39 -207 -39h-403l-66 -328h-88zM270 410h381q101 0 178 32q112 46 179 147t67 242q0 121 -78 187.5t-217 66.5h-379z" />
<glyph unicode="&#xdf;" horiz-adv-x="1155" d="M63 0l213 1104q22 110 92 192.5t159.5 122t183.5 39.5q144 0 222.5 -71.5t78.5 -178.5q0 -58 -25 -110t-62 -87.5t-81 -71.5t-81 -64.5t-62 -64.5t-25 -73q0 -27 19 -55t49 -53t66.5 -52t73 -57.5t66.5 -63.5t49 -75.5t19 -89.5q0 -82 -49.5 -153t-130.5 -111.5 t-172 -40.5q-89 0 -170 17.5t-118 35.5l-36 18l18 90q5 -3 14 -8.5t40 -18.5t64 -23t83.5 -18.5t102.5 -8.5q62 0 119.5 22t100 74.5t42.5 124.5q0 51 -35.5 98.5t-86 85.5l-101 76t-86 85.5t-35.5 98.5q0 48 25 92.5t62.5 76.5t81.5 68.5t81.5 68t62.5 74.5t25 89 q0 69 -53.5 119.5t-155.5 50.5q-75 0 -147.5 -33t-129 -101t-74.5 -157l-210 -1083h-87z" />
<glyph unicode="&#xe0;" horiz-adv-x="1056" d="M29 231q0 80 31 144t86.5 106t122.5 71.5t149 44.5t155 21.5t152 6.5h80q14 79 14 131q0 99 -52.5 154t-176.5 55q-50 0 -100.5 -10t-86.5 -24.5t-65 -29.5t-44 -25l-15 -10l-37 78l16.5 11t45.5 25.5t72.5 32t96 25t117.5 11.5q156 0 237.5 -70.5t81.5 -210.5 q0 -52 -12 -117l-127 -651h-86l27 133q4 24 10 47.5t10 35.5l4 11h-4q2 0 -13.5 -26t-48.5 -63t-78 -74t-113 -63t-142 -26q-131 0 -219 69t-88 187zM119 240q0 -78 57.5 -131.5t167.5 -53.5q78 0 152.5 40.5t130.5 105t96 142t57 155.5l11 47h-66q-606 0 -606 -305z M596 1206l-117 228h107l92 -228h-82z" />
<glyph unicode="&#xe1;" horiz-adv-x="1056" d="M29 231q0 80 31 144t86.5 106t122.5 71.5t149 44.5t155 21.5t152 6.5h80q14 79 14 131q0 99 -52.5 154t-176.5 55q-50 0 -100.5 -10t-86.5 -24.5t-65 -29.5t-44 -25l-15 -10l-37 78l16.5 11t45.5 25.5t72.5 32t96 25t117.5 11.5q156 0 237.5 -70.5t81.5 -210.5 q0 -52 -12 -117l-127 -651h-86l27 133q4 24 10 47.5t10 35.5l4 11h-4q2 0 -13.5 -26t-48.5 -63t-78 -74t-113 -63t-142 -26q-131 0 -219 69t-88 187zM119 240q0 -78 57.5 -131.5t167.5 -53.5q78 0 152.5 40.5t130.5 105t96 142t57 155.5l11 47h-66q-606 0 -606 -305z M586 1206l182 228h123l-207 -228h-98z" />
<glyph unicode="&#xe2;" horiz-adv-x="1056" d="M29 231q0 80 31 144t86.5 106t122.5 71.5t149 44.5t155 21.5t152 6.5h80q14 79 14 131q0 99 -52.5 154t-176.5 55q-50 0 -100.5 -10t-86.5 -24.5t-65 -29.5t-44 -25l-15 -10l-37 78l16.5 11t45.5 25.5t72.5 32t96 25t117.5 11.5q156 0 237.5 -70.5t81.5 -210.5 q0 -52 -12 -117l-127 -651h-86l27 133q4 24 10 47.5t10 35.5l4 11h-4q2 0 -13.5 -26t-48.5 -63t-78 -74t-113 -63t-142 -26q-131 0 -219 69t-88 187zM119 240q0 -78 57.5 -131.5t167.5 -53.5q78 0 152.5 40.5t130.5 105t96 142t57 155.5l11 47h-66q-606 0 -606 -305z M414 1206l209 228h106l119 -228h-94l-82 164h-4l-148 -164h-106z" />
<glyph unicode="&#xe3;" horiz-adv-x="1056" d="M29 231q0 80 31 144t86.5 106t122.5 71.5t149 44.5t155 21.5t152 6.5h80q14 79 14 131q0 99 -52.5 154t-176.5 55q-50 0 -100.5 -10t-86.5 -24.5t-65 -29.5t-44 -25l-15 -10l-37 78l16.5 11t45.5 25.5t72.5 32t96 25t117.5 11.5q156 0 237.5 -70.5t81.5 -210.5 q0 -52 -12 -117l-127 -651h-86l27 133q4 24 10 47.5t10 35.5l4 11h-4q2 0 -13.5 -26t-48.5 -63t-78 -74t-113 -63t-142 -26q-131 0 -219 69t-88 187zM119 240q0 -78 57.5 -131.5t167.5 -53.5q78 0 152.5 40.5t130.5 105t96 142t57 155.5l11 47h-66q-606 0 -606 -305z M354 1212q41 222 197 222q37 0 65.5 -15.5t46.5 -38t34 -45t36 -38t45 -15.5t45.5 15.5t32.5 40t18.5 46t10.5 43.5h82q-22 -112 -69 -166.5t-130 -54.5q-44 0 -77.5 24t-50.5 52t-43 52t-56 24t-54.5 -28t-35 -58t-15.5 -60h-82z" />
<glyph unicode="&#xe4;" horiz-adv-x="1056" d="M29 231q0 80 31 144t86.5 106t122.5 71.5t149 44.5t155 21.5t152 6.5h80q14 79 14 131q0 99 -52.5 154t-176.5 55q-50 0 -100.5 -10t-86.5 -24.5t-65 -29.5t-44 -25l-15 -10l-37 78l16.5 11t45.5 25.5t72.5 32t96 25t117.5 11.5q156 0 237.5 -70.5t81.5 -210.5 q0 -52 -12 -117l-127 -651h-86l27 133q4 24 10 47.5t10 35.5l4 11h-4q2 0 -13.5 -26t-48.5 -63t-78 -74t-113 -63t-142 -26q-131 0 -219 69t-88 187zM119 240q0 -78 57.5 -131.5t167.5 -53.5q78 0 152.5 40.5t130.5 105t96 142t57 155.5l11 47h-66q-606 0 -606 -305z M748 1284l28 150h94l-28 -150h-94zM467 1284l29 150h94l-29 -150h-94z" />
<glyph unicode="&#xe5;" horiz-adv-x="1056" d="M29 231q0 80 31 144t86.5 106t122.5 71.5t149 44.5t155 21.5t152 6.5h80q14 79 14 131q0 99 -52.5 154t-176.5 55q-50 0 -100.5 -10t-86.5 -24.5t-65 -29.5t-44 -25l-15 -10l-37 78l16.5 11t45.5 25.5t72.5 32t96 25t117.5 11.5q156 0 237.5 -70.5t81.5 -210.5 q0 -52 -12 -117l-127 -651h-86l27 133q4 24 10 47.5t10 35.5l4 11h-4q2 0 -13.5 -26t-48.5 -63t-78 -74t-113 -63t-142 -26q-131 0 -219 69t-88 187zM119 240q0 -78 57.5 -131.5t167.5 -53.5q78 0 152.5 40.5t130.5 105t96 142t57 155.5l11 47h-66q-606 0 -606 -305z M647 1186q-61 0 -94 32t-33 89q0 60 46 106.5t106 46.5q61 0 94 -32.5t33 -88.5q0 -60 -46 -106.5t-106 -46.5zM647 1257q33 0 56.5 23.5t23.5 58.5q0 23 -15 37.5t-40 14.5q-33 0 -56.5 -24t-23.5 -60q0 -22 14.5 -36t40.5 -14z" />
<glyph unicode="&#xe6;" horiz-adv-x="1800" d="M29 231q0 70 22.5 127t60 96t93 68.5t113.5 46.5t130.5 27.5t135 14t135.5 3.5h82l8 45q27 153 -24.5 229.5t-204.5 76.5q-45 0 -93 -10t-83.5 -24.5t-64.5 -29.5t-45 -25l-15 -10l-37 78l16.5 11t46 25.5t72.5 32t92.5 25t110.5 11.5q161 0 238 -60t83 -162h4 q81 110 194.5 166t241.5 56q176 0 267.5 -98.5t91.5 -266.5q0 -29 -6 -66.5t-12 -59.5l-7 -23h-803q-14 -66 -14 -132q0 -164 92.5 -254t247.5 -90q55 0 111 13.5t96 32.5t72 37.5t49 31.5l16 14l33 -77q-7 -6 -19 -15t-51.5 -32.5t-81 -41.5t-102 -32.5t-119.5 -14.5 q-168 0 -281 83t-141 223h-4q-9 -22 -27.5 -53t-58.5 -77.5t-88 -84t-120.5 -64.5t-151.5 -27q-130 0 -215.5 67.5t-85.5 188.5zM895 614h707q6 43 6 82q0 137 -75.5 205t-191.5 68q-146 0 -266 -91.5t-180 -263.5zM121 238q0 -79 57.5 -131t165.5 -52q80 0 154.5 39 t129 103t93 139.5t55.5 152.5l10 46h-141q-524 0 -524 -297z" />
<glyph unicode="&#xe7;" horiz-adv-x="1134" d="M317 -332q33 -10 80 -10q50 0 88.5 20.5t38.5 67.5q0 30 -28.5 48t-81.5 18l-25 -2l70 172q-170 24 -273.5 136t-103.5 285q0 141 55.5 264.5t144.5 205.5t200.5 129t224.5 47q71 0 134 -15t102.5 -36.5t69 -43t41.5 -36.5l13 -15l-61 -63q-4 5 -12 13.5t-35.5 30 t-58.5 38t-82.5 30t-106.5 13.5q-97 0 -193 -40.5t-173 -111.5t-125 -176.5t-48 -224.5q0 -160 103.5 -256.5t261.5 -96.5q63 0 124.5 15t104 37t75.5 44t49 37l17 15l33 -78q-6 -6 -18 -16.5t-52.5 -37t-84 -47t-110 -37t-134.5 -16.5h-13l-36 -98q50 -8 83 -42t33 -89 q0 -54 -33.5 -93t-79.5 -55t-96 -16q-27 0 -51.5 2.5t-35.5 5.5l-11 2z" />
<glyph unicode="&#xe8;" horiz-adv-x="1134" d="M82 403q0 122 45 239t122.5 207t190 145t238.5 55q177 0 266.5 -99t89.5 -264q0 -34 -6.5 -74t-13.5 -63l-6 -23h-822q-12 -58 -12 -112q0 -155 94 -255t267 -100q55 0 110 13.5t95 32.5t72 37.5t48 31.5l17 14l32 -77q-7 -6 -19 -15t-51 -32.5t-80.5 -41.5t-102.5 -32.5 t-121 -14.5q-200 0 -326.5 116.5t-126.5 311.5zM207 606h727q8 39 8 86q0 137 -73 207t-191 70q-96 0 -186.5 -40t-167 -123.5t-117.5 -199.5zM684 1206l-117 228h107l92 -228h-82z" />
<glyph unicode="&#xe9;" horiz-adv-x="1134" d="M82 403q0 122 45 239t122.5 207t190 145t238.5 55q177 0 266.5 -99t89.5 -264q0 -34 -6.5 -74t-13.5 -63l-6 -23h-822q-12 -58 -12 -112q0 -155 94 -255t267 -100q55 0 110 13.5t95 32.5t72 37.5t48 31.5l17 14l32 -77q-7 -6 -19 -15t-51 -32.5t-80.5 -41.5t-102.5 -32.5 t-121 -14.5q-200 0 -326.5 116.5t-126.5 311.5zM207 606h727q8 39 8 86q0 137 -73 207t-191 70q-96 0 -186.5 -40t-167 -123.5t-117.5 -199.5zM674 1206l182 228h123l-207 -228h-98z" />
<glyph unicode="&#xea;" horiz-adv-x="1134" d="M82 403q0 122 45 239t122.5 207t190 145t238.5 55q177 0 266.5 -99t89.5 -264q0 -34 -6.5 -74t-13.5 -63l-6 -23h-822q-12 -58 -12 -112q0 -155 94 -255t267 -100q55 0 110 13.5t95 32.5t72 37.5t48 31.5l17 14l32 -77q-7 -6 -19 -15t-51 -32.5t-80.5 -41.5t-102.5 -32.5 t-121 -14.5q-200 0 -326.5 116.5t-126.5 311.5zM207 606h727q8 39 8 86q0 137 -73 207t-191 70q-96 0 -186.5 -40t-167 -123.5t-117.5 -199.5zM502 1206l209 228h106l119 -228h-94l-82 164h-4l-148 -164h-106z" />
<glyph unicode="&#xeb;" horiz-adv-x="1134" d="M82 403q0 122 45 239t122.5 207t190 145t238.5 55q177 0 266.5 -99t89.5 -264q0 -34 -6.5 -74t-13.5 -63l-6 -23h-822q-12 -58 -12 -112q0 -155 94 -255t267 -100q55 0 110 13.5t95 32.5t72 37.5t48 31.5l17 14l32 -77q-7 -6 -19 -15t-51 -32.5t-80.5 -41.5t-102.5 -32.5 t-121 -14.5q-200 0 -326.5 116.5t-126.5 311.5zM207 606h727q8 39 8 86q0 137 -73 207t-191 70q-96 0 -186.5 -40t-167 -123.5t-117.5 -199.5zM836 1284l28 150h94l-28 -150h-94zM555 1284l29 150h94l-29 -150h-94z" />
<glyph unicode="&#xec;" horiz-adv-x="448" d="M301 1206l-117 228h107l92 -228h-82zM63 0l199 1024h86l-198 -1024h-87z" />
<glyph unicode="&#xed;" horiz-adv-x="448" d="M291 1206l182 228h123l-207 -228h-98zM63 0l199 1024h86l-198 -1024h-87z" />
<glyph unicode="&#xee;" horiz-adv-x="448" d="M63 0l199 1024h86l-198 -1024h-87zM119 1206l209 228h106l119 -228h-94l-82 164h-4l-148 -164h-106z" />
<glyph unicode="&#xef;" horiz-adv-x="448" d="M453 1284l28 150h94l-28 -150h-94zM172 1284l29 150h94l-29 -150h-94zM63 0l199 1024h86l-198 -1024h-87z" />
<glyph unicode="&#xf0;" horiz-adv-x="1210" d="M395 1034l-20 76l330 141q-122 72 -293 121l37 72q210 -57 346 -154l284 121l23 -76l-238 -100q217 -194 217 -510q0 -74 -15.5 -155.5t-46 -166.5t-81.5 -161t-116 -136t-155 -95.5t-194 -35.5q-97 0 -173.5 32.5t-124 88t-72.5 127t-25 152.5q0 104 39.5 207t111 187 t184 136.5t246.5 52.5q67 0 124.5 -14.5t92.5 -35t60.5 -41.5t35.5 -35l11 -15h4q-35 240 -209 381zM168 379q0 -137 80 -229.5t225 -92.5q87 0 167.5 35.5t139.5 93.5t103.5 130.5t67 148t22.5 143.5q0 120 -85 194.5t-231 74.5q-97 0 -187.5 -40t-156.5 -107t-105.5 -159 t-39.5 -192z" />
<glyph unicode="&#xf1;" horiz-adv-x="1202" d="M61 0l199 1024h86l-31 -170q-4 -21 -11 -44.5t-12 -36.5l-5 -13h4q17 34 46 71t74.5 76.5t98 70.5t121.5 51t141 20q140 0 212.5 -66.5t72.5 -191.5q0 -55 -17 -142l-125 -649h-86l119 618q19 101 19 156q0 95 -53 143t-144 48q-125 0 -238.5 -67.5t-190 -178 t-101.5 -240.5l-93 -479h-86zM463 1212q41 222 196 222q37 0 65.5 -15.5t46.5 -38t34.5 -45t36.5 -38t45 -15.5t45.5 15.5t32 40.5t18 46t10.5 43h82q-22 -112 -68.5 -166.5t-129.5 -54.5q-36 0 -64.5 15.5t-46.5 38t-34 45t-37 38t-46 15.5q-43 0 -69 -47.5t-35 -98.5h-82z " />
<glyph unicode="&#xf2;" horiz-adv-x="1275" d="M80 420q0 127 53.5 244.5t140 201t201 133.5t232.5 50q201 0 326.5 -123.5t125.5 -315.5q0 -128 -54 -247t-141 -203t-201 -134.5t-231 -50.5q-201 0 -326.5 125t-125.5 320zM170 422q0 -159 101 -261t261 -102q99 0 196 43.5t172.5 116.5t122 176t46.5 213 q0 156 -101 256.5t-261 100.5q-136 0 -259.5 -72.5t-200.5 -199t-77 -271.5zM713 1206l-117 228h106l93 -228h-82z" />
<glyph unicode="&#xf3;" horiz-adv-x="1275" d="M80 420q0 127 53.5 244.5t140 201t201 133.5t232.5 50q201 0 326.5 -123.5t125.5 -315.5q0 -128 -54 -247t-141 -203t-201 -134.5t-231 -50.5q-201 0 -326.5 125t-125.5 320zM170 422q0 -159 101 -261t261 -102q99 0 196 43.5t172.5 116.5t122 176t46.5 213 q0 156 -101 256.5t-261 100.5q-136 0 -259.5 -72.5t-200.5 -199t-77 -271.5zM702 1206l183 228h123l-207 -228h-99z" />
<glyph unicode="&#xf4;" horiz-adv-x="1275" d="M80 420q0 127 53.5 244.5t140 201t201 133.5t232.5 50q201 0 326.5 -123.5t125.5 -315.5q0 -128 -54 -247t-141 -203t-201 -134.5t-231 -50.5q-201 0 -326.5 125t-125.5 320zM170 422q0 -159 101 -261t261 -102q99 0 196 43.5t172.5 116.5t122 176t46.5 213 q0 156 -101 256.5t-261 100.5q-136 0 -259.5 -72.5t-200.5 -199t-77 -271.5zM530 1206l209 228h107l119 -228h-95l-82 164h-4l-147 -164h-107z" />
<glyph unicode="&#xf5;" horiz-adv-x="1275" d="M80 420q0 127 53.5 244.5t140 201t201 133.5t232.5 50q201 0 326.5 -123.5t125.5 -315.5q0 -128 -54 -247t-141 -203t-201 -134.5t-231 -50.5q-201 0 -326.5 125t-125.5 320zM170 422q0 -159 101 -261t261 -102q99 0 196 43.5t172.5 116.5t122 176t46.5 213 q0 156 -101 256.5t-261 100.5q-136 0 -259.5 -72.5t-200.5 -199t-77 -271.5zM471 1212q41 222 197 222q37 0 65.5 -15.5t46.5 -38t34 -45t36 -38t45 -15.5t45.5 15.5t32 40.5t18 46t10.5 43h82q-22 -112 -68.5 -166.5t-129.5 -54.5q-36 0 -64.5 15.5t-46.5 38t-34 45t-37 38 t-46 15.5q-43 0 -69 -47.5t-35 -98.5h-82z" />
<glyph unicode="&#xf6;" horiz-adv-x="1275" d="M80 420q0 127 53.5 244.5t140 201t201 133.5t232.5 50q201 0 326.5 -123.5t125.5 -315.5q0 -128 -54 -247t-141 -203t-201 -134.5t-231 -50.5q-201 0 -326.5 125t-125.5 320zM170 422q0 -159 101 -261t261 -102q99 0 196 43.5t172.5 116.5t122 176t46.5 213 q0 156 -101 256.5t-261 100.5q-136 0 -259.5 -72.5t-200.5 -199t-77 -271.5zM864 1284l29 150h94l-29 -150h-94zM584 1284l28 150h95l-29 -150h-94z" />
<glyph unicode="&#xf7;" horiz-adv-x="1359" d="M612 883v121h117v-121h-117zM184 539v82h975v-82h-975zM612 156v120h117v-120h-117z" />
<glyph unicode="&#xf8;" horiz-adv-x="1277" d="M80 420q0 127 53.5 244.5t140 201t201 133.5t232.5 50q160 0 280 -84l103 112l65 -57l-104 -115q108 -121 108 -295q0 -128 -54 -247t-141 -203t-201 -134.5t-231 -50.5q-151 0 -264 74l-100 -108l-66 57l99 106q-121 124 -121 316zM170 422q0 -153 90 -252l666 729 q-95 66 -219 66q-136 0 -259.5 -72.5t-200.5 -199t-77 -271.5zM1069 608q0 136 -80 232l-661 -725q91 -56 204 -56q99 0 196 43.5t172.5 116.5t122 176t46.5 213z" />
<glyph unicode="&#xf9;" horiz-adv-x="1191" d="M106 233q0 55 17 142l125 649h86l-119 -614q-18 -89 -18 -160q0 -91 45 -141t157 -50q93 0 181.5 43t155 112.5t113.5 157t64 177.5l93 475h86l-199 -1024h-86l33 170l26 94h-4q-23 -44 -63 -90t-99 -93t-142 -76.5t-173 -29.5q-122 0 -200.5 62.5t-78.5 195.5zM664 1206 l-117 228h106l92 -228h-81z" />
<glyph unicode="&#xfa;" horiz-adv-x="1191" d="M106 233q0 55 17 142l125 649h86l-119 -614q-18 -89 -18 -160q0 -91 45 -141t157 -50q93 0 181.5 43t155 112.5t113.5 157t64 177.5l93 475h86l-199 -1024h-86l33 170l26 94h-4q-23 -44 -63 -90t-99 -93t-142 -76.5t-173 -29.5q-122 0 -200.5 62.5t-78.5 195.5zM653 1206 l183 228h122l-206 -228h-99z" />
<glyph unicode="&#xfb;" horiz-adv-x="1191" d="M106 233q0 55 17 142l125 649h86l-119 -614q-18 -89 -18 -160q0 -91 45 -141t157 -50q93 0 181.5 43t155 112.5t113.5 157t64 177.5l93 475h86l-199 -1024h-86l33 170l26 94h-4q-23 -44 -63 -90t-99 -93t-142 -76.5t-173 -29.5q-122 0 -200.5 62.5t-78.5 195.5zM481 1206 l209 228h107l118 -228h-94l-82 164h-4l-147 -164h-107z" />
<glyph unicode="&#xfc;" horiz-adv-x="1191" d="M106 233q0 55 17 142l125 649h86l-119 -614q-18 -89 -18 -160q0 -91 45 -141t157 -50q93 0 181.5 43t155 112.5t113.5 157t64 177.5l93 475h86l-199 -1024h-86l33 170l26 94h-4q-23 -44 -63 -90t-99 -93t-142 -76.5t-173 -29.5q-122 0 -200.5 62.5t-78.5 195.5zM815 1284 l29 150h94l-29 -150h-94zM535 1284l28 150h94l-28 -150h-94z" />
<glyph unicode="&#xfd;" horiz-adv-x="1003" d="M-133 -305q5 -5 14 -12t40 -19t65 -12q72 0 128.5 49t108.5 133l109 174l-230 1016h91l178 -831l18 -97h2q26 48 55 97l500 831h98l-776 -1270q-114 -184 -282 -184q-47 0 -89 14t-61 28l-18 15zM559 1206l182 228h123l-207 -228h-98z" />
<glyph unicode="&#xfe;" horiz-adv-x="1193" d="M-16 -410l356 1844h86l-100 -523q-4 -21 -10 -44t-10 -35l-5 -13h4q55 97 157.5 163.5t235.5 66.5q179 0 277 -108t98 -296q0 -144 -46.5 -270.5t-123.5 -213t-177 -136.5t-206 -50q-124 0 -214 59.5t-120 172.5h-4q-2 -48 -12 -101l-100 -516h-86zM236 383 q0 -140 72 -232t208 -92q83 0 165 40.5t149.5 113t109 184.5t41.5 244q0 151 -75.5 237.5t-207.5 86.5q-83 0 -158 -35t-129 -93.5t-94.5 -133.5t-60.5 -157.5t-20 -162.5z" />
<glyph unicode="&#xff;" horiz-adv-x="1003" d="M-133 -305q5 -5 14 -12t40 -19t65 -12q72 0 128.5 49t108.5 133l109 174l-230 1016h91l178 -831l18 -97h2q26 48 55 97l500 831h98l-776 -1270q-114 -184 -282 -184q-47 0 -89 14t-61 28l-18 15zM721 1284l29 150h94l-29 -150h-94zM440 1284l29 150h94l-28 -150h-95z" />
<glyph unicode="&#x100;" horiz-adv-x="1243" d="M25 0h-99l813 1434h92l261 -1434h-91l-88 496h-608zM350 578h547l-102 581l-25 172h-4q-51 -111 -86 -172zM578 1610l14 82h489l-14 -82h-489z" />
<glyph unicode="&#x101;" horiz-adv-x="1056" d="M29 231q0 80 31 144t86.5 106t122.5 71.5t149 44.5t155 21.5t152 6.5h80q14 79 14 131q0 99 -52.5 154t-176.5 55q-50 0 -100.5 -10t-86.5 -24.5t-65 -29.5t-44 -25l-15 -10l-37 78l16.5 11t45.5 25.5t72.5 32t96 25t117.5 11.5q156 0 237.5 -70.5t81.5 -210.5 q0 -52 -12 -117l-127 -651h-86l27 133q4 24 10 47.5t10 35.5l4 11h-4q2 0 -13.5 -26t-48.5 -63t-78 -74t-113 -63t-142 -26q-131 0 -219 69t-88 187zM119 240q0 -78 57.5 -131.5t167.5 -53.5q78 0 152.5 40.5t130.5 105t96 142t57 155.5l11 47h-66q-606 0 -606 -305z M408 1280l14 82h489l-14 -82h-489z" />
<glyph unicode="&#x102;" horiz-adv-x="1243" d="M25 0h-99l813 1434h92l261 -1434h-91l-88 496h-608zM350 578h547l-102 581l-25 172h-4q-51 -111 -86 -172zM807 1530q-82 0 -136.5 56t-35.5 145l6 32h82l-6 -28q-11 -64 17 -95.5t83 -31.5q54 0 96.5 32t53.5 97l6 26h82l-6 -32q-18 -102 -84.5 -151.5t-157.5 -49.5z " />
<glyph unicode="&#x103;" horiz-adv-x="1056" d="M29 231q0 80 31 144t86.5 106t122.5 71.5t149 44.5t155 21.5t152 6.5h80q14 79 14 131q0 99 -52.5 154t-176.5 55q-50 0 -100.5 -10t-86.5 -24.5t-65 -29.5t-44 -25l-15 -10l-37 78l16.5 11t45.5 25.5t72.5 32t96 25t117.5 11.5q156 0 237.5 -70.5t81.5 -210.5 q0 -52 -12 -117l-127 -651h-86l27 133q4 24 10 47.5t10 35.5l4 11h-4q2 0 -13.5 -26t-48.5 -63t-78 -74t-113 -63t-142 -26q-131 0 -219 69t-88 187zM119 240q0 -78 57.5 -131.5t167.5 -53.5q78 0 152.5 40.5t130.5 105t96 142t57 155.5l11 47h-66q-606 0 -606 -305z M637 1200q-82 0 -136.5 56t-35.5 145l6 33h82l-6 -29q-11 -64 17 -95.5t83 -31.5q54 0 96.5 32t53.5 97l6 27h82l-6 -33q-18 -102 -84.5 -151.5t-157.5 -49.5z" />
<glyph unicode="&#x104;" horiz-adv-x="1243" d="M797 -256q0 55 32 108.5t70.5 88.5t97.5 77l-84 478h-608l-280 -496h-99l813 1434h92l261 -1434q-28 -17 -57.5 -40.5t-65 -57t-58 -72.5t-22.5 -74q0 -37 29.5 -60.5t59.5 -28.5l30 -5l-33 -80q-4 0 -10.5 1t-25 5t-35 10t-37 18.5t-35.5 29t-25 42t-10 56.5zM350 578 h547l-102 581l-25 172h-4q-51 -111 -86 -172z" />
<glyph unicode="&#x105;" horiz-adv-x="1056" d="M475 -256q0 44 18 85t52 77.5t66.5 63.5t78.5 59l21 104l24 94h-4q2 0 -13.5 -26t-48.5 -63t-78 -74t-113 -63t-142 -26q-131 0 -219 69t-88 187q0 80 31 144t86.5 106t122.5 71.5t149 44.5t155 21.5t152 6.5h80l6 34q10 62 10 99q0 207 -231 207q-50 0 -100.5 -10 t-86.5 -24.5t-65 -29.5t-44 -25l-15 -10l-37 78l16.5 11t45.5 25.5t72.5 32t96 25t117.5 11.5q319 0 319 -283q0 -54 -12 -115l-127 -651q-28 -17 -57.5 -40.5t-65 -57t-58 -72.5t-22.5 -74q0 -37 29.5 -60.5t59.5 -28.5l30 -5l-33 -80q-4 0 -10.5 1t-25 5t-35 10t-37 18.5 t-35.5 29t-25 42t-10 56.5zM119 240q0 -78 57.5 -131.5t167.5 -53.5q78 0 152.5 40.5t130.5 105t96 142t57 155.5l11 47h-66q-606 0 -606 -305z" />
<glyph unicode="&#x106;" horiz-adv-x="1507" d="M133 586q0 140 46.5 274t128.5 240.5t188.5 188t234 125.5t256.5 44q96 0 182.5 -18.5t140.5 -45t94 -53t58 -45.5l17 -18l-62 -64q-6 7 -17 17.5t-50.5 38t-85.5 48.5t-121 38.5t-156 17.5q-145 0 -284.5 -62t-244.5 -167t-169 -252t-64 -307q0 -230 141 -378.5 t371 -148.5q86 0 171.5 20t146 48.5t109 57.5t72.5 49l24 20l51 -68q-10 -9 -28 -23t-77 -50.5t-122 -64t-158 -50.5t-189 -23q-185 0 -323 79.5t-209.5 217.5t-71.5 314zM956 1536l183 227h123l-207 -227h-99z" />
<glyph unicode="&#x107;" horiz-adv-x="1132" d="M80 403q0 141 55.5 264.5t144.5 205.5t200.5 129t224.5 47q71 0 134 -15t102.5 -36.5t69 -43t41.5 -36.5l13 -15l-61 -63q-4 5 -12 13.5t-35.5 30t-58.5 38t-82.5 30t-106.5 13.5q-97 0 -193 -40.5t-173 -111.5t-125 -176.5t-48 -224.5q0 -160 103.5 -256.5t261.5 -96.5 q63 0 124.5 15t104 37t75.5 44t49 37l17 15l33 -78q-6 -6 -18 -16.5t-52.5 -37t-84 -47t-110 -37t-134.5 -16.5q-201 0 -330 116.5t-129 311.5zM672 1206l182 228h123l-207 -228h-98z" />
<glyph unicode="&#x108;" horiz-adv-x="1507" d="M133 586q0 140 46.5 274t128.5 240.5t188.5 188t234 125.5t256.5 44q96 0 182.5 -18.5t140.5 -45t94 -53t58 -45.5l17 -18l-62 -64q-6 7 -17 17.5t-50.5 38t-85.5 48.5t-121 38.5t-156 17.5q-145 0 -284.5 -62t-244.5 -167t-169 -252t-64 -307q0 -230 141 -378.5 t371 -148.5q86 0 171.5 20t146 48.5t109 57.5t72.5 49l24 20l51 -68q-10 -9 -28 -23t-77 -50.5t-122 -64t-158 -50.5t-189 -23q-185 0 -323 79.5t-209.5 217.5t-71.5 314zM784 1536l209 227h107l119 -227h-95l-82 164h-4l-147 -164h-107z" />
<glyph unicode="&#x109;" horiz-adv-x="1132" d="M80 403q0 141 55.5 264.5t144.5 205.5t200.5 129t224.5 47q71 0 134 -15t102.5 -36.5t69 -43t41.5 -36.5l13 -15l-61 -63q-4 5 -12 13.5t-35.5 30t-58.5 38t-82.5 30t-106.5 13.5q-97 0 -193 -40.5t-173 -111.5t-125 -176.5t-48 -224.5q0 -160 103.5 -256.5t261.5 -96.5 q63 0 124.5 15t104 37t75.5 44t49 37l17 15l33 -78q-6 -6 -18 -16.5t-52.5 -37t-84 -47t-110 -37t-134.5 -16.5q-201 0 -330 116.5t-129 311.5zM500 1206l209 228h106l119 -228h-94l-82 164h-4l-148 -164h-106z" />
<glyph unicode="&#x10a;" horiz-adv-x="1507" d="M133 586q0 140 46.5 274t128.5 240.5t188.5 188t234 125.5t256.5 44q96 0 182.5 -18.5t140.5 -45t94 -53t58 -45.5l17 -18l-62 -64q-6 7 -17 17.5t-50.5 38t-85.5 48.5t-121 38.5t-156 17.5q-145 0 -284.5 -62t-244.5 -167t-169 -252t-64 -307q0 -230 141 -378.5 t371 -148.5q86 0 171.5 20t146 48.5t109 57.5t72.5 49l24 20l51 -68q-10 -9 -28 -23t-77 -50.5t-122 -64t-158 -50.5t-189 -23q-185 0 -323 79.5t-209.5 217.5t-71.5 314zM977 1614l29 149h94l-29 -149h-94z" />
<glyph unicode="&#x10b;" horiz-adv-x="1132" d="M80 403q0 141 55.5 264.5t144.5 205.5t200.5 129t224.5 47q71 0 134 -15t102.5 -36.5t69 -43t41.5 -36.5l13 -15l-61 -63q-4 5 -12 13.5t-35.5 30t-58.5 38t-82.5 30t-106.5 13.5q-97 0 -193 -40.5t-173 -111.5t-125 -176.5t-48 -224.5q0 -160 103.5 -256.5t261.5 -96.5 q63 0 124.5 15t104 37t75.5 44t49 37l17 15l33 -78q-6 -6 -18 -16.5t-52.5 -37t-84 -47t-110 -37t-134.5 -16.5q-201 0 -330 116.5t-129 311.5zM692 1284l29 150h94l-29 -150h-94z" />
<glyph unicode="&#x10c;" horiz-adv-x="1507" d="M133 586q0 140 46.5 274t128.5 240.5t188.5 188t234 125.5t256.5 44q96 0 182.5 -18.5t140.5 -45t94 -53t58 -45.5l17 -18l-62 -64q-6 7 -17 17.5t-50.5 38t-85.5 48.5t-121 38.5t-156 17.5q-145 0 -284.5 -62t-244.5 -167t-169 -252t-64 -307q0 -230 141 -378.5 t371 -148.5q86 0 171.5 20t146 48.5t109 57.5t72.5 49l24 20l51 -68q-10 -9 -28 -23t-77 -50.5t-122 -64t-158 -50.5t-189 -23q-185 0 -323 79.5t-209.5 217.5t-71.5 314zM961 1536l-119 227h94l82 -164h4l147 164h107l-209 -227h-106z" />
<glyph unicode="&#x10d;" horiz-adv-x="1132" d="M80 403q0 141 55.5 264.5t144.5 205.5t200.5 129t224.5 47q71 0 134 -15t102.5 -36.5t69 -43t41.5 -36.5l13 -15l-61 -63q-4 5 -12 13.5t-35.5 30t-58.5 38t-82.5 30t-106.5 13.5q-97 0 -193 -40.5t-173 -111.5t-125 -176.5t-48 -224.5q0 -160 103.5 -256.5t261.5 -96.5 q63 0 124.5 15t104 37t75.5 44t49 37l17 15l33 -78q-6 -6 -18 -16.5t-52.5 -37t-84 -47t-110 -37t-134.5 -16.5q-201 0 -330 116.5t-129 311.5zM676 1206l-119 228h94l82 -164h4l148 164h106l-209 -228h-106z" />
<glyph unicode="&#x10e;" horiz-adv-x="1517" d="M102 0l281 1434h428q287 0 449.5 -145t162.5 -408q0 -180 -63 -341.5t-174 -280.5t-271 -189t-344 -70h-469zM205 82h348q165 0 309.5 61t247 166.5t162 253t59.5 314.5q0 228 -140.5 351.5t-389.5 123.5h-346zM834 1536l-119 227h94l82 -164h4l147 164h107l-209 -227 h-106z" />
<glyph unicode="&#x10f;" horiz-adv-x="1253" d="M82 379q0 144 47 270.5t124 213t178 136.5t208 50q122 0 211 -60.5t119 -171.5h4q0 47 10 94l102 523h86l-278 -1434h-86l22 119q4 21 10 43t11 34l4 11h-4q-57 -97 -160 -164.5t-233 -67.5q-181 0 -278 107.5t-97 296.5zM172 383q0 -151 76 -237.5t209 -86.5 q84 0 159.5 35.5t129.5 95t94 135.5t60 159t20 163q0 139 -71 228.5t-210 89.5q-83 0 -165.5 -41t-150 -113.5t-109.5 -184.5t-42 -243zM1307 1434h98v-27q0 -64 -20.5 -119t-65.5 -129h-80q74 126 74 217q0 28 -6 58z" />
<glyph unicode="&#x110;" horiz-adv-x="1544" d="M139 682l17 82h123l131 670h428q287 0 449.5 -145t162.5 -408q0 -180 -63 -341.5t-174 -280.5t-271 -189t-344 -70h-469l133 682h-123zM231 82h349q165 0 309.5 61t247 166.5t162 253t59.5 314.5q0 228 -141 351.5t-390 123.5h-346l-116 -588h376l-16 -82h-377z" />
<glyph unicode="&#x111;" horiz-adv-x="1189" d="M760 1165l16 82h273l36 187h86l-36 -187h170l-17 -82h-170l-225 -1165h-86l22 119q4 21 10 43t11 34l4 11h-4q-57 -97 -160 -164.5t-233 -67.5q-181 0 -278 107.5t-97 296.5q0 144 47 270.5t124 213t178 136.5t208 50q122 0 211 -60.5t119 -171.5h4q0 47 10 94l49 254 h-272zM172 383q0 -151 76 -237.5t209 -86.5q84 0 159.5 35.5t129.5 95t94 135.5t60 159t20 163q0 139 -71 228.5t-210 89.5q-83 0 -165.5 -41t-150 -113.5t-109.5 -184.5t-42 -243z" />
<glyph unicode="&#x112;" horiz-adv-x="1165" d="M102 0l281 1434h784l-18 -82h-694l-115 -588h571l-16 -82h-569l-119 -600h733l-14 -82h-824zM590 1610l14 82h490l-15 -82h-489z" />
<glyph unicode="&#x113;" horiz-adv-x="1134" d="M82 403q0 122 45 239t122.5 207t190 145t238.5 55q177 0 266.5 -99t89.5 -264q0 -34 -6.5 -74t-13.5 -63l-6 -23h-822q-12 -58 -12 -112q0 -155 94 -255t267 -100q55 0 110 13.5t95 32.5t72 37.5t48 31.5l17 14l32 -77q-7 -6 -19 -15t-51 -32.5t-80.5 -41.5t-102.5 -32.5 t-121 -14.5q-200 0 -326.5 116.5t-126.5 311.5zM207 606h727q8 39 8 86q0 137 -73 207t-191 70q-96 0 -186.5 -40t-167 -123.5t-117.5 -199.5zM496 1280l14 82h489l-14 -82h-489z" />
<glyph unicode="&#x114;" horiz-adv-x="1165" d="M102 0l281 1434h784l-18 -82h-694l-115 -588h571l-16 -82h-569l-119 -600h733l-14 -82h-824zM819 1530q-82 0 -136.5 56t-35.5 145l6 32h82l-6 -28q-11 -64 17 -95.5t83 -31.5q54 0 96.5 32t53.5 97l6 26h82l-6 -32q-18 -102 -84.5 -151.5t-157.5 -49.5z" />
<glyph unicode="&#x115;" horiz-adv-x="1134" d="M82 403q0 122 45 239t122.5 207t190 145t238.5 55q177 0 266.5 -99t89.5 -264q0 -34 -6.5 -74t-13.5 -63l-6 -23h-822q-12 -58 -12 -112q0 -155 94 -255t267 -100q55 0 110 13.5t95 32.5t72 37.5t48 31.5l17 14l32 -77q-7 -6 -19 -15t-51 -32.5t-80.5 -41.5t-102.5 -32.5 t-121 -14.5q-200 0 -326.5 116.5t-126.5 311.5zM207 606h727q8 39 8 86q0 137 -73 207t-191 70q-96 0 -186.5 -40t-167 -123.5t-117.5 -199.5zM725 1200q-82 0 -136.5 56t-35.5 145l6 33h82l-6 -29q-11 -64 17 -95.5t83 -31.5q54 0 96.5 32t53.5 97l6 27h82l-6 -33 q-18 -102 -84.5 -151.5t-157.5 -49.5z" />
<glyph unicode="&#x116;" horiz-adv-x="1165" d="M102 0l281 1434h784l-18 -82h-694l-115 -588h571l-16 -82h-569l-119 -600h733l-14 -82h-824zM788 1614l29 149h94l-28 -149h-95z" />
<glyph unicode="&#x117;" horiz-adv-x="1134" d="M82 403q0 122 45 239t122.5 207t190 145t238.5 55q177 0 266.5 -99t89.5 -264q0 -34 -6.5 -74t-13.5 -63l-6 -23h-822q-12 -58 -12 -112q0 -155 94 -255t267 -100q55 0 110 13.5t95 32.5t72 37.5t48 31.5l17 14l32 -77q-7 -6 -19 -15t-51 -32.5t-80.5 -41.5t-102.5 -32.5 t-121 -14.5q-200 0 -326.5 116.5t-126.5 311.5zM207 606h727q8 39 8 86q0 137 -73 207t-191 70q-96 0 -186.5 -40t-167 -123.5t-117.5 -199.5zM694 1284l29 150h94l-29 -150h-94z" />
<glyph unicode="&#x118;" horiz-adv-x="1165" d="M102 0l281 1434h784l-18 -82h-694l-115 -588h571l-16 -82h-569l-119 -600h733l-14 -82q-28 -17 -57.5 -40.5t-65 -57t-58 -72.5t-22.5 -74q0 -37 29.5 -60.5t59.5 -28.5l30 -5l-33 -80q-4 0 -10.5 1t-25 5t-35 10t-37 18.5t-35.5 29t-25 42t-10 56.5q0 72 45.5 131 t126.5 121v4h-701z" />
<glyph unicode="&#x119;" horiz-adv-x="1136" d="M428 -256q0 114 154 231v5q-31 -5 -47 -5q-200 0 -326.5 116.5t-126.5 311.5q0 122 45 239t122.5 207t190 145t238.5 55q177 0 266.5 -99t89.5 -264q0 -34 -6.5 -74t-13.5 -63l-6 -23h-822q-12 -67 -12 -112q0 -166 100.5 -260.5t260.5 -94.5q55 0 110 13.5t95 32.5 t72 37.5t48 31.5l17 14l32 -77q-22 -18 -94 -64t-132.5 -86t-111.5 -97.5t-51 -107.5q0 -37 30 -60.5t60 -28.5l29 -5l-33 -80q-4 0 -10.5 1t-25 5t-35 10t-37 18.5t-35.5 29t-25 42t-10 56.5zM207 606h727q8 39 8 86q0 137 -73 207t-191 70q-96 0 -186.5 -40t-167 -123.5 t-117.5 -199.5z" />
<glyph unicode="&#x11a;" horiz-adv-x="1165" d="M102 0l281 1434h784l-18 -82h-694l-115 -588h571l-16 -82h-569l-119 -600h733l-14 -82h-824zM772 1536l-119 227h95l81 -164h5l147 164h106l-208 -227h-107z" />
<glyph unicode="&#x11b;" horiz-adv-x="1134" d="M82 403q0 122 45 239t122.5 207t190 145t238.5 55q177 0 266.5 -99t89.5 -264q0 -34 -6.5 -74t-13.5 -63l-6 -23h-822q-12 -58 -12 -112q0 -155 94 -255t267 -100q55 0 110 13.5t95 32.5t72 37.5t48 31.5l17 14l32 -77q-7 -6 -19 -15t-51 -32.5t-80.5 -41.5t-102.5 -32.5 t-121 -14.5q-200 0 -326.5 116.5t-126.5 311.5zM207 606h727q8 39 8 86q0 137 -73 207t-191 70q-96 0 -186.5 -40t-167 -123.5t-117.5 -199.5zM678 1206l-119 228h94l82 -164h4l148 164h106l-209 -228h-106z" />
<glyph unicode="&#x11c;" horiz-adv-x="1554" d="M131 567q0 141 45.5 276t127.5 245t188.5 194t235.5 130t261 46q92 0 176 -16.5t138 -40t95 -47t59 -40.5l18 -16l-62 -65q-6 6 -18 15.5t-52.5 33.5t-86 43t-118 34t-149.5 15q-148 0 -288.5 -65t-245.5 -173.5t-168.5 -258.5t-63.5 -310q0 -225 136.5 -366.5 t361.5 -141.5q88 0 176 26t151 63t114 74t76 63l26 26l51 260h-254l14 82h344l-127 -653h-88l25 127l14 61h-4q-9 -9 -25 -23t-69 -51t-110 -65t-143 -51t-171 -23q-265 0 -427.5 166t-162.5 426zM776 1536l209 227h107l118 -227h-94l-82 164h-4l-147 -164h-107z" />
<glyph unicode="&#x11d;" horiz-adv-x="1175" d="M68 -279q13 -8 37 -19t94 -29.5t135 -18.5q173 0 296.5 88t160.5 264l22 109q4 21 10.5 44.5t11.5 36.5l5 13h-4q-131 -209 -365 -209q-178 0 -282.5 108t-104.5 293q0 87 22 177.5t67.5 175t108 150t150.5 105.5t189 40q58 0 109.5 -10.5t98.5 -33t81 -62.5t48 -95h5 q-2 24 2 49l24 127h86l-198 -1028q-18 -91 -56.5 -164t-89.5 -121.5t-115 -80.5t-131.5 -46t-140.5 -14q-179 0 -326 80zM174 403q0 -150 79.5 -234.5t219.5 -84.5q87 0 161 38t124 100t85.5 141.5t51.5 162.5t16 164q0 144 -77 209.5t-209 65.5q-104 0 -191.5 -50 t-143 -131t-86 -180t-30.5 -201zM473 1206l209 228h106l119 -228h-94l-82 164h-4l-147 -164h-107z" />
<glyph unicode="&#x11e;" horiz-adv-x="1554" d="M131 567q0 141 45.5 276t127.5 245t188.5 194t235.5 130t261 46q92 0 176 -16.5t138 -40t95 -47t59 -40.5l18 -16l-62 -65q-6 6 -18 15.5t-52.5 33.5t-86 43t-118 34t-149.5 15q-148 0 -288.5 -65t-245.5 -173.5t-168.5 -258.5t-63.5 -310q0 -225 136.5 -366.5 t361.5 -141.5q88 0 176 26t151 63t114 74t76 63l26 26l51 260h-254l14 82h344l-127 -653h-88l25 127l14 61h-4q-9 -9 -25 -23t-69 -51t-110 -65t-143 -51t-171 -23q-265 0 -427.5 166t-162.5 426zM999 1530q-82 0 -136.5 56t-35.5 145l7 32h81l-6 -28q-11 -64 17.5 -95.5 t83.5 -31.5q54 0 96 32t53 97l6 26h82l-6 -32q-18 -102 -84.5 -151.5t-157.5 -49.5z" />
<glyph unicode="&#x11f;" horiz-adv-x="1175" d="M68 -279q13 -8 37 -19t94 -29.5t135 -18.5q173 0 296.5 88t160.5 264l22 109q4 21 10.5 44.5t11.5 36.5l5 13h-4q-131 -209 -365 -209q-178 0 -282.5 108t-104.5 293q0 87 22 177.5t67.5 175t108 150t150.5 105.5t189 40q58 0 109.5 -10.5t98.5 -33t81 -62.5t48 -95h5 q-2 24 2 49l24 127h86l-198 -1028q-18 -91 -56.5 -164t-89.5 -121.5t-115 -80.5t-131.5 -46t-140.5 -14q-179 0 -326 80zM174 403q0 -150 79.5 -234.5t219.5 -84.5q87 0 161 38t124 100t85.5 141.5t51.5 162.5t16 164q0 144 -77 209.5t-209 65.5q-104 0 -191.5 -50 t-143 -131t-86 -180t-30.5 -201zM696 1200q-82 0 -136.5 56t-35.5 145l6 33h82l-6 -29q-11 -64 17.5 -95.5t83.5 -31.5q54 0 96 32t53 97l6 27h82l-6 -33q-18 -102 -84.5 -151.5t-157.5 -49.5z" />
<glyph unicode="&#x120;" horiz-adv-x="1554" d="M131 567q0 141 45.5 276t127.5 245t188.5 194t235.5 130t261 46q92 0 176 -16.5t138 -40t95 -47t59 -40.5l18 -16l-62 -65q-6 6 -18 15.5t-52.5 33.5t-86 43t-118 34t-149.5 15q-148 0 -288.5 -65t-245.5 -173.5t-168.5 -258.5t-63.5 -310q0 -225 136.5 -366.5 t361.5 -141.5q88 0 176 26t151 63t114 74t76 63l26 26l51 260h-254l14 82h344l-127 -653h-88l25 127l14 61h-4q-9 -9 -25 -23t-69 -51t-110 -65t-143 -51t-171 -23q-265 0 -427.5 166t-162.5 426zM969 1614l28 149h95l-29 -149h-94z" />
<glyph unicode="&#x121;" horiz-adv-x="1175" d="M68 -279q13 -8 37 -19t94 -29.5t135 -18.5q173 0 296.5 88t160.5 264l22 109q4 21 10.5 44.5t11.5 36.5l5 13h-4q-131 -209 -365 -209q-178 0 -282.5 108t-104.5 293q0 87 22 177.5t67.5 175t108 150t150.5 105.5t189 40q58 0 109.5 -10.5t98.5 -33t81 -62.5t48 -95h5 q-2 24 2 49l24 127h86l-198 -1028q-18 -91 -56.5 -164t-89.5 -121.5t-115 -80.5t-131.5 -46t-140.5 -14q-179 0 -326 80zM174 403q0 -150 79.5 -234.5t219.5 -84.5q87 0 161 38t124 100t85.5 141.5t51.5 162.5t16 164q0 144 -77 209.5t-209 65.5q-104 0 -191.5 -50 t-143 -131t-86 -180t-30.5 -201zM666 1284l28 150h94l-28 -150h-94z" />
<glyph unicode="&#x122;" horiz-adv-x="1554" d="M131 567q0 141 45.5 276t127.5 245t188.5 194t235.5 130t261 46q92 0 176 -16.5t138 -40t95 -47t59 -40.5l18 -16l-62 -65q-6 6 -18 15.5t-52.5 33.5t-86 43t-118 34t-149.5 15q-148 0 -288.5 -65t-245.5 -173.5t-168.5 -258.5t-63.5 -310q0 -225 136.5 -366.5 t361.5 -141.5q88 0 176 26t151 63t114 74t76 63l26 26l51 260h-254l14 82h344l-127 -653h-88l25 127l14 61h-4q-9 -9 -25 -23t-69 -51t-110 -65t-143 -51t-171 -23q-265 0 -427.5 166t-162.5 426zM637 -135h98v-27q0 -64 -20.5 -119t-65.5 -129h-80q74 126 74 217 q0 28 -6 58z" />
<glyph unicode="&#x123;" horiz-adv-x="1175" d="M68 -279q13 -8 37 -19t94 -29.5t135 -18.5q173 0 296.5 88t160.5 264l22 109q4 21 10.5 44.5t11.5 36.5l5 13h-4q-131 -209 -365 -209q-178 0 -282.5 108t-104.5 293q0 87 22 177.5t67.5 175t108 150t150.5 105.5t189 40q58 0 109.5 -10.5t98.5 -33t81 -62.5t48 -95h5 q-2 24 2 49l24 127h86l-198 -1028q-18 -91 -56.5 -164t-89.5 -121.5t-115 -80.5t-131.5 -46t-140.5 -14q-179 0 -326 80zM174 403q0 -150 79.5 -234.5t219.5 -84.5q87 0 161 38t124 100t85.5 141.5t51.5 162.5t16 164q0 144 -77 209.5t-209 65.5q-104 0 -191.5 -50 t-143 -131t-86 -180t-30.5 -201zM975 1159h-98v27q0 64 20.5 119t65.5 129h79q-73 -124 -73 -217q0 -28 6 -58z" />
<glyph unicode="&#x124;" horiz-adv-x="1529" d="M102 0l281 1434h88l-131 -674h909l131 674h88l-280 -1434h-88l133 678h-909l-134 -678h-88zM725 1536l209 227h106l119 -227h-94l-82 164h-4l-148 -164h-106z" />
<glyph unicode="&#x125;" horiz-adv-x="1202" d="M61 0l279 1434h86l-111 -580l-26 -94h4q22 43 63.5 90.5t101 93.5t143 75.5t171.5 29.5q140 0 212.5 -66.5t72.5 -191.5q0 -55 -17 -142l-125 -649h-86l119 618q19 101 19 156q0 95 -53 143t-144 48q-93 0 -182.5 -39.5t-159 -106t-119.5 -155t-69 -185.5l-93 -479h-86z M182 1536l209 227h107l118 -227h-94l-82 164h-4l-147 -164h-107z" />
<glyph unicode="&#x126;" horiz-adv-x="1609" d="M215 1047l14 81h133l60 306h88l-59 -306h909l59 306h88l-59 -306h133l-14 -81h-135l-205 -1047h-88l133 678h-910l-133 -678h-88l205 1047h-131zM379 760h909l55 287h-909z" />
<glyph unicode="&#x127;" horiz-adv-x="1204" d="M125 1165l16 82h164l37 187h86l-37 -187h275l-17 -82h-272l-60 -311l-26 -94h4q22 43 63.5 90.5t101 93.5t143 75.5t171.5 29.5q140 0 212.5 -66.5t72.5 -191.5q0 -55 -17 -142l-124 -649h-87l119 618q19 101 19 156q0 95 -53 143t-144 48q-93 0 -182.5 -39.5t-159 -106 t-119.5 -155t-69 -185.5l-92 -479h-87l226 1165h-164z" />
<glyph unicode="&#x128;" horiz-adv-x="532" d="M102 0l281 1434h88l-281 -1434h-88zM166 1542q41 221 196 221q37 0 65.5 -15.5t46.5 -37.5t34.5 -44.5t36.5 -38t45 -15.5t45.5 15.5t32 40.5t18 46t10.5 43h82q-22 -112 -68.5 -166.5t-129.5 -54.5q-36 0 -64.5 15.5t-46.5 38t-34 45t-37 38t-46 15.5q-43 0 -69 -47.5 t-35 -98.5h-82z" />
<glyph unicode="&#x129;" horiz-adv-x="448" d="M59 1212q41 222 197 222q37 0 65.5 -15.5t46.5 -38t34 -45t36 -38t45 -15.5t45.5 15.5t32.5 40t18.5 46t10.5 43.5h82q-22 -112 -69 -166.5t-130 -54.5q-44 0 -77.5 24t-50.5 52t-43 52t-56 24t-54.5 -28t-35 -58t-15.5 -60h-82zM63 0l199 1024h86l-198 -1024h-87z" />
<glyph unicode="&#x12a;" horiz-adv-x="532" d="M102 0l281 1434h88l-281 -1434h-88zM219 1610l14 82h490l-14 -82h-490z" />
<glyph unicode="&#x12b;" horiz-adv-x="448" d="M113 1280l14 82h489l-14 -82h-489zM63 0l199 1024h86l-198 -1024h-87z" />
<glyph unicode="&#x12c;" horiz-adv-x="532" d="M102 0l281 1434h88l-281 -1434h-88zM449 1530q-82 0 -137 56t-36 145l7 32h82l-7 -28q-11 -64 17.5 -95.5t83.5 -31.5q54 0 96 32t53 97l6 26h82l-6 -32q-18 -102 -84 -151.5t-157 -49.5z" />
<glyph unicode="&#x12d;" horiz-adv-x="448" d="M342 1200q-82 0 -136.5 56t-35.5 145l6 33h82l-6 -29q-11 -64 17 -95.5t83 -31.5q54 0 96.5 32t53.5 97l6 27h82l-6 -33q-18 -102 -84.5 -151.5t-157.5 -49.5zM63 0l199 1024h86l-198 -1024h-87z" />
<glyph unicode="&#x12e;" horiz-adv-x="534" d="M-102 -256q0 43 17.5 84t51.5 77.5t65.5 62.5t76.5 59l276 1407h88l-280 -1434q-28 -17 -57.5 -40.5t-65 -57t-58 -72.5t-22.5 -74q0 -37 30 -60.5t60 -28.5l29 -5l-33 -80q-4 0 -10.5 1t-25 5t-35 10t-37 18.5t-35.5 29t-25 42t-10 56.5z" />
<glyph unicode="&#x12f;" horiz-adv-x="450" d="M-145 -256q0 43 18 84.5t51.5 77.5t66.5 63.5t77 57.5l196 997h86l-200 -1024q-28 -17 -57.5 -40.5t-65 -57t-58 -72.5t-22.5 -74q0 -37 30 -60.5t59 -28.5l30 -5l-33 -80q-4 0 -10.5 1t-25 5t-35 10t-37 18.5t-35.5 29t-25 42t-10 56.5zM305 1284l31 150h102l-30 -150 h-103z" />
<glyph unicode="&#x130;" horiz-adv-x="532" d="M102 0l281 1434h88l-281 -1434h-88zM416 1614l28 149h95l-29 -149h-94z" />
<glyph unicode="&#x131;" horiz-adv-x="448" d="M63 0l199 1024h86l-198 -1024h-87z" />
<glyph unicode="&#x132;" horiz-adv-x="1140" d="M414 -10l16 84q48 0 89 7t89.5 31t86 63t71 108.5t51.5 162.5l193 988h88l-193 -988q-22 -112 -61 -195.5t-84.5 -132.5t-105.5 -78.5t-116 -39.5t-124 -10zM102 0l281 1434h88l-281 -1434h-88z" />
<glyph unicode="&#x133;" horiz-adv-x="888" d="M303 1284l31 150h102l-30 -150h-103zM61 0l201 1024h86l-201 -1024h-86zM743 1284l29 150h102l-28 -150h-103zM496 -43l206 1067h86l-206 -1065q-19 -97 -55.5 -169.5t-76.5 -111.5t-89 -62t-84.5 -29.5t-71.5 -6.5l-72 4l17 80q16 -4 45 -4t57.5 5t68 24t71 49t60.5 87 t44 132z" />
<glyph unicode="&#x134;" horiz-adv-x="1044" d="M23 285q0 39 12 106l8 45h88l-8 -45q-10 -52 -10 -92q0 -240 237 -240q44 0 86.5 10t87 35t80.5 62t64.5 95t42.5 130l184 961h-340l16 82h428l-204 -1055q-21 -110 -68.5 -191t-110.5 -126t-129 -66t-137 -21q-67 0 -124 17.5t-103.5 53t-73 97t-26.5 142.5zM584 1536 l209 227h106l119 -227h-94l-82 164h-4l-148 -164h-106z" />
<glyph unicode="&#x135;" horiz-adv-x="448" d="M113 1206l209 228h106l119 -228h-94l-82 164h-4l-148 -164h-106zM53 -43l209 1067h86l-207 -1065q-19 -97 -55.5 -169.5t-76.5 -111.5t-89 -62t-84.5 -29.5t-71.5 -6.5l-71 4l16 80q16 -4 45 -4t57.5 5t67.5 24t70.5 49t60 87t43.5 132z" />
<glyph unicode="&#x136;" horiz-adv-x="1187" d="M102 0l281 1434h88l-125 -639h258l543 639h106l-575 -678v-4l323 -752h-96l-303 713h-272l-140 -713h-88zM424 -135h98v-27q0 -64 -20.5 -119t-65.5 -129h-80q74 126 74 217q0 28 -6 58z" />
<glyph unicode="&#x137;" horiz-adv-x="978" d="M61 0l281 1434h86l-160 -813h174l414 403h117l-455 -442v-4l291 -578h-98l-269 541h-188l-107 -541h-86zM326 -135h98v-27q0 -64 -20.5 -119t-65.5 -129h-80q74 126 74 217q0 28 -6 58z" />
<glyph unicode="&#x138;" horiz-adv-x="995" d="M61 0l199 1024h86l-84 -436h176l439 436h120l-485 -475v-4l276 -545h-100l-252 512h-188l-101 -512h-86z" />
<glyph unicode="&#x139;" horiz-adv-x="1028" d="M102 0l281 1434h88l-264 -1352h684l-19 -82h-770zM395 1536l183 227h122l-206 -227h-99z" />
<glyph unicode="&#x13a;" horiz-adv-x="475" d="M88 158q0 24 6 59l238 1217h86l-234 -1203q-6 -35 -6 -59q0 -33 9 -54.5t26 -30t31 -11t35 -2.5l26 2l-18 -80q-17 -4 -35 -4q-25 0 -49 6t-52 22t-45.5 51.5t-17.5 86.5zM346 1536l182 227h123l-207 -227h-98z" />
<glyph unicode="&#x13b;" horiz-adv-x="1028" d="M102 0l281 1434h88l-264 -1352h684l-19 -82h-770zM428 -135h98v-27q0 -64 -20.5 -119t-65.5 -129h-80q74 126 74 217q0 28 -6 58z" />
<glyph unicode="&#x13c;" horiz-adv-x="475" d="M88 158q0 24 6 59l238 1217h86l-234 -1203q-6 -35 -6 -59q0 -33 9 -54.5t26 -30t31 -11t35 -2.5l26 2l-18 -80q-17 -4 -35 -4q-25 0 -49 6t-52 22t-45.5 51.5t-17.5 86.5zM96 -135h99v-27q0 -64 -20.5 -119t-65.5 -129h-80q73 124 73 217q0 28 -6 58z" />
<glyph unicode="&#x13d;" horiz-adv-x="1028" d="M102 0l281 1434h88l-264 -1352h684l-19 -82h-770zM668 1434h98v-27q0 -64 -20.5 -119t-65.5 -129h-80q74 126 74 217q0 28 -6 58z" />
<glyph unicode="&#x13e;" horiz-adv-x="536" d="M88 158q0 24 6 59l238 1217h86l-234 -1203q-6 -35 -6 -59q0 -33 9 -54.5t26 -30t31 -11t35 -2.5l26 2l-18 -80q-17 -4 -35 -4q-25 0 -49 6t-52 22t-45.5 51.5t-17.5 86.5zM557 1434h98v-27q0 -64 -20.5 -119t-65.5 -129h-80q74 126 74 217q0 28 -6 58z" />
<glyph unicode="&#x13f;" horiz-adv-x="1028" d="M102 0l281 1434h88l-264 -1352h684l-19 -82h-770zM596 682l25 129h124l-24 -129h-125z" />
<glyph unicode="&#x140;" horiz-adv-x="542" d="M88 158q0 24 6 59l238 1217h86l-234 -1203q-6 -35 -6 -59q0 -33 9 -54.5t26 -30t31 -11t35 -2.5l26 2l-18 -80q-17 -4 -35 -4q-25 0 -49 6t-52 22t-45.5 51.5t-17.5 86.5zM406 682l24 129h125l-25 -129h-124z" />
<glyph unicode="&#x141;" horiz-adv-x="1075" d="M152 682l18 96l149 78l113 578h88l-104 -527l262 135l-19 -98l-262 -135l-141 -727h684l-16 -82h-772l147 758z" />
<glyph unicode="&#x142;" horiz-adv-x="600" d="M88 682l16 96l201 105l109 551h86l-99 -502l211 110l-20 -98l-209 -108l-117 -605q-6 -35 -6 -59q0 -33 9 -54.5t26 -30t30.5 -11t34.5 -2.5l27 2l-18 -80q-17 -4 -35 -4q-25 0 -49 6t-52 22t-45.5 51.5t-17.5 86.5q0 24 6 59l111 567z" />
<glyph unicode="&#x143;" horiz-adv-x="1529" d="M102 0l281 1434h72l598 -1125q16 -29 36.5 -74t32.5 -75l13 -31h4q8 108 22 180l219 1125h88l-280 -1434h-72l-598 1124q-16 29 -36.5 74.5t-33.5 75.5l-12 31h-4q-8 -109 -22 -181l-220 -1124h-88zM893 1536l182 227h123l-207 -227h-98z" />
<glyph unicode="&#x144;" horiz-adv-x="1202" d="M61 0l199 1024h86l-31 -170q-4 -21 -11 -44.5t-12 -36.5l-5 -13h4q17 34 46 71t74.5 76.5t98 70.5t121.5 51t141 20q140 0 212.5 -66.5t72.5 -191.5q0 -55 -17 -142l-125 -649h-86l119 618q19 101 19 156q0 95 -53 143t-144 48q-125 0 -238.5 -67.5t-190 -178 t-101.5 -240.5l-93 -479h-86zM694 1206l183 228h122l-206 -228h-99z" />
<glyph unicode="&#x145;" horiz-adv-x="1529" d="M102 0l281 1434h72l598 -1125q16 -29 36.5 -74t32.5 -75l13 -31h4q8 108 22 180l219 1125h88l-280 -1434h-72l-598 1124q-16 29 -36.5 74.5t-33.5 75.5l-12 31h-4q-8 -109 -22 -181l-220 -1124h-88zM569 -135h99v-27q0 -64 -20.5 -119t-65.5 -129h-80q73 124 73 217 q0 28 -6 58z" />
<glyph unicode="&#x146;" horiz-adv-x="1202" d="M61 0l199 1024h86l-31 -170q-4 -21 -11 -44.5t-12 -36.5l-5 -13h4q17 34 46 71t74.5 76.5t98 70.5t121.5 51t141 20q140 0 212.5 -66.5t72.5 -191.5q0 -55 -17 -142l-125 -649h-86l119 618q19 101 19 156q0 95 -53 143t-144 48q-125 0 -238.5 -67.5t-190 -178 t-101.5 -240.5l-93 -479h-86zM428 -135h98v-27q0 -64 -20.5 -119t-65.5 -129h-80q74 126 74 217q0 28 -6 58z" />
<glyph unicode="&#x147;" horiz-adv-x="1529" d="M102 0l281 1434h72l598 -1125q16 -29 36.5 -74t32.5 -75l13 -31h4q8 108 22 180l219 1125h88l-280 -1434h-72l-598 1124q-16 29 -36.5 74.5t-33.5 75.5l-12 31h-4q-8 -109 -22 -181l-220 -1124h-88zM897 1536l-119 227h94l82 -164h4l148 164h106l-208 -227h-107z" />
<glyph unicode="&#x148;" horiz-adv-x="1202" d="M61 0l199 1024h86l-31 -170q-4 -21 -11 -44.5t-12 -36.5l-5 -13h4q17 34 46 71t74.5 76.5t98 70.5t121.5 51t141 20q140 0 212.5 -66.5t72.5 -191.5q0 -55 -17 -142l-125 -649h-86l119 618q19 101 19 156q0 95 -53 143t-144 48q-125 0 -238.5 -67.5t-190 -178 t-101.5 -240.5l-93 -479h-86zM698 1206l-118 228h94l82 -164h4l147 164h107l-209 -228h-107z" />
<glyph unicode="&#x149;" horiz-adv-x="1202" d="M61 0l199 1024h86l-31 -170q-4 -21 -11 -44.5t-12 -36.5l-5 -13h4q17 34 46 71t74.5 76.5t98 70.5t121.5 51t141 20q140 0 212.5 -66.5t72.5 -191.5q0 -55 -17 -142l-125 -649h-86l119 618q19 101 19 156q0 95 -53 143t-144 48q-125 0 -238.5 -67.5t-190 -178 t-101.5 -240.5l-93 -479h-86zM225 1434h99v-27q0 -64 -20.5 -119t-65.5 -129h-80q73 124 73 217q0 28 -6 58z" />
<glyph unicode="&#x14a;" horiz-adv-x="1527" d="M102 0l281 1434h72l598 -1125q16 -29 36.5 -74t32.5 -75l13 -31h4q8 108 22 180l219 1125h88l-274 -1397q-22 -112 -60.5 -195.5t-84 -133t-105.5 -79t-115.5 -39.5t-123.5 -10l16 84q47 0 87.5 7t88 30t84.5 60.5t70.5 104t52.5 154.5l-586 1104q-16 29 -36.5 74.5 t-33.5 75.5l-12 31h-4q-8 -109 -22 -181l-220 -1124h-88z" />
<glyph unicode="&#x14b;" horiz-adv-x="1200" d="M61 0l199 1024h86l-31 -170q-4 -21 -11 -44.5t-12 -36.5l-5 -13h4q17 34 46 71t74.5 76.5t98 70.5t121.5 51t141 20q140 0 212.5 -66.5t72.5 -191.5q0 -55 -17 -142l-135 -700q-19 -97 -55.5 -169.5t-76.5 -111.5t-89 -62t-84.5 -29.5t-71.5 -6.5l-71 4l16 80 q16 -4 45 -4t57.5 5t68 24t71 49t60.5 87t44 132l129 671q19 101 19 156q0 95 -53 143t-144 48q-125 0 -238.5 -67.5t-190 -178t-101.5 -240.5l-93 -479h-86z" />
<glyph unicode="&#x14c;" horiz-adv-x="1695" d="M131 590q0 172 74.5 333.5t194.5 278t278 186.5t319 70q270 0 440.5 -168t170.5 -430q0 -175 -75 -339.5t-195.5 -283.5t-278.5 -190.5t-318 -71.5q-270 0 -440 172.5t-170 442.5zM223 590q0 -233 144.5 -382t373.5 -149q142 0 283 64.5t249 171t175.5 255.5t67.5 308 q0 226 -145 371t-374 145q-145 0 -286 -63t-248 -167.5t-173.5 -250.5t-66.5 -303zM795 1610l14 82h489l-14 -82h-489z" />
<glyph unicode="&#x14d;" horiz-adv-x="1275" d="M80 420q0 127 53.5 244.5t140 201t201 133.5t232.5 50q201 0 326.5 -123.5t125.5 -315.5q0 -128 -54 -247t-141 -203t-201 -134.5t-231 -50.5q-201 0 -326.5 125t-125.5 320zM170 422q0 -159 101 -261t261 -102q99 0 196 43.5t172.5 116.5t122 176t46.5 213 q0 156 -101 256.5t-261 100.5q-136 0 -259.5 -72.5t-200.5 -199t-77 -271.5zM524 1280l15 82h489l-14 -82h-490z" />
<glyph unicode="&#x14e;" horiz-adv-x="1695" d="M131 590q0 172 74.5 333.5t194.5 278t278 186.5t319 70q270 0 440.5 -168t170.5 -430q0 -175 -75 -339.5t-195.5 -283.5t-278.5 -190.5t-318 -71.5q-270 0 -440 172.5t-170 442.5zM223 590q0 -233 144.5 -382t373.5 -149q142 0 283 64.5t249 171t175.5 255.5t67.5 308 q0 226 -145 371t-374 145q-145 0 -286 -63t-248 -167.5t-173.5 -250.5t-66.5 -303zM1024 1530q-82 0 -136.5 56t-35.5 145l6 32h82l-6 -28q-11 -64 17 -95.5t83 -31.5q54 0 96.5 32t53.5 97l6 26h82l-6 -32q-18 -102 -84.5 -151.5t-157.5 -49.5z" />
<glyph unicode="&#x14f;" horiz-adv-x="1275" d="M80 420q0 127 53.5 244.5t140 201t201 133.5t232.5 50q201 0 326.5 -123.5t125.5 -315.5q0 -128 -54 -247t-141 -203t-201 -134.5t-231 -50.5q-201 0 -326.5 125t-125.5 320zM170 422q0 -159 101 -261t261 -102q99 0 196 43.5t172.5 116.5t122 176t46.5 213 q0 156 -101 256.5t-261 100.5q-136 0 -259.5 -72.5t-200.5 -199t-77 -271.5zM754 1200q-82 0 -136.5 56t-35.5 145l6 33h82l-6 -29q-11 -64 17 -95.5t83 -31.5q54 0 96 32t53 97l7 27h81l-6 -33q-18 -102 -84 -151.5t-157 -49.5z" />
<glyph unicode="&#x150;" horiz-adv-x="1695" d="M131 590q0 172 74.5 333.5t194.5 278t278 186.5t319 70q270 0 440.5 -168t170.5 -430q0 -175 -75 -339.5t-195.5 -283.5t-278.5 -190.5t-318 -71.5q-270 0 -440 172.5t-170 442.5zM223 590q0 -233 144.5 -382t373.5 -149q142 0 283 64.5t249 171t175.5 255.5t67.5 308 q0 226 -145 371t-374 145q-145 0 -286 -63t-248 -167.5t-173.5 -250.5t-66.5 -303zM1061 1536l182 227h123l-207 -227h-98zM825 1536l172 227h111l-178 -227h-105z" />
<glyph unicode="&#x151;" horiz-adv-x="1275" d="M80 420q0 127 53.5 244.5t140 201t201 133.5t232.5 50q201 0 326.5 -123.5t125.5 -315.5q0 -128 -54 -247t-141 -203t-201 -134.5t-231 -50.5q-201 0 -326.5 125t-125.5 320zM170 422q0 -159 101 -261t261 -102q99 0 196 43.5t172.5 116.5t122 176t46.5 213 q0 156 -101 256.5t-261 100.5q-136 0 -259.5 -72.5t-200.5 -199t-77 -271.5zM791 1206l182 228h123l-207 -228h-98zM555 1206l172 228h111l-179 -228h-104z" />
<glyph unicode="&#x152;" horiz-adv-x="1933" d="M133 578q0 174 70 336t186 280t274 189t328 71q38 0 132 -10t124 -10h690l-16 -82h-696l-115 -588h571l-16 -82h-571l-117 -600h735l-16 -82h-707q-27 0 -115.5 -10t-125.5 -10q-140 0 -256 44.5t-194.5 124t-121.5 189.5t-43 240zM225 567q0 -225 139 -364.5t379 -139.5 q34 0 70.5 4.5t56.5 8.5l19 4l248 1274q-66 16 -142 16q-156 0 -298.5 -64.5t-246 -172.5t-164.5 -256.5t-61 -309.5z" />
<glyph unicode="&#x153;" horiz-adv-x="2103" d="M80 420q0 127 53.5 244.5t140 201t201 133.5t232.5 50q162 0 276.5 -84t155.5 -224h4q80 139 212 223.5t292 84.5q177 0 266.5 -99t89.5 -264q0 -34 -6.5 -74t-13.5 -63l-7 -23h-821q-12 -67 -12 -112q0 -166 100 -260.5t260 -94.5q55 0 110 13.5t95 32.5t72 37.5 t48 31.5l17 14l33 -77q-7 -6 -19 -15t-51.5 -32.5t-81 -41.5t-102.5 -32.5t-121 -14.5q-167 0 -284 82.5t-154 227.5h-4q-87 -141 -230 -225.5t-299 -84.5q-201 0 -326.5 125t-125.5 320zM1176 606h727q8 39 8 86q0 137 -73 207t-191 70q-96 0 -186.5 -40t-167 -123.5 t-117.5 -199.5zM170 422q0 -159 101 -261t261 -102q99 0 196 43.5t172.5 116.5t122 176t46.5 213q0 156 -101 256.5t-261 100.5q-136 0 -259.5 -72.5t-200.5 -199t-77 -271.5z" />
<glyph unicode="&#x154;" horiz-adv-x="1265" d="M104 0l279 1434h455q124 0 198 -39t116 -112.5t42 -168.5q0 -177 -108 -304t-271 -159v-4q9 -16 21 -51l208 -596h-94l-221 635h-414l-122 -635h-89zM332 717h379q164 0 277.5 111t113.5 286q0 111 -69.5 174.5t-194.5 63.5h-383zM739 1536l183 227h122l-206 -227h-99z " />
<glyph unicode="&#x155;" horiz-adv-x="696" d="M61 0l199 1024h86l-37 -184l-26 -95h4q60 123 159 205t222 82q26 0 61 -6l-18 -86q-32 4 -45 4q-72 0 -138 -37.5t-114.5 -96.5t-88.5 -134.5t-64.5 -146.5t-37.5 -138l-76 -391h-86zM483 1206l183 228h122l-206 -228h-99z" />
<glyph unicode="&#x156;" horiz-adv-x="1265" d="M104 0l279 1434h455q124 0 198 -39t116 -112.5t42 -168.5q0 -177 -108 -304t-271 -159v-4q9 -16 21 -51l208 -596h-94l-221 635h-414l-122 -635h-89zM332 717h379q164 0 277.5 111t113.5 286q0 111 -69.5 174.5t-194.5 63.5h-383zM471 -135h98v-27q0 -64 -20.5 -119 t-65.5 -129h-80q74 126 74 217q0 28 -6 58z" />
<glyph unicode="&#x157;" horiz-adv-x="696" d="M61 0l199 1024h86l-37 -184l-26 -95h4q60 123 159 205t222 82q26 0 61 -6l-18 -86q-32 4 -45 4q-72 0 -138 -37.5t-114.5 -96.5t-88.5 -134.5t-64.5 -146.5t-37.5 -138l-76 -391h-86zM37 -135h98v-27q0 -64 -20.5 -119t-65.5 -129h-80q74 126 74 217q0 28 -6 58z" />
<glyph unicode="&#x158;" horiz-adv-x="1265" d="M104 0l279 1434h455q124 0 198 -39t116 -112.5t42 -168.5q0 -177 -108 -304t-271 -159v-4q9 -16 21 -51l208 -596h-94l-221 635h-414l-122 -635h-89zM332 717h379q164 0 277.5 111t113.5 286q0 111 -69.5 174.5t-194.5 63.5h-383zM743 1536l-118 227h94l82 -164h4 l147 164h107l-209 -227h-107z" />
<glyph unicode="&#x159;" horiz-adv-x="696" d="M61 0l199 1024h86l-37 -184l-26 -95h4q60 123 159 205t222 82q26 0 61 -6l-18 -86q-32 4 -45 4q-72 0 -138 -37.5t-114.5 -96.5t-88.5 -134.5t-64.5 -146.5t-37.5 -138l-76 -391h-86zM487 1206l-118 228h94l82 -164h4l147 164h107l-209 -228h-107z" />
<glyph unicode="&#x15a;" horiz-adv-x="1093" d="M35 154l65 61q5 -6 14 -16.5t42 -37t71 -47t99.5 -37t128.5 -16.5q98 0 185 41.5t142.5 120t55.5 176.5q0 66 -33.5 119t-87.5 88t-118.5 67t-129.5 65t-119 72t-87.5 98t-33.5 134q0 77 37.5 152t101 133.5t156.5 94.5t197 36q68 0 129.5 -13.5t100.5 -33t68.5 -38.5 t42.5 -33l13 -13l-57 -70q-4 5 -12.5 12.5t-36.5 27.5t-60 35t-82.5 27.5t-103.5 12.5q-87 0 -164 -30t-128 -78t-80 -106.5t-29 -115.5q0 -59 33.5 -106t87 -80.5t118.5 -64.5t130 -66t118.5 -77t87 -105.5t33.5 -143.5q0 -82 -36.5 -159.5t-98.5 -135.5t-151.5 -93.5 t-188.5 -35.5q-59 0 -114 10t-96 25.5t-76.5 34.5t-59.5 38.5t-41 35t-25 25.5zM680 1536l182 227h123l-207 -227h-98z" />
<glyph unicode="&#x15b;" horiz-adv-x="903" d="M8 123l60 59q4 -5 12 -13.5t35.5 -29.5t59.5 -37t84.5 -29.5t109.5 -13.5q105 0 190.5 60.5t85.5 163.5q0 43 -26.5 77t-69 57.5t-94 45.5t-102.5 46.5t-93.5 54.5t-69 75.5t-26.5 103.5q0 73 32 133t85 96.5t116.5 56.5t130.5 20q59 0 111 -11.5t84.5 -27.5t56.5 -32.5 t34 -27.5l11 -12l-59 -64q-3 4 -9 10t-27.5 21.5t-46.5 27.5t-67.5 22t-89.5 10t-93 -12.5t-87 -37t-66.5 -68t-25.5 -99.5q0 -51 35.5 -90.5t89 -63.5t116 -53t116 -58.5t89 -81t35.5 -118.5q0 -86 -51.5 -157.5t-134.5 -111t-178 -39.5q-71 0 -134.5 15t-103.5 37 t-69.5 44t-42.5 37zM526 1206l183 228h122l-206 -228h-99z" />
<glyph unicode="&#x15c;" horiz-adv-x="1093" d="M35 154l65 61q5 -6 14 -16.5t42 -37t71 -47t99.5 -37t128.5 -16.5q98 0 185 41.5t142.5 120t55.5 176.5q0 66 -33.5 119t-87.5 88t-118.5 67t-129.5 65t-119 72t-87.5 98t-33.5 134q0 77 37.5 152t101 133.5t156.5 94.5t197 36q68 0 129.5 -13.5t100.5 -33t68.5 -38.5 t42.5 -33l13 -13l-57 -70q-4 5 -12.5 12.5t-36.5 27.5t-60 35t-82.5 27.5t-103.5 12.5q-87 0 -164 -30t-128 -78t-80 -106.5t-29 -115.5q0 -59 33.5 -106t87 -80.5t118.5 -64.5t130 -66t118.5 -77t87 -105.5t33.5 -143.5q0 -82 -36.5 -159.5t-98.5 -135.5t-151.5 -93.5 t-188.5 -35.5q-59 0 -114 10t-96 25.5t-76.5 34.5t-59.5 38.5t-41 35t-25 25.5zM508 1536l209 227h106l119 -227h-94l-82 164h-4l-148 -164h-106z" />
<glyph unicode="&#x15d;" horiz-adv-x="903" d="M8 123l60 59q4 -5 12 -13.5t35.5 -29.5t59.5 -37t84.5 -29.5t109.5 -13.5q105 0 190.5 60.5t85.5 163.5q0 43 -26.5 77t-69 57.5t-94 45.5t-102.5 46.5t-93.5 54.5t-69 75.5t-26.5 103.5q0 73 32 133t85 96.5t116.5 56.5t130.5 20q59 0 111 -11.5t84.5 -27.5t56.5 -32.5 t34 -27.5l11 -12l-59 -64q-3 4 -9 10t-27.5 21.5t-46.5 27.5t-67.5 22t-89.5 10t-93 -12.5t-87 -37t-66.5 -68t-25.5 -99.5q0 -51 35.5 -90.5t89 -63.5t116 -53t116 -58.5t89 -81t35.5 -118.5q0 -86 -51.5 -157.5t-134.5 -111t-178 -39.5q-71 0 -134.5 15t-103.5 37 t-69.5 44t-42.5 37zM354 1206l209 228h107l118 -228h-94l-82 164h-4l-147 -164h-107z" />
<glyph unicode="&#x15e;" horiz-adv-x="1093" d="M252 -332q33 -10 80 -10q50 0 88.5 20.5t38.5 67.5q0 30 -29 48t-82 18l-24 -2l67 170q-69 6 -131 26t-101 44.5t-68.5 48t-42.5 39.5l-13 16l65 61q5 -6 14 -16.5t42 -37t71 -47t99.5 -37t128.5 -16.5q98 0 185 41.5t142.5 120t55.5 176.5q0 66 -33.5 119t-87.5 88 t-118.5 67t-129.5 65t-119 72t-87.5 98t-33.5 134q0 77 37.5 152t101 133.5t156.5 94.5t197 36q68 0 129.5 -13.5t100.5 -33t68.5 -38.5t42.5 -33l13 -13l-57 -70q-4 5 -12.5 12.5t-36.5 27.5t-60 35t-82.5 27.5t-103.5 12.5q-87 0 -164 -30t-128 -78t-80 -106.5t-29 -115.5 q0 -59 33.5 -106t87 -80.5t118.5 -64.5t130 -66t118.5 -77t87 -105.5t33.5 -143.5q0 -168 -135 -294.5t-332 -129.5l-37 -98q50 -8 83.5 -42t33.5 -89q0 -54 -33.5 -93t-79.5 -55t-96 -16q-27 0 -51.5 2.5t-35.5 5.5l-11 2z" />
<glyph unicode="&#x15f;" horiz-adv-x="903" d="M156 -332q33 -10 80 -10q50 0 88 20.5t38 67.5q0 30 -28.5 48t-81.5 18l-25 -2l68 170q-56 7 -106.5 24.5t-82 37t-55 38t-33.5 30.5l-10 13l60 59q4 -5 12 -13.5t35.5 -29.5t59.5 -37t84.5 -29.5t109.5 -13.5q105 0 190.5 60.5t85.5 163.5q0 43 -26.5 77t-69 57.5 t-94 45.5t-102.5 46.5t-93.5 54.5t-69 75.5t-26.5 103.5q0 73 32 133t85 96.5t116.5 56.5t130.5 20q59 0 111 -11.5t84.5 -27.5t56.5 -32.5t34 -27.5l11 -12l-59 -64q-3 4 -9 10t-27.5 21.5t-46.5 27.5t-67.5 22t-89.5 10t-93 -12.5t-87 -37t-66.5 -68t-25.5 -99.5 q0 -51 35.5 -90.5t89 -63.5t116 -53t116 -58.5t89 -81t35.5 -118.5q0 -86 -51.5 -157.5t-134.5 -111t-178 -39.5h-4l-37 -98q50 -8 83 -42t33 -89q0 -80 -64 -122t-144 -42q-27 0 -52 2.5t-36 5.5l-11 2z" />
<glyph unicode="&#x160;" horiz-adv-x="1093" d="M35 154l65 61q5 -6 14 -16.5t42 -37t71 -47t99.5 -37t128.5 -16.5q98 0 185 41.5t142.5 120t55.5 176.5q0 66 -33.5 119t-87.5 88t-118.5 67t-129.5 65t-119 72t-87.5 98t-33.5 134q0 77 37.5 152t101 133.5t156.5 94.5t197 36q68 0 129.5 -13.5t100.5 -33t68.5 -38.5 t42.5 -33l13 -13l-57 -70q-4 5 -12.5 12.5t-36.5 27.5t-60 35t-82.5 27.5t-103.5 12.5q-87 0 -164 -30t-128 -78t-80 -106.5t-29 -115.5q0 -59 33.5 -106t87 -80.5t118.5 -64.5t130 -66t118.5 -77t87 -105.5t33.5 -143.5q0 -82 -36.5 -159.5t-98.5 -135.5t-151.5 -93.5 t-188.5 -35.5q-59 0 -114 10t-96 25.5t-76.5 34.5t-59.5 38.5t-41 35t-25 25.5zM684 1536l-119 227h94l82 -164h4l148 164h106l-208 -227h-107z" />
<glyph unicode="&#x161;" horiz-adv-x="903" d="M8 123l60 59q4 -5 12 -13.5t35.5 -29.5t59.5 -37t84.5 -29.5t109.5 -13.5q105 0 190.5 60.5t85.5 163.5q0 43 -26.5 77t-69 57.5t-94 45.5t-102.5 46.5t-93.5 54.5t-69 75.5t-26.5 103.5q0 73 32 133t85 96.5t116.5 56.5t130.5 20q59 0 111 -11.5t84.5 -27.5t56.5 -32.5 t34 -27.5l11 -12l-59 -64q-3 4 -9 10t-27.5 21.5t-46.5 27.5t-67.5 22t-89.5 10t-93 -12.5t-87 -37t-66.5 -68t-25.5 -99.5q0 -51 35.5 -90.5t89 -63.5t116 -53t116 -58.5t89 -81t35.5 -118.5q0 -86 -51.5 -157.5t-134.5 -111t-178 -39.5q-71 0 -134.5 15t-103.5 37 t-69.5 44t-42.5 37zM530 1206l-118 228h94l82 -164h4l147 164h107l-209 -228h-107z" />
<glyph unicode="&#x162;" horiz-adv-x="1187" d="M426 0l262 1352h-532l14 82h1157l-14 -82h-537l-262 -1352h-8l-47 -123q50 -8 83 -42t33 -89q0 -80 -64 -122t-144 -42q-27 0 -52 2.5t-36 5.5l-11 2l17 76q33 -10 80 -10q50 0 88.5 20.5t38.5 67.5q0 30 -29 48t-82 18l-25 -2l76 190h-6z" />
<glyph unicode="&#x163;" horiz-adv-x="643" d="M92 -332q33 -10 80 -10q50 0 88.5 20.5t38.5 67.5q0 30 -29 48t-82 18l-24 -2l92 227q-96 68 -96 235q0 52 12 119l107 549h-136l15 78h135l57 291h86l-57 -291h268l-14 -78h-268l-109 -563q-10 -49 -10 -101q0 -204 182 -204l59 4l-16 -80q-16 -4 -43 -4q-58 0 -113 14 l-49 -129q50 -8 83.5 -42t33.5 -89q0 -54 -33.5 -93t-79.5 -55t-96 -16q-27 0 -51.5 2.5t-35.5 5.5l-11 2z" />
<glyph unicode="&#x164;" horiz-adv-x="1187" d="M426 0l262 1352h-532l14 82h1157l-14 -82h-537l-262 -1352h-88zM719 1536l-119 227h94l82 -164h4l148 164h106l-209 -227h-106z" />
<glyph unicode="&#x165;" horiz-adv-x="641" d="M158 272q0 52 12 119l106 549h-135l15 78h135l57 291h86l-57 -291h268l-14 -78h-269l-108 -563q-10 -49 -10 -101q0 -204 182 -204l59 4l-16 -80q-16 -4 -43 -4q-268 0 -268 280zM608 1434h99v-27q0 -64 -20.5 -119t-65.5 -129h-80q73 124 73 217q0 28 -6 58z" />
<glyph unicode="&#x166;" horiz-adv-x="1236" d="M242 690l16 82h340l113 580h-533l15 82h1157l-15 -82h-536l-113 -580h348l-16 -82h-348l-133 -690h-88l133 690h-340z" />
<glyph unicode="&#x167;" horiz-adv-x="690" d="M94 604l15 82h135l49 254h-135l14 78h135l58 291h86l-58 -291h269l-15 -78h-268l-49 -254h268l-14 -82h-271l-43 -227q-10 -49 -10 -101q0 -204 182 -204l60 4l-17 -80q-16 -4 -43 -4q-268 0 -268 280q0 52 12 119l41 213h-133z" />
<glyph unicode="&#x168;" horiz-adv-x="1472" d="M168 383q0 55 12 117l182 934h89l-183 -936q-10 -46 -10 -107q0 -157 98 -244.5t275 -87.5q203 0 347 119t185 324l183 932h88l-189 -953q-45 -235 -211.5 -370.5t-402.5 -135.5q-214 0 -338.5 109t-124.5 299zM633 1542q41 221 196 221q37 0 65.5 -15.5t46.5 -37.5 t34.5 -44.5t36.5 -38t45 -15.5t45.5 15.5t32 40.5t18 46t10.5 43h82q-22 -112 -68.5 -166.5t-129.5 -54.5q-36 0 -64.5 15.5t-46.5 38t-34 45t-37 38t-46 15.5q-43 0 -69 -47.5t-35 -98.5h-82z" />
<glyph unicode="&#x169;" horiz-adv-x="1191" d="M106 233q0 55 17 142l125 649h86l-119 -614q-18 -89 -18 -160q0 -91 45 -141t157 -50q93 0 181.5 43t155 112.5t113.5 157t64 177.5l93 475h86l-199 -1024h-86l33 170l26 94h-4q-23 -44 -63 -90t-99 -93t-142 -76.5t-173 -29.5q-122 0 -200.5 62.5t-78.5 195.5zM422 1212 q41 222 196 222q37 0 65.5 -15.5t46.5 -38t34.5 -45t36.5 -38t45 -15.5t45.5 15.5t32 40.5t18 46t10.5 43h82q-22 -112 -68.5 -166.5t-129.5 -54.5q-36 0 -64.5 15.5t-46.5 38t-34 45t-37 38t-46 15.5q-43 0 -69 -47.5t-35 -98.5h-82z" />
<glyph unicode="&#x16a;" horiz-adv-x="1472" d="M168 383q0 55 12 117l182 934h89l-183 -936q-10 -46 -10 -107q0 -157 98 -244.5t275 -87.5q203 0 347 119t185 324l183 932h88l-189 -953q-45 -235 -211.5 -370.5t-402.5 -135.5q-214 0 -338.5 109t-124.5 299zM686 1610l14 82h490l-14 -82h-490z" />
<glyph unicode="&#x16b;" horiz-adv-x="1191" d="M106 233q0 55 17 142l125 649h86l-119 -614q-18 -89 -18 -160q0 -91 45 -141t157 -50q93 0 181.5 43t155 112.5t113.5 157t64 177.5l93 475h86l-199 -1024h-86l33 170l26 94h-4q-23 -44 -63 -90t-99 -93t-142 -76.5t-173 -29.5q-122 0 -200.5 62.5t-78.5 195.5zM475 1280 l14 82h490l-14 -82h-490z" />
<glyph unicode="&#x16c;" horiz-adv-x="1472" d="M168 383q0 55 12 117l182 934h89l-183 -936q-10 -46 -10 -107q0 -157 98 -244.5t275 -87.5q203 0 347 119t185 324l183 932h88l-189 -953q-45 -235 -211.5 -370.5t-402.5 -135.5q-214 0 -338.5 109t-124.5 299zM915 1530q-82 0 -136.5 56t-35.5 145l7 32h81l-6 -28 q-11 -64 17.5 -95.5t83.5 -31.5q54 0 96 32t53 97l6 26h82l-6 -32q-18 -102 -84.5 -151.5t-157.5 -49.5z" />
<glyph unicode="&#x16d;" horiz-adv-x="1191" d="M106 233q0 55 17 142l125 649h86l-119 -614q-18 -89 -18 -160q0 -91 45 -141t157 -50q93 0 181.5 43t155 112.5t113.5 157t64 177.5l93 475h86l-199 -1024h-86l33 170l26 94h-4q-23 -44 -63 -90t-99 -93t-142 -76.5t-173 -29.5q-122 0 -200.5 62.5t-78.5 195.5zM705 1200 q-82 0 -137 56t-36 145l7 33h82l-7 -29q-11 -64 17.5 -95.5t83.5 -31.5q54 0 96 32t53 97l6 27h82l-6 -33q-18 -102 -84 -151.5t-157 -49.5z" />
<glyph unicode="&#x16e;" horiz-adv-x="1472" d="M168 383q0 55 12 117l182 934h89l-183 -936q-10 -46 -10 -107q0 -157 98 -244.5t275 -87.5q203 0 347 119t185 324l183 932h88l-189 -953q-45 -235 -211.5 -370.5t-402.5 -135.5q-214 0 -338.5 109t-124.5 299zM926 1516q-61 0 -94 31.5t-33 88.5q0 60 45.5 107t105.5 47 q61 0 94 -32.5t33 -88.5q0 -60 -45.5 -106.5t-105.5 -46.5zM926 1587q33 0 56.5 23.5t23.5 58.5q0 23 -15.5 37t-40.5 14q-33 0 -56.5 -24t-23.5 -60q0 -22 15 -35.5t41 -13.5z" />
<glyph unicode="&#x16f;" horiz-adv-x="1191" d="M106 233q0 55 17 142l125 649h86l-119 -614q-18 -89 -18 -160q0 -91 45 -141t157 -50q93 0 181.5 43t155 112.5t113.5 157t64 177.5l93 475h86l-199 -1024h-86l33 170l26 94h-4q-23 -44 -63 -90t-99 -93t-142 -76.5t-173 -29.5q-122 0 -200.5 62.5t-78.5 195.5zM715 1186 q-61 0 -94 32t-33 89q0 60 45.5 106.5t105.5 46.5q61 0 94 -32.5t33 -88.5q0 -60 -45.5 -106.5t-105.5 -46.5zM715 1257q33 0 56.5 23.5t23.5 58.5q0 23 -15.5 37.5t-40.5 14.5q-33 0 -56.5 -24t-23.5 -60q0 -22 15 -36t41 -14z" />
<glyph unicode="&#x170;" horiz-adv-x="1472" d="M168 383q0 55 12 117l182 934h89l-183 -936q-10 -46 -10 -107q0 -157 98 -244.5t275 -87.5q203 0 347 119t185 324l183 932h88l-189 -953q-45 -235 -211.5 -370.5t-402.5 -135.5q-214 0 -338.5 109t-124.5 299zM952 1536l183 227h122l-206 -227h-99zM717 1536l172 227 h110l-178 -227h-104z" />
<glyph unicode="&#x171;" horiz-adv-x="1191" d="M106 233q0 55 17 142l125 649h86l-119 -614q-18 -89 -18 -160q0 -91 45 -141t157 -50q93 0 181.5 43t155 112.5t113.5 157t64 177.5l93 475h86l-199 -1024h-86l33 170l26 94h-4q-23 -44 -63 -90t-99 -93t-142 -76.5t-173 -29.5q-122 0 -200.5 62.5t-78.5 195.5zM741 1206 l183 228h123l-207 -228h-99zM506 1206l172 228h110l-178 -228h-104z" />
<glyph unicode="&#x172;" horiz-adv-x="1472" d="M543 -256q0 116 141 229v4q-35 -2 -53 -2q-214 0 -338.5 109t-124.5 299q0 55 12 117l182 934h89l-183 -936q-10 -46 -10 -107q0 -157 98 -244.5t275 -87.5q203 0 347 119t185 324l183 932h88l-189 -953q-59 -303 -338 -448q-120 -63 -196 -135t-76 -142 q0 -37 29.5 -60.5t59.5 -28.5l30 -5l-33 -80q-4 0 -10.5 1t-25 5t-35 10t-37 18.5t-35.5 29t-25 42t-10 56.5z" />
<glyph unicode="&#x173;" horiz-adv-x="1191" d="M598 -256q0 43 18 84.5t51.5 77.5t66.5 63.5t77 57.5l29 143l26 94h-4q-23 -44 -63 -90t-99 -93t-142 -76.5t-173 -29.5q-122 0 -200.5 62.5t-78.5 195.5q0 55 17 142l125 649h86l-119 -614q-18 -89 -18 -160q0 -91 45 -141t157 -50q93 0 181.5 43t155 112.5t113.5 157 t64 177.5l93 475h86l-199 -1024q-28 -17 -57.5 -40.5t-65 -57t-58 -72.5t-22.5 -74q0 -37 30 -60.5t60 -28.5l29 -5l-33 -80q-4 0 -10.5 1t-25 5t-35 10t-37 18.5t-35.5 29t-25 42t-10 56.5z" />
<glyph unicode="&#x174;" horiz-adv-x="1873" d="M346 0l-98 1434h88l74 -1168l4 -153h4q36 81 71 153l570 1168h102l80 -1168l4 -153h4q35 83 66 153l530 1168h99l-658 -1434h-110l-78 1081q-3 41 -4.5 98t-1.5 93v37h-5q-57 -134 -102 -226l-532 -1083h-107zM907 1536l209 227h107l118 -227h-94l-82 164h-4l-147 -164 h-107z" />
<glyph unicode="&#x175;" horiz-adv-x="1632" d="M276 0l-161 1024h88l123 -809l12 -111h4q30 62 57 111l435 805h100l123 -805q4 -22 7.5 -49.5t5.5 -44.5l1 -17h4q28 60 55 111l439 809h94l-559 -1024h-92l-131 801l-13 110h-4q-30 -61 -57 -110l-434 -801h-97zM696 1206l209 228h107l118 -228h-94l-82 164h-4 l-147 -164h-107z" />
<glyph unicode="&#x176;" horiz-adv-x="1126" d="M389 0l123 623l-328 811h95l227 -566l59 -161h4q64 87 119 159l449 568h108l-645 -813l-123 -621h-88zM510 1536l209 227h106l119 -227h-94l-82 164h-4l-148 -164h-106z" />
<glyph unicode="&#x177;" horiz-adv-x="1003" d="M-133 -305q5 -5 14 -12t40 -19t65 -12q72 0 128.5 49t108.5 133l109 174l-230 1016h91l178 -831l18 -97h2q26 48 55 97l500 831h98l-776 -1270q-114 -184 -282 -184q-47 0 -89 14t-61 28l-18 15zM387 1206l209 228h106l119 -228h-94l-82 164h-4l-147 -164h-107z" />
<glyph unicode="&#x178;" horiz-adv-x="1126" d="M389 0l123 623l-328 811h95l227 -566l59 -161h4q64 87 119 159l449 568h108l-645 -813l-123 -621h-88zM844 1614l28 149h95l-29 -149h-94zM563 1614l29 149h94l-29 -149h-94z" />
<glyph unicode="&#x179;" horiz-adv-x="1193" d="M-29 0l15 70l1001 1151q28 33 59.5 65.5t48.5 49.5l17 16v4q-30 -4 -102 -4h-734l19 82h948l-14 -70l-1004 -1151q-28 -33 -59 -65.5t-48 -49.5l-18 -16v-4q31 4 103 4h780l-14 -82h-998zM750 1536l182 227h123l-207 -227h-98z" />
<glyph unicode="&#x17a;" horiz-adv-x="1021" d="M-27 0l13 70l766 780q90 94 96 94v4q-35 -4 -103 -4h-563l15 80h790l-14 -70l-768 -780q-22 -22 -46 -45t-38.5 -36.5t-14.5 -12.5v-4q37 4 105 4h614l-14 -80h-838zM573 1206l183 228h123l-207 -228h-99z" />
<glyph unicode="&#x17b;" horiz-adv-x="1193" d="M-29 0l15 70l1001 1151q28 33 59.5 65.5t48.5 49.5l17 16v4q-30 -4 -102 -4h-734l19 82h948l-14 -70l-1004 -1151q-28 -33 -59 -65.5t-48 -49.5l-18 -16v-4q31 4 103 4h780l-14 -82h-998zM770 1614l29 149h94l-29 -149h-94z" />
<glyph unicode="&#x17c;" horiz-adv-x="1021" d="M-27 0l13 70l766 780q90 94 96 94v4q-35 -4 -103 -4h-563l15 80h790l-14 -70l-768 -780q-22 -22 -46 -45t-38.5 -36.5t-14.5 -12.5v-4q37 4 105 4h614l-14 -80h-838zM594 1284l29 150h94l-29 -150h-94z" />
<glyph unicode="&#x17d;" horiz-adv-x="1193" d="M-29 0l15 70l1001 1151q28 33 59.5 65.5t48.5 49.5l17 16v4q-30 -4 -102 -4h-734l19 82h948l-14 -70l-1004 -1151q-28 -33 -59 -65.5t-48 -49.5l-18 -16v-4q31 4 103 4h780l-14 -82h-998zM754 1536l-119 227h94l82 -164h4l148 164h106l-209 -227h-106z" />
<glyph unicode="&#x17e;" horiz-adv-x="1021" d="M-27 0l13 70l766 780q90 94 96 94v4q-35 -4 -103 -4h-563l15 80h790l-14 -70l-768 -780q-22 -22 -46 -45t-38.5 -36.5t-14.5 -12.5v-4q37 4 105 4h614l-14 -80h-838zM578 1206l-119 228h94l82 -164h4l147 164h107l-209 -228h-106z" />
<glyph unicode="&#x17f;" horiz-adv-x="491" d="M106 0l183 940h-129l14 78h129l10 51q19 95 58 167t80.5 110.5t92.5 62t86.5 29.5t69.5 6l64 -4l-19 -80q-16 4 -45 4t-58 -5t-68 -24t-71 -49.5t-60.5 -87t-43.5 -131.5l-206 -1067h-87z" />
<glyph unicode="&#x192;" horiz-adv-x="1157" d="M-61 -117q52 -10 122 -10q29 0 58.5 5t69.5 23.5t74 49.5t68 87.5t56 131.5l172 604h-197l15 78h203l69 242q26 93 68.5 163t85.5 107t94.5 59.5t87 28.5t72.5 6q44 0 89.5 -4t69.5 -8l23 -4l-14 -78q-84 14 -166 14q-31 0 -60 -5t-69 -23.5t-73.5 -49.5t-67.5 -87.5 t-56 -131.5l-67 -229h272l-14 -78h-279l-178 -622q-27 -92 -69.5 -161t-84.5 -105.5t-93 -59t-86 -28t-71 -5.5q-38 0 -73.5 3t-51.5 6l-16 3z" />
<glyph unicode="&#x218;" horiz-adv-x="1093" d="M35 154l65 61q5 -6 14 -16.5t42 -37t71 -47t99.5 -37t128.5 -16.5q98 0 185 41.5t142.5 120t55.5 176.5q0 66 -33.5 119t-87.5 88t-118.5 67t-129.5 65t-119 72t-87.5 98t-33.5 134q0 77 37.5 152t101 133.5t156.5 94.5t197 36q68 0 129.5 -13.5t100.5 -33t68.5 -38.5 t42.5 -33l13 -13l-57 -70q-4 5 -12.5 12.5t-36.5 27.5t-60 35t-82.5 27.5t-103.5 12.5q-87 0 -164 -30t-128 -78t-80 -106.5t-29 -115.5q0 -59 33.5 -106t87 -80.5t118.5 -64.5t130 -66t118.5 -77t87 -105.5t33.5 -143.5q0 -82 -36.5 -159.5t-98.5 -135.5t-151.5 -93.5 t-188.5 -35.5q-59 0 -114 10t-96 25.5t-76.5 34.5t-59.5 38.5t-41 35t-25 25.5zM360 -135h99v-27q0 -64 -20.5 -119t-65.5 -129h-80q74 126 74 217q0 23 -7 58z" />
<glyph unicode="&#x219;" horiz-adv-x="903" d="M8 123l60 59q4 -5 12 -13.5t35.5 -29.5t59.5 -37t84.5 -29.5t109.5 -13.5q105 0 190.5 60.5t85.5 163.5q0 43 -26.5 77t-69 57.5t-94 45.5t-102.5 46.5t-93.5 54.5t-69 75.5t-26.5 103.5q0 73 32 133t85 96.5t116.5 56.5t130.5 20q59 0 111 -11.5t84.5 -27.5t56.5 -32.5 t34 -27.5l11 -12l-59 -64q-3 4 -9 10t-27.5 21.5t-46.5 27.5t-67.5 22t-89.5 10t-93 -12.5t-87 -37t-66.5 -68t-25.5 -99.5q0 -51 35.5 -90.5t89 -63.5t116 -53t116 -58.5t89 -81t35.5 -118.5q0 -86 -51.5 -157.5t-134.5 -111t-178 -39.5q-71 0 -134.5 15t-103.5 37 t-69.5 44t-42.5 37zM272 -135h99v-27q0 -64 -20.5 -119t-65.5 -129h-80q74 126 74 217q0 23 -7 58z" />
<glyph unicode="&#x21a;" horiz-adv-x="1187" d="M426 0l262 1352h-532l14 82h1157l-14 -82h-537l-262 -1352h-88zM401 -135h99v-27q0 -64 -20.5 -119t-65.5 -129h-80q74 126 74 217q0 23 -7 58z" />
<glyph unicode="&#x21b;" horiz-adv-x="641" d="M158 272q0 52 12 119l106 549h-135l15 78h135l57 291h86l-57 -291h268l-14 -78h-269l-108 -563q-10 -49 -10 -101q0 -204 182 -204l59 4l-16 -80q-16 -4 -43 -4q-268 0 -268 280zM240 -135h98v-27q0 -64 -20.5 -119t-65.5 -129h-80q74 126 74 217q0 28 -6 58z" />
<glyph unicode="&#x2c6;" horiz-adv-x="1040" d="M162 1536l209 227h106l119 -227h-94l-82 164h-4l-148 -164h-106z" />
<glyph unicode="&#x2c7;" horiz-adv-x="1040" d="M338 1536l-119 227h94l82 -164h4l148 164h106l-209 -227h-106z" />
<glyph unicode="&#x2d8;" horiz-adv-x="1044" d="M387 1530q-82 0 -136.5 56t-35.5 145l6 32h82l-6 -28q-11 -64 17 -95.5t83 -31.5q54 0 96.5 32t53.5 97l6 26h82l-6 -32q-18 -102 -84.5 -151.5t-157.5 -49.5z" />
<glyph unicode="&#x2d9;" horiz-adv-x="1044" d="M356 1614l29 149h94l-28 -149h-95z" />
<glyph unicode="&#x2da;" horiz-adv-x="1044" d="M395 1516q-61 0 -94 31.5t-33 88.5q0 60 46 107t106 47q61 0 94 -32.5t33 -88.5q0 -60 -46 -106.5t-106 -46.5zM395 1587q33 0 56.5 23.5t23.5 58.5q0 23 -15 37t-40 14q-33 0 -56.5 -24t-23.5 -60q0 -22 14.5 -35.5t40.5 -13.5z" />
<glyph unicode="&#x2db;" horiz-adv-x="1042" d="M254 -256q0 47 20.5 91t59 82.5t73.5 65t85 58.5l88 -27q-10 -5 -25.5 -15t-56 -39.5t-71 -59t-56 -69.5t-25.5 -75q0 -37 30 -60.5t60 -28.5l29 -5l-33 -80q-4 0 -10.5 1t-25 5t-35 10t-37 18.5t-35.5 29t-25 42t-10 56.5z" />
<glyph unicode="&#x2dc;" horiz-adv-x="1042" d="M102 1542q41 221 197 221q37 0 65.5 -15.5t46.5 -37.5t34 -44.5t36 -38t45 -15.5t45.5 15.5t32.5 40t18.5 46t10.5 43.5h82q-22 -112 -69 -166.5t-130 -54.5q-44 0 -77.5 24t-50.5 52t-43 52t-56 24t-54.5 -28t-35 -58t-15.5 -60h-82z" />
<glyph unicode="&#x2dd;" horiz-adv-x="1042" d="M375 1536l182 227h123l-207 -227h-98zM139 1536l172 227h111l-178 -227h-105z" />
<glyph unicode="&#x3bc;" horiz-adv-x="1226" d="M-6 -410l278 1434h86l-118 -614q-19 -93 -19 -160q0 -90 45.5 -140.5t157.5 -50.5q93 0 181.5 43t155 112.5t113.5 157t64 177.5l92 475h86l-198 -1024h-87l33 170q4 21 11 44.5t11 36.5l5 13h-4q-23 -44 -63 -90t-99 -93t-142 -76.5t-173 -29.5q-172 0 -240 109h-4 q-11 -109 -19 -152l-67 -342h-86z" />
<glyph unicode="&#x1e9e;" horiz-adv-x="1361" d="M86 0l211 1081q29 154 147 253.5t275 99.5h618l-12 -62l-451 -495l-69 -74v-4q397 0 397 -334q0 -141 -90 -265t-227 -171q-89 -29 -244 -29h-270l16 82h258q143 0 205 20q111 37 186.5 140.5t75.5 222.5q0 124 -77 188t-249 64h-120l12 65l405 451q36 40 65 70t40 39 l10 10v4q-12 -4 -86 -4h-391q-123 0 -217.5 -80t-118.5 -197l-211 -1075h-88z" />
<glyph unicode="&#x2000;" horiz-adv-x="895" />
<glyph unicode="&#x2001;" horiz-adv-x="1790" />
<glyph unicode="&#x2002;" horiz-adv-x="895" />
<glyph unicode="&#x2003;" horiz-adv-x="1790" />
<glyph unicode="&#x2004;" horiz-adv-x="596" />
<glyph unicode="&#x2005;" horiz-adv-x="447" />
<glyph unicode="&#x2006;" horiz-adv-x="298" />
<glyph unicode="&#x2007;" horiz-adv-x="298" />
<glyph unicode="&#x2008;" horiz-adv-x="223" />
<glyph unicode="&#x2009;" horiz-adv-x="20" />
<glyph unicode="&#x200a;" horiz-adv-x="99" />
<glyph unicode="&#x2010;" horiz-adv-x="722" d="M66 539l14 82h565l-14 -82h-565z" />
<glyph unicode="&#x2011;" horiz-adv-x="722" d="M66 539l14 82h565l-14 -82h-565z" />
<glyph unicode="&#x2012;" horiz-adv-x="722" d="M66 539l14 82h565l-14 -82h-565z" />
<glyph unicode="&#x2013;" horiz-adv-x="1132" d="M66 539l14 82h975l-15 -82h-974z" />
<glyph unicode="&#x2014;" horiz-adv-x="1542" d="M66 539l14 82h1384l-14 -82h-1384z" />
<glyph unicode="&#x2018;" horiz-adv-x="419" d="M227 1141l158 309h84l-131 -309h-111z" />
<glyph unicode="&#x2019;" horiz-adv-x="411" d="M231 1141l131 309h111l-158 -309h-84z" />
<glyph unicode="&#x201a;" horiz-adv-x="491" d="M-20 -184l131 309h110l-158 -309h-83z" />
<glyph unicode="&#x201c;" horiz-adv-x="624" d="M432 1141l158 309h84l-131 -309h-111zM227 1141l158 309h84l-131 -309h-111z" />
<glyph unicode="&#x201d;" horiz-adv-x="616" d="M436 1141l131 309h111l-158 -309h-84zM231 1141l131 309h111l-158 -309h-84z" />
<glyph unicode="&#x201e;" horiz-adv-x="696" d="M184 -184l131 309h111l-158 -309h-84zM-20 -184l131 309h110l-158 -309h-83z" />
<glyph unicode="&#x2020;" horiz-adv-x="757" d="M193 -102l202 1044h-233l16 82h234l77 410h86l-77 -410h243l-16 -82h-244l-202 -1044h-86z" />
<glyph unicode="&#x2021;" horiz-adv-x="835" d="M231 -102l93 483h-234l16 82h234l94 479h-233l16 82h234l77 410h86l-77 -410h243l-16 -82h-244l-94 -479h244l-17 -82h-243l-93 -483h-86z" />
<glyph unicode="&#x2022;" horiz-adv-x="804" d="M397 326q-113 0 -191.5 79t-78.5 191t78.5 191t191.5 79t192 -79t79 -191t-79 -191t-192 -79z" />
<glyph unicode="&#x2026;" horiz-adv-x="1361" d="M942 0l27 129h125l-27 -129h-125zM506 0l26 129h125l-26 -129h-125zM70 0l26 129h125l-26 -129h-125z" />
<glyph unicode="&#x202f;" horiz-adv-x="358" />
<glyph unicode="&#x2030;" horiz-adv-x="2091" d="M475 924q-107 0 -170 64t-63 171q0 113 96 206t217 93q105 0 168 -64t63 -167q0 -118 -95.5 -210.5t-215.5 -92.5zM14 0l1356 1434h117l-1358 -1434h-115zM479 1006q87 0 153 66.5t66 156.5q0 64 -41 105.5t-106 41.5q-86 0 -153.5 -67.5t-67.5 -155.5q0 -64 41 -105.5 t108 -41.5zM1362 211q0 113 96 206t217 93q105 0 168.5 -64t63.5 -167q0 -118 -96 -211t-216 -93q-107 0 -170 64t-63 172zM705 211q0 113 96 206t217 93q105 0 168 -64t63 -167q0 -118 -95.5 -211t-215.5 -93q-107 0 -170 64t-63 172zM1450 205q0 -64 41 -106t108 -42 q87 0 153.5 67t66.5 157q0 64 -41.5 105.5t-106.5 41.5q-86 0 -153.5 -67.5t-67.5 -155.5zM793 205q0 -64 41 -106t108 -42q87 0 153 67t66 157q0 64 -41 105.5t-106 41.5q-86 0 -153.5 -67.5t-67.5 -155.5z" />
<glyph unicode="&#x2039;" horiz-adv-x="667" d="M365 158l-263 426l394 415h116l-407 -426l258 -415h-98z" />
<glyph unicode="&#x203a;" horiz-adv-x="665" d="M43 158l408 426l-258 415h98l262 -426l-393 -415h-117z" />
<glyph unicode="&#x2044;" horiz-adv-x="305" d="M-397 0h-97l967 1434h94z" />
<glyph unicode="&#x205f;" horiz-adv-x="447" />
<glyph unicode="&#x2070;" d="M274 846q-247 0 -247 282q0 59 8.5 124.5t26 140.5t49.5 141.5t74.5 121.5t105 87.5t137.5 32.5q248 0 248 -289q0 -49 -6 -104t-20 -118t-35 -121.5t-53.5 -113.5t-72.5 -95t-95.5 -64.5t-119.5 -24.5zM274 920q70 0 127 40t92 101.5t59.5 139.5t34 149t9.5 135 q0 217 -168 217q-70 0 -127.5 -40.5t-92.5 -103t-59 -141.5t-33.5 -150.5t-9.5 -136.5q0 -210 168 -210z" />
<glyph unicode="&#x2074;" d="M410 866l49 248h-447l11 53l569 588h70l-111 -567h139l-14 -74h-139l-50 -248h-77zM145 1188h328l57 301l33 133h-4q-45 -55 -92 -102l-322 -328v-4z" />
<glyph unicode="&#x2075;" d="M297 846q-55 0 -102 14.5t-75 36t-48.5 42.5t-28.5 35l-8 15l67 41q2 -4 6 -11.5t20.5 -26.5t36.5 -33.5t55 -26.5t75 -12q102 0 185 78.5t83 183.5q0 77 -54 128.5t-138 51.5q-43 0 -87 -14t-66 -28l-23 -13l-50 20l138 428h422l-15 -74h-356l-58 -186l-30 -88h4 q55 29 121 29q123 0 197.5 -71t74.5 -183q0 -133 -107.5 -234.5t-238.5 -101.5z" />
<glyph unicode="&#x2076;" d="M311 846q-126 0 -192 85t-66 226q0 65 19.5 144.5t60.5 163.5t96.5 153t135 113.5t167.5 44.5q47 0 91.5 -11t64.5 -21l21 -11l-47 -62q-52 31 -130 31q-83 0 -159 -53.5t-127 -134t-82 -177.5h4q44 44 111 71.5t133 27.5q105 0 169 -63t64 -171q0 -85 -30.5 -154.5 t-79 -112.5t-107 -66t-117.5 -23zM311 920q111 0 182.5 83t71.5 197q0 74 -46.5 118t-123.5 44q-91 0 -176.5 -65t-85.5 -148q0 -57 18.5 -108t60.5 -86t99 -35z" />
<glyph unicode="&#x2077;" d="M27 866l489 682q23 32 48.5 65t39.5 51l14 17v5q-40 -5 -112 -5h-361l15 74h571l-10 -53l-602 -836h-92z" />
<glyph unicode="&#x2078;" d="M311 846q-114 0 -191 60.5t-77 170.5q0 55 23.5 106.5t62 90t65 59.5t54.5 39q-80 63 -80 150q0 80 47.5 139.5t114.5 87t139 27.5q103 0 172.5 -51.5t69.5 -143.5q0 -39 -15 -80.5t-35 -72.5t-46.5 -61.5t-42.5 -45.5t-31 -27q102 -70 102 -168q0 -110 -99 -195 t-233 -85zM563 1122q0 31 -14 56.5t-43.5 47t-55.5 36t-71 36t-68 33.5q-21 -11 -40.5 -24t-48 -37.5t-49 -50.5t-35.5 -63.5t-15 -76.5q0 -72 55.5 -115.5t132.5 -43.5q93 0 172.5 59t79.5 143zM248 1526q0 -24 10.5 -46t23.5 -36.5t41 -32.5t45 -27t55.5 -27t53.5 -26 q19 14 40.5 34t49.5 52.5t46 75t18 84.5q0 60 -48 92.5t-116 32.5q-51 0 -99.5 -18.5t-84 -60t-35.5 -97.5z" />
<glyph unicode="&#x2079;" d="M39 889l47 61q51 -30 129 -30q83 0 159 53t127.5 133.5t82.5 177.5h-4q-43 -43 -110 -70.5t-134 -27.5q-105 0 -169.5 62.5t-64.5 170.5q0 85 30.5 155t79 113t107 66t117.5 23q126 0 192 -85.5t66 -226.5q0 -65 -19.5 -144.5t-60.5 -163t-96.5 -153t-135 -113.5 t-167.5 -44q-47 0 -91 11t-64 21zM352 1260q91 0 176.5 65t85.5 148q0 57 -18.5 108t-60.5 86t-99 35q-111 0 -182.5 -83.5t-71.5 -197.5q0 -74 46.5 -117.5t123.5 -43.5z" />
<glyph unicode="&#x2080;" d="M78 -342q-248 0 -248 283q0 72 11.5 152t40.5 170t73 161t115.5 117.5t160.5 46.5q248 0 248 -289q0 -71 -11.5 -150.5t-41 -168.5t-73.5 -159.5t-115.5 -116.5t-159.5 -46zM78 -268q70 0 127 40t92 101.5t59 139.5t33.5 149t9.5 135q0 217 -168 217q-59 0 -109 -28 t-84 -76t-59.5 -106.5t-40 -124.5t-21.5 -124.5t-7 -111.5q0 -211 168 -211z" />
<glyph unicode="&#x2081;" d="M-119 -322l15 74h196l127 660l12 45h-4q-10 -17 -55 -56l-104 -86l-45 60l229 192h78l-160 -815h190l-14 -74h-465z" />
<glyph unicode="&#x2082;" d="M-156 -322q2 79 35.5 145t85 112t113.5 86.5t123 77.5t111.5 75t82 88t31.5 109q0 62 -42 102.5t-114 40.5q-33 0 -67 -10.5t-59 -25.5t-45.5 -30t-30.5 -26l-11 -10l-43 57l13 13t35 28.5t55.5 36t71 28.5t83.5 13q115 0 174.5 -59.5t59.5 -153.5q0 -60 -21.5 -111 t-56.5 -87.5t-81.5 -71.5t-95.5 -62.5t-99 -60t-92 -63.5t-75 -74.5t-46 -92.5h464l-14 -74h-545z" />
<glyph unicode="&#x2083;" d="M88 -344q-52 0 -100.5 13.5t-80.5 33t-57.5 39.5t-37.5 34l-11 13l62 49q3 -4 9.5 -11.5t28 -26t46 -33t63.5 -26t80 -11.5q93 0 167.5 71t74.5 172q0 73 -56 116.5t-131 43.5h-65l-14 49l272 260l61 52v4q-36 -6 -77 -6h-336l14 73h522l-10 -53l-324 -307 q25 -2 52.5 -9.5t59 -25.5t56 -42.5t40.5 -65t16 -89.5q0 -125 -97 -221t-227 -96z" />
<glyph unicode="&#x2084;" d="M207 -322l49 248h-446l10 54l569 587h70l-111 -567h139l-14 -74h-139l-49 -248h-78zM-57 0h327l58 301l32 133h-4q-45 -55 -92 -102l-321 -328v-4z" />
<glyph unicode="&#x2085;" d="M92 -342q-55 0 -102 14.5t-75 36t-48.5 42.5t-28.5 35l-8 15l68 41q2 -4 6 -11.5t20.5 -26.5t36 -33.5t54.5 -26.5t75 -12q102 0 185 78.5t83 183.5q0 77 -54 128.5t-138 51.5q-43 0 -87 -14t-67 -28l-22 -13l-49 20l137 428h422l-15 -73h-356l-57 -187l-31 -88h4 q55 29 121 29q123 0 197.5 -71t74.5 -183q0 -133 -107.5 -234.5t-238.5 -101.5z" />
<glyph unicode="&#x2086;" d="M119 -342q-126 0 -192 85t-66 226q0 65 19.5 144.5t60.5 163.5t96.5 153t135 113.5t167.5 44.5q47 0 91 -11t65 -21l20 -11l-47 -62q-51 31 -129 31q-83 0 -159 -53t-127.5 -133.5t-82.5 -177.5h4q43 43 110 70.5t134 27.5q105 0 169.5 -63t64.5 -171q0 -85 -30.5 -154.5 t-79 -112.5t-107 -66t-117.5 -23zM119 -268q111 0 182.5 83t71.5 197q0 74 -46.5 118t-123.5 44q-91 0 -176.5 -65t-85.5 -148q0 -57 18.5 -108t60.5 -86t99 -35z" />
<glyph unicode="&#x2087;" d="M-158 -324l490 682q23 32 48.5 65.5t39.5 50.5l14 18v4q-40 -4 -112 -4h-361l14 73h572l-10 -53l-603 -836h-92z" />
<glyph unicode="&#x2088;" d="M113 -340q-114 0 -191.5 60.5t-77.5 170.5q0 55 23.5 106.5t62 90t65 59.5t54.5 39q-80 63 -80 150q0 80 47.5 139.5t114.5 87t139 27.5q103 0 172.5 -51.5t69.5 -143.5q0 -48 -20.5 -97.5t-53.5 -89t-54.5 -61.5t-41.5 -38q102 -70 102 -168q0 -110 -99 -195.5 t-232 -85.5zM365 -63q0 31 -14 56.5t-43.5 47t-55.5 35.5t-71 35.5t-68 33.5q-28 -15 -53 -33t-60 -50t-55.5 -75.5t-20.5 -92.5q0 -72 56 -116t133 -44q93 0 172.5 59.5t79.5 143.5zM49 340q0 -24 10.5 -46t23.5 -36.5t41 -32.5t45.5 -27t55.5 -27t54 -26q19 14 40.5 34 t49 52.5t45.5 75t18 84.5q0 60 -48 92.5t-116 32.5q-51 0 -99.5 -18.5t-84 -60t-35.5 -97.5z" />
<glyph unicode="&#x2089;" d="M-174 -299l47 61q51 -30 129 -30q83 0 159 53t127.5 133.5t82.5 177.5h-4q-43 -43 -110 -70.5t-134 -27.5q-105 0 -169.5 62.5t-64.5 170.5q0 85 30.5 155t79 113t107 66t117.5 23q126 0 192 -85.5t66 -226.5q0 -65 -19.5 -144.5t-60.5 -163t-96.5 -153t-135 -113.5 t-167.5 -44q-47 0 -91 11t-65 21zM139 72q91 0 176.5 65t85.5 148q0 57 -18.5 108t-60.5 86t-99 35q-111 0 -182.5 -83.5t-71.5 -197.5q0 -74 46.5 -117.5t123.5 -43.5z" />
<glyph unicode="&#x20ac;" horiz-adv-x="1202" d="M131 823l14 82h125q102 245 318 399t463 154q50 0 98 -6t71 -12l23 -6l-37 -82q-69 20 -157 20q-213 0 -400 -129.5t-282 -337.5h671l-30 -82h-672q-30 -89 -39 -182h641l-29 -82h-614q2 -104 34.5 -193t93 -157.5t155.5 -108t215 -39.5q46 0 92.5 6.5t70.5 13.5l23 7 l8 -86q-85 -27 -196 -27q-261 0 -423.5 162.5t-164.5 421.5h-123l14 82h113q6 86 35 182h-111z" />
<glyph unicode="&#x2122;" horiz-adv-x="2013" d="M1010 541l71 893h72l258 -553q8 -18 15.5 -38.5t10.5 -32.5l3 -11h4q11 41 29 82l258 553h71l72 -893h-78l-57 671l2 58h-4l-260 -561h-70l-260 561h-4l2 -58l-58 -671h-77zM516 541v815h-328v78h738v-78h-330v-815h-80z" />
<glyph unicode="&#x2212;" horiz-adv-x="1228" d="M-12 539v82h1016v-82h-1016z" />
<glyph unicode="&#x221e;" horiz-adv-x="1005" d="M385 377q-139 0 -238.5 99.5t-99.5 238.5t99 237.5t239 98.5q139 0 237.5 -98.5t98.5 -237.5q0 -140 -98.5 -239t-237.5 -99z" />
<glyph unicode="&#x2248;" horiz-adv-x="1228" d="M55 657l-51 62q53 55 130 95t159 40q65 0 124 -22.5t96.5 -49t87 -49t97.5 -22.5q63 0 126.5 33t111.5 81l51 -61q-53 -55 -130 -95t-159 -40q-65 0 -124 22.5t-96.5 49t-87 49t-97.5 22.5q-63 0 -126.5 -33.5t-111.5 -81.5zM55 330l-51 61q53 55 130 95t159 40 q65 0 124 -22.5t96.5 -49t87 -49t97.5 -22.5q63 0 126.5 33.5t111.5 81.5l51 -62q-53 -55 -130 -95t-159 -40q-65 0 -124 22.5t-96.5 49t-87 49t-97.5 22.5q-63 0 -126.5 -33t-111.5 -81z" />
<glyph unicode="&#x2260;" horiz-adv-x="1228" d="M147 188l140 187h-258v82h319l187 245h-506v82h567l184 244l68 -51l-146 -193h261v-82h-322l-186 -245h508v-82h-570l-178 -238z" />
<glyph unicode="&#x2264;" horiz-adv-x="1228" d="M29 543v73l899 404v-98l-772 -340v-4l772 -340v-99zM29 -231h899v-82h-899v82z" />
<glyph unicode="&#x2265;" horiz-adv-x="1228" d="M66 139v99l772 340v4l-772 340v98l899 -404v-73zM63 -231h900v-82h-900v82z" />
<glyph unicode="&#xe000;" horiz-adv-x="1024" d="M0 1024h1024v-1024h-1024v1024z" />
<glyph horiz-adv-x="686" d="M145 -135h99v-27q0 -64 -20.5 -119t-65.5 -129h-80q74 126 74 217q0 23 -7 58z" />
<glyph horiz-adv-x="2314" d="M225 -10v311l-258 148v569l258 145v310l543 290l274 -145l271 145l542 -290v-310l254 -145v-569l-254 -148v-311l-542 -289l-271 145l-274 -145zM307 61l488 -258l247 136l242 -136l488 258v285l233 131v510l-233 135v279l-488 258l-242 -131l-247 131l-488 -258v-279 l-233 -135v-510l233 -131v-285zM377 131v248l-203 123v461l203 118v252l440 234l225 -121l220 121l438 -234v-252l205 -118v-461l-205 -123v-248l-438 -233l-220 118l-225 -118zM797 186h88v467h467v82h-467v393h407q35 0 47.5 -13t12.5 -46v-86h86v111q0 61 -27 88.5 t-92 27.5h-655v-82h133v-942z" />
<glyph horiz-adv-x="1138" d="M-63 428q0 82 10 173t33.5 192t58 195t87 180.5t117 150t152 101.5t187.5 38q385 0 385 -457q0 -83 -10 -173.5t-33 -191t-57 -194t-87 -179.5t-117 -149.5t-152 -101t-189 -37.5q-200 0 -292.5 120t-92.5 333zM27 424q0 -363 297 -363q87 0 162 35t130 93t99.5 137.5 t73.5 165.5t48.5 178.5t28 175.5t8.5 158q0 176 -68.5 272t-225.5 96q-95 0 -177 -43t-141 -117t-105.5 -168.5t-74 -202t-41.5 -212.5t-14 -205z" />
<glyph horiz-adv-x="1138" d="M-29 0l15 82h325l226 1157l16 72h-4q-20 -27 -94 -88l-197 -166l-53 65l370 312h89l-265 -1352h318l-17 -82h-729z" />
<glyph horiz-adv-x="1138" d="M-111 0q3 92 37.5 174t91.5 145t130 120t153 106.5t159.5 97.5t151.5 99.5t127.5 106.5t88 125t32.5 148q0 113 -74 181.5t-206 68.5q-64 0 -128 -21t-109.5 -50.5t-82 -59.5t-54.5 -51l-18 -21l-63 52q8 10 22 26t61.5 56.5t97.5 72t125.5 57t150.5 25.5q184 0 277 -92 t93 -242q0 -84 -30 -158.5t-81 -133t-117.5 -112.5t-142 -101t-151.5 -93t-148.5 -95t-131 -100t-100.5 -115t-56 -134h782l-16 -82h-871z" />
<glyph horiz-adv-x="1138" d="M-111 174l70 59q5 -7 14 -18.5t42.5 -41t72.5 -52.5t103 -41.5t135 -18.5q102 0 200 53.5t163 152t65 214.5q0 132 -93.5 203.5t-234.5 71.5h-107l-12 61l494 469l76 66v4q-39 -4 -111 -4h-580l17 82h821l-12 -62l-568 -534q48 0 98 -9t106 -34t98.5 -63t71 -103 t28.5 -148q0 -133 -75 -251t-196.5 -186.5t-252.5 -68.5q-84 0 -159.5 20.5t-123 49.5t-83.5 58.5t-52 50.5z" />
<glyph horiz-adv-x="1138" d="M-121 410l12 61l920 963h92l-184 -942h213l-17 -82h-213l-79 -410h-88l79 410h-735zM27 492h604l131 671q4 25 12 57.5t14 51.5l5 20h-5q-45 -51 -90 -98l-671 -700v-2z" />
<glyph horiz-adv-x="1138" d="M-90 182l76 51l5 -10t16 -24t28.5 -34t42.5 -36t57 -34t73 -24t91 -10q119 0 227.5 59.5t176 164.5t67.5 227q0 134 -92.5 218.5t-241.5 84.5q-75 0 -148.5 -21.5t-109.5 -43.5l-37 -21l-63 23l215 682h668l-17 -82h-588l-133 -424l-30 -88h4q12 7 33 17t84.5 27 t125.5 17q190 0 306 -108.5t116 -280.5q0 -145 -79.5 -269.5t-209 -196t-274.5 -71.5q-61 0 -115 11.5t-92 29.5t-70.5 40t-52.5 44.5t-34 40.5t-19 29z" />
<glyph horiz-adv-x="1138" d="M362 -25q-132 0 -226.5 66.5t-139.5 179.5t-45 262q0 72 15.5 157.5t48 179.5t78.5 184.5t111 173t141.5 144.5t174.5 99t205 37q71 0 135.5 -14t93.5 -28l29 -15l-53 -76q-9 5 -26 13t-70.5 21t-108.5 13q-120 0 -229.5 -58t-190.5 -154t-139 -210t-90 -237h4 q75 91 189.5 143.5t234.5 52.5q173 0 277 -97.5t104 -266.5q0 -103 -37.5 -204.5t-103.5 -183t-166.5 -132t-215.5 -50.5zM356 61q182 0 309.5 140.5t127.5 343.5q0 130 -79 204t-216 74q-53 0 -114.5 -16.5t-121.5 -49.5t-109 -77t-79.5 -103.5t-30.5 -123.5q0 -71 20 -139 t57 -125.5t98.5 -92.5t137.5 -35z" />
<glyph horiz-adv-x="1138" d="M2 0l836 1219q22 32 47.5 65t40.5 50l14 18v4q-41 -4 -113 -4h-688l17 82h907l-12 -62l-949 -1372h-100z" />
<glyph horiz-adv-x="1138" d="M-84 344q0 81 34 158.5t77 128t99 96.5t83.5 63t46.5 27q-143 97 -143 244q0 74 34 145t95 127t152.5 90.5t197.5 34.5q184 0 281.5 -81.5t97.5 -223.5q0 -67 -27 -138t-62.5 -123.5t-79 -101t-69 -71t-39.5 -33.5q168 -107 168 -260q0 -127 -75.5 -232t-196.5 -162 t-258 -57q-178 0 -297 97t-119 272zM768 424q0 43 -20 81.5t-49.5 65.5t-77 55.5t-89 48t-100.5 47.5t-96 48q-18 -10 -37 -20.5t-53 -34t-63.5 -48.5t-62.5 -61.5t-56 -74.5t-38.5 -87.5t-15.5 -99.5q0 -130 93.5 -206.5t228.5 -76.5q107 0 206 43.5t164.5 128.5t65.5 191z M207 1063q0 -42 18.5 -79.5t44.5 -64t72.5 -55t83 -46t96 -45t92.5 -44.5q21 16 44 35t65.5 64t73.5 90.5t55.5 109t24.5 125.5q0 101 -77.5 160t-207.5 59q-166 0 -275.5 -91t-109.5 -218z" />
<glyph horiz-adv-x="1138" d="M-80 33l53 76q9 -5 26 -13t70.5 -21.5t108.5 -13.5q97 0 187.5 38.5t162 103t131.5 150.5t101.5 178.5t66.5 189.5h-4q-75 -91 -189.5 -144t-234.5 -53q-173 0 -277 98t-104 267q0 103 37.5 204.5t103.5 182.5t166.5 131.5t215.5 50.5q132 0 226.5 -66.5t139.5 -179.5 t45 -262q0 -72 -15.5 -157.5t-48 -179.5t-78.5 -184.5t-111 -173t-141.5 -144.5t-174.5 -99t-205 -37q-71 0 -135.5 14.5t-93.5 28.5zM399 610q67 0 146.5 27.5t150 74t117.5 118.5t47 151q0 71 -20 139t-57 125t-98.5 92t-137.5 35q-182 0 -309 -140t-127 -343 q0 -130 77.5 -204.5t210.5 -74.5z" />
<glyph horiz-adv-x="804" d="M133 674l14 82h566l-15 -82h-565z" />
<glyph horiz-adv-x="643" d="M297 -133q-94 257 -94 539q0 626 411 1140h95q-422 -538 -422 -1143q0 -277 96 -536h-86z" />
<glyph horiz-adv-x="643" d="M66 -133h-95q422 538 422 1143q0 277 -96 536h86q94 -257 94 -538q0 -627 -411 -1141z" />
<glyph horiz-adv-x="618" d="M121 -133l325 1679h222l-17 -82h-133l-293 -1515h133l-16 -82h-221z" />
<glyph horiz-adv-x="620" d="M10 -51h131l293 1515h-133l16 82h222l-326 -1679h-219z" />
<glyph horiz-adv-x="743" d="M242 121q0 44 14 123l37 192q6 37 6 66q0 44 -13.5 78.5t-33 52.5t-39.5 29.5t-33 14.5l-14 3l16 82q7 1 19.5 4t45.5 19t60.5 40t55.5 72t40 109l33 165q20 102 58 176.5t75 111.5t84.5 58t75.5 25t59 4h17l-14 -80h-11q-18 0 -37 -3t-54 -19.5t-63.5 -45t-57.5 -87 t-44 -137.5l-37 -191q-12 -61 -38.5 -110.5t-55.5 -76t-56 -44.5t-45 -24l-18 -5v-4q5 -2 13 -7t28 -23t35.5 -39.5t28 -57.5t12.5 -76q0 -27 -6 -57l-43 -217q-12 -61 -12 -107q0 -50 13 -86.5t30 -55t41 -29.5t39.5 -13t31.5 -2h11l-17 -80q-6 -2 -18 -2q-19 0 -42 4 t-56 20t-58.5 41.5t-44 74.5t-18.5 114z" />
<glyph horiz-adv-x="741" d="M0 -53q19 0 38.5 3t54.5 19.5t63 45.5t56.5 87.5t43.5 137.5l41 215q12 64 38.5 115t55.5 78t56 45t45 23l18 5v4q-5 2 -12.5 7t-27.5 22.5t-35 38t-27.5 55.5t-12.5 74q0 27 6 57l37 192q13 67 13 107q0 50 -13 86.5t-30.5 55t-42 29.5t-39.5 13t-31 2h-10l16 80 q8 2 18 2q19 0 42 -4t56 -20t59 -41.5t44.5 -74.5t18.5 -114q0 -39 -15 -123l-32 -168q-7 -44 -7 -65q0 -44 13.5 -78.5t33.5 -52.5t39.5 -29.5t32.5 -14.5l14 -3l-16 -82q-7 -1 -19.5 -4t-45.5 -19t-60.5 -40t-55.5 -72t-40 -109l-37 -190q-15 -74 -38.5 -134t-49.5 -98.5 t-58 -67t-59 -43t-58 -22.5t-49.5 -10t-39.5 -2l-17 2l15 80h10z" />
<glyph horiz-adv-x="1646" d="M182 575q0 116 34 230t93 211t141.5 180.5t176.5 142t201 92t212 33.5q113 0 197 -24t131 -66.5t69.5 -94.5t22.5 -116q0 -33 -6 -71l-135 -695h143l-16 -82h-526q-152 0 -247 94t-95 240q0 118 67 226.5t174.5 173.5t222.5 65h324q4 28 4 45q0 99 -76 161t-245 62 q-149 0 -291.5 -66t-248.5 -175.5t-170.5 -258.5t-64.5 -307q0 -228 143 -375t374 -147l-17 -84q-168 0 -303.5 78.5t-212 217t-76.5 310.5zM670 651q0 -110 72 -182t188 -72h297l123 635h-293q-98 0 -187.5 -53t-144.5 -141.5t-55 -186.5z" />
<glyph horiz-adv-x="1075" d="M748 281l-263 426l418 415h117l-432 -426l258 -415h-98zM430 281l-262 426l393 415h117l-408 -426l258 -415h-98z" />
<glyph horiz-adv-x="1075" d="M432 281l408 426l-258 415h98l262 -426l-393 -415h-117zM90 281l432 426l-258 415h98l263 -426l-418 -415h-117z" />
<glyph horiz-adv-x="745" d="M430 281l-262 426l393 415h117l-408 -426l258 -415h-98z" />
<glyph horiz-adv-x="745" d="M102 281l408 426l-258 415h98l262 -426l-393 -415h-117z" />
<glyph horiz-adv-x="1214" d="M129 662l14 81h975l-14 -81h-975z" />
<glyph horiz-adv-x="1624" d="M129 662l14 81h1385l-15 -81h-1384z" />
<glyph horiz-adv-x="630" d="M254 645l25 129h124l-24 -129h-125z" />
<glyph horiz-adv-x="1009" d="M657 1309l27 125h121l-27 -125h-121zM109 272q0 74 24.5 138t64.5 111.5t89 90.5t101 83.5t97 81.5t79.5 94.5t47.5 113.5l19 90h88l-19 -90q-15 -71 -51 -133t-81 -107.5t-95.5 -88t-98 -82.5t-86 -82.5t-62 -97.5t-23.5 -118q0 -95 67 -155t183 -60q68 0 137.5 21.5 t105.5 43.5l35 21l35 -75q-6 -4 -16.5 -10.5t-44.5 -23t-69.5 -29.5t-86.5 -23.5t-100 -10.5q-157 0 -248.5 82t-91.5 215z" />
<glyph horiz-adv-x="669" d="M410 1309l26 125h121l-27 -125h-120zM172 0l211 1075h88l-211 -1075h-88z" />
<glyph horiz-adv-x="880" d="M457 449q-113 0 -192 79t-79 191t79 191t192 79t191.5 -78.5t78.5 -191.5t-78.5 -191.5t-191.5 -78.5z" />
<glyph horiz-adv-x="1204" d="M104 412q0 124 42.5 250.5t116.5 231t187 170.5t242 66q96 0 170.5 -35t120.5 -96.5t69 -140t23 -170.5q0 -97 -25.5 -197.5t-76.5 -192.5t-120 -164.5t-163.5 -115.5t-200.5 -43q-97 0 -172.5 34.5t-121 95.5t-68.5 138.5t-23 168.5zM197 418q0 -101 30.5 -180 t99.5 -129t169 -50q87 0 165.5 38t136.5 101.5t101 144t64.5 168.5t21.5 173q0 158 -75.5 260.5t-223.5 102.5q-87 0 -166 -38.5t-136.5 -102.5t-100.5 -145t-64.5 -169.5t-21.5 -173.5z" />
<glyph horiz-adv-x="897" d="M25 0l16 80h326l159 827l21 99h-4q-37 -25 -90 -54l-263 -143l-30 72l405 225h86l-198 -1026h286l-16 -80h-698z" />
<glyph horiz-adv-x="1054" d="M6 0l12 66q238 141 387.5 242t254 195.5t147.5 175t43 167.5q0 98 -74 149.5t-190 51.5q-55 0 -112.5 -17.5t-100 -42t-77.5 -49t-53 -42.5l-18 -17l-47 67q8 7 21.5 19.5t58 44.5t90 56t112 44t130.5 20q95 0 165.5 -24t110 -65t58 -89t18.5 -102q0 -99 -43.5 -189 t-140.5 -183.5t-234 -187.5t-342 -210v-4q39 4 111 4h557l-14 -80h-830z" />
<glyph horiz-adv-x="960" d="M-158 -76l70 56q4 -6 11.5 -17t36.5 -38t63 -48t91.5 -38t121.5 -17q57 0 116.5 17t115 50.5t99 79.5t69.5 109t26 133q0 122 -94 187t-238 65h-105l-10 65l477 437q16 16 35 31t30 22l11 8v4q-39 -4 -111 -4h-514l15 80h762l-11 -57l-561 -502q49 0 98.5 -8t106.5 -31 t100.5 -58t72 -95.5t28.5 -137.5q0 -137 -77 -249t-196 -171t-250 -59q-79 0 -148 19t-111 46.5t-73 55t-44 46.5z" />
<glyph horiz-adv-x="1171" d="M-31 84l13 59l899 963h77l-182 -942h232l-17 -80h-231l-62 -322h-86l62 322h-705zM115 164h575l129 665q4 25 12 57.5t13 51.5l6 20h-4q-47 -63 -94 -112l-637 -680v-2z" />
<glyph horiz-adv-x="1032" d="M-82 -49l74 47q3 -6 10 -16.5t32.5 -37t56.5 -47t84 -37t114 -16.5q80 0 161 28t149.5 78.5t111.5 131.5t43 178q0 127 -93.5 198.5t-228.5 71.5q-70 0 -143.5 -19t-111.5 -39l-38 -19l-61 20l205 633h645l-15 -80h-567l-123 -381l-30 -82h4q12 6 34 14.5t86.5 22.5 t124.5 14q172 0 288 -91.5t116 -258.5q0 -113 -48.5 -209.5t-127.5 -160t-178.5 -99t-202.5 -35.5q-78 0 -145 19.5t-107 48t-68.5 56.5t-39.5 48z" />
<glyph horiz-adv-x="1196" d="M131 446q0 71 15.5 153.5t48 171t78 174t110 162.5t139.5 135t171.5 92t201.5 34q71 0 135.5 -14t93.5 -28l29 -13l-53 -72q-9 5 -26 12t-70.5 19t-108.5 12q-120 0 -229 -54t-189 -144.5t-137 -199.5t-88 -229h4q78 91 190.5 141t235.5 50q175 0 280 -92t105 -252 q0 -99 -40.5 -194.5t-109.5 -169.5t-168.5 -119.5t-209.5 -45.5q-196 0 -302 130.5t-106 340.5zM221 422q0 -66 21 -129.5t59.5 -116t101.5 -85t140 -32.5q182 0 307 128t125 315q0 123 -81 192.5t-222 69.5q-103 0 -207.5 -46.5t-174 -127t-69.5 -168.5z" />
<glyph horiz-adv-x="1003" d="M20 -238l795 1141q21 30 44.5 61t36.5 46l13 16v4q-40 -4 -112 -4h-656l15 80h878l-10 -57l-899 -1287h-105z" />
<glyph horiz-adv-x="1181" d="M78 324q0 75 31 146.5t72.5 119t93.5 90t82 60.5t51 28q-144 98 -144 231q0 68 33.5 134t92.5 119t148.5 85.5t192.5 32.5q177 0 274 -77.5t97 -209.5q0 -63 -26 -130t-58 -113.5t-77 -94.5t-65 -65t-40 -33q165 -100 165 -248q0 -85 -44 -164t-115.5 -135.5t-166 -90.5 t-192.5 -34q-109 0 -199.5 39.5t-148 120.5t-57.5 189zM909 395q0 41 -19.5 77t-47.5 62t-75 53.5t-87 45.5t-98.5 44.5t-94.5 45.5q-29 -15 -57.5 -32t-79 -56t-87.5 -80.5t-65 -103.5t-28 -127q0 -121 91.5 -193t223.5 -72q96 0 192.5 42t164 121t67.5 173zM356 1001 q0 -39 18.5 -74t44.5 -59.5t71 -50.5t82.5 -43t95 -43t92.5 -43q22 16 42 32.5t61.5 58.5t70.5 83.5t52.5 100.5t23.5 116q0 97 -76.5 152t-204.5 55q-158 0 -265.5 -84t-107.5 -201z" />
<glyph horiz-adv-x="1196" d="M74 -135q9 -5 26 -12t70.5 -19t108.5 -12q120 0 229 54t189 144.5t137 199.5t88 229h-4q-78 -91 -190.5 -141t-235.5 -50q-175 0 -280.5 92t-105.5 252q0 133 68 254t191 197.5t270 76.5q196 0 301.5 -130.5t105.5 -340.5q0 -83 -22 -181t-63 -201.5t-107 -199.5 t-147.5 -172t-191.5 -121.5t-232 -45.5q-71 0 -136 14t-94 28l-29 13zM496 342q103 0 208.5 46t176.5 127t71 169q0 66 -20.5 129.5t-59.5 116t-101.5 85t-139.5 32.5q-182 0 -307 -128t-125 -315q0 -122 80 -192t217 -70z" />
<glyph horiz-adv-x="1138" d="M-66 412q0 124 42.5 250.5t116.5 231t187 170.5t242 66q96 0 170.5 -35t120.5 -96.5t69 -140t23 -170.5q0 -97 -25.5 -197.5t-76.5 -192.5t-120 -164.5t-163.5 -115.5t-200.5 -43q-97 0 -172.5 34.5t-121 95.5t-68.5 138.5t-23 168.5zM27 418q0 -101 30.5 -180t99.5 -129 t169 -50q87 0 165.5 38t136.5 101.5t101 144t64.5 168.5t21.5 173q0 158 -75.5 260.5t-223.5 102.5q-87 0 -166 -38.5t-136.5 -102.5t-100.5 -145t-64.5 -169.5t-21.5 -173.5z" />
<glyph horiz-adv-x="1138" d="M12 0l17 80h325l160 827l21 99h-5q-37 -25 -90 -54l-262 -143l-31 72l406 225h86l-199 -1026h287l-16 -80h-699z" />
<glyph horiz-adv-x="1138" d="M-68 0l13 66q237 141 387 242t254 195.5t147 175t43 167.5q0 98 -74 149.5t-190 51.5q-55 0 -112.5 -17.5t-100 -42t-77 -49t-52.5 -42.5l-18 -17l-48 67q8 7 21.5 19.5t58 44.5t90 56t112 44t130.5 20q95 0 165.5 -24t110 -65t58 -89t18.5 -102q0 -99 -43.5 -189 t-140 -183.5t-233.5 -187.5t-342 -210v-4q38 4 110 4h557l-14 -80h-830z" />
<glyph horiz-adv-x="1138" d="M-135 -76l69 56q4 -6 11.5 -17t36.5 -38t63 -48t91.5 -38t121.5 -17q57 0 116.5 17t115 50.5t99 79.5t69.5 109t26 133q0 122 -94 187t-238 65h-104l-10 65l477 437q16 16 35 31t30 22l11 8v4q-39 -4 -111 -4h-514l14 80h762l-10 -57l-561 -502q49 0 98.5 -8t106.5 -31 t100 -58t71.5 -95.5t28.5 -137.5q0 -103 -45 -194.5t-118.5 -152.5t-167.5 -96.5t-191 -35.5q-79 0 -148 19t-111 46.5t-73 55t-44 46.5z" />
<glyph horiz-adv-x="1138" d="M-160 84l13 59l899 963h77l-182 -942h232l-17 -80h-231l-62 -322h-86l62 322h-705zM-14 164h575l129 665q4 25 12 57.5t14 51.5l5 20h-4q-47 -63 -94 -112l-637 -680v-2z" />
<glyph horiz-adv-x="1138" d="M-127 -49l74 47q3 -6 10 -16.5t32.5 -37t56.5 -47t84 -37t114 -16.5q80 0 161 28t149.5 78.5t111.5 131.5t43 178q0 127 -93.5 198.5t-228.5 71.5q-70 0 -143.5 -19t-111.5 -39l-38 -19l-61 20l205 633h645l-15 -80h-567l-123 -381l-31 -82h5q12 6 34 14.5t86.5 22.5 t124.5 14q172 0 288 -91.5t116 -258.5q0 -113 -48.5 -209.5t-127.5 -160t-178.5 -99t-202.5 -35.5q-78 0 -145 19.5t-107 48t-68.5 56.5t-39.5 48z" />
<glyph horiz-adv-x="1138" d="M-51 446q0 71 15.5 153.5t48 171t78 174t110 162.5t139.5 135t171.5 92t201.5 34q71 0 135.5 -14t93.5 -28l29 -13l-53 -72q-9 5 -26 12t-70.5 19t-108.5 12q-120 0 -229 -54t-189 -144.5t-137 -199.5t-88 -229h4q78 91 190.5 141t235.5 50q175 0 280 -92t105 -252 q0 -133 -68 -254t-191 -198t-270 -77q-196 0 -301.5 130.5t-105.5 340.5zM39 422q0 -66 20.5 -129.5t59.5 -116t101.5 -85t139.5 -32.5q182 0 307.5 128t125.5 315q0 123 -81.5 192.5t-222.5 69.5q-103 0 -207 -46.5t-173.5 -127t-69.5 -168.5z" />
<glyph horiz-adv-x="1138" d="M-41 -238l795 1141q21 30 44.5 61t36.5 46l13 16v4q-41 -4 -113 -4h-655l14 80h879l-10 -57l-900 -1287h-104z" />
<glyph horiz-adv-x="1138" d="M-86 324q0 75 31 146.5t72.5 119t93.5 90t82 60.5t51 28q-144 98 -144 231q0 68 33.5 134t92.5 119t148.5 85.5t192.5 32.5q177 0 274 -77.5t97 -209.5q0 -63 -26 -130t-58 -113.5t-77 -94.5t-65 -65t-40 -33q166 -101 166 -248q0 -113 -74.5 -212t-194 -155.5 t-250.5 -56.5q-109 0 -199.5 39.5t-148 120.5t-57.5 189zM745 395q0 41 -19.5 77t-47.5 62t-75 53.5t-86.5 45.5t-98 44.5t-94.5 45.5q-29 -15 -57.5 -32t-79.5 -56t-87.5 -80.5t-65 -103.5t-28.5 -127q0 -121 92 -193t224 -72q96 0 192.5 42t163.5 121t67 173zM193 1001 q0 -39 18 -74t44.5 -59.5t71.5 -50.5t82 -43t94.5 -43t92.5 -43q22 16 42 32.5t61.5 58.5t70.5 83.5t52.5 100.5t23.5 116q0 97 -76.5 152t-204.5 55q-158 0 -265 -84t-107 -201z" />
<glyph horiz-adv-x="1138" d="M-76 -135q9 -5 26 -12t70.5 -19t108.5 -12q120 0 229 54t189 144.5t137 199.5t88 229h-4q-78 -91 -190.5 -141t-235.5 -50q-175 0 -280 92t-105 252q0 99 40.5 194.5t109.5 169.5t168.5 119t209.5 45q196 0 302 -130.5t106 -340.5q0 -83 -22 -181t-63 -201.5 t-107.5 -199.5t-148 -172t-191.5 -121.5t-232 -45.5q-71 0 -135.5 14t-93.5 28l-29 13zM346 342q103 0 209 46t177 127t71 169q0 66 -21 129.5t-59.5 116t-101.5 85t-140 32.5q-182 0 -307 -128t-125 -315q0 -122 80 -192t217 -70z" />
<glyph horiz-adv-x="1050" d="M31 176l71 55q4 -7 13 -18.5t39.5 -41t66.5 -52.5t95 -41.5t124 -18.5q79 0 152.5 29.5t124.5 92.5t51 147q0 49 -30 88.5t-77.5 67t-105.5 53t-115.5 53.5t-105 61t-77.5 83.5t-30 113.5q0 149 114 243t280 103l34 174h88l-34 -176q49 -5 94 -19.5t75 -31t53 -33 t33 -26.5l11 -11l-64 -61q-4 4 -10.5 11t-31.5 25t-54 32t-77 25t-101 11q-44 0 -87.5 -9t-86 -29.5t-74.5 -49.5t-52 -73.5t-20 -98.5q0 -51 30 -91.5t77.5 -67.5t105 -52t115.5 -52.5t105.5 -60.5t77.5 -84.5t30 -117.5q0 -145 -117.5 -247.5t-294.5 -103.5l-36 -190h-88 l38 197q-66 9 -124 32t-94 49.5t-62.5 51.5t-37.5 42z" />
<glyph horiz-adv-x="1171" d="M123 522q0 120 47.5 226t126.5 179.5t178.5 119.5t204.5 55l35 176h88l-37 -176q62 -5 117 -23.5t89.5 -41t60.5 -44.5t37 -37l11 -14l-55 -65q-4 6 -11 15.5t-33.5 34t-58.5 43.5t-86.5 34.5t-115.5 15.5q-92 0 -182.5 -36.5t-162.5 -100t-116.5 -158t-44.5 -201.5 q0 -147 96.5 -235t249.5 -88q60 0 119 15t100.5 36.5t75 43.5t50.5 37l16 15l34 -76q-6 -6 -17.5 -16t-50 -35.5t-79.5 -46t-104 -38t-127 -19.5l-35 -168h-88l34 172q-166 19 -266 125.5t-100 275.5z" />
<glyph horiz-adv-x="1239" d="M10 0l13 80h135l84 428h-95l15 80h94l51 262q29 152 159.5 250t305.5 98q56 0 109 -11t88 -26.5t62 -31t39 -26.5l13 -11l-65 -62q-4 3 -11 9t-31 20.5t-51 25.5t-69.5 20t-87.5 9q-151 0 -252.5 -83t-126.5 -204l-47 -239h498l-15 -80h-497l-84 -428h719l-15 -80h-938z " />
<glyph horiz-adv-x="1191" d="M154 322l16 81h344l12 66l-43 98h-282l16 82h234l-224 529h95l196 -476l64 -155h4q59 85 114 155l377 476h109l-426 -529h227l-16 -82h-279l-78 -98l-12 -66h338l-16 -81h-338l-62 -322h-88l62 322h-344z" />
<glyph horiz-adv-x="1165" d="M-74 -172q53 -10 123 -10q29 0 58.5 5t69.5 23.5t74 49.5t68 87.5t56 131.5l160 563h-197l14 78h205l70 250q26 93 68.5 163t85 107t94 59.5t87 28.5t72.5 6q44 0 89.5 -4t69.5 -8l24 -4l-15 -78q-84 14 -166 14q-31 0 -60 -5t-69 -23.5t-73.5 -49.5t-67 -87.5 t-55.5 -131.5l-68 -237h270l-14 -78h-278l-166 -582q-27 -92 -69.5 -161t-84.5 -105.5t-93 -58.5t-86 -27.5t-71 -5.5q-38 0 -73.5 3t-51.5 6l-16 3z" />
<glyph horiz-adv-x="1273" d="M141 657l17 82h139q39 94 102 175t149 145.5t202 101.5t247 37q49 0 99 -7t75 -15l25 -7l-39 -77q-78 20 -162 20q-213 0 -368.5 -105t-231.5 -268h617l-35 -82h-615q-21 -65 -28 -149h590l-35 -82h-553q7 -77 38 -142t86 -115.5t140.5 -79t192.5 -28.5q46 0 92 6.5 t69 13.5l23 7l8 -86q-85 -27 -194 -27q-128 0 -230.5 36t-168 98.5t-102.5 143t-44 173.5h-150l17 82h131q7 88 24 149h-127z" />
<glyph d="M242 524q-248 0 -248 283q0 72 11.5 152t40.5 170t73 161t115.5 117.5t160.5 46.5q248 0 248 -289q0 -71 -11.5 -150.5t-41 -168.5t-73.5 -159.5t-115.5 -116.5t-159.5 -46zM242 598q70 0 127 40t92 101.5t59 139.5t33.5 149t9.5 135q0 217 -168 217q-59 0 -109 -28 t-84 -76t-59.5 -106.5t-40 -124.5t-21.5 -124.5t-7 -111.5q0 -211 168 -211z" />
<glyph d="M2 545l14 73h197l127 660l12 45h-4q-10 -16 -55 -55l-105 -86l-45 59l230 193h78l-160 -816h190l-14 -73h-465z" />
<glyph d="M-31 545q2 79 35.5 145t85 112t113.5 86.5t123 77t111.5 74.5t82 88t31.5 109q0 62 -42 102.5t-114 40.5q-52 0 -105 -25.5t-80 -50.5l-28 -26l-43 57l13 13t35 28.5t55.5 36t71 28.5t83.5 13q115 0 174.5 -59.5t59.5 -153.5q0 -68 -27.5 -124.5t-72 -96.5t-99.5 -76 t-113.5 -70t-109.5 -69.5t-91 -83.5t-55 -103h465l-14 -73h-545z" />
<glyph d="M248 524q-52 0 -100.5 13.5t-80.5 33t-57.5 39.5t-37.5 34l-11 13l62 50q3 -4 9.5 -11.5t28 -26.5t46 -33t63.5 -26t80 -12q93 0 167.5 71.5t74.5 172.5q0 73 -56 116t-131 43h-65l-15 50l273 260l61 51v4q-37 -6 -78 -6h-336l15 74h522l-10 -54l-324 -307 q33 -3 67.5 -15.5t71.5 -37t60.5 -71t23.5 -107.5q0 -125 -96.5 -221.5t-226.5 -96.5z" />
<glyph d="M330 545l49 248h-447l11 53l569 588h70l-111 -568h139l-14 -73h-139l-49 -248h-78zM66 866h327l58 301l32 133h-4q-45 -55 -92 -102l-321 -328v-4z" />
<glyph d="M225 524q-55 0 -102 15t-75 36t-48.5 42t-28.5 36l-8 15l68 41q2 -5 6 -12t20.5 -26.5t36 -34t54.5 -26.5t75 -12q102 0 185.5 78.5t83.5 183.5q0 77 -54.5 128.5t-138.5 51.5q-43 0 -87 -14t-66 -28l-23 -13l-49 21l137 428h422l-15 -74h-356l-57 -186l-31 -89h4 q55 29 121 29q123 0 197.5 -71t74.5 -183q0 -133 -107.5 -234.5t-238.5 -101.5z" />
<glyph d="M246 524q-126 0 -192 85.5t-66 226.5q0 65 19.5 144.5t60.5 163t96.5 153t135 113.5t167.5 44q47 0 91 -11t64 -21l21 -11l-47 -61q-51 30 -129 30q-83 0 -159 -53t-127.5 -133.5t-82.5 -177.5h4q43 43 110 70.5t134 27.5q105 0 169.5 -62.5t64.5 -170.5 q0 -85 -30.5 -155t-79 -113t-107 -66t-117.5 -23zM246 598q111 0 182.5 83.5t71.5 197.5q0 74 -46.5 117.5t-123.5 43.5q-91 0 -176.5 -65t-85.5 -148q0 -57 18.5 -108t60.5 -86t99 -35z" />
<glyph d="M-2 545l489 682q23 32 48.5 65t40.5 50l14 18v4q-41 -4 -113 -4h-360l14 74h571l-10 -54l-602 -835h-92z" />
<glyph d="M256 522q-114 0 -191 61t-77 171q0 55 23.5 106.5t62 90t65 59.5t54.5 39q-80 63 -80 149q0 80 47.5 139.5t114.5 87t139 27.5q102 0 171.5 -51t69.5 -144q0 -48 -20.5 -97.5t-53.5 -89t-54.5 -61.5t-41.5 -38q103 -70 103 -168q0 -110 -99 -195.5t-233 -85.5zM508 799 q0 31 -14 56.5t-43.5 47t-55.5 36t-71 36t-68 33.5q-21 -11 -40.5 -24t-48 -37.5t-49 -50.5t-35.5 -63.5t-15 -76.5q0 -72 55.5 -116t132.5 -44q93 0 172.5 59.5t79.5 143.5zM193 1202q0 -24 10.5 -45.5t23.5 -36.5t40.5 -32.5t45.5 -26.5t55.5 -27t53.5 -26 q15 11 30.5 24.5t39 38.5t41 51t30 61.5t12.5 69.5q0 60 -47.5 92.5t-115.5 32.5q-51 0 -99.5 -18.5t-84 -60t-35.5 -97.5z" />
<glyph d="M10 567l47 62q51 -31 129 -31q83 0 159 53.5t127.5 134t82.5 177.5h-4q-44 -44 -111 -71.5t-133 -27.5q-105 0 -169 63t-64 171q0 85 30.5 154.5t79 112.5t107 66t117.5 23q126 0 192 -85t66 -226q0 -53 -14.5 -118.5t-41 -135t-69 -134.5t-93.5 -117t-119.5 -83 t-142.5 -31q-47 0 -91 11t-65 21zM324 938q91 0 176.5 65t85.5 148q0 57 -18.5 108t-60.5 86t-99 35q-111 0 -182.5 -83t-71.5 -197q0 -74 46.5 -118t123.5 -44z" />
<glyph d="M139 -20q-248 0 -248 282q0 59 8.5 124.5t26.5 140t50 141.5t74.5 121.5t105 87t137.5 32.5q248 0 248 -288q0 -49 -6 -104t-20 -118t-35 -121.5t-53.5 -113.5t-72.5 -95t-95.5 -64.5t-119.5 -24.5zM139 53q70 0 127 40t92 101.5t59.5 139.5t34 149t9.5 135 q0 218 -168 218q-70 0 -127.5 -40.5t-92.5 -103t-59 -141.5t-33.5 -150.5t-9.5 -136.5q0 -211 168 -211z" />
<glyph d="M-68 0l15 74h196l127 659l13 45h-4q-11 -16 -56 -55l-104 -86l-45 59l229 193h78l-160 -815h191l-15 -74h-465z" />
<glyph d="M-125 0q2 79 35.5 145t85 112t113.5 86.5t123 77t111.5 74.5t82 88t31.5 109q0 62 -42 103t-114 41q-52 0 -105.5 -26t-80.5 -52l-27 -25l-43 58l13 13t35 28t55.5 35.5t71 28.5t83.5 13q115 0 174.5 -59.5t59.5 -153.5q0 -68 -27.5 -124t-72 -96.5t-99.5 -76 t-113.5 -69.5t-109.5 -69.5t-91 -83.5t-55 -103h465l-14 -74h-545z" />
<glyph d="M139 -20q-52 0 -100 13.5t-80.5 33t-57.5 39.5t-37 34l-11 13l61 49q3 -4 9.5 -11.5t28 -26.5t46 -33t63.5 -26t80 -12q93 0 167.5 71.5t74.5 172.5q0 73 -55.5 116.5t-130.5 43.5h-66l-14 49l272 260l62 51v4q-37 -6 -78 -6h-336l14 74h522l-10 -53l-323 -308 q33 -3 67.5 -15.5t71.5 -37t60.5 -71t23.5 -107.5q0 -125 -97 -221t-227 -96z" />
<glyph d="M254 0l49 248h-446l10 53l569 588h70l-111 -567h140l-15 -74h-139l-49 -248h-78zM-10 322h327l58 301l33 133h-5q-45 -56 -92 -103l-321 -327v-4z" />
<glyph d="M123 -20q-55 0 -102 14.5t-75 35.5t-48.5 42.5t-28.5 35.5l-8 15l67 41q2 -5 6 -12t20.5 -26.5t36.5 -34t55 -26.5t75 -12q102 0 185 78.5t83 183.5q0 77 -54 129t-138 52q-43 0 -87 -14t-67 -28l-23 -14l-49 21l138 428h421l-14 -74h-356l-58 -186l-30 -88h4 q55 28 121 28q123 0 197.5 -71t74.5 -183q0 -133 -107.5 -234t-238.5 -101z" />
<glyph d="M170 -20q-126 0 -192 85t-66 226q0 65 19.5 144.5t60.5 163t96.5 153t135 113.5t167.5 44q47 0 91 -10.5t64 -21.5l21 -11l-47 -61q-51 31 -129 31q-83 0 -159 -53.5t-127 -134t-82 -177.5h4q43 43 109.5 70.5t133.5 27.5q105 0 169.5 -62.5t64.5 -170.5 q0 -85 -30.5 -154.5t-79 -112.5t-107 -66t-117.5 -23zM170 53q111 0 182.5 83.5t71.5 197.5q0 74 -46.5 118t-123.5 44q-91 0 -176.5 -65t-85.5 -148q0 -57 18.5 -108t60.5 -86.5t99 -35.5z" />
<glyph d="M-94 0l489 682q23 32 48.5 65t40.5 51l14 17v4q-41 -4 -113 -4h-360l14 74h571l-10 -53l-602 -836h-92z" />
<glyph d="M154 -20q-114 0 -191.5 60.5t-77.5 170.5q0 55 23.5 106.5t62 90t65 59.5t54.5 39q-80 63 -80 149q0 80 47.5 139.5t114.5 87t139 27.5q103 0 172.5 -51t69.5 -143q0 -39 -15 -80.5t-35 -72.5t-46.5 -61.5t-42.5 -45.5t-31 -27q102 -70 102 -168q0 -110 -98.5 -195 t-232.5 -85zM406 256q0 31 -14 56.5t-43.5 47t-55.5 36t-71 36t-68 33.5q-28 -15 -53.5 -33.5t-59.5 -50t-55 -75.5t-21 -93q0 -72 56 -116t133 -44q93 0 172.5 59.5t79.5 143.5zM90 659q0 -24 10.5 -45.5t23.5 -36.5t40.5 -32.5t45.5 -26.5t55.5 -27t53.5 -26 q19 14 40.5 34t49.5 52.5t46 75t18 84.5q0 60 -48 92.5t-116 32.5q-51 0 -99.5 -18.5t-84 -60.5t-35.5 -98z" />
<glyph d="M-113 23l47 61q51 -31 129 -31q83 0 159 53.5t127.5 134t82.5 177.5h-4q-44 -44 -111 -71.5t-133 -27.5q-105 0 -169 63t-64 171q0 85 30.5 154.5t79 112.5t107 66t117.5 23q126 0 192 -85t66 -226q0 -53 -14.5 -118.5t-41 -134.5t-69 -134.5t-93.5 -117t-119.5 -82.5 t-142.5 -31q-47 0 -91 10.5t-64 21.5zM201 393q91 0 176.5 65t85.5 148q0 57 -18.5 108t-60.5 86.5t-99 35.5q-111 0 -182.5 -83.5t-71.5 -197.5q0 -75 46.5 -118.5t123.5 -43.5z" />
</font>
</defs>
</svg>
