<?xml version="1.0" standalone="no"?>
<!DOCTYPE svg PUBLIC "-//W3C//DTD SVG 1.1//EN" "http://www.w3.org/Graphics/SVG/1.1/DTD/svg11.dtd" >
<svg xmlns="http://www.w3.org/2000/svg">
<metadata></metadata>
<defs>
<font id="museo_sans300_italic" horiz-adv-x="782" >
<font-face units-per-em="2048" ascent="1536" descent="-512" />
<missing-glyph horiz-adv-x="555" />
<glyph unicode="ff" horiz-adv-x="1323" d="M764 0l178 911h-522l-178 -911h-140l179 911h-129l22 119h129l8 43q18 96 58 168t84.5 110.5t100 62t95 30t78.5 6.5l76 -4l-27 -125q-18 4 -47 4t-56 -4.5t-63.5 -20.5t-66 -42.5t-55.5 -76t-39 -114.5l-9 -37h525l8 43q18 96 58 168t84.5 110.5t100 62t95 30t78.5 6.5 l75 -4l-26 -125q-18 4 -47 4t-56 -4.5t-64 -20.5t-66 -42.5t-55.5 -76t-39.5 -114.5l-8 -37h264l-23 -119h-262l-178 -911h-139z" />
<glyph unicode="fi" horiz-adv-x="1136" d="M711 0l176 911h-467l-178 -911h-140l179 911h-129l22 119h129l8 43q18 96 58 168t84.5 110.5t100 62t95 30t78.5 6.5l76 -4l-27 -125q-18 4 -47 4t-56 -4.5t-63.5 -20.5t-66 -42.5t-55.5 -76t-39 -114.5l-9 -37h611l-201 -1030h-139zM950 1266l37 174h150l-35 -174h-152z " />
<glyph unicode="fl" horiz-adv-x="1167" d="M102 0l177 903h-129l22 119h129l10 53q18 95 58 166.5t84.5 110t100 62t95 30t78.5 6.5l76 -4l-27 -125q-18 4 -47 4t-56 -4.5t-63.5 -20.5t-66 -42.5t-55.5 -76t-39 -114.5l-11 -45h264l-22 -119h-262l-176 -903h-140zM741 182q0 30 9 74l231 1184h139l-227 -1166 q-6 -34 -6 -63q0 -31 8.5 -50.5t24 -28t29.5 -11t34 -2.5l31 2l-27 -125q-22 -4 -47 -4q-27 0 -52 4t-52.5 17t-47.5 33t-33.5 55t-13.5 81z" />
<glyph unicode="ffi" horiz-adv-x="1798" d="M102 0l179 911h-129l22 119h129l8 43q18 96 58 168t84.5 110.5t100 62t95 30t78.5 6.5l76 -4l-27 -125q-18 4 -47 4t-56 -4.5t-63.5 -20.5t-66 -42.5t-55.5 -76t-39 -114.5l-9 -37h525l8 43q18 96 58 168t84.5 110.5t100 62t95 30t78.5 6.5l75 -4l-26 -125q-18 4 -47 4 t-56 -4.5t-64 -20.5t-66 -42.5t-55.5 -76t-39.5 -114.5l-8 -37h610l-201 -1030h-139l176 911h-467l-178 -911h-139l178 911h-522l-178 -911h-140zM1612 1266l37 174h149l-35 -174h-151z" />
<glyph unicode="ffl" horiz-adv-x="1828" d="M762 0l178 911h-520l-178 -911h-140l179 911h-129l22 119h129l8 43q18 96 58 168t84.5 110.5t100 62t95 30t78.5 6.5l76 -4l-27 -125q-18 4 -47 4t-56 -4.5t-63.5 -20.5t-66 -42.5t-55.5 -76t-39 -114.5l-9 -37h523l8 43q18 96 58 168t84.5 110.5t99.5 62t94.5 30 t78.5 6.5l76 -4l-26 -125q-18 4 -47 4t-56 -4.5t-64 -20.5t-66 -42.5t-55.5 -76t-39.5 -114.5l-8 -37h264l-23 -119h-262l-178 -911h-139zM1403 182q0 35 8 74l231 1184h140l-228 -1166q-6 -34 -6 -63q0 -31 8.5 -50.5t24.5 -28t30 -11t34 -2.5l30 2l-26 -125q-22 -4 -47 -4 q-27 0 -52 4t-52.5 17t-47.5 33t-33.5 55t-13.5 81z" />
<glyph unicode="fj" horiz-adv-x="1136" d="M102 0l179 911h-129l22 119h129l8 43q18 96 58 168t84.5 110.5t100 62t95 30t78.5 6.5l76 -4l-27 -125q-18 4 -47 4t-56 -4.5t-63.5 -20.5t-66 -42.5t-55.5 -76t-39 -114.5l-9 -37h611l-207 -1067q-19 -98 -58 -171.5t-82 -113t-96.5 -63.5t-93 -30.5t-80.5 -6.5 q-22 0 -42.5 1.5t-29.5 2.5l-10 2l25 121q16 -2 45 -2q28 0 55.5 4.5t64.5 21t67 43.5t57.5 77.5t40.5 117.5l182 944h-469l-178 -911h-140zM950 1266l35 174h150l-33 -174h-152z" />
<glyph unicode=" "  horiz-adv-x="555" />
<glyph unicode="&#x09;" horiz-adv-x="555" />
<glyph unicode="&#xa0;" horiz-adv-x="555" />
<glyph unicode="!" horiz-adv-x="632" d="M205 377l201 1063h145l-215 -1063h-131zM117 0l33 162h161l-32 -162h-162z" />
<glyph unicode="&#x22;" horiz-adv-x="647" d="M485 1114l66 346h121l-68 -346h-119zM236 1114l67 346h119l-66 -346h-120z" />
<glyph unicode="#" horiz-adv-x="1480" d="M193 0l149 399h-289l43 115h287l149 401h-286l41 115h286l152 410h129l-152 -410h355l151 410h127l-151 -410h284l-41 -115h-284l-150 -401h283l-41 -115h-285l-147 -399h-129l149 399h-354l-147 -399h-129zM512 514h352l150 401h-355z" />
<glyph unicode="$" horiz-adv-x="1142" d="M41 160l96 100q5 -6 14.5 -16t43 -36t71 -45.5t98 -35.5t125.5 -16q134 0 238 83t104 212q0 59 -33 107t-85.5 81.5t-115.5 64.5t-126.5 66t-116 75.5t-85.5 102t-33 137.5q0 78 35 152t95 131.5t145.5 94.5t180.5 44l39 191h115l-37 -193q60 -6 114 -22.5t88 -35 t60 -36.5t37 -30l12 -11l-84 -108q-4 5 -12.5 12.5t-38 26.5t-61.5 34t-83 27t-104 12q-149 0 -252.5 -90t-103.5 -199q0 -53 33 -96.5t85.5 -75.5t116 -63t127 -66.5t116 -78.5t85.5 -108t33 -146q0 -167 -131.5 -294t-327.5 -137l-35 -186h-114l34 193q-69 8 -132 29 t-103 45.5t-70.5 48.5t-43.5 39z" />
<glyph unicode="%" horiz-adv-x="1505" d="M475 895q-117 0 -185.5 68.5t-68.5 183.5q0 121 103 219t231 98q113 0 182.5 -70t69.5 -180q0 -125 -102 -222t-230 -97zM18 0l1360 1440h160l-1364 -1440h-156zM483 1010q79 0 140 61t61 143q0 58 -38 97t-99 39q-79 0 -141 -62t-62 -143q0 -58 38.5 -96.5t100.5 -38.5z M741 227q0 121 103 219.5t231 98.5q114 0 183 -70t69 -180q0 -125 -102 -222.5t-230 -97.5q-115 0 -184.5 69t-69.5 183zM864 225q0 -59 39 -97t101 -38q79 0 139.5 60.5t60.5 142.5q0 59 -38 98t-99 39q-78 0 -140.5 -62t-62.5 -143z" />
<glyph unicode="&#x26;" horiz-adv-x="1378" d="M76 342q0 144 97 269.5t249 164.5v4q-6 2 -16 6.5t-35.5 24.5t-45 45.5t-35.5 73t-16 104.5q0 188 141 309t349 121q40 0 84 -6.5t68 -13.5l24 -6l-57 -113q-68 14 -119 14q-141 0 -242.5 -85.5t-101.5 -221.5q0 -201 266 -201h303l41 203h139l-39 -203h195l-25 -126 h-194l-43 -211q-106 -519 -553 -519q-204 0 -319 100.5t-115 266.5zM223 346q0 -104 76.5 -170.5t212.5 -66.5q334 0 412 389l41 207h-303q-117 0 -214.5 -38.5t-161 -122t-63.5 -198.5z" />
<glyph unicode="'" horiz-adv-x="401" d="M236 1114l67 346h121l-66 -346h-122z" />
<glyph unicode="(" horiz-adv-x="587" d="M244 -195q-101 262 -101 545q0 635 418 1145h135q-424 -535 -424 -1149q0 -288 97 -541h-125z" />
<glyph unicode=")" horiz-adv-x="589" d="M41 -195h-135q424 535 424 1149q0 288 -97 541h125q101 -262 101 -545q0 -635 -418 -1145z" />
<glyph unicode="*" horiz-adv-x="956" d="M313 690l-100 80l242 250v4l-277 84l64 125l274 -109l49 316h140l-76 -316l319 107l19 -129l-324 -90v-4l141 -242l-114 -78l-127 260h-4z" />
<glyph unicode="+" horiz-adv-x="1390" d="M514 0l102 522h-473l23 119h471l104 522h125l-102 -522h471l-23 -119h-471l-102 -522h-125z" />
<glyph unicode="," horiz-adv-x="507" d="M-78 -199l191 367h157l-223 -367h-125z" />
<glyph unicode="-" horiz-adv-x="999" d="M190 518l23 127h582l-25 -127h-580z" />
<glyph unicode="." horiz-adv-x="497" d="M51 0l33 170h166l-33 -170h-166z" />
<glyph unicode="/" horiz-adv-x="804" d="M86 -86h-139l831 1606h140z" />
<glyph unicode="0" horiz-adv-x="1290" d="M137 440q0 82 10 173t34 191.5t58.5 194t88 178.5t118.5 148.5t153 101t189 37.5q406 0 406 -467q0 -83 -10 -173t-33.5 -190.5t-57.5 -193.5t-87.5 -178.5t-118 -148.5t-153.5 -100.5t-191 -37.5q-211 0 -308.5 123.5t-97.5 341.5zM285 440q0 -331 262 -331 q78 0 145.5 33t117.5 88t91 129.5t67.5 155.5t44.5 167.5t26 164.5t8 148q0 336 -263 336q-102 0 -187.5 -59t-141.5 -153t-95.5 -213.5t-57 -237.5t-17.5 -228z" />
<glyph unicode="1" horiz-adv-x="954" d="M4 0l23 127h323l203 1042l18 80h-4q-20 -29 -90 -86l-178 -147l-78 100l393 324h134l-259 -1313h318l-25 -127h-778z" />
<glyph unicode="2" horiz-adv-x="1161" d="M18 0q2 97 35.5 182t88.5 150t125.5 123.5t148 108t155 96.5t147 96t123.5 100t85.5 115t31.5 135q0 101 -66.5 162t-184.5 61q-60 0 -119 -20t-101 -48.5t-76 -57t-51 -48.5l-16 -20l-100 79q8 10 22.5 27t62.5 60t100 76t132 60t160 27q183 0 286 -95.5t103 -252.5 q0 -82 -28.5 -155.5t-77.5 -131.5t-112.5 -110.5t-135.5 -98.5t-144.5 -89.5t-141.5 -89t-124.5 -92t-95.5 -103.5t-53 -119h745l-24 -127h-900z" />
<glyph unicode="3" horiz-adv-x="1159" d="M8 172l96 98q5 -6 13.5 -17t41 -38.5t70 -48.5t99 -38t129.5 -17q72 0 142 28.5t125 77t88.5 119t33.5 147.5q0 119 -87 182.5t-222 63.5h-107l-18 84l440 422q20 20 42.5 40t35.5 30l12 10v4q-41 -6 -117 -6h-530l24 127h842l-18 -94l-525 -498q47 -3 94.5 -14.5 t99 -38.5t91 -66t65 -102.5t25.5 -141.5q0 -99 -43 -193t-115.5 -163.5t-171.5 -111.5t-206 -42q-63 0 -122.5 11t-103 28t-81.5 38t-63.5 42.5t-43.5 38.5t-27 28z" />
<glyph unicode="4" horiz-adv-x="1226" d="M33 399l18 93l879 948h166l-178 -916h204l-24 -125h-205l-78 -399h-141l78 399h-719zM240 524h536l117 602l33 136h-4q-1 0 -13 -16.5t-34.5 -44t-43.5 -48.5z" />
<glyph unicode="5" horiz-adv-x="1157" d="M31 180l102 92q4 -7 11 -17.5t34 -38.5t59 -49t87.5 -38.5t117.5 -17.5q79 0 155.5 31t136.5 84t97 129.5t37 160.5q0 120 -86 195t-223 75q-69 0 -138 -19t-103 -39l-35 -19l-88 32l213 699h700l-25 -127h-571l-115 -365l-28 -82h4q11 6 30 14.5t75.5 23t111.5 14.5 q190 0 308 -112t118 -286q0 -148 -81 -275t-213 -198.5t-280 -71.5q-86 0 -160 21t-118 51t-76 60.5t-44 51.5z" />
<glyph unicode="6" horiz-adv-x="1228" d="M563 -25q-203 0 -319.5 142t-116.5 377q0 75 16 162.5t49.5 181t81 183.5t114 170.5t144 141t176 96t205.5 35.5q77 0 146.5 -15t100.5 -29l30 -15l-72 -119q-9 5 -26.5 12.5t-70.5 20t-106 12.5q-109 0 -208 -50t-173 -134t-127.5 -184t-84.5 -209h4q65 77 168 122.5 t208 45.5q179 0 283.5 -103t104.5 -276q0 -103 -37.5 -204t-104 -182t-167.5 -131.5t-218 -50.5zM561 109q161 0 273 125.5t112 304.5q0 119 -72 187.5t-200 68.5q-62 0 -131.5 -24t-129.5 -65.5t-99.5 -105t-39.5 -133.5q0 -90 31.5 -170t98.5 -134t157 -54z" />
<glyph unicode="7" horiz-adv-x="1071" d="M66 0l813 1180q24 35 50 68t40 49l14 16v4q-37 -4 -109 -4h-661l25 127h936l-19 -99l-930 -1341h-159z" />
<glyph unicode="8" horiz-adv-x="1247" d="M90 356q0 76 31.5 149.5t73 123t93.5 93.5t81.5 62.5t48.5 28.5q-135 100 -135 244q0 76 34.5 148.5t96 130.5t155 93t203.5 35q189 0 293 -85.5t104 -235.5q0 -62 -24.5 -129t-56 -115.5t-74.5 -97.5t-65.5 -70t-43.5 -39q162 -104 162 -260q0 -125 -74.5 -231 t-199 -166t-269.5 -60q-191 0 -312.5 102t-121.5 279zM918 430q0 38 -18 72t-43 58.5t-69 51.5t-80 44.5t-92 44t-90 44.5q-27 -15 -56.5 -34t-73 -56.5t-76 -78.5t-56.5 -98.5t-24 -117.5q0 -116 82.5 -185t203.5 -69q97 0 185.5 38.5t147.5 114.5t59 171zM430 1057 q0 -38 16.5 -71.5t37.5 -56.5t65 -50.5t72 -41.5t88 -42t86 -41q23 19 43 37t57 59.5t62.5 81t46 95t20.5 108.5q0 92 -69 145t-187 53q-146 0 -242 -81.5t-96 -194.5z" />
<glyph unicode="9" horiz-adv-x="1228" d="M82 35l72 119q10 -5 27 -12.5t70.5 -20t106.5 -12.5q87 0 169 33t146.5 89t119.5 130.5t93.5 156t63.5 168.5h-4q-61 -74 -164 -121t-211 -47q-180 0 -284.5 103t-104.5 276q0 103 38 203.5t104.5 182t168 131.5t218.5 50q203 0 318.5 -141.5t115.5 -376.5 q0 -75 -16 -162.5t-50 -181t-81 -183.5t-114 -170.5t-144 -141.5t-176 -96.5t-206 -35.5q-77 0 -146 15t-100 30zM594 645q62 0 132.5 24t131.5 65.5t101 105t40 133.5q0 90 -31.5 170t-98.5 134t-156 54q-161 0 -274 -125.5t-113 -304.5q0 -119 71 -187.5t197 -68.5z" />
<glyph unicode=":" horiz-adv-x="600" d="M266 860l33 170h166l-33 -170h-166zM98 0l33 170h166l-33 -170h-166z" />
<glyph unicode=";" horiz-adv-x="608" d="M279 860l32 170h166l-33 -170h-165zM-41 -199l188 367h160l-223 -367h-125z" />
<glyph unicode="&#x3c;" horiz-adv-x="1206" d="M94 530v103l926 414v-138l-752 -325v-4l752 -326v-137z" />
<glyph unicode="=" horiz-adv-x="1406" d="M215 700v119h954v-119h-954zM215 344v119h954v-119h-954z" />
<glyph unicode="&#x3e;" horiz-adv-x="1181" d="M150 117v137l751 326v4l-751 325v138l925 -414v-103z" />
<glyph unicode="?" horiz-adv-x="976" d="M262 377l19 92q14 69 48 129.5t77 104.5t92.5 84.5t96 78.5t84 77.5t60.5 90t23 107.5q0 85 -60.5 138.5t-162.5 53.5q-64 0 -131 -22t-102 -44l-34 -22l-59 113q6 4 17.5 11.5t48 26t74 33t92.5 26t108 11.5q161 0 259.5 -85.5t98.5 -225.5q0 -74 -24.5 -138.5 t-64 -111.5t-88 -89t-99.5 -81.5t-95 -78t-77.5 -88t-44.5 -103.5l-19 -88h-137zM180 0l33 162h160l-33 -162h-160z" />
<glyph unicode="@" horiz-adv-x="1624" d="M96 358q0 174 74.5 338.5t195 284.5t280 193t323.5 73q121 0 210 -25t140 -71t74.5 -102t23.5 -125q0 -26 -8 -80l-123 -629h146l-23 -115h-530q-163 0 -261 95t-98 241q0 84 38.5 166.5t102.5 145t151.5 101t180.5 38.5h285q4 24 4 39q0 89 -76 144.5t-231 55.5 q-143 0 -278.5 -64t-235.5 -168t-160.5 -244.5t-60.5 -287.5q0 -217 136 -356t363 -139l-22 -121q-268 0 -444.5 174t-176.5 438zM664 438q0 -97 63.5 -160t167.5 -63h254l108 563h-249q-135 0 -239.5 -103.5t-104.5 -236.5z" />
<glyph unicode="A" horiz-adv-x="1255" d="M66 0h-154l803 1440h155l248 -1440h-143l-76 459h-580zM383 582h496l-86 522l-23 186h-4q-53 -118 -90 -186z" />
<glyph unicode="B" horiz-adv-x="1284" d="M90 0l281 1440h463q102 0 172 -27q87 -34 134.5 -105t47.5 -171q0 -131 -68.5 -230.5t-181.5 -146.5v-4q81 -28 129.5 -103.5t48.5 -179.5q0 -152 -78.5 -265.5t-206.5 -168.5q-91 -39 -204 -39h-537zM391 815h348q124 0 212.5 88t88.5 221q0 88 -53 138.5t-151 50.5 h-349zM256 127h369q84 0 149 29q89 41 142 124t53 193q0 101 -63.5 160t-172.5 59h-366z" />
<glyph unicode="C" horiz-adv-x="1488" d="M121 594q0 175 71.5 336.5t188.5 278t273.5 186t320.5 69.5q99 0 188 -19t145 -46.5t97.5 -55t59.5 -46.5l18 -19l-90 -100q-6 6 -17 16.5t-50.5 37t-83.5 46.5t-115.5 36.5t-147.5 16.5q-140 0 -271.5 -59t-227.5 -158t-154 -234.5t-58 -281.5q0 -215 129.5 -352 t347.5 -137q81 0 163 19.5t141 47.5t106 56t71 48l23 19l70 -111q-10 -9 -28 -23t-77.5 -51t-123 -65t-159 -51t-190.5 -23q-190 0 -331.5 80t-215 220t-73.5 319z" />
<glyph unicode="D" horiz-adv-x="1511" d="M90 0l281 1440h436q293 0 459 -146.5t166 -412.5q0 -180 -63 -341.5t-174 -280.5t-271 -189t-344 -70h-490zM254 127h309q206 0 371 98t257.5 268t92.5 379q0 212 -129.5 326.5t-359.5 114.5h-308z" />
<glyph unicode="E" horiz-adv-x="1163" d="M90 0l281 1440h811l-27 -127h-668l-102 -525h547l-25 -126h-545l-106 -535h705l-23 -127h-848z" />
<glyph unicode="F" horiz-adv-x="1056" d="M90 0l281 1440h757l-24 -127h-617l-104 -541h528l-24 -127h-529l-127 -645h-141z" />
<glyph unicode="G" horiz-adv-x="1550" d="M119 578q0 141 45 275.5t126.5 243.5t188 192.5t237 129t265.5 45.5q95 0 182 -17t142.5 -41.5t98 -49t60.5 -41.5l19 -17l-90 -102q-6 5 -17.5 14.5t-51 32.5t-83.5 41t-114 32.5t-144 14.5q-192 0 -357.5 -103t-262.5 -275.5t-97 -368.5q0 -214 129 -344.5t338 -130.5 q80 0 161 23t139 55.5t104.5 65.5t70.5 56l23 23l47 229h-246l25 127h379l-133 -688h-132l23 111l14 61h-4q-8 -8 -23 -21.5t-64 -47.5t-102 -59.5t-134.5 -47t-163.5 -21.5q-263 0 -430.5 168.5t-167.5 434.5z" />
<glyph unicode="H" horiz-adv-x="1536" d="M90 0l281 1440h141l-127 -656h834l129 656h141l-281 -1440h-143l129 657h-834l-129 -657h-141z" />
<glyph unicode="I" horiz-adv-x="559" d="M90 0l281 1440h141l-281 -1440h-141z" />
<glyph unicode="J" horiz-adv-x="1060" d="M14 301q0 45 11 107l10 53h141l-8 -51q-10 -52 -10 -88q0 -213 213 -213q50 0 97 15.5t92.5 48t80 92t49.5 138.5l174 910h-350l25 127h491l-203 -1051q-21 -110 -69 -192.5t-112 -129.5t-133.5 -69.5t-143.5 -22.5q-72 0 -134.5 19t-112.5 57t-79 102t-29 148z" />
<glyph unicode="K" horiz-adv-x="1228" d="M90 0l281 1440h141l-121 -625h234l518 625h168l-572 -686v-4l314 -750h-154l-283 688h-249l-136 -688h-141z" />
<glyph unicode="L" horiz-adv-x="1044" d="M90 0l281 1440h141l-256 -1313h668l-27 -127h-807z" />
<glyph unicode="M" horiz-adv-x="1746" d="M43 0l395 1440h144l211 -846l36 -176h5q57 100 104 176l543 846h149l-166 -1440h-139l119 1008q4 36 11.5 85t14 82t7.5 33h-4q-66 -126 -115 -200l-481 -740h-134l-196 740q-8 32 -17.5 83t-15.5 86l-6 35h-4q-21 -126 -41 -204l-279 -1008h-141z" />
<glyph unicode="N" horiz-adv-x="1529" d="M90 0l281 1440h127l532 -1037q16 -32 36 -80.5t32 -80.5l12 -33h4q11 118 25 194l202 1037h142l-281 -1440h-127l-532 1036q-16 32 -36.5 81t-32.5 81l-13 33h-4q-11 -119 -25 -195l-201 -1036h-141z" />
<glyph unicode="O" horiz-adv-x="1683" d="M119 598q0 171 74 332.5t193.5 277.5t277 186t319.5 70q278 0 452.5 -170t174.5 -436q0 -140 -48 -274.5t-132 -243t-193 -191.5t-237 -128.5t-257 -45.5q-278 0 -451 175t-173 448zM264 602q0 -217 134 -355t347 -138q131 0 261 59.5t230.5 158.5t163 237.5t62.5 287.5 q0 211 -134 345t-347 134q-89 0 -178 -26.5t-168 -73.5t-147.5 -114.5t-118 -147t-77.5 -174.5t-28 -193z" />
<glyph unicode="P" horiz-adv-x="1228" d="M90 0l281 1440h471q142 0 227 -49q80 -43 125 -122.5t45 -181.5q0 -165 -86 -293.5t-223 -187.5q-100 -41 -209 -41h-379l-111 -565h-141zM367 692h340q94 0 167 33q99 44 158.5 137t59.5 219q0 110 -70.5 171t-196.5 61h-338z" />
<glyph unicode="Q" horiz-adv-x="1708" d="M119 598q0 137 47.5 269.5t131 238.5t192 187.5t237 126t258.5 44.5q184 0 326.5 -78t220.5 -215.5t78 -312.5q0 -182 -76.5 -345t-208.5 -288l139 -174l-94 -84l-139 178q-226 -170 -486 -170q-279 0 -452.5 175t-173.5 448zM266 602q0 -217 133.5 -355t345.5 -138 q216 0 402 141l-143 182l94 84l143 -186q103 104 162 239.5t59 282.5q0 211 -133 345t-346 134q-134 0 -264.5 -58t-230 -155t-161 -233.5t-61.5 -282.5z" />
<glyph unicode="R" horiz-adv-x="1282" d="M90 0l281 1440h473q126 0 200 -39q80 -39 125 -115t45 -176q0 -170 -101.5 -301t-262.5 -168v-4q10 -18 24 -59l205 -578h-151l-211 606h-367l-117 -606h-143zM375 733h334q151 0 255.5 101t104.5 262q0 101 -64 159t-178 58h-340z" />
<glyph unicode="S" horiz-adv-x="1101" d="M20 160l95 100q5 -6 14.5 -16t43 -36t71 -45.5t98 -35.5t125.5 -16q134 0 238 83t104 212q0 59 -33 107t-85.5 81.5t-116 64.5t-127 66t-116 75.5t-85.5 102t-33 137.5q0 110 66 207.5t182.5 157t253.5 59.5q73 0 139.5 -14.5t109 -35t74.5 -40.5t46 -34l14 -15l-84 -108 q-4 5 -12.5 12.5t-37.5 26.5t-61 34t-82.5 27t-103.5 12q-151 0 -255 -90t-104 -199q0 -53 33 -96.5t85.5 -75.5t116 -63t127 -66.5t116 -78.5t85.5 -108t33 -146q0 -84 -37 -163t-100.5 -138t-155 -94.5t-194.5 -35.5q-86 0 -163.5 19t-127 46t-86.5 54.5t-54 46.5z" />
<glyph unicode="T" horiz-adv-x="1191" d="M401 0l256 1313h-514l23 127h1173l-22 -127h-518l-254 -1313h-144z" />
<glyph unicode="U" horiz-adv-x="1476" d="M156 393q0 55 12 117l182 930h142l-183 -934q-10 -49 -10 -96q0 -142 90.5 -221.5t251.5 -79.5q186 0 317.5 107t167.5 294l183 930h143l-188 -948q-47 -239 -214.5 -378t-410.5 -139q-220 0 -351.5 111t-131.5 307z" />
<glyph unicode="V" horiz-adv-x="1259" d="M428 0l-250 1440h146l184 -1094q5 -33 9.5 -79.5t6.5 -76.5l2 -30h4q1 -1 15 29t37 77.5t41 79.5l612 1094h160l-813 -1440h-154z" />
<glyph unicode="W" horiz-adv-x="1908" d="M334 0l-98 1440h145l63 -1118l2 -154h5q32 80 67 154l537 1118h141l72 -1118l4 -154h4q30 82 61 154l498 1118h156l-654 -1440h-172l-69 1014q-3 37 -4 91t0 89v35h-5q-51 -121 -94 -213l-491 -1016h-168z" />
<glyph unicode="X" horiz-adv-x="1198" d="M-66 0l605 758l-285 682h154l170 -422l63 -164h4q58 86 117 162l340 424h170l-561 -697l319 -743h-151l-207 492l-60 159h-4q-55 -81 -114 -155l-396 -496h-164z" />
<glyph unicode="Y" horiz-adv-x="1155" d="M377 0l123 618l-324 822h152l202 -522q13 -34 27.5 -77t22.5 -69l8 -27h4q60 94 119 170l405 525h172l-649 -826l-121 -614h-141z" />
<glyph unicode="Z" horiz-adv-x="1210" d="M-35 0l21 100l942 1082q30 35 62 67.5t48 48.5l17 15v4q-33 -4 -105 -4h-690l27 127h979l-21 -101l-944 -1081q-30 -35 -62 -67.5t-49 -48.5l-16 -15v-4q35 4 105 4h737l-25 -127h-1026z" />
<glyph unicode="[" horiz-adv-x="581" d="M213 -80h147l-22 -115h-279l330 1690h277l-23 -115h-149z" />
<glyph unicode="\" horiz-adv-x="790" d="M449 -86l-207 1606h125l206 -1606h-124z" />
<glyph unicode="]" horiz-adv-x="569" d="M-59 -80h149l283 1460h-150l23 115h278l-327 -1690h-279z" />
<glyph unicode="^" horiz-adv-x="1241" d="M31 512l405 928h96l406 -928h-133l-320 758l-319 -758h-135z" />
<glyph unicode="_" horiz-adv-x="1187" d="M-53 0h1057l-23 -119h-1057z" />
<glyph unicode="`" horiz-adv-x="1032" d="M410 1540l-129 244h151l96 -244h-118z" />
<glyph unicode="a" horiz-adv-x="1067" d="M16 236q0 69 24 127t63.5 98.5t96.5 72t117.5 51t131.5 31.5t133.5 16.5t128.5 4.5h65q15 69 15 108q0 84 -50 134.5t-161 50.5q-76 0 -154 -25t-118 -49l-40 -25l-45 117q6 4 18 11.5t50 26t78.5 32.5t101.5 25.5t121 11.5q160 0 250 -72.5t90 -220.5q0 -52 -12 -113 l-127 -649h-134l25 119l23 88h-5q2 0 -13 -24t-46.5 -58t-74.5 -68t-107.5 -58t-134.5 -24q-130 0 -220 70.5t-90 190.5zM160 254q0 -68 50.5 -114t147.5 -46q92 0 177 61t139.5 149t75.5 181l8 37h-60q-45 0 -84.5 -1.5t-96.5 -8t-103.5 -17t-95.5 -31t-82 -48t-54.5 -69 t-21.5 -93.5z" />
<glyph unicode="b" horiz-adv-x="1210" d="M51 0l279 1440h139l-96 -498q-4 -21 -11 -44.5t-12 -36.5l-4 -13h4q56 92 157.5 149.5t215.5 57.5q180 0 279.5 -111t99.5 -303q0 -143 -47.5 -269t-125.5 -212t-179.5 -135.5t-208.5 -49.5q-116 0 -203.5 55t-120.5 156h-4q0 -43 -10 -92l-19 -94h-133zM274 391 q0 -128 64.5 -209.5t193.5 -81.5q76 0 151 37t136.5 103t100 168.5t38.5 222.5q0 138 -69.5 217.5t-190.5 79.5q-122 0 -221 -79.5t-151 -201.5t-52 -256z" />
<glyph unicode="c" horiz-adv-x="1124" d="M68 414q0 136 53.5 257t141.5 204t202.5 131.5t234.5 48.5q73 0 138 -15t106 -37t72 -44t44 -37l13 -15l-84 -94q-4 5 -11.5 12.5t-34.5 27.5t-57 35t-78.5 27.5t-100.5 12.5q-123 0 -236.5 -63.5t-186.5 -181t-73 -257.5q0 -147 93.5 -236.5t242.5 -89.5q59 0 118 15 t100.5 36.5t75 43t49.5 36.5l17 15l43 -117q-7 -6 -19 -16.5t-53.5 -37t-86 -47t-113 -37t-137.5 -16.5q-211 0 -342 121t-131 318z" />
<glyph unicode="d" horiz-adv-x="1210" d="M70 389q0 143 47 269t125.5 212t181 135.5t211.5 49.5q112 0 198 -53t119 -152h4q1 43 9 86l98 504h139l-278 -1440h-136l21 109q4 20 9.5 40t9.5 31l3 10h-4q-56 -91 -154.5 -153t-219.5 -62q-184 0 -283.5 110.5t-99.5 303.5zM213 397q0 -138 69.5 -217.5t192.5 -79.5 q122 0 221 82t150 204t51 251q0 128 -64.5 209.5t-191.5 81.5q-76 0 -151.5 -37t-137.5 -103t-100.5 -168.5t-38.5 -222.5z" />
<glyph unicode="e" horiz-adv-x="1132" d="M70 410q0 125 45.5 242.5t123.5 206.5t190.5 142.5t238.5 53.5q186 0 281 -102t95 -271q0 -36 -7.5 -79.5t-14.5 -68.5l-8 -26h-791q-8 -41 -8 -88q0 -139 86 -229.5t244 -90.5q52 0 106 13t93.5 31t71.5 36.5t48 31.5l17 13l45 -114q-7 -6 -19.5 -15t-53 -32.5 t-83.5 -41.5t-105.5 -32.5t-123.5 -14.5q-212 0 -341.5 120t-129.5 315zM250 623h645q6 34 6 71q0 119 -64.5 181.5t-168.5 62.5q-133 0 -248.5 -83.5t-169.5 -231.5z" />
<glyph unicode="f" horiz-adv-x="661" d="M102 0l177 903h-129l22 119h129l10 53q18 95 58 166.5t84.5 110t100 62t95 30t78.5 6.5l76 -4l-27 -125q-18 4 -47 4t-56 -4.5t-63.5 -20.5t-66 -42.5t-55.5 -76t-39 -114.5l-11 -45h264l-22 -119h-262l-176 -903h-140z" />
<glyph unicode="g" horiz-adv-x="1193" d="M78 -238q13 -8 36 -19t94 -29.5t140 -18.5q159 0 273 80.5t149 242.5l21 95q3 17 8.5 37.5t9.5 32.5l4 12h-4q-127 -189 -342 -189q-182 0 -286.5 111.5t-104.5 298.5q0 88 22 177.5t67.5 172.5t108.5 147.5t152 103t190 38.5q115 0 206 -44t122 -139h4q-2 23 2 46 l23 112h135l-199 -1018q-23 -119 -78 -207t-131.5 -138t-161.5 -73.5t-180 -23.5q-189 0 -348 86zM219 424q0 -136 71 -214.5t199 -78.5q78 0 145.5 34.5t113.5 90.5t78.5 128t47.5 146.5t15 147.5q0 250 -262 250q-95 0 -174 -44t-129 -116t-77.5 -161t-27.5 -183z" />
<glyph unicode="h" horiz-adv-x="1216" d="M49 0l281 1440h139l-107 -557l-24 -92h4q21 42 62 86t97.5 85t133.5 67t158 26q141 0 216.5 -68t75.5 -199q0 -55 -16 -137l-125 -651h-139l119 616q16 94 16 138q0 85 -47.5 127.5t-128.5 42.5q-84 0 -165.5 -36.5t-145 -97.5t-109.5 -142.5t-63 -170.5l-93 -477h-139z " />
<glyph unicode="i" horiz-adv-x="475" d="M289 1266l37 174h149l-35 -174h-151zM49 0l201 1030h139l-201 -1030h-139z" />
<glyph unicode="j" horiz-adv-x="475" d="M289 1266l35 174h149l-33 -174h-151zM45 -33l205 1063h139l-207 -1067q-19 -98 -57.5 -171.5t-81.5 -113t-96.5 -63.5t-93 -30.5t-80.5 -6.5q-22 0 -42.5 1.5t-30.5 2.5l-9 2l24 121q16 -2 45 -2q28 0 55.5 4.5t64.5 21t67 43.5t57.5 77.5t40.5 117.5z" />
<glyph unicode="k" horiz-adv-x="1026" d="M49 0l283 1440h139l-158 -803h160l385 393h176l-448 -455v-4l280 -571h-153l-246 514h-176l-103 -514h-139z" />
<glyph unicode="l" horiz-adv-x="505" d="M80 182q0 35 8 74l231 1184h140l-228 -1166q-6 -35 -6 -63q0 -31 8.5 -50.5t24.5 -28t30 -11t34 -2.5l30 2l-26 -125q-22 -4 -47 -4q-27 0 -52 4t-52.5 17t-47.5 33t-33.5 55t-13.5 81z" />
<glyph unicode="m" horiz-adv-x="1875" d="M51 0l199 1030h137l-29 -151q-3 -20 -10.5 -43.5t-12 -36.5t-3.5 -13h4q60 112 178.5 190.5t247.5 78.5q137 0 200.5 -65.5t69.5 -192.5h4q62 111 178.5 184.5t243.5 73.5q141 0 214 -69t73 -200q0 -57 -16 -139l-125 -647h-140l119 608q16 78 16 142q0 178 -178 178 q-80 0 -154 -40t-128 -104t-92 -141t-54 -156l-96 -487h-139l119 608q16 78 16 146q0 174 -170 174q-103 0 -198.5 -66t-157 -166.5t-82.5 -210.5l-95 -485h-139z" />
<glyph unicode="n" horiz-adv-x="1216" d="M49 0l201 1030h135l-27 -147q-4 -21 -10.5 -45t-11.5 -38l-4 -14h4q21 42 62 86.5t98.5 86.5t135.5 69t159 27q141 0 217.5 -68t76.5 -199q0 -55 -16 -137l-127 -651h-139l119 616q16 75 16 138q0 85 -47 127.5t-129 42.5q-84 0 -165.5 -36.5t-144.5 -97.5t-108.5 -142.5 t-62.5 -170.5l-93 -477h-139z" />
<glyph unicode="o" horiz-adv-x="1275" d="M68 426q0 128 53.5 246t141.5 201t203 132.5t234 49.5q209 0 340 -124.5t131 -320.5q0 -130 -54.5 -249t-142.5 -202.5t-202.5 -133.5t-232.5 -50q-210 0 -340.5 126t-130.5 325zM211 430q0 -145 91.5 -237.5t238.5 -92.5q89 0 177 39.5t156.5 106t111 161t42.5 197.5 q0 143 -92 233.5t-238 90.5q-122 0 -234 -65.5t-182.5 -181.5t-70.5 -251z" />
<glyph unicode="p" horiz-adv-x="1210" d="M205 84l-96 -494h-138l279 1440h133l-18 -100q-4 -20 -10 -42t-11 -34l-4 -12h4q59 93 156 153t221 60q181 0 281 -110.5t100 -303.5q0 -143 -47 -269t-124.5 -212t-178.5 -135.5t-207 -49.5q-116 0 -203 53t-121 154h-4q-2 -45 -12 -98zM274 397q0 -129 66 -213t192 -84 q61 0 121.5 23t115.5 69t97 108.5t67 148.5t25 182q0 139 -69 218t-191 79q-91 0 -172 -47t-135 -123t-85.5 -171t-31.5 -190z" />
<glyph unicode="q" horiz-adv-x="1210" d="M70 387q0 144 47.5 270.5t126 212.5t181.5 135.5t212 49.5q117 0 201 -53.5t116 -153.5h4q3 33 11 78l20 104h133l-278 -1440h-139l96 496q4 24 10.5 48.5t10.5 37.5l5 12h-4q-53 -88 -149 -148.5t-221 -60.5q-182 0 -282.5 110.5t-100.5 301.5zM213 397 q0 -138 70 -217.5t192 -79.5t221.5 82t151 204t51.5 251q0 128 -64.5 209.5t-191.5 81.5q-76 0 -152 -37t-138 -103t-101 -168.5t-39 -222.5z" />
<glyph unicode="r" horiz-adv-x="729" d="M51 0l199 1030h137l-37 -182l-24 -90h4q57 120 157 201t220 81q37 0 61 -6l-27 -137q-28 4 -51 4q-64 0 -125 -32.5t-108.5 -85t-87.5 -120.5t-66 -138.5t-39 -139.5l-74 -385h-139z" />
<glyph unicode="s" horiz-adv-x="905" d="M-6 125l84 92q4 -5 12 -13t35.5 -28t59 -35.5t82 -28t104.5 -12.5q59 0 113 20.5t92 65t38 103.5q0 37 -26 67.5t-67 53t-90.5 43.5t-99.5 46.5t-91 56.5t-67 78.5t-26 106.5q0 74 33 135t87.5 99.5t121.5 59t137 20.5q61 0 116.5 -11.5t90.5 -28t61.5 -33.5t37.5 -28 l12 -12l-78 -98l-9 9t-28 21t-48 26t-68.5 20.5t-88.5 9.5q-57 0 -109 -17.5t-91 -61.5t-39 -106q0 -38 26 -68.5t67 -53t91 -44t100.5 -47t91.5 -56.5t67 -79t26 -108q0 -134 -112 -224t-269 -90q-72 0 -137 15.5t-107.5 37.5t-74.5 44t-46 38z" />
<glyph unicode="t" horiz-adv-x="681" d="M152 283q0 40 10 112l100 508h-135l23 119h137l57 293h137l-59 -293h260l-23 -119h-258l-98 -510q-10 -58 -10 -92q0 -47 11.5 -81.5t28.5 -53.5t41.5 -30.5t46.5 -15t48 -3.5l59 4l-24 -125q-24 -4 -53 -4q-57 0 -104 11.5t-94 41t-74 90t-27 148.5z" />
<glyph unicode="u" horiz-adv-x="1206" d="M94 242q0 50 17 137l125 651h139l-119 -612q-14 -74 -14 -142q0 -81 40.5 -125.5t139.5 -44.5q111 0 212.5 66.5t167 169t87.5 215.5l92 473h139l-200 -1030h-138l29 147l27 97h-4q-18 -33 -45 -67.5t-69.5 -71t-91.5 -65t-113 -47t-132 -18.5q-127 0 -208 64.5 t-81 202.5z" />
<glyph unicode="v" horiz-adv-x="978" d="M291 0l-195 1030h140l135 -760q4 -20 7 -51t4 -53l1 -21h4q33 72 64 125l430 760h151l-594 -1030h-147z" />
<glyph unicode="w" horiz-adv-x="1642" d="M262 0l-147 1030h139l100 -772l8 -111h5q28 60 55 111l399 768h140l104 -768l10 -111h4q24 58 51 111l402 772h149l-546 -1030h-152l-111 739l-10 111h-4q-26 -62 -53 -111l-391 -739h-152z" />
<glyph unicode="x" horiz-adv-x="1001" d="M-63 0l471 543l-250 487h155l162 -342l25 -61h2q22 30 45 57l289 346h168l-435 -500l269 -530h-150l-186 383l-27 59h-4q-16 -26 -39 -55l-330 -387h-165z" />
<glyph unicode="y" horiz-adv-x="1021" d="M-115 -264q5 -5 14 -11.5t39 -18t62 -11.5q125 0 229 166l93 149l-234 1020h145l160 -770l19 -108h2q28 57 57 106l447 772h157l-753 -1249q-61 -102 -143 -156.5t-175 -54.5q-52 0 -99 15t-68 31l-21 15z" />
<glyph unicode="z" horiz-adv-x="1034" d="M-33 0l17 90l706 723q21 22 45.5 45.5t38.5 35.5l14 13v4q-32 -4 -98 -4h-524l24 123h820l-19 -92l-708 -721q-22 -22 -47 -45.5t-40 -35.5l-14 -13v-4q35 4 103 4h567l-23 -123h-862z" />
<glyph unicode="{" horiz-adv-x="686" d="M182 61q0 45 13 115l36 189q7 40 7 61q0 44 -14 77.5t-34 50.5t-40 28t-34 14l-14 2l25 127q7 1 19.5 3.5t45.5 18t60 38.5t55 69.5t39 106.5l35 174q71 360 375 360h30l-20 -115h-18q-19 0 -37.5 -3t-51 -17.5t-59 -39.5t-52.5 -76t-40 -120l-41 -206 q-11 -59 -37.5 -107t-56 -74t-57.5 -44t-46 -23l-18 -6v-5q5 -2 13 -6.5t28.5 -22t36 -39t28.5 -58.5t13 -80q0 -25 -6 -60l-43 -219q-11 -64 -11 -90q0 -44 12.5 -77t29 -49.5t40 -26t38.5 -11.5t32 -2h18l-22 -115q-13 -2 -33 -2q-23 0 -48.5 4.5t-62.5 20.5t-65 42.5 t-48 76.5t-20 116z" />
<glyph unicode="|" horiz-adv-x="630" d="M256 -322v1936h129v-1936h-129z" />
<glyph unicode="}" horiz-adv-x="679" d="M-49 -82q20 0 39 3t51 17.5t57.5 39.5t51 76t38.5 120l45 229q12 62 38.5 111.5t56 76t57.5 44.5t46 23l18 6v4q-5 2 -13 6.5t-28.5 21.5t-36 38t-28.5 57t-13 77q0 26 6 60l39 196q10 58 10 90q0 44 -12.5 77t-29 49.5t-40 26t-38.5 11.5t-32 2h-18l23 115q14 2 32 2 q23 0 48.5 -4.5t62.5 -20.5t65 -42.5t48 -76.5t20 -116q0 -51 -12 -115l-33 -164q-6 -38 -6 -63q0 -44 14 -77.5t33.5 -50.5t39.5 -28t34 -13l14 -3l-25 -127q-7 -1 -19 -3.5t-45 -17.5t-60 -38t-55 -69.5t-40 -107.5l-39 -196q-72 -363 -374 -363l-31 2l22 115h19z" />
<glyph unicode="~" horiz-adv-x="1206" d="M131 428q0 162 69.5 239.5t190.5 77.5q62 0 111 -22t81 -53.5t61 -62.5t68 -53t87 -22q43 0 74 20.5t45 54.5t20 65.5t6 64.5h121q0 -162 -69.5 -239.5t-190.5 -77.5q-62 0 -111 22t-81 53t-61 62.5t-68 53.5t-87 22q-43 0 -74 -20.5t-45 -54.5t-20 -65.5t-6 -64.5h-121z " />
<glyph unicode="&#xa1;" horiz-adv-x="557" d="M248 868l33 162h161l-34 -162h-160zM8 -410l215 1063h131l-202 -1063h-144z" />
<glyph unicode="&#xa2;" horiz-adv-x="1173" d="M430 -27l33 177q-155 25 -244.5 139t-89.5 297q0 123 40 244.5t110.5 221t176.5 165.5t228 75l35 172h115l-33 -176q56 -9 104 -30t80 -48t57.5 -57.5t40 -59.5t24 -52.5t12.5 -37.5l3 -14l-131 -49q-2 9 -5.5 24t-22.5 53t-45.5 67t-78 53t-116.5 24q-132 0 -236 -81.5 t-158.5 -213t-54.5 -284.5q0 -139 69.5 -220t209.5 -81q63 0 122 22.5t98.5 54.5t70.5 64.5t45 55.5l14 22l127 -54q-6 -12 -18.5 -31t-55.5 -69t-91.5 -89.5t-126 -74t-160.5 -39.5l-33 -170h-115z" />
<glyph unicode="&#xa3;" horiz-adv-x="1187" d="M168 668l22 112h89l63 318q31 156 163.5 261t309.5 105q57 0 111 -12.5t89 -31t62.5 -36.5t40.5 -30l12 -13l-98 -92q-3 3 -9.5 8.5t-27.5 20t-45 25t-61 19.5t-76 9q-130 0 -219.5 -73t-110.5 -181l-59 -297h393l-22 -112h-392l-106 -541h694l-24 -127h-965l25 127h127 l104 541h-90z" />
<glyph unicode="&#xa5;" horiz-adv-x="1224" d="M418 0l86 432h-334l18 105h334l19 79l-39 101h-277l21 104h217l-238 619h154l192 -512q14 -36 29 -81.5t23 -73.5l8 -28h4q56 101 119 183l393 512h170l-479 -619h215l-21 -104h-274l-74 -101l-18 -79h329l-18 -105h-330l-86 -432h-143z" />
<glyph unicode="&#xa7;" horiz-adv-x="849" d="M201 174l37 897q4 105 51 193.5t137.5 144t208.5 55.5q43 0 83.5 -9.5t67.5 -22.5t48 -26t30 -22l10 -10l-83 -88q-7 6 -19.5 15t-53.5 24.5t-85 15.5q-121 0 -194.5 -80t-78.5 -202l-36 -885h-123zM76 51q6 -6 18.5 -15t52.5 -24.5t84 -15.5q122 0 195 79.5t78 200.5 l39 887h123l-39 -897q-6 -163 -114 -278t-282 -115q-43 0 -83.5 9.5t-67.5 22.5t-48 26t-30 23l-10 9z" />
<glyph unicode="&#xa8;" horiz-adv-x="1032" d="M485 1608l35 176h127l-35 -176h-127zM176 1608l35 176h125l-33 -176h-127z" />
<glyph unicode="&#xa9;" horiz-adv-x="1722" d="M152 721q0 152 57 290t154 237t230.5 157.5t280.5 58.5q150 0 286 -58.5t234.5 -157.5t156 -236.5t57.5 -290.5q0 -206 -98 -377.5t-266.5 -270t-369.5 -98.5q-147 0 -280.5 58.5t-230.5 157.5t-154 237.5t-57 292.5zM272 721q0 -176 79 -322t217.5 -229.5t305.5 -83.5 q171 0 312.5 83.5t222 229.5t80.5 322q0 175 -80.5 320t-222 229t-312.5 84q-167 0 -305.5 -84t-217.5 -229t-79 -320zM473 717q0 110 48 204.5t146 156t228 61.5q63 0 120.5 -19.5t95 -47.5t65.5 -56.5t40 -47.5l13 -20l-94 -63q-3 6 -10 15.5t-29.5 33.5t-48 43t-65.5 34 t-83 15q-142 0 -223.5 -90.5t-81.5 -216.5q0 -127 81 -217t224 -90q43 0 83 14.5t67 35t47 41.5t30 35l9 15l94 -64q-5 -8 -13.5 -20.5t-40 -45.5t-67 -58t-93.5 -45.5t-120 -20.5q-130 0 -228 60.5t-146 154t-48 203.5z" />
<glyph unicode="&#xaa;" horiz-adv-x="870" d="M426 782q-75 0 -134 44.5t-59 125.5q0 50 19 90t47 66t70 45t79 28.5t83 15t73.5 6.5t57.5 1h36q9 35 9 53q0 51 -30.5 79t-88.5 28q-42 0 -88.5 -14t-72.5 -28l-26 -15l-39 84q12 8 32.5 19.5t84 30.5t125.5 19q215 0 215 -190q0 -32 -12 -90l-76 -385h-108l20 100h-4 q-3 -5 -9 -12.5t-27 -27t-44 -34.5t-59 -27t-74 -12zM459 881q76 0 141.5 74t77.5 141l4 18h-27q-303 0 -303 -149q0 -37 27.5 -60.5t79.5 -23.5zM150 541l18 96h539l-19 -96h-538z" />
<glyph unicode="&#xab;" horiz-adv-x="1062" d="M713 158l-262 424l421 417h162l-440 -428l260 -413h-141zM354 158l-264 424l393 417h160l-407 -428l258 -413h-140z" />
<glyph unicode="&#xac;" horiz-adv-x="1306" d="M166 700v119h954v-495h-125v376h-829z" />
<glyph unicode="&#xad;" horiz-adv-x="884" d="M20 518l23 127h582l-25 -127h-580z" />
<glyph unicode="&#xae;" horiz-adv-x="1722" d="M152 721q0 152 57 290t154 237t230.5 157.5t280.5 58.5q150 0 286 -58.5t234.5 -157.5t156 -236.5t57.5 -290.5q0 -206 -98 -377.5t-266.5 -270t-369.5 -98.5q-147 0 -280.5 58.5t-230.5 157.5t-154 237.5t-57 292.5zM272 721q0 -176 79 -322t217.5 -229.5t305.5 -83.5 q171 0 312.5 83.5t222 229.5t80.5 322q0 175 -80.5 320t-222 229t-312.5 84q-167 0 -305.5 -84t-217.5 -229t-79 -320zM633 322v798h285q106 0 172.5 -65t66.5 -172q0 -84 -44 -140t-105 -71v-4q8 -10 26 -45l154 -301h-127l-160 323h-153v-323h-115zM748 735h149 q65 0 103 39.5t38 108.5q0 67 -38 104t-103 37h-149v-289z" />
<glyph unicode="&#xaf;" horiz-adv-x="1032" d="M147 1608l21 112h506l-21 -112h-506z" />
<glyph unicode="&#xb0;" horiz-adv-x="778" d="M459 893q-113 0 -183.5 70t-70.5 178q0 125 101.5 223t228.5 98q111 0 182 -70.5t71 -177.5q0 -126 -102 -223.5t-227 -97.5zM467 1008q78 0 139.5 60.5t61.5 141.5q0 59 -39.5 98.5t-100.5 39.5q-78 0 -140 -62t-62 -141q0 -59 39 -98t102 -39z" />
<glyph unicode="&#xb1;" horiz-adv-x="1437" d="M158 522v119h473v522h125v-522h471v-119h-471v-522h-125v522h-473zM195 -213h995v-119h-995v119z" />
<glyph unicode="&#xb2;" d="M0 866q2 83 34.5 152t83 116t110.5 87.5t120 75t109.5 70t80.5 81t31 98.5q0 55 -39 91t-102 36q-48 0 -99 -25t-77 -50l-27 -25l-65 78l13.5 13.5t37 30.5t59 39t75.5 30.5t89 13.5q118 0 185 -62t67 -162q0 -66 -26.5 -121.5t-70 -95t-96.5 -74t-109 -66t-105 -63.5 t-86.5 -74.5t-51.5 -90.5h449l-21 -103h-569z" />
<glyph unicode="&#xb3;" d="M311 846q-53 0 -103 14t-83.5 34t-59 39.5t-37.5 33.5l-12 14l78 72q3 -4 9 -11t27 -24.5t44.5 -30.5t61 -24t77.5 -11q86 0 152.5 61.5t66.5 151.5q0 65 -51 103.5t-121 38.5h-67l-19 63l248 236l62 51v4q-39 -6 -76 -6h-311l18 102h539l-15 -74l-299 -284 q33 -4 67 -18.5t67 -40.5t54 -70.5t21 -100.5q0 -128 -98 -225.5t-240 -97.5z" />
<glyph unicode="&#xb4;" horiz-adv-x="1032" d="M223 1540l191 244h172l-228 -244h-135z" />
<glyph unicode="&#xb6;" horiz-adv-x="1173" d="M449 -102l114 596q-162 0 -282.5 117.5t-120.5 291.5q0 142 82 267.5t212 197.5t269 72h512l-23 -127h-370l-275 -1415h-118zM694 -102l250 1292h117l-250 -1292h-117z" />
<glyph unicode="&#xb7;" horiz-adv-x="559" d="M174 504l33 170h164l-31 -170h-166z" />
<glyph unicode="&#xb8;" horiz-adv-x="1032" d="M221 -313q35 -11 82 -11t83 18.5t36 61.5q0 28 -28 44t-77 16l-30 -2l98 227l78 -14l-2 -17l-47 -123q49 -8 83.5 -42.5t34.5 -90.5q0 -86 -68 -130t-153 -44q-30 0 -57.5 3t-39.5 6l-13 3z" />
<glyph unicode="&#xb9;" d="M53 866l21 103h192l113 583l14 50h-4q-10 -17 -49 -50l-96 -77l-60 81l244 201h107l-154 -788h188l-18 -103h-498z" />
<glyph unicode="&#xba;" horiz-adv-x="966" d="M528 784q-130 0 -212.5 79t-82.5 204q0 105 57.5 197.5t148.5 145t190 52.5q130 0 213.5 -79t83.5 -201q0 -108 -58 -201t-149.5 -145t-190.5 -52zM532 889q108 0 194.5 84t86.5 203q0 82 -52.5 133t-135.5 51q-108 0 -193.5 -84t-85.5 -201q0 -84 51 -135t135 -51z M160 541l18 96h621l-19 -96h-620z" />
<glyph unicode="&#xbb;" horiz-adv-x="1062" d="M406 158l409 428l-260 413h141l265 -424l-394 -417h-161zM16 158l439 428l-260 413h141l264 -424l-422 -417h-162z" />
<glyph unicode="&#xbc;" horiz-adv-x="1933" d="M535 0h-129l966 1440h127zM113 549l20 102h193l112 584l15 49h-4q-11 -16 -50 -49l-96 -78l-59 82l243 201h107l-154 -789h189l-19 -102h-497zM1460 0l45 233h-436l14 78l545 580h119l-109 -555h134l-19 -103h-133l-47 -233h-113zM1235 336h291l53 278q4 24 13 56 t15 51.5t5 19.5h-4q-43 -55 -86 -100l-287 -301v-4z" />
<glyph unicode="&#xbd;" horiz-adv-x="1906" d="M537 0h-129l966 1440h127zM113 549l20 102h193l112 584l15 49h-4q-11 -16 -50 -49l-96 -78l-59 82l243 201h107l-154 -789h189l-19 -102h-497zM1090 0q2 83 34.5 152t83 116t110.5 87.5t120 75t109.5 70t80.5 81t31 98.5q0 55 -39 91t-102 36q-48 0 -99 -25t-77 -50 l-27 -25l-66 77l13.5 13.5t37.5 30.5t59 39t75.5 30.5t89.5 13.5q118 0 185 -61.5t67 -161.5q0 -66 -26.5 -121.5t-70 -95t-96.5 -74t-109 -66.5t-105 -64t-86.5 -74.5t-51.5 -90.5h448l-20 -102h-569z" />
<glyph unicode="&#xbe;" horiz-adv-x="1959" d="M561 0h-129l967 1440h127zM1487 0l45 233h-436l14 78l545 580h119l-109 -555h133l-18 -103h-133l-48 -233h-112zM1262 336h290l54 278q4 24 12.5 56t14.5 51.5t5 19.5h-4q-43 -55 -86 -100l-286 -301v-4zM393 528q-53 0 -103 14t-83.5 34t-59 40t-37.5 34l-12 14l78 71 q3 -4 9 -11t27 -24t44.5 -30t61 -24t77.5 -11q86 0 152.5 61.5t66.5 151.5q0 64 -51 102.5t-121 38.5h-67l-19 64l248 235l62 51v4q-39 -6 -76 -6h-311l18 103h539l-15 -74l-299 -285q33 -4 67 -18.5t67 -40t54 -70t21 -100.5q0 -128 -98.5 -226t-239.5 -98z" />
<glyph unicode="&#xbf;" horiz-adv-x="899" d="M496 868l32 162h160l-33 -162h-159zM-43 -119q0 74 24 138.5t64 111.5t88.5 89t99.5 81.5t95 78t78 88t45 103.5l18 82h137l-18 -88q-15 -69 -49.5 -129t-78 -103.5t-92.5 -84t-95 -78t-83.5 -77t-60.5 -90t-23 -107.5q0 -85 61 -139t163 -54q64 0 130.5 21.5t101.5 43.5 l34 21l59 -113q-6 -4 -17.5 -11.5t-48 -25.5t-74 -32t-92.5 -25.5t-108 -11.5q-162 0 -260 85t-98 226z" />
<glyph unicode="&#xc0;" horiz-adv-x="1255" d="M66 0h-154l803 1440h155l248 -1440h-143l-76 459h-580zM383 582h496l-86 522l-23 186h-4q-53 -118 -90 -186zM752 1540l-129 244h151l96 -244h-118z" />
<glyph unicode="&#xc1;" horiz-adv-x="1255" d="M66 0h-154l803 1440h155l248 -1440h-143l-76 459h-580zM383 582h496l-86 522l-23 186h-4q-53 -118 -90 -186zM741 1540l191 244h172l-227 -244h-136z" />
<glyph unicode="&#xc2;" horiz-adv-x="1255" d="M66 0h-154l803 1440h155l248 -1440h-143l-76 459h-580zM383 582h496l-86 522l-23 186h-4q-53 -118 -90 -186zM559 1540l219 244h154l123 -244h-129l-78 166h-4l-144 -166h-141z" />
<glyph unicode="&#xc3;" horiz-adv-x="1255" d="M66 0h-154l803 1440h155l248 -1440h-143l-76 459h-580zM383 582h496l-86 522l-23 186h-4q-53 -118 -90 -186zM510 1546q45 240 217 240q36 0 64.5 -15t47 -37t34.5 -44t36 -37t43 -15q78 0 105 142h110q-24 -121 -76.5 -180.5t-142.5 -59.5q-36 0 -64.5 15t-46.5 36.5 t-34.5 43t-36.5 36.5t-43 15q-41 0 -66.5 -44t-35.5 -96h-111z" />
<glyph unicode="&#xc4;" horiz-adv-x="1255" d="M66 0h-154l803 1440h155l248 -1440h-143l-76 459h-580zM383 582h496l-86 522l-23 186h-4q-53 -118 -90 -186zM920 1608l34 176h127l-34 -176h-127zM610 1608l35 176h125l-33 -176h-127z" />
<glyph unicode="&#xc5;" horiz-adv-x="1255" d="M66 0h-154l803 1440h155l248 -1440h-143l-76 459h-580zM383 582h496l-86 522l-23 186h-4q-53 -118 -90 -186zM821 1518q-65 0 -103 33.5t-38 93.5q0 68 52 115.5t120 47.5q65 0 103 -34t38 -95q0 -66 -53 -113.5t-119 -47.5zM823 1595q34 0 58 24.5t24 59.5 q0 23 -15.5 38.5t-39.5 15.5q-33 0 -57.5 -25t-24.5 -61q0 -24 14.5 -38t40.5 -14z" />
<glyph unicode="&#xc6;" horiz-adv-x="1755" d="M68 0h-160l870 1440h996l-25 -127h-670l-102 -525h547l-25 -126h-547l-104 -535h706l-24 -127h-848l129 664h-346zM856 1313l-317 -527h295l104 527h-82z" />
<glyph unicode="&#xc7;" horiz-adv-x="1492" d="M516 -313q35 -11 82 -11t83 18.5t36 61.5q0 28 -28 44t-77 16l-30 -2l71 168q-246 27 -387 194t-141 418q0 175 71.5 336.5t188.5 278t273.5 186t320.5 69.5q99 0 188 -19t145 -46.5t97.5 -55t59.5 -46.5l18 -19l-90 -100q-6 6 -17 16.5t-50.5 37t-83.5 46.5t-115.5 36.5 t-147.5 16.5q-140 0 -271.5 -59t-227.5 -158t-154 -234.5t-58 -281.5q0 -215 130 -352t348 -137q81 0 163 19.5t140.5 47.5t105.5 56t71 48l23 19l70 -111q-10 -9 -28 -23t-77.5 -51t-123 -65t-159 -51t-190.5 -23h-4l-32 -88q49 -8 83.5 -42.5t34.5 -90.5q0 -86 -68 -130 t-153 -44q-30 0 -57.5 3t-40.5 6l-12 3z" />
<glyph unicode="&#xc8;" horiz-adv-x="1163" d="M90 0l281 1440h811l-27 -127h-668l-102 -525h547l-25 -126h-545l-106 -535h705l-23 -127h-848zM756 1540l-129 244h151l96 -244h-118z" />
<glyph unicode="&#xc9;" horiz-adv-x="1163" d="M90 0l281 1440h811l-27 -127h-668l-102 -525h547l-25 -126h-545l-106 -535h705l-23 -127h-848zM748 1540l190 244h172l-227 -244h-135z" />
<glyph unicode="&#xca;" horiz-adv-x="1163" d="M90 0l281 1440h811l-27 -127h-668l-102 -525h547l-25 -126h-545l-106 -535h705l-23 -127h-848zM565 1540l219 244h154l123 -244h-129l-78 166h-4l-143 -166h-142z" />
<glyph unicode="&#xcb;" horiz-adv-x="1163" d="M90 0l281 1440h811l-27 -127h-668l-102 -525h547l-25 -126h-545l-106 -535h705l-23 -127h-848zM926 1608l35 176h126l-34 -176h-127zM616 1608l35 176h125l-33 -176h-127z" />
<glyph unicode="&#xcc;" horiz-adv-x="559" d="M90 0l281 1440h141l-281 -1440h-141zM401 1540l-129 244h152l96 -244h-119z" />
<glyph unicode="&#xcd;" horiz-adv-x="559" d="M90 0l281 1440h141l-281 -1440h-141zM389 1540l191 244h172l-228 -244h-135z" />
<glyph unicode="&#xce;" horiz-adv-x="559" d="M90 0l281 1440h141l-281 -1440h-141zM209 1540l219 244h154l123 -244h-130l-77 166h-4l-144 -166h-141z" />
<glyph unicode="&#xcf;" horiz-adv-x="559" d="M90 0l281 1440h141l-281 -1440h-141zM569 1608l35 176h127l-35 -176h-127zM260 1608l35 176h125l-33 -176h-127z" />
<glyph unicode="&#xd0;" horiz-adv-x="1540" d="M125 662l25 122h120l129 656h437q293 0 458.5 -146.5t165.5 -412.5q0 -180 -63 -341.5t-174 -280.5t-271.5 -189t-345.5 -70h-489l129 662h-121zM283 127h309q153 0 287.5 57.5t229.5 156.5t149.5 237t54.5 294q0 212 -130 326.5t-360 114.5h-307l-104 -529h344l-25 -122 h-344z" />
<glyph unicode="&#xd1;" horiz-adv-x="1529" d="M90 0l281 1440h127l532 -1037q16 -32 36 -80.5t32 -80.5l12 -33h4q11 118 25 194l202 1037h142l-281 -1440h-127l-532 1036q-16 32 -36.5 81t-32.5 81l-13 33h-4q-11 -119 -25 -195l-201 -1036h-141zM641 1546q45 240 217 240q36 0 64.5 -15t47 -37t34.5 -44t36 -37 t43 -15q78 0 105 142h110q-24 -121 -76.5 -180.5t-142.5 -59.5q-36 0 -64.5 15t-46.5 36.5t-34.5 43t-36.5 36.5t-43 15q-41 0 -66.5 -44t-35.5 -96h-111z" />
<glyph unicode="&#xd2;" horiz-adv-x="1683" d="M119 598q0 171 74 332.5t193.5 277.5t277 186t319.5 70q278 0 452.5 -170t174.5 -436q0 -140 -48 -274.5t-132 -243t-193 -191.5t-237 -128.5t-257 -45.5q-278 0 -451 175t-173 448zM264 602q0 -217 134 -355t347 -138q131 0 261 59.5t230.5 158.5t163 237.5t62.5 287.5 q0 211 -134 345t-347 134q-89 0 -178 -26.5t-168 -73.5t-147.5 -114.5t-118 -147t-77.5 -174.5t-28 -193zM956 1540l-129 244h152l96 -244h-119z" />
<glyph unicode="&#xd3;" horiz-adv-x="1683" d="M119 598q0 171 74 332.5t193.5 277.5t277 186t319.5 70q278 0 452.5 -170t174.5 -436q0 -140 -48 -274.5t-132 -243t-193 -191.5t-237 -128.5t-257 -45.5q-278 0 -451 175t-173 448zM264 602q0 -217 134 -355t347 -138q131 0 261 59.5t230.5 158.5t163 237.5t62.5 287.5 q0 211 -134 345t-347 134q-89 0 -178 -26.5t-168 -73.5t-147.5 -114.5t-118 -147t-77.5 -174.5t-28 -193zM946 1540l191 244h172l-228 -244h-135z" />
<glyph unicode="&#xd4;" horiz-adv-x="1683" d="M119 598q0 171 74 332.5t193.5 277.5t277 186t319.5 70q278 0 452.5 -170t174.5 -436q0 -140 -48 -274.5t-132 -243t-193 -191.5t-237 -128.5t-257 -45.5q-278 0 -451 175t-173 448zM264 602q0 -217 134 -355t347 -138q131 0 261 59.5t230.5 158.5t163 237.5t62.5 287.5 q0 211 -134 345t-347 134q-89 0 -178 -26.5t-168 -73.5t-147.5 -114.5t-118 -147t-77.5 -174.5t-28 -193zM764 1540l219 244h154l123 -244h-130l-77 166h-4l-144 -166h-141z" />
<glyph unicode="&#xd5;" horiz-adv-x="1683" d="M119 598q0 171 74 332.5t193.5 277.5t277 186t319.5 70q278 0 452.5 -170t174.5 -436q0 -140 -48 -274.5t-132 -243t-193 -191.5t-237 -128.5t-257 -45.5q-278 0 -451 175t-173 448zM264 602q0 -217 134 -355t347 -138q131 0 261 59.5t230.5 158.5t163 237.5t62.5 287.5 q0 211 -134 345t-347 134q-89 0 -178 -26.5t-168 -73.5t-147.5 -114.5t-118 -147t-77.5 -174.5t-28 -193zM715 1546q45 240 217 240q36 0 64.5 -15t47 -37t34.5 -44t36 -37t43 -15q78 0 105 142h110q-24 -121 -76.5 -180.5t-142.5 -59.5q-36 0 -64.5 15t-46.5 36.5t-34.5 43 t-36.5 36.5t-43 15q-41 0 -67 -44t-36 -96h-110z" />
<glyph unicode="&#xd6;" horiz-adv-x="1683" d="M119 598q0 171 74 332.5t193.5 277.5t277 186t319.5 70q278 0 452.5 -170t174.5 -436q0 -140 -48 -274.5t-132 -243t-193 -191.5t-237 -128.5t-257 -45.5q-278 0 -451 175t-173 448zM264 602q0 -217 134 -355t347 -138q131 0 261 59.5t230.5 158.5t163 237.5t62.5 287.5 q0 211 -134 345t-347 134q-89 0 -178 -26.5t-168 -73.5t-147.5 -114.5t-118 -147t-77.5 -174.5t-28 -193zM1124 1608l35 176h127l-35 -176h-127zM815 1608l35 176h125l-33 -176h-127z" />
<glyph unicode="&#xd7;" horiz-adv-x="1421" d="M184 84l443 498l-443 497l84 84l439 -493l438 493l84 -84l-445 -497l445 -498l-84 -84l-438 494l-439 -494z" />
<glyph unicode="&#xd8;" horiz-adv-x="1689" d="M121 598q0 137 47.5 269.5t131 238.5t192 187.5t237 126t258.5 44.5q226 0 383 -114l129 141l78 -66l-129 -141q164 -167 164 -426q0 -140 -47.5 -274.5t-131.5 -243t-192 -191.5t-236 -128.5t-257 -45.5q-229 0 -392 119l-131 -143l-80 63l136 148q-160 174 -160 436z M1464 852q0 193 -114 326l-897 -977q125 -92 295 -92q132 0 262 59.5t230 158.5t162 237.5t62 287.5zM268 602q0 -197 113 -332l893 975q-122 86 -289 86q-134 0 -264.5 -58t-230 -155t-161 -233.5t-61.5 -282.5z" />
<glyph unicode="&#xd9;" horiz-adv-x="1476" d="M156 393q0 55 12 117l182 930h142l-183 -934q-10 -49 -10 -96q0 -142 90.5 -221.5t251.5 -79.5q186 0 317.5 107t167.5 294l183 930h143l-188 -948q-47 -239 -214.5 -378t-410.5 -139q-220 0 -351.5 111t-131.5 307zM856 1540l-129 244h152l96 -244h-119z" />
<glyph unicode="&#xda;" horiz-adv-x="1476" d="M156 393q0 55 12 117l182 930h142l-183 -934q-10 -49 -10 -96q0 -142 90.5 -221.5t251.5 -79.5q186 0 317.5 107t167.5 294l183 930h143l-188 -948q-47 -239 -214.5 -378t-410.5 -139q-220 0 -351.5 111t-131.5 307zM846 1540l190 244h172l-227 -244h-135z" />
<glyph unicode="&#xdb;" horiz-adv-x="1476" d="M156 393q0 55 12 117l182 930h142l-183 -934q-10 -49 -10 -96q0 -142 90.5 -221.5t251.5 -79.5q186 0 317.5 107t167.5 294l183 930h143l-188 -948q-47 -239 -214.5 -378t-410.5 -139q-220 0 -351.5 111t-131.5 307zM664 1540l219 244h153l123 -244h-129l-78 166h-4 l-143 -166h-141z" />
<glyph unicode="&#xdc;" horiz-adv-x="1476" d="M156 393q0 55 12 117l182 930h142l-183 -934q-10 -49 -10 -96q0 -142 90.5 -221.5t251.5 -79.5q186 0 317.5 107t167.5 294l183 930h143l-188 -948q-47 -239 -214.5 -378t-410.5 -139q-220 0 -351.5 111t-131.5 307zM1024 1608l35 176h127l-35 -176h-127zM715 1608 l35 176h124l-32 -176h-127z" />
<glyph unicode="&#xdd;" horiz-adv-x="1155" d="M377 0l123 618l-324 822h152l202 -522q13 -34 27.5 -77t22.5 -69l8 -27h4q60 94 119 170l405 525h172l-649 -826l-121 -614h-141zM676 1540l190 244h172l-227 -244h-135z" />
<glyph unicode="&#xde;" horiz-adv-x="1230" d="M90 0l283 1440h141l-51 -256h332q142 0 227 -49q80 -43 124 -122.5t44 -181.5q0 -164 -85.5 -293t-221.5 -188q-93 -41 -211 -41h-377l-62 -309h-143zM317 436h340q95 0 168 33q99 43 158 135.5t59 220.5q0 109 -70 170.5t-194 61.5h-340z" />
<glyph unicode="&#xdf;" horiz-adv-x="1175" d="M51 0l213 1104q22 112 95 196t167.5 124t194.5 40q154 0 243 -76t89 -192q0 -68 -32.5 -126.5t-78.5 -98.5t-92 -76t-78.5 -75t-32.5 -79q0 -36 32.5 -73t78.5 -73t92 -75.5t78.5 -94.5t32.5 -116q0 -133 -111 -228t-258 -95q-88 0 -166.5 16.5t-113.5 32.5l-35 16 l26 129q5 -3 13.5 -7.5t36.5 -16.5t58.5 -21t77.5 -16.5t95 -7.5q40 0 79.5 12t74.5 34.5t57 61.5t22 88q0 40 -23.5 78.5t-58.5 68t-75.5 63t-75.5 63.5t-58.5 70.5t-23.5 82.5q0 48 23 93t58 77t75.5 67.5t75.5 65t58 69.5t23 81q0 62 -48.5 106.5t-139.5 44.5 q-70 0 -135 -28.5t-116 -89.5t-67 -142l-211 -1077h-139z" />
<glyph unicode="&#xe0;" horiz-adv-x="1067" d="M16 236q0 69 24 127t63.5 98.5t96.5 72t117.5 51t131.5 31.5t133.5 16.5t128.5 4.5h65q15 69 15 108q0 84 -50 134.5t-161 50.5q-76 0 -154 -25t-118 -49l-40 -25l-45 117q6 4 18 11.5t50 26t78.5 32.5t101.5 25.5t121 11.5q160 0 250 -72.5t90 -220.5q0 -52 -12 -113 l-127 -649h-134l25 119l23 88h-5q2 0 -13 -24t-46.5 -58t-74.5 -68t-107.5 -58t-134.5 -24q-130 0 -220 70.5t-90 190.5zM160 254q0 -68 50.5 -114t147.5 -46q92 0 177 61t139.5 149t75.5 181l8 37h-60q-45 0 -84.5 -1.5t-96.5 -8t-103.5 -17t-95.5 -31t-82 -48t-54.5 -69 t-21.5 -93.5zM578 1196l-129 244h151l96 -244h-118z" />
<glyph unicode="&#xe1;" horiz-adv-x="1067" d="M16 236q0 69 24 127t63.5 98.5t96.5 72t117.5 51t131.5 31.5t133.5 16.5t128.5 4.5h65q15 69 15 108q0 84 -50 134.5t-161 50.5q-76 0 -154 -25t-118 -49l-40 -25l-45 117q6 4 18 11.5t50 26t78.5 32.5t101.5 25.5t121 11.5q160 0 250 -72.5t90 -220.5q0 -52 -12 -113 l-127 -649h-134l25 119l23 88h-5q2 0 -13 -24t-46.5 -58t-74.5 -68t-107.5 -58t-134.5 -24q-130 0 -220 70.5t-90 190.5zM160 254q0 -68 50.5 -114t147.5 -46q92 0 177 61t139.5 149t75.5 181l8 37h-60q-45 0 -84.5 -1.5t-96.5 -8t-103.5 -17t-95.5 -31t-82 -48t-54.5 -69 t-21.5 -93.5zM569 1196l191 244h172l-227 -244h-136z" />
<glyph unicode="&#xe2;" horiz-adv-x="1067" d="M16 236q0 69 24 127t63.5 98.5t96.5 72t117.5 51t131.5 31.5t133.5 16.5t128.5 4.5h65q15 69 15 108q0 84 -50 134.5t-161 50.5q-76 0 -154 -25t-118 -49l-40 -25l-45 117q6 4 18 11.5t50 26t78.5 32.5t101.5 25.5t121 11.5q160 0 250 -72.5t90 -220.5q0 -52 -12 -113 l-127 -649h-134l25 119l23 88h-5q2 0 -13 -24t-46.5 -58t-74.5 -68t-107.5 -58t-134.5 -24q-130 0 -220 70.5t-90 190.5zM160 254q0 -68 50.5 -114t147.5 -46q92 0 177 61t139.5 149t75.5 181l8 37h-60q-45 0 -84.5 -1.5t-96.5 -8t-103.5 -17t-95.5 -31t-82 -48t-54.5 -69 t-21.5 -93.5zM385 1196l219 244h154l123 -244h-129l-78 166h-4l-144 -166h-141z" />
<glyph unicode="&#xe3;" horiz-adv-x="1067" d="M16 236q0 69 24 127t63.5 98.5t96.5 72t117.5 51t131.5 31.5t133.5 16.5t128.5 4.5h65q15 69 15 108q0 84 -50 134.5t-161 50.5q-76 0 -154 -25t-118 -49l-40 -25l-45 117q6 4 18 11.5t50 26t78.5 32.5t101.5 25.5t121 11.5q160 0 250 -72.5t90 -220.5q0 -52 -12 -113 l-127 -649h-134l25 119l23 88h-5q2 0 -13 -24t-46.5 -58t-74.5 -68t-107.5 -58t-134.5 -24q-130 0 -220 70.5t-90 190.5zM160 254q0 -68 50.5 -114t147.5 -46q92 0 177 61t139.5 149t75.5 181l8 37h-60q-45 0 -84.5 -1.5t-96.5 -8t-103.5 -17t-95.5 -31t-82 -48t-54.5 -69 t-21.5 -93.5zM336 1202q45 240 217 240q36 0 64.5 -15t47 -37t34.5 -44t36 -37t43 -15q78 0 105 142h110q-24 -121 -76.5 -180.5t-142.5 -59.5q-36 0 -64.5 15t-46.5 36t-34.5 42.5t-36.5 36.5t-43 15q-41 0 -67 -43.5t-36 -95.5h-110z" />
<glyph unicode="&#xe4;" horiz-adv-x="1067" d="M16 236q0 69 24 127t63.5 98.5t96.5 72t117.5 51t131.5 31.5t133.5 16.5t128.5 4.5h65q15 69 15 108q0 84 -50 134.5t-161 50.5q-76 0 -154 -25t-118 -49l-40 -25l-45 117q6 4 18 11.5t50 26t78.5 32.5t101.5 25.5t121 11.5q160 0 250 -72.5t90 -220.5q0 -52 -12 -113 l-127 -649h-134l25 119l23 88h-5q2 0 -13 -24t-46.5 -58t-74.5 -68t-107.5 -58t-134.5 -24q-130 0 -220 70.5t-90 190.5zM160 254q0 -68 50.5 -114t147.5 -46q92 0 177 61t139.5 149t75.5 181l8 37h-60q-45 0 -84.5 -1.5t-96.5 -8t-103.5 -17t-95.5 -31t-82 -48t-54.5 -69 t-21.5 -93.5zM745 1264l35 176h127l-35 -176h-127zM436 1264l35 176h125l-33 -176h-127z" />
<glyph unicode="&#xe5;" horiz-adv-x="1067" d="M16 236q0 69 24 127t63.5 98.5t96.5 72t117.5 51t131.5 31.5t133.5 16.5t128.5 4.5h65q15 69 15 108q0 84 -50 134.5t-161 50.5q-76 0 -154 -25t-118 -49l-40 -25l-45 117q6 4 18 11.5t50 26t78.5 32.5t101.5 25.5t121 11.5q160 0 250 -72.5t90 -220.5q0 -52 -12 -113 l-127 -649h-134l25 119l23 88h-5q2 0 -13 -24t-46.5 -58t-74.5 -68t-107.5 -58t-134.5 -24q-130 0 -220 70.5t-90 190.5zM160 254q0 -68 50.5 -114t147.5 -46q92 0 177 61t139.5 149t75.5 181l8 37h-60q-45 0 -84.5 -1.5t-96.5 -8t-103.5 -17t-95.5 -31t-82 -48t-54.5 -69 t-21.5 -93.5zM647 1174q-65 0 -103 33.5t-38 92.5q0 68 52.5 116t119.5 48q65 0 103 -34t38 -95q0 -66 -53 -113.5t-119 -47.5zM649 1251q34 0 58 24.5t24 59.5q0 23 -15.5 38.5t-39.5 15.5q-33 0 -57.5 -25t-24.5 -61q0 -24 14.5 -38t40.5 -14z" />
<glyph unicode="&#xe6;" horiz-adv-x="1781" d="M16 236q0 393 689 393h67q14 74 14 116q0 185 -217 185q-69 0 -144.5 -25t-116.5 -49l-40 -25l-45 117q6 4 18 11.5t50.5 26t78 32.5t98.5 25.5t116 11.5q277 0 317 -199h4q78 98 184.5 148.5t227.5 50.5q184 0 280.5 -101.5t96.5 -273.5q0 -32 -7 -73.5t-15 -66.5 l-7 -26h-776q-8 -41 -8 -88q0 -158 82 -242t229 -84q53 0 107 13t93.5 31t72 36.5t49.5 31.5l16 13l45 -114q-7 -6 -19.5 -15t-53.5 -32.5t-83.5 -41.5t-105.5 -32.5t-123 -14.5q-164 0 -276 76t-148 205h-4q-9 -21 -27 -49.5t-57 -71t-85.5 -76.5t-117 -59t-147.5 -25 q-134 0 -223 69t-89 192zM918 629h628q4 46 4 67q0 120 -66 181t-169 61q-132 0 -238 -80.5t-159 -228.5zM160 252q0 -69 50.5 -113.5t145.5 -44.5q71 0 137 34.5t115 90t83.5 121.5t51.5 133l11 41h-121q-41 0 -79.5 -2t-87.5 -9t-90 -18t-82.5 -31t-69.5 -46.5t-46 -66.5 t-18 -89z" />
<glyph unicode="&#xe7;" horiz-adv-x="1128" d="M309 -313q35 -11 82 -11t83 18.5t36 61.5q0 28 -27.5 44t-76.5 16l-31 -2l71 170q-172 26 -273 141.5t-101 288.5q0 136 53.5 257t142 204t203 131.5t234.5 48.5q73 0 138 -15t106 -37t71.5 -44t43.5 -37l13 -15l-84 -94q-4 5 -11.5 12.5t-34.5 27.5t-57 35t-78.5 27.5 t-100.5 12.5q-123 0 -236.5 -63.5t-186.5 -181t-73 -257.5q0 -147 93.5 -236.5t242.5 -89.5q59 0 118 15t100.5 36.5t75 43t49.5 36.5l17 15l43 -117q-7 -6 -19 -16.5t-53.5 -37t-86 -47t-113 -37t-137.5 -16.5h-10l-33 -88q49 -8 84 -42.5t35 -90.5q0 -59 -36 -100 t-84.5 -57.5t-101.5 -16.5q-30 0 -57.5 3t-39.5 6l-13 3z" />
<glyph unicode="&#xe8;" horiz-adv-x="1132" d="M70 410q0 125 45.5 242.5t123.5 206.5t190.5 142.5t238.5 53.5q186 0 281 -102t95 -271q0 -36 -7.5 -79.5t-14.5 -68.5l-8 -26h-791q-8 -41 -8 -88q0 -139 86 -229.5t244 -90.5q52 0 106 13t93.5 31t71.5 36.5t48 31.5l17 13l45 -114q-7 -6 -19.5 -15t-53 -32.5 t-83.5 -41.5t-105.5 -32.5t-123.5 -14.5q-212 0 -341.5 120t-129.5 315zM250 623h645q6 34 6 71q0 119 -64.5 181.5t-168.5 62.5q-133 0 -248.5 -83.5t-169.5 -231.5zM655 1196l-129 244h152l96 -244h-119z" />
<glyph unicode="&#xe9;" horiz-adv-x="1132" d="M70 410q0 125 45.5 242.5t123.5 206.5t190.5 142.5t238.5 53.5q186 0 281 -102t95 -271q0 -36 -7.5 -79.5t-14.5 -68.5l-8 -26h-791q-8 -41 -8 -88q0 -139 86 -229.5t244 -90.5q52 0 106 13t93.5 31t71.5 36.5t48 31.5l17 13l45 -114q-7 -6 -19.5 -15t-53 -32.5 t-83.5 -41.5t-105.5 -32.5t-123.5 -14.5q-212 0 -341.5 120t-129.5 315zM250 623h645q6 34 6 71q0 119 -64.5 181.5t-168.5 62.5q-133 0 -248.5 -83.5t-169.5 -231.5zM645 1196l191 244h172l-228 -244h-135z" />
<glyph unicode="&#xea;" horiz-adv-x="1132" d="M70 410q0 125 45.5 242.5t123.5 206.5t190.5 142.5t238.5 53.5q186 0 281 -102t95 -271q0 -36 -7.5 -79.5t-14.5 -68.5l-8 -26h-791q-8 -41 -8 -88q0 -139 86 -229.5t244 -90.5q52 0 106 13t93.5 31t71.5 36.5t48 31.5l17 13l45 -114q-7 -6 -19.5 -15t-53 -32.5 t-83.5 -41.5t-105.5 -32.5t-123.5 -14.5q-212 0 -341.5 120t-129.5 315zM250 623h645q6 34 6 71q0 119 -64.5 181.5t-168.5 62.5q-133 0 -248.5 -83.5t-169.5 -231.5zM463 1196l219 244h154l122 -244h-129l-77 166h-4l-144 -166h-141z" />
<glyph unicode="&#xeb;" horiz-adv-x="1132" d="M70 410q0 125 45.5 242.5t123.5 206.5t190.5 142.5t238.5 53.5q186 0 281 -102t95 -271q0 -36 -7.5 -79.5t-14.5 -68.5l-8 -26h-791q-8 -41 -8 -88q0 -139 86 -229.5t244 -90.5q52 0 106 13t93.5 31t71.5 36.5t48 31.5l17 13l45 -114q-7 -6 -19.5 -15t-53 -32.5 t-83.5 -41.5t-105.5 -32.5t-123.5 -14.5q-212 0 -341.5 120t-129.5 315zM250 623h645q6 34 6 71q0 119 -64.5 181.5t-168.5 62.5q-133 0 -248.5 -83.5t-169.5 -231.5zM823 1264l35 176h127l-35 -176h-127zM514 1264l35 176h125l-33 -176h-127z" />
<glyph unicode="&#xec;" horiz-adv-x="475" d="M291 1196l-129 244h151l97 -244h-119zM51 0l199 1030h139l-199 -1030h-139z" />
<glyph unicode="&#xed;" horiz-adv-x="475" d="M283 1196l190 244h172l-227 -244h-135zM51 0l199 1030h139l-199 -1030h-139z" />
<glyph unicode="&#xee;" horiz-adv-x="475" d="M51 0l199 1030h139l-199 -1030h-139zM98 1196l219 244h154l123 -244h-129l-78 166h-4l-143 -166h-142z" />
<glyph unicode="&#xef;" horiz-adv-x="475" d="M461 1264l35 176h127l-35 -176h-127zM152 1264l34 176h125l-32 -176h-127zM51 0l199 1030h139l-199 -1030h-139z" />
<glyph unicode="&#xf0;" horiz-adv-x="1208" d="M354 1010l-8 100l309 127q-116 70 -274 113l57 108q214 -56 361 -162l303 127l10 -100l-229 -94q209 -199 209 -506q0 -63 -11 -132t-34.5 -142t-58 -141t-85 -129t-111.5 -106t-141 -71.5t-170 -26.5q-134 0 -230 57t-140.5 147.5t-44.5 203.5q0 103 40 204.5t112 184 t183.5 133.5t243.5 51q58 0 109.5 -12t83 -29.5t55 -35t33.5 -29.5l10 -12h4q-35 202 -192 333zM209 387q0 -123 71 -205t201 -82q78 0 150.5 32t125.5 84t93 117t60 133t20 130q0 109 -76.5 175.5t-206.5 66.5q-119 0 -220 -61.5t-159.5 -165.5t-58.5 -224z" />
<glyph unicode="&#xf1;" horiz-adv-x="1216" d="M49 0l201 1030h135l-27 -147q-4 -21 -10.5 -45t-11.5 -38l-4 -14h4q21 42 62 86.5t98.5 86.5t135.5 69t159 27q141 0 217.5 -68t76.5 -199q0 -55 -16 -137l-127 -651h-139l119 616q16 75 16 138q0 85 -47 127.5t-129 42.5q-84 0 -165.5 -36.5t-144.5 -97.5t-108.5 -142.5 t-62.5 -170.5l-93 -477h-139zM444 1202q45 240 218 240q36 0 64.5 -15t47 -37t34.5 -44t36 -37t43 -15q77 0 104 142h111q-24 -121 -76.5 -180.5t-142.5 -59.5q-36 0 -64.5 15t-46.5 36t-34.5 42.5t-37 36.5t-43.5 15q-41 0 -66.5 -43.5t-35.5 -95.5h-111z" />
<glyph unicode="&#xf2;" horiz-adv-x="1275" d="M68 426q0 128 53.5 246t141.5 201t203 132.5t234 49.5q209 0 340 -124.5t131 -320.5q0 -130 -54.5 -249t-142.5 -202.5t-202.5 -133.5t-232.5 -50q-210 0 -340.5 126t-130.5 325zM211 430q0 -145 91.5 -237.5t238.5 -92.5q89 0 177 39.5t156.5 106t111 161t42.5 197.5 q0 143 -92 233.5t-238 90.5q-122 0 -234 -65.5t-182.5 -181.5t-70.5 -251zM688 1196l-129 244h152l96 -244h-119z" />
<glyph unicode="&#xf3;" horiz-adv-x="1275" d="M68 426q0 128 53.5 246t141.5 201t203 132.5t234 49.5q209 0 340 -124.5t131 -320.5q0 -130 -54.5 -249t-142.5 -202.5t-202.5 -133.5t-232.5 -50q-210 0 -340.5 126t-130.5 325zM211 430q0 -145 91.5 -237.5t238.5 -92.5q89 0 177 39.5t156.5 106t111 161t42.5 197.5 q0 143 -92 233.5t-238 90.5q-122 0 -234 -65.5t-182.5 -181.5t-70.5 -251zM680 1196l190 244h172l-227 -244h-135z" />
<glyph unicode="&#xf4;" horiz-adv-x="1275" d="M68 426q0 128 53.5 246t141.5 201t203 132.5t234 49.5q209 0 340 -124.5t131 -320.5q0 -130 -54.5 -249t-142.5 -202.5t-202.5 -133.5t-232.5 -50q-210 0 -340.5 126t-130.5 325zM211 430q0 -145 91.5 -237.5t238.5 -92.5q89 0 177 39.5t156.5 106t111 161t42.5 197.5 q0 143 -92 233.5t-238 90.5q-122 0 -234 -65.5t-182.5 -181.5t-70.5 -251zM498 1196l219 244h153l123 -244h-129l-78 166h-4l-143 -166h-141z" />
<glyph unicode="&#xf5;" horiz-adv-x="1275" d="M68 426q0 128 53.5 246t141.5 201t203 132.5t234 49.5q209 0 340 -124.5t131 -320.5q0 -130 -54.5 -249t-142.5 -202.5t-202.5 -133.5t-232.5 -50q-210 0 -340.5 126t-130.5 325zM211 430q0 -145 91.5 -237.5t238.5 -92.5q89 0 177 39.5t156.5 106t111 161t42.5 197.5 q0 143 -92 233.5t-238 90.5q-122 0 -234 -65.5t-182.5 -181.5t-70.5 -251zM446 1202q45 240 218 240q36 0 64.5 -15t47 -37t34.5 -44t36 -37t43 -15q77 0 104 142h111q-24 -121 -76.5 -180.5t-142.5 -59.5q-36 0 -64.5 15t-46.5 36t-34.5 42.5t-37 36.5t-43.5 15 q-41 0 -66.5 -43.5t-35.5 -95.5h-111z" />
<glyph unicode="&#xf6;" horiz-adv-x="1275" d="M68 426q0 128 53.5 246t141.5 201t203 132.5t234 49.5q209 0 340 -124.5t131 -320.5q0 -130 -54.5 -249t-142.5 -202.5t-202.5 -133.5t-232.5 -50q-210 0 -340.5 126t-130.5 325zM211 430q0 -145 91.5 -237.5t238.5 -92.5q89 0 177 39.5t156.5 106t111 161t42.5 197.5 q0 143 -92 233.5t-238 90.5q-122 0 -234 -65.5t-182.5 -181.5t-70.5 -251zM858 1264l35 176h127l-35 -176h-127zM549 1264l35 176h125l-33 -176h-127z" />
<glyph unicode="&#xf7;" horiz-adv-x="1316" d="M573 887v151h154v-151h-154zM150 522v119h1003v-119h-1003zM573 125v151h154v-151h-154z" />
<glyph unicode="&#xf8;" horiz-adv-x="1275" d="M68 426q0 128 53.5 246t141.5 201t203 132.5t234 49.5q161 0 283 -80l107 117l77 -68l-106 -117q110 -119 110 -297q0 -130 -54.5 -249t-142.5 -202.5t-202.5 -133.5t-232.5 -50q-154 0 -269 70l-104 -113l-78 66l100 111q-120 123 -120 317zM211 430q0 -129 72 -217 l606 661q-83 54 -191 54q-122 0 -234 -65.5t-182.5 -181.5t-70.5 -251zM1028 604q0 118 -63 199l-603 -658q76 -45 179 -45q89 0 177 39.5t156.5 106t111 161t42.5 197.5z" />
<glyph unicode="&#xf9;" horiz-adv-x="1206" d="M94 242q0 50 17 137l125 651h139l-119 -612q-14 -74 -14 -142q0 -81 40.5 -125.5t139.5 -44.5q111 0 212.5 66.5t167 169t87.5 215.5l92 473h139l-200 -1030h-138l29 147l27 97h-4q-18 -33 -45 -67.5t-69.5 -71t-91.5 -65t-113 -47t-132 -18.5q-127 0 -208 64.5 t-81 202.5zM647 1196l-129 244h152l96 -244h-119z" />
<glyph unicode="&#xfa;" horiz-adv-x="1206" d="M94 242q0 50 17 137l125 651h139l-119 -612q-14 -74 -14 -142q0 -81 40.5 -125.5t139.5 -44.5q111 0 212.5 66.5t167 169t87.5 215.5l92 473h139l-200 -1030h-138l29 147l27 97h-4q-18 -33 -45 -67.5t-69.5 -71t-91.5 -65t-113 -47t-132 -18.5q-127 0 -208 64.5 t-81 202.5zM639 1196l190 244h172l-227 -244h-135z" />
<glyph unicode="&#xfb;" horiz-adv-x="1206" d="M94 242q0 50 17 137l125 651h139l-119 -612q-14 -74 -14 -142q0 -81 40.5 -125.5t139.5 -44.5q111 0 212.5 66.5t167 169t87.5 215.5l92 473h139l-200 -1030h-138l29 147l27 97h-4q-18 -33 -45 -67.5t-69.5 -71t-91.5 -65t-113 -47t-132 -18.5q-127 0 -208 64.5 t-81 202.5zM455 1196l219 244h153l123 -244h-129l-78 166h-4l-143 -166h-141z" />
<glyph unicode="&#xfc;" horiz-adv-x="1206" d="M94 242q0 50 17 137l125 651h139l-119 -612q-14 -74 -14 -142q0 -81 40.5 -125.5t139.5 -44.5q111 0 212.5 66.5t167 169t87.5 215.5l92 473h139l-200 -1030h-138l29 147l27 97h-4q-18 -33 -45 -67.5t-69.5 -71t-91.5 -65t-113 -47t-132 -18.5q-127 0 -208 64.5 t-81 202.5zM817 1264l35 176h127l-35 -176h-127zM508 1264l35 176h125l-33 -176h-127z" />
<glyph unicode="&#xfd;" horiz-adv-x="1021" d="M-115 -264q5 -5 14 -11.5t39 -18t62 -11.5q125 0 229 166l93 149l-234 1020h145l160 -770l19 -108h2q28 57 57 106l447 772h157l-753 -1249q-61 -102 -143 -156.5t-175 -54.5q-52 0 -99 15t-68 31l-21 15zM547 1196l190 244h172l-227 -244h-135z" />
<glyph unicode="&#xfe;" horiz-adv-x="1212" d="M-29 -410l359 1850h137l-96 -504q-4 -19 -9.5 -40.5t-9.5 -33.5l-4 -12h4q55 87 152 146t219 59q181 0 281 -110.5t100 -303.5q0 -143 -47.5 -269t-125 -212t-178 -135.5t-206.5 -49.5q-115 0 -202.5 53t-121.5 154h-4q-2 -45 -12 -98l-96 -494h-140zM276 397 q0 -129 66.5 -213t192.5 -84q76 0 150.5 37t135.5 103t99 168.5t38 222.5q0 138 -68.5 217.5t-189.5 79.5q-91 0 -172 -47t-135 -123t-85.5 -171t-31.5 -190z" />
<glyph unicode="&#xff;" horiz-adv-x="1021" d="M-115 -264q5 -5 14 -11.5t39 -18t62 -11.5q125 0 229 166l93 149l-234 1020h145l160 -770l19 -108h2q28 57 57 106l447 772h157l-753 -1249q-61 -102 -143 -156.5t-175 -54.5q-52 0 -99 15t-68 31l-21 15zM725 1264l35 176h127l-35 -176h-127zM416 1264l35 176h124 l-32 -176h-127z" />
<glyph unicode="&#x100;" horiz-adv-x="1255" d="M66 0h-154l803 1440h155l248 -1440h-143l-76 459h-580zM383 582h496l-86 522l-23 186h-4q-53 -118 -90 -186zM575 1608l21 112h506l-21 -112h-506z" />
<glyph unicode="&#x101;" horiz-adv-x="1067" d="M16 236q0 69 24 127t63.5 98.5t96.5 72t117.5 51t131.5 31.5t133.5 16.5t128.5 4.5h65q15 69 15 108q0 84 -50 134.5t-161 50.5q-76 0 -154 -25t-118 -49l-40 -25l-45 117q6 4 18 11.5t50 26t78.5 32.5t101.5 25.5t121 11.5q160 0 250 -72.5t90 -220.5q0 -52 -12 -113 l-127 -649h-134l25 119l23 88h-5q2 0 -13 -24t-46.5 -58t-74.5 -68t-107.5 -58t-134.5 -24q-130 0 -220 70.5t-90 190.5zM160 254q0 -68 50.5 -114t147.5 -46q92 0 177 61t139.5 149t75.5 181l8 37h-60q-45 0 -84.5 -1.5t-96.5 -8t-103.5 -17t-95.5 -31t-82 -48t-54.5 -69 t-21.5 -93.5zM401 1264l21 112h506l-21 -112h-506z" />
<glyph unicode="&#x102;" horiz-adv-x="1255" d="M66 0h-154l803 1440h155l248 -1440h-143l-76 459h-580zM383 582h496l-86 522l-23 186h-4q-53 -118 -90 -186zM817 1534q-98 0 -161 61t-42 158l7 31h112l-6 -27q-11 -64 17.5 -95.5t82.5 -31.5q52 0 94.5 32t53.5 95l6 27h113l-7 -31q-19 -111 -93 -165t-177 -54z" />
<glyph unicode="&#x103;" horiz-adv-x="1067" d="M16 236q0 69 24 127t63.5 98.5t96.5 72t117.5 51t131.5 31.5t133.5 16.5t128.5 4.5h65q15 69 15 108q0 84 -50 134.5t-161 50.5q-76 0 -154 -25t-118 -49l-40 -25l-45 117q6 4 18 11.5t50 26t78.5 32.5t101.5 25.5t121 11.5q160 0 250 -72.5t90 -220.5q0 -52 -12 -113 l-127 -649h-134l25 119l23 88h-5q2 0 -13 -24t-46.5 -58t-74.5 -68t-107.5 -58t-134.5 -24q-130 0 -220 70.5t-90 190.5zM160 254q0 -68 50.5 -114t147.5 -46q92 0 177 61t139.5 149t75.5 181l8 37h-60q-45 0 -84.5 -1.5t-96.5 -8t-103.5 -17t-95.5 -31t-82 -48t-54.5 -69 t-21.5 -93.5zM645 1190q-98 0 -161 61t-42 158l7 31h112l-6 -27q-11 -64 17.5 -95.5t82.5 -31.5q52 0 94.5 32t53.5 95l6 27h113l-7 -31q-19 -111 -93 -165t-177 -54z" />
<glyph unicode="&#x104;" horiz-adv-x="1255" d="M791 -264q0 138 184 264l-76 459h-580l-253 -459h-154l803 1440h155l248 -1440q-28 -18 -55 -38.5t-61 -51.5t-55 -65.5t-21 -65.5q0 -34 27.5 -55t54.5 -25l28 -4l-53 -115q-4 0 -11 1t-27 5t-38 10t-40 18.5t-38 28t-27 40t-11 53.5zM383 582h496l-86 522l-23 186h-4 q-53 -118 -90 -186z" />
<glyph unicode="&#x105;" horiz-adv-x="1067" d="M16 236q0 69 24 127t63.5 98.5t96.5 72t117.5 51t131.5 31.5t133.5 16.5t128.5 4.5h65q15 69 15 108q0 84 -50 134.5t-161 50.5q-76 0 -154 -25t-118 -49l-40 -25l-45 117q6 4 18 11.5t50 26t78.5 32.5t101.5 25.5t121 11.5q160 0 250 -72.5t90 -220.5q0 -52 -12 -113 l-127 -649q-191 -128 -191 -221q0 -21 11 -37.5t27 -25t32.5 -13.5t27.5 -7l11 -1l-52 -115q-8 1 -21 2.5t-46.5 11.5t-59 25t-46.5 46t-21 71q0 143 194 270l25 113l23 88h-5q2 0 -13 -24t-46.5 -58t-74.5 -68t-107.5 -58t-134.5 -24q-130 0 -220 70.5t-90 190.5zM160 254 q0 -68 50.5 -114t147.5 -46q92 0 177 61t139.5 149t75.5 181l8 37h-60q-45 0 -84.5 -1.5t-96.5 -8t-103.5 -17t-95.5 -31t-82 -48t-54.5 -69t-21.5 -93.5z" />
<glyph unicode="&#x106;" horiz-adv-x="1488" d="M121 594q0 175 71.5 336.5t188.5 278t273.5 186t320.5 69.5q99 0 188 -19t145 -46.5t97.5 -55t59.5 -46.5l18 -19l-90 -100q-6 6 -17 16.5t-50.5 37t-83.5 46.5t-115.5 36.5t-147.5 16.5q-140 0 -271.5 -59t-227.5 -158t-154 -234.5t-58 -281.5q0 -215 129.5 -352 t347.5 -137q81 0 163 19.5t141 47.5t106 56t71 48l23 19l70 -111q-10 -9 -28 -23t-77.5 -51t-123 -65t-159 -51t-190.5 -23q-190 0 -331.5 80t-215 220t-73.5 319zM932 1540l190 244h172l-227 -244h-135z" />
<glyph unicode="&#x107;" horiz-adv-x="1124" d="M68 414q0 136 53.5 257t141.5 204t202.5 131.5t234.5 48.5q73 0 138 -15t106 -37t72 -44t44 -37l13 -15l-84 -94q-4 5 -11.5 12.5t-34.5 27.5t-57 35t-78.5 27.5t-100.5 12.5q-123 0 -236.5 -63.5t-186.5 -181t-73 -257.5q0 -147 93.5 -236.5t242.5 -89.5q59 0 118 15 t100.5 36.5t75 43t49.5 36.5l17 15l43 -117q-7 -6 -19 -16.5t-53.5 -37t-86 -47t-113 -37t-137.5 -16.5q-211 0 -342 121t-131 318zM645 1196l191 244h172l-228 -244h-135z" />
<glyph unicode="&#x108;" horiz-adv-x="1488" d="M121 594q0 175 71.5 336.5t188.5 278t273.5 186t320.5 69.5q99 0 188 -19t145 -46.5t97.5 -55t59.5 -46.5l18 -19l-90 -100q-6 6 -17 16.5t-50.5 37t-83.5 46.5t-115.5 36.5t-147.5 16.5q-140 0 -271.5 -59t-227.5 -158t-154 -234.5t-58 -281.5q0 -215 129.5 -352 t347.5 -137q81 0 163 19.5t141 47.5t106 56t71 48l23 19l70 -111q-10 -9 -28 -23t-77.5 -51t-123 -65t-159 -51t-190.5 -23q-190 0 -331.5 80t-215 220t-73.5 319zM750 1540l219 244h153l123 -244h-129l-78 166h-4l-143 -166h-141z" />
<glyph unicode="&#x109;" horiz-adv-x="1124" d="M68 414q0 136 53.5 257t141.5 204t202.5 131.5t234.5 48.5q73 0 138 -15t106 -37t72 -44t44 -37l13 -15l-84 -94q-4 5 -11.5 12.5t-34.5 27.5t-57 35t-78.5 27.5t-100.5 12.5q-123 0 -236.5 -63.5t-186.5 -181t-73 -257.5q0 -147 93.5 -236.5t242.5 -89.5q59 0 118 15 t100.5 36.5t75 43t49.5 36.5l17 15l43 -117q-7 -6 -19 -16.5t-53.5 -37t-86 -47t-113 -37t-137.5 -16.5q-211 0 -342 121t-131 318zM463 1196l219 244h154l122 -244h-129l-77 166h-4l-144 -166h-141z" />
<glyph unicode="&#x10a;" horiz-adv-x="1488" d="M121 594q0 175 71.5 336.5t188.5 278t273.5 186t320.5 69.5q99 0 188 -19t145 -46.5t97.5 -55t59.5 -46.5l18 -19l-90 -100q-6 6 -17 16.5t-50.5 37t-83.5 46.5t-115.5 36.5t-147.5 16.5q-140 0 -271.5 -59t-227.5 -158t-154 -234.5t-58 -281.5q0 -215 129.5 -352 t347.5 -137q81 0 163 19.5t141 47.5t106 56t71 48l23 19l70 -111q-10 -9 -28 -23t-77.5 -51t-123 -65t-159 -51t-190.5 -23q-190 0 -331.5 80t-215 220t-73.5 319zM950 1610l35 174h133l-33 -174h-135z" />
<glyph unicode="&#x10b;" horiz-adv-x="1124" d="M68 414q0 136 53.5 257t141.5 204t202.5 131.5t234.5 48.5q73 0 138 -15t106 -37t72 -44t44 -37l13 -15l-84 -94q-4 5 -11.5 12.5t-34.5 27.5t-57 35t-78.5 27.5t-100.5 12.5q-123 0 -236.5 -63.5t-186.5 -181t-73 -257.5q0 -147 93.5 -236.5t242.5 -89.5q59 0 118 15 t100.5 36.5t75 43t49.5 36.5l17 15l43 -117q-7 -6 -19 -16.5t-53.5 -37t-86 -47t-113 -37t-137.5 -16.5q-211 0 -342 121t-131 318zM664 1266l34 174h133l-32 -174h-135z" />
<glyph unicode="&#x10c;" horiz-adv-x="1488" d="M121 594q0 175 71.5 336.5t188.5 278t273.5 186t320.5 69.5q99 0 188 -19t145 -46.5t97.5 -55t59.5 -46.5l18 -19l-90 -100q-6 6 -17 16.5t-50.5 37t-83.5 46.5t-115.5 36.5t-147.5 16.5q-140 0 -271.5 -59t-227.5 -158t-154 -234.5t-58 -281.5q0 -215 129.5 -352 t347.5 -137q81 0 163 19.5t141 47.5t106 56t71 48l23 19l70 -111q-10 -9 -28 -23t-77.5 -51t-123 -65t-159 -51t-190.5 -23q-190 0 -331.5 80t-215 220t-73.5 319zM934 1540l-123 244h129l78 -164h4l143 164h142l-220 -244h-153z" />
<glyph unicode="&#x10d;" horiz-adv-x="1124" d="M68 414q0 136 53.5 257t141.5 204t202.5 131.5t234.5 48.5q73 0 138 -15t106 -37t72 -44t44 -37l13 -15l-84 -94q-4 5 -11.5 12.5t-34.5 27.5t-57 35t-78.5 27.5t-100.5 12.5q-123 0 -236.5 -63.5t-186.5 -181t-73 -257.5q0 -147 93.5 -236.5t242.5 -89.5q59 0 118 15 t100.5 36.5t75 43t49.5 36.5l17 15l43 -117q-7 -6 -19 -16.5t-53.5 -37t-86 -47t-113 -37t-137.5 -16.5q-211 0 -342 121t-131 318zM647 1196l-123 244h129l78 -164h4l144 164h141l-219 -244h-154z" />
<glyph unicode="&#x10e;" horiz-adv-x="1511" d="M90 0l281 1440h436q293 0 459 -146.5t166 -412.5q0 -180 -63 -341.5t-174 -280.5t-271 -189t-344 -70h-490zM254 127h309q206 0 371 98t257.5 268t92.5 379q0 212 -129.5 326.5t-359.5 114.5h-308zM811 1540l-123 244h129l78 -164h4l143 164h142l-219 -244h-154z" />
<glyph unicode="&#x10f;" horiz-adv-x="1271" d="M70 389q0 143 47 269t125.5 212t181 135.5t211.5 49.5q112 0 198 -53t119 -152h4q1 43 9 86l98 504h139l-278 -1440h-136l21 109q4 20 9.5 40t9.5 31l3 10h-4q-56 -91 -154.5 -153t-219.5 -62q-184 0 -283.5 110.5t-99.5 303.5zM213 397q0 -138 69.5 -217.5t192.5 -79.5 q122 0 221 82t150 204t51 251q0 128 -64.5 209.5t-191.5 81.5q-76 0 -151.5 -37t-137.5 -103t-100.5 -168.5t-38.5 -222.5zM1329 1440h135v-29q0 -67 -21 -123.5t-69 -132.5h-114q39 67 57 118.5t18 108.5q0 28 -6 58z" />
<glyph unicode="&#x110;" horiz-adv-x="1540" d="M125 662l25 122h120l129 656h437q293 0 458.5 -146.5t165.5 -412.5q0 -180 -63 -341.5t-174 -280.5t-271.5 -189t-345.5 -70h-489l129 662h-121zM283 127h309q153 0 287.5 57.5t229.5 156.5t149.5 237t54.5 294q0 212 -130 326.5t-360 114.5h-307l-104 -529h344l-25 -122 h-344z" />
<glyph unicode="&#x111;" horiz-adv-x="1208" d="M739 1159l21 105h268l35 176h139l-35 -176h164l-20 -105h-164l-223 -1159h-136l21 109q4 20 9.5 40t9.5 31l3 10h-4q-58 -92 -155.5 -153.5t-218.5 -61.5q-184 0 -283.5 110.5t-99.5 303.5q0 143 47 269t125.5 212t181 135.5t211.5 49.5q112 0 198 -53t117 -152h4 q3 43 11 86l43 223h-269zM213 397q0 -138 69.5 -217.5t192.5 -79.5q92 0 172.5 48t134 125t84.5 172.5t31 191.5q0 128 -64.5 209.5t-191.5 81.5q-76 0 -151.5 -37t-137.5 -103t-100.5 -168.5t-38.5 -222.5z" />
<glyph unicode="&#x112;" horiz-adv-x="1163" d="M90 0l281 1440h811l-27 -127h-668l-102 -525h547l-25 -126h-545l-106 -535h705l-23 -127h-848zM580 1608l20 112h506l-21 -112h-505z" />
<glyph unicode="&#x113;" horiz-adv-x="1132" d="M70 410q0 125 45.5 242.5t123.5 206.5t190.5 142.5t238.5 53.5q186 0 281 -102t95 -271q0 -36 -7.5 -79.5t-14.5 -68.5l-8 -26h-791q-8 -41 -8 -88q0 -139 86 -229.5t244 -90.5q52 0 106 13t93.5 31t71.5 36.5t48 31.5l17 13l45 -114q-7 -6 -19.5 -15t-53 -32.5 t-83.5 -41.5t-105.5 -32.5t-123.5 -14.5q-212 0 -341.5 120t-129.5 315zM250 623h645q6 34 6 71q0 119 -64.5 181.5t-168.5 62.5q-133 0 -248.5 -83.5t-169.5 -231.5zM479 1264l21 112h506l-21 -112h-506z" />
<glyph unicode="&#x114;" horiz-adv-x="1163" d="M90 0l281 1440h811l-27 -127h-668l-102 -525h547l-25 -126h-545l-106 -535h705l-23 -127h-848zM823 1534q-98 0 -160.5 61t-41.5 158l6 31h112l-6 -27q-11 -64 18 -95.5t83 -31.5q52 0 94 32t53 95l6 27h113l-6 -31q-19 -111 -93.5 -165t-177.5 -54z" />
<glyph unicode="&#x115;" horiz-adv-x="1132" d="M70 410q0 125 45.5 242.5t123.5 206.5t190.5 142.5t238.5 53.5q186 0 281 -102t95 -271q0 -36 -7.5 -79.5t-14.5 -68.5l-8 -26h-791q-8 -41 -8 -88q0 -139 86 -229.5t244 -90.5q52 0 106 13t93.5 31t71.5 36.5t48 31.5l17 13l45 -114q-7 -6 -19.5 -15t-53 -32.5 t-83.5 -41.5t-105.5 -32.5t-123.5 -14.5q-212 0 -341.5 120t-129.5 315zM250 623h645q6 34 6 71q0 119 -64.5 181.5t-168.5 62.5q-133 0 -248.5 -83.5t-169.5 -231.5zM721 1190q-98 0 -161 61t-42 158l6 31h113l-6 -27q-11 -64 17.5 -95.5t82.5 -31.5q52 0 94.5 32t53.5 95 l6 27h112l-6 -31q-19 -111 -93 -165t-177 -54z" />
<glyph unicode="&#x116;" horiz-adv-x="1163" d="M90 0l281 1440h811l-27 -127h-668l-102 -525h547l-25 -126h-545l-106 -535h705l-23 -127h-848zM766 1610l35 174h133l-33 -174h-135z" />
<glyph unicode="&#x117;" horiz-adv-x="1132" d="M70 410q0 125 45.5 242.5t123.5 206.5t190.5 142.5t238.5 53.5q186 0 281 -102t95 -271q0 -36 -7.5 -79.5t-14.5 -68.5l-8 -26h-791q-8 -41 -8 -88q0 -139 86 -229.5t244 -90.5q52 0 106 13t93.5 31t71.5 36.5t48 31.5l17 13l45 -114q-7 -6 -19.5 -15t-53 -32.5 t-83.5 -41.5t-105.5 -32.5t-123.5 -14.5q-212 0 -341.5 120t-129.5 315zM250 623h645q6 34 6 71q0 119 -64.5 181.5t-168.5 62.5q-133 0 -248.5 -83.5t-169.5 -231.5zM664 1266l34 174h133l-32 -174h-135z" />
<glyph unicode="&#x118;" horiz-adv-x="1163" d="M90 0l281 1440h811l-27 -127h-668l-102 -525h547l-25 -126h-545l-106 -535h705l-23 -127q-29 -19 -55.5 -39t-61 -51t-55.5 -65.5t-21 -65.5q0 -21 11.5 -37.5t27.5 -25t32.5 -13.5t27.5 -7l12 -1l-53 -115q-4 0 -11 1t-27 5t-38 10t-40.5 18.5t-38.5 28t-27 40t-11 53.5 q0 133 178 260v4h-698z" />
<glyph unicode="&#x119;" horiz-adv-x="1134" d="M70 410q0 125 45.5 242.5t123.5 206.5t190.5 142.5t238.5 53.5q186 0 281 -102t95 -271q0 -36 -7.5 -79.5t-14.5 -68.5l-8 -26h-791q-8 -41 -8 -88q0 -139 86 -229.5t244 -90.5q52 0 106 13t93.5 31t71.5 36.5t48 31.5l17 13l45 -114q-14 -13 -60 -39.5t-95.5 -56.5 t-98.5 -66.5t-81 -81t-32 -88.5q0 -21 11.5 -37.5t27.5 -25t32.5 -13.5t27.5 -7l12 -1l-54 -115q-4 0 -11 1t-27 5t-38 10t-40 18.5t-38 28t-27 40t-11 53.5q0 128 151 237v4q-12 -2 -34 -2q-212 0 -341.5 120t-129.5 315zM250 623h645q6 34 6 71q0 119 -64.5 181.5 t-168.5 62.5q-133 0 -248.5 -83.5t-169.5 -231.5z" />
<glyph unicode="&#x11a;" horiz-adv-x="1163" d="M90 0l281 1440h811l-27 -127h-668l-102 -525h547l-25 -126h-545l-106 -535h705l-23 -127h-848zM750 1540l-123 244h129l78 -164h4l143 164h141l-219 -244h-153z" />
<glyph unicode="&#x11b;" horiz-adv-x="1132" d="M70 410q0 125 45.5 242.5t123.5 206.5t190.5 142.5t238.5 53.5q186 0 281 -102t95 -271q0 -36 -7.5 -79.5t-14.5 -68.5l-8 -26h-791q-8 -41 -8 -88q0 -139 86 -229.5t244 -90.5q52 0 106 13t93.5 31t71.5 36.5t48 31.5l17 13l45 -114q-7 -6 -19.5 -15t-53 -32.5 t-83.5 -41.5t-105.5 -32.5t-123.5 -14.5q-212 0 -341.5 120t-129.5 315zM250 623h645q6 34 6 71q0 119 -64.5 181.5t-168.5 62.5q-133 0 -248.5 -83.5t-169.5 -231.5zM647 1196l-123 244h129l78 -164h4l144 164h141l-219 -244h-154z" />
<glyph unicode="&#x11c;" horiz-adv-x="1550" d="M119 578q0 141 45 275.5t126.5 243.5t188 192.5t237 129t265.5 45.5q95 0 182 -17t142.5 -41.5t98 -49t60.5 -41.5l19 -17l-90 -102q-6 5 -17.5 14.5t-51 32.5t-83.5 41t-114 32.5t-144 14.5q-192 0 -357.5 -103t-262.5 -275.5t-97 -368.5q0 -214 129 -344.5t338 -130.5 q80 0 161 23t139 55.5t104.5 65.5t70.5 56l23 23l47 229h-246l25 127h379l-133 -688h-132l23 111l14 61h-4q-8 -8 -23 -21.5t-64 -47.5t-102 -59.5t-134.5 -47t-163.5 -21.5q-263 0 -430.5 168.5t-167.5 434.5zM741 1540l220 244h153l123 -244h-129l-78 166h-4l-143 -166 h-142z" />
<glyph unicode="&#x11d;" horiz-adv-x="1193" d="M78 -238q13 -8 36 -19t94 -29.5t140 -18.5q159 0 273 80.5t149 242.5l21 95q3 17 8.5 37.5t9.5 32.5l4 12h-4q-127 -189 -342 -189q-182 0 -286.5 111.5t-104.5 298.5q0 88 22 177.5t67.5 172.5t108.5 147.5t152 103t190 38.5q115 0 206 -44t122 -139h4q-2 23 2 46 l23 112h135l-199 -1018q-23 -119 -78 -207t-131.5 -138t-161.5 -73.5t-180 -23.5q-189 0 -348 86zM219 424q0 -136 71 -214.5t199 -78.5q78 0 145.5 34.5t113.5 90.5t78.5 128t47.5 146.5t15 147.5q0 250 -262 250q-95 0 -174 -44t-129 -116t-77.5 -161t-27.5 -183z M444 1196l220 244h153l123 -244h-129l-78 166h-4l-143 -166h-142z" />
<glyph unicode="&#x11e;" horiz-adv-x="1550" d="M119 578q0 141 45 275.5t126.5 243.5t188 192.5t237 129t265.5 45.5q95 0 182 -17t142.5 -41.5t98 -49t60.5 -41.5l19 -17l-90 -102q-6 5 -17.5 14.5t-51 32.5t-83.5 41t-114 32.5t-144 14.5q-192 0 -357.5 -103t-262.5 -275.5t-97 -368.5q0 -214 129 -344.5t338 -130.5 q80 0 161 23t139 55.5t104.5 65.5t70.5 56l23 23l47 229h-246l25 127h379l-133 -688h-132l23 111l14 61h-4q-8 -8 -23 -21.5t-64 -47.5t-102 -59.5t-134.5 -47t-163.5 -21.5q-263 0 -430.5 168.5t-167.5 434.5zM1001 1534q-98 0 -160.5 61t-41.5 158l6 31h113l-7 -27 q-11 -64 18 -95.5t83 -31.5q52 0 94 32t53 95l6 27h113l-6 -31q-19 -111 -93.5 -165t-177.5 -54z" />
<glyph unicode="&#x11f;" horiz-adv-x="1193" d="M78 -238q13 -8 36 -19t94 -29.5t140 -18.5q159 0 273 80.5t149 242.5l21 95q3 17 8.5 37.5t9.5 32.5l4 12h-4q-127 -189 -342 -189q-182 0 -286.5 111.5t-104.5 298.5q0 88 22 177.5t67.5 172.5t108.5 147.5t152 103t190 38.5q115 0 206 -44t122 -139h4q-2 23 2 46 l23 112h135l-199 -1018q-23 -119 -78 -207t-131.5 -138t-161.5 -73.5t-180 -23.5q-189 0 -348 86zM219 424q0 -136 71 -214.5t199 -78.5q78 0 145.5 34.5t113.5 90.5t78.5 128t47.5 146.5t15 147.5q0 250 -262 250q-95 0 -174 -44t-129 -116t-77.5 -161t-27.5 -183z M705 1190q-98 0 -161 61t-42 158l6 31h113l-7 -27q-11 -64 18 -95.5t83 -31.5q52 0 94 32t53 95l6 27h113l-6 -31q-19 -111 -93 -165t-177 -54z" />
<glyph unicode="&#x120;" horiz-adv-x="1550" d="M119 578q0 141 45 275.5t126.5 243.5t188 192.5t237 129t265.5 45.5q95 0 182 -17t142.5 -41.5t98 -49t60.5 -41.5l19 -17l-90 -102q-6 5 -17.5 14.5t-51 32.5t-83.5 41t-114 32.5t-144 14.5q-192 0 -357.5 -103t-262.5 -275.5t-97 -368.5q0 -214 129 -344.5t338 -130.5 q80 0 161 23t139 55.5t104.5 65.5t70.5 56l23 23l47 229h-246l25 127h379l-133 -688h-132l23 111l14 61h-4q-8 -8 -23 -21.5t-64 -47.5t-102 -59.5t-134.5 -47t-163.5 -21.5q-263 0 -430.5 168.5t-167.5 434.5zM944 1610l35 174h133l-33 -174h-135z" />
<glyph unicode="&#x121;" horiz-adv-x="1193" d="M78 -238q13 -8 36 -19t94 -29.5t140 -18.5q159 0 273 80.5t149 242.5l21 95q3 17 8.5 37.5t9.5 32.5l4 12h-4q-127 -189 -342 -189q-182 0 -286.5 111.5t-104.5 298.5q0 88 22 177.5t67.5 172.5t108.5 147.5t152 103t190 38.5q115 0 206 -44t122 -139h4q-2 23 2 46 l23 112h135l-199 -1018q-23 -119 -78 -207t-131.5 -138t-161.5 -73.5t-180 -23.5q-189 0 -348 86zM219 424q0 -136 71 -214.5t199 -78.5q78 0 145.5 34.5t113.5 90.5t78.5 128t47.5 146.5t15 147.5q0 250 -262 250q-95 0 -174 -44t-129 -116t-77.5 -161t-27.5 -183z M647 1266l35 174h133l-33 -174h-135z" />
<glyph unicode="&#x122;" horiz-adv-x="1550" d="M119 578q0 141 45 275.5t126.5 243.5t188 192.5t237 129t265.5 45.5q95 0 182 -17t142.5 -41.5t98 -49t60.5 -41.5l19 -17l-90 -102q-6 5 -17.5 14.5t-51 32.5t-83.5 41t-114 32.5t-144 14.5q-192 0 -357.5 -103t-262.5 -275.5t-97 -368.5q0 -214 129 -344.5t338 -130.5 q80 0 161 23t139 55.5t104.5 65.5t70.5 56l23 23l47 229h-246l25 127h379l-133 -688h-132l23 111l14 61h-4q-8 -8 -23 -21.5t-64 -47.5t-102 -59.5t-134.5 -47t-163.5 -21.5q-263 0 -430.5 168.5t-167.5 434.5zM606 -129h135v-29q0 -67 -21 -123.5t-69 -132.5h-114 q39 67 57 119t18 109q0 27 -6 57z" />
<glyph unicode="&#x123;" horiz-adv-x="1193" d="M78 -238q13 -8 36 -19t94 -29.5t140 -18.5q159 0 273 80.5t149 242.5l21 95q3 17 8.5 37.5t9.5 32.5l4 12h-4q-127 -189 -342 -189q-182 0 -286.5 111.5t-104.5 298.5q0 88 22 177.5t67.5 172.5t108.5 147.5t152 103t190 38.5q115 0 206 -44t122 -139h4q-2 23 2 46 l23 112h135l-199 -1018q-23 -119 -78 -207t-131.5 -138t-161.5 -73.5t-180 -23.5q-189 0 -348 86zM219 424q0 -136 71 -214.5t199 -78.5q78 0 145.5 34.5t113.5 90.5t78.5 128t47.5 146.5t15 147.5q0 250 -262 250q-95 0 -174 -44t-129 -116t-77.5 -161t-27.5 -183z M997 1159h-135v27q0 67 21 123.5t69 132.5h115q-40 -68 -58 -119.5t-18 -108.5q0 -28 6 -55z" />
<glyph unicode="&#x124;" horiz-adv-x="1536" d="M90 0l281 1440h141l-127 -656h834l129 656h141l-281 -1440h-143l129 657h-834l-129 -657h-141zM698 1540l220 244h153l123 -244h-129l-78 166h-4l-143 -166h-142z" />
<glyph unicode="&#x125;" horiz-adv-x="1216" d="M49 0l281 1440h139l-107 -557l-24 -92h4q21 42 62 86t97.5 85t133.5 67t158 26q141 0 216.5 -68t75.5 -199q0 -55 -16 -137l-125 -651h-139l119 616q16 94 16 138q0 85 -47.5 127.5t-128.5 42.5q-84 0 -165.5 -36.5t-145 -97.5t-109.5 -142.5t-63 -170.5l-93 -477h-139z M168 1540l219 244h154l123 -244h-129l-78 166h-4l-144 -166h-141z" />
<glyph unicode="&#x126;" horiz-adv-x="1622" d="M207 1049l20 110h131l56 281h141l-55 -281h835l56 281h141l-55 -281h131l-21 -110h-133l-205 -1049h-141l129 657h-836l-127 -657h-143l205 1049h-129zM428 784h834l51 265h-834z" />
<glyph unicode="&#x127;" horiz-adv-x="1218" d="M121 1159l20 105h154l35 176h139l-35 -176h275l-21 -105h-272l-54 -276l-24 -92h4q22 42 62.5 85.5t97.5 85t133.5 67.5t157.5 26q141 0 216.5 -68t75.5 -199q0 -66 -14 -137l-127 -651h-139l119 616q16 75 16 138q0 85 -47 127.5t-129 42.5q-170 0 -308.5 -132.5 t-172.5 -314.5l-93 -477h-139l223 1159h-153z" />
<glyph unicode="&#x128;" horiz-adv-x="559" d="M90 0l281 1440h141l-281 -1440h-141zM160 1546q45 240 217 240q36 0 64.5 -15t47 -37t34.5 -44t36 -37t43 -15q78 0 105 142h110q-24 -121 -76.5 -180.5t-142.5 -59.5q-36 0 -64.5 15t-46.5 36.5t-34.5 43t-36.5 36.5t-43 15q-41 0 -67 -44t-36 -96h-110z" />
<glyph unicode="&#x129;" horiz-adv-x="475" d="M49 1202q45 240 217 240q36 0 65 -15t47 -37t34.5 -44t36.5 -37t43 -15q77 0 104 142h111q-24 -121 -76.5 -180.5t-143.5 -59.5q-36 0 -64.5 15t-46.5 36t-34.5 42.5t-36.5 36.5t-43 15q-41 0 -66.5 -43.5t-35.5 -95.5h-111zM51 0l199 1030h139l-199 -1030h-139z" />
<glyph unicode="&#x12a;" horiz-adv-x="559" d="M90 0l281 1440h141l-281 -1440h-141zM225 1608l21 112h506l-21 -112h-506z" />
<glyph unicode="&#x12b;" horiz-adv-x="475" d="M115 1264l20 112h506l-20 -112h-506zM51 0l199 1030h139l-199 -1030h-139z" />
<glyph unicode="&#x12c;" horiz-adv-x="559" d="M90 0l281 1440h141l-281 -1440h-141zM467 1534q-98 0 -161 61t-42 158l6 31h113l-6 -27q-11 -64 17.5 -95.5t82.5 -31.5q52 0 94.5 32t53.5 95l6 27h112l-6 -31q-19 -111 -93 -165t-177 -54z" />
<glyph unicode="&#x12d;" horiz-adv-x="475" d="M358 1190q-98 0 -160.5 61t-41.5 158l6 31h112l-6 -27q-11 -64 18 -95.5t83 -31.5q52 0 94 32t53 95l6 27h113l-6 -31q-19 -111 -93.5 -165t-177.5 -54zM51 0l199 1030h139l-199 -1030h-139z" />
<glyph unicode="&#x12e;" horiz-adv-x="559" d="M512 1440l-281 -1440q-192 -129 -192 -221q0 -21 11.5 -37.5t27.5 -25t32.5 -13.5t27.5 -7l12 -1l-54 -115q-4 0 -11 1t-27 5t-38 10t-40 18.5t-38 28t-27 40t-11 53.5q0 139 186 264l281 1440h141z" />
<glyph unicode="&#x12f;" horiz-adv-x="477" d="M391 1030l-201 -1030q-192 -129 -192 -221q0 -21 11.5 -37.5t27.5 -25t32.5 -13.5t28.5 -7l11 -1l-54 -115q-4 0 -11 1t-27 5t-38 10t-40 18.5t-38 28t-27 40t-11 53.5q0 140 188 266l201 1028h139zM291 1266l37 174h149l-35 -174h-151z" />
<glyph unicode="&#x130;" horiz-adv-x="559" d="M90 0l281 1440h141l-281 -1440h-141zM410 1610l34 174h134l-33 -174h-135z" />
<glyph unicode="&#x131;" horiz-adv-x="475" d="M51 0l199 1030h139l-199 -1030h-139z" />
<glyph unicode="&#x132;" horiz-adv-x="1189" d="M438 -10l25 131q302 0 368 346l189 973h141l-188 -973q-23 -118 -65 -205t-91.5 -138.5t-115.5 -82t-127 -41t-136 -10.5zM90 0l281 1440h141l-281 -1440h-141z" />
<glyph unicode="&#x133;" horiz-adv-x="952" d="M289 1266l37 174h149l-35 -174h-151zM49 0l201 1030h139l-201 -1030h-139zM766 1266l35 174h149l-32 -174h-152zM522 -33l205 1063h139l-207 -1067q-19 -98 -57.5 -171.5t-81.5 -113t-96.5 -63.5t-93 -30.5t-80.5 -6.5q-22 0 -42.5 1.5t-29.5 2.5l-10 2l25 121 q16 -2 45 -2q28 0 55.5 4.5t64.5 21t66.5 43.5t57 77.5t40.5 117.5z" />
<glyph unicode="&#x134;" horiz-adv-x="1060" d="M14 301q0 45 11 107l10 53h141l-8 -51q-10 -52 -10 -88q0 -213 213 -213q50 0 97 15.5t92.5 48t80 92t49.5 138.5l174 910h-350l25 127h491l-203 -1051q-21 -110 -69 -192.5t-112 -129.5t-133.5 -69.5t-143.5 -22.5q-72 0 -134.5 19t-112.5 57t-79 102t-29 148zM549 1540 l219 244h154l122 -244h-129l-77 166h-4l-144 -166h-141z" />
<glyph unicode="&#x135;" horiz-adv-x="475" d="M92 1196l221 244h154l123 -244h-129l-78 166h-4l-143 -166h-144zM43 -33l207 1063h139l-207 -1067q-19 -98 -57.5 -171.5t-81.5 -113t-96.5 -63.5t-93 -30.5t-80.5 -6.5q-22 0 -42.5 1.5t-30.5 2.5l-9 2l24 121q16 -2 45 -2q28 0 55.5 4.5t64.5 21t67 43.5t56.5 77.5 t39.5 117.5z" />
<glyph unicode="&#x136;" horiz-adv-x="1228" d="M90 0l281 1440h141l-121 -625h234l518 625h168l-572 -686v-4l314 -750h-154l-283 688h-249l-136 -688h-141zM426 -129h135v-29q0 -67 -21 -123.5t-69 -132.5h-115q40 68 58 119.5t18 108.5q0 27 -6 57z" />
<glyph unicode="&#x137;" horiz-adv-x="1026" d="M49 0l283 1440h139l-158 -803h160l385 393h176l-448 -455v-4l280 -571h-153l-246 514h-176l-103 -514h-139zM342 -129h135v-29q0 -67 -21 -123.5t-69 -132.5h-115q40 68 58 119.5t18 108.5q0 27 -6 57z" />
<glyph unicode="&#x138;" horiz-adv-x="1038" d="M51 0l199 1030h139l-80 -422h160l410 422h178l-477 -483v-4l268 -543h-158l-229 487h-176l-95 -487h-139z" />
<glyph unicode="&#x139;" horiz-adv-x="1044" d="M90 0l281 1440h141l-256 -1313h668l-27 -127h-807zM387 1540l191 244h172l-228 -244h-135z" />
<glyph unicode="&#x13a;" horiz-adv-x="505" d="M80 182q0 35 8 74l231 1184h140l-228 -1166q-6 -35 -6 -63q0 -31 8.5 -50.5t24.5 -28t30 -11t34 -2.5l30 2l-26 -125q-22 -4 -47 -4q-27 0 -52 4t-52.5 17t-47.5 33t-33.5 55t-13.5 81zM338 1540l190 244h172l-227 -244h-135z" />
<glyph unicode="&#x13b;" horiz-adv-x="1044" d="M90 0l281 1440h141l-256 -1313h668l-27 -127h-807zM414 -129h135v-29q0 -67 -21 -123.5t-69 -132.5h-115q40 68 58 119.5t18 108.5q0 27 -6 57z" />
<glyph unicode="&#x13c;" horiz-adv-x="505" d="M80 182q0 35 8 74l231 1184h140l-228 -1166q-6 -35 -6 -63q0 -31 8.5 -50.5t24.5 -28t30 -11t34 -2.5l30 2l-26 -125q-22 -4 -47 -4q-27 0 -52 4t-52.5 17t-47.5 33t-33.5 55t-13.5 81zM92 -129h135v-29q0 -67 -21 -123.5t-69 -132.5h-114q39 67 57 119t18 109 q0 27 -6 57z" />
<glyph unicode="&#x13d;" horiz-adv-x="1044" d="M90 0l281 1440h141l-256 -1313h668l-27 -127h-807zM698 1440h136v-29q0 -66 -21.5 -122.5t-69.5 -133.5h-114q40 68 58 119t18 108q0 23 -7 58z" />
<glyph unicode="&#x13e;" horiz-adv-x="567" d="M80 182q0 35 8 74l231 1184h140l-228 -1166q-6 -35 -6 -63q0 -31 8.5 -50.5t24.5 -28t30 -11t34 -2.5l30 2l-26 -125q-22 -4 -47 -4q-27 0 -52 4t-52.5 17t-47.5 33t-33.5 55t-13.5 81zM588 1440h135v-29q0 -67 -21 -123.5t-69 -132.5h-115q40 68 58 119t18 108 q0 28 -6 58z" />
<glyph unicode="&#x13f;" horiz-adv-x="1044" d="M90 0l281 1440h141l-256 -1313h668l-27 -127h-807zM616 676l33 170h164l-31 -170h-166z" />
<glyph unicode="&#x140;" horiz-adv-x="614" d="M80 182q0 35 8 74l231 1184h140l-228 -1166q-6 -35 -6 -63q0 -31 8.5 -50.5t24.5 -28t30 -11t34 -2.5l30 2l-26 -125q-22 -4 -47 -4q-27 0 -52 4t-52.5 17t-47.5 33t-33.5 55t-13.5 81zM449 676l32 170h164l-31 -170h-165z" />
<glyph unicode="&#x141;" horiz-adv-x="1089" d="M129 618l29 144l141 74l119 604h141l-102 -522l256 133l-29 -148l-256 -131l-125 -645h668l-27 -127h-807l135 692z" />
<glyph unicode="&#x142;" horiz-adv-x="628" d="M78 627l24 143l185 96l112 574h140l-97 -494l199 105l-29 -148l-198 -104l-103 -525q-6 -34 -6 -63q0 -31 8.5 -50.5t24 -28t29.5 -11t34 -2.5l31 2l-26 -125q-23 -4 -48 -4q-27 0 -51.5 4t-52.5 17t-48 33t-33 55t-13 81q0 35 8 74l90 463z" />
<glyph unicode="&#x143;" horiz-adv-x="1529" d="M90 0l281 1440h127l532 -1037q16 -32 36 -80.5t32 -80.5l12 -33h4q11 118 25 194l202 1037h142l-281 -1440h-127l-532 1036q-16 32 -36.5 81t-32.5 81l-13 33h-4q-11 -119 -25 -195l-201 -1036h-141zM874 1540l191 244h172l-227 -244h-136z" />
<glyph unicode="&#x144;" horiz-adv-x="1216" d="M49 0l201 1030h135l-27 -147q-4 -21 -10.5 -45t-11.5 -38l-4 -14h4q21 42 62 86.5t98.5 86.5t135.5 69t159 27q141 0 217.5 -68t76.5 -199q0 -55 -16 -137l-127 -651h-139l119 616q16 75 16 138q0 85 -47 127.5t-129 42.5q-84 0 -165.5 -36.5t-144.5 -97.5t-108.5 -142.5 t-62.5 -170.5l-93 -477h-139zM676 1196l190 244h172l-227 -244h-135z" />
<glyph unicode="&#x145;" horiz-adv-x="1529" d="M90 0l281 1440h127l532 -1037q16 -32 36 -80.5t32 -80.5l12 -33h4q11 118 25 194l202 1037h142l-281 -1440h-127l-532 1036q-16 32 -36.5 81t-32.5 81l-13 33h-4q-11 -119 -25 -195l-201 -1036h-141zM557 -129h135v-29q0 -67 -21 -123.5t-69 -132.5h-115q40 68 58 119.5 t18 108.5q0 27 -6 57z" />
<glyph unicode="&#x146;" horiz-adv-x="1216" d="M49 0l201 1030h135l-27 -147q-4 -21 -10.5 -45t-11.5 -38l-4 -14h4q21 42 62 86.5t98.5 86.5t135.5 69t159 27q141 0 217.5 -68t76.5 -199q0 -55 -16 -137l-127 -651h-139l119 616q16 75 16 138q0 85 -47 127.5t-129 42.5q-84 0 -165.5 -36.5t-144.5 -97.5t-108.5 -142.5 t-62.5 -170.5l-93 -477h-139zM418 -129h135v-29q0 -67 -21 -123.5t-69 -132.5h-115q40 68 58 119.5t18 108.5q0 27 -6 57z" />
<glyph unicode="&#x147;" horiz-adv-x="1529" d="M90 0l281 1440h127l532 -1037q16 -32 36 -80.5t32 -80.5l12 -33h4q11 118 25 194l202 1037h142l-281 -1440h-127l-532 1036q-16 32 -36.5 81t-32.5 81l-13 33h-4q-11 -119 -25 -195l-201 -1036h-141zM874 1540l-122 244h129l77 -164h5l143 164h141l-219 -244h-154z" />
<glyph unicode="&#x148;" horiz-adv-x="1216" d="M49 0l201 1030h135l-27 -147q-4 -21 -10.5 -45t-11.5 -38l-4 -14h4q21 42 62 86.5t98.5 86.5t135.5 69t159 27q141 0 217.5 -68t76.5 -199q0 -55 -16 -137l-127 -651h-139l119 616q16 75 16 138q0 85 -47 127.5t-129 42.5q-84 0 -165.5 -36.5t-144.5 -97.5t-108.5 -142.5 t-62.5 -170.5l-93 -477h-139zM678 1196l-123 244h129l78 -164h4l143 164h142l-220 -244h-153z" />
<glyph unicode="&#x149;" horiz-adv-x="1216" d="M49 0l201 1030h135l-27 -147q-4 -21 -10.5 -45t-11.5 -38l-4 -14h4q21 42 62 86.5t98.5 86.5t135.5 69t159 27q141 0 217.5 -68t76.5 -199q0 -55 -16 -137l-127 -651h-139l119 616q16 75 16 138q0 85 -47 127.5t-129 42.5q-84 0 -165.5 -36.5t-144.5 -97.5t-108.5 -142.5 t-62.5 -170.5l-93 -477h-139zM195 1440h135v-29q0 -67 -21 -123.5t-69 -132.5h-115q40 68 58 119t18 108q0 28 -6 58z" />
<glyph unicode="&#x14a;" horiz-adv-x="1529" d="M90 0l281 1440h127l532 -1037q16 -32 36.5 -80.5t33.5 -80.5l12 -33h4q11 118 25 194l200 1037h144l-273 -1383q-23 -119 -65.5 -207t-92 -139t-115.5 -81.5t-125.5 -40t-133.5 -9.5l25 131q283 0 360 312l-522 1013q-16 32 -36.5 81t-32.5 81l-13 33h-4 q-9 -119 -23 -195l-203 -1036h-141z" />
<glyph unicode="&#x14b;" horiz-adv-x="1218" d="M51 0l199 1030h137l-27 -147q-4 -21 -11 -45t-12 -38l-5 -14h4q22 42 63.5 86.5t99 86.5t135.5 69t159 27q141 0 216.5 -68t75.5 -199q0 -66 -14 -137l-135 -696q-19 -98 -58.5 -171.5t-82 -113t-96.5 -63.5t-93 -30.5t-80 -6.5q-22 0 -42.5 1.5t-29.5 2.5l-10 2l25 121 q16 -2 45 -2q28 0 55.5 4.5t64.5 21t67 43.5t56.5 77.5t39.5 117.5l127 657q16 75 16 138q0 85 -47 127.5t-129 42.5q-171 0 -308.5 -132t-172.5 -315l-93 -477h-139z" />
<glyph unicode="&#x14c;" horiz-adv-x="1683" d="M119 598q0 171 74 332.5t193.5 277.5t277 186t319.5 70q278 0 452.5 -170t174.5 -436q0 -140 -48 -274.5t-132 -243t-193 -191.5t-237 -128.5t-257 -45.5q-278 0 -451 175t-173 448zM264 602q0 -217 134 -355t347 -138q131 0 261 59.5t230.5 158.5t163 237.5t62.5 287.5 q0 211 -134 345t-347 134q-89 0 -178 -26.5t-168 -73.5t-147.5 -114.5t-118 -147t-77.5 -174.5t-28 -193zM778 1608l21 112h506l-21 -112h-506z" />
<glyph unicode="&#x14d;" horiz-adv-x="1275" d="M68 426q0 128 53.5 246t141.5 201t203 132.5t234 49.5q209 0 340 -124.5t131 -320.5q0 -130 -54.5 -249t-142.5 -202.5t-202.5 -133.5t-232.5 -50q-210 0 -340.5 126t-130.5 325zM211 430q0 -145 91.5 -237.5t238.5 -92.5q89 0 177 39.5t156.5 106t111 161t42.5 197.5 q0 143 -92 233.5t-238 90.5q-122 0 -234 -65.5t-182.5 -181.5t-70.5 -251zM512 1264l20 112h506l-20 -112h-506z" />
<glyph unicode="&#x14e;" horiz-adv-x="1683" d="M119 598q0 171 74 332.5t193.5 277.5t277 186t319.5 70q278 0 452.5 -170t174.5 -436q0 -140 -48 -274.5t-132 -243t-193 -191.5t-237 -128.5t-257 -45.5q-278 0 -451 175t-173 448zM264 602q0 -217 134 -355t347 -138q131 0 261 59.5t230.5 158.5t163 237.5t62.5 287.5 q0 211 -134 345t-347 134q-89 0 -178 -26.5t-168 -73.5t-147.5 -114.5t-118 -147t-77.5 -174.5t-28 -193zM1022 1534q-98 0 -161 61t-42 158l6 31h113l-6 -27q-11 -64 17.5 -95.5t82.5 -31.5q52 0 94.5 32t53.5 95l6 27h112l-6 -31q-19 -111 -93 -165t-177 -54z" />
<glyph unicode="&#x14f;" horiz-adv-x="1275" d="M68 426q0 128 53.5 246t141.5 201t203 132.5t234 49.5q209 0 340 -124.5t131 -320.5q0 -130 -54.5 -249t-142.5 -202.5t-202.5 -133.5t-232.5 -50q-210 0 -340.5 126t-130.5 325zM211 430q0 -145 91.5 -237.5t238.5 -92.5q89 0 177 39.5t156.5 106t111 161t42.5 197.5 q0 143 -92 233.5t-238 90.5q-122 0 -234 -65.5t-182.5 -181.5t-70.5 -251zM756 1190q-98 0 -161 61t-42 158l6 31h113l-6 -27q-11 -64 17.5 -95.5t82.5 -31.5q52 0 94 32t53 95l7 27h112l-6 -31q-19 -111 -93 -165t-177 -54z" />
<glyph unicode="&#x150;" horiz-adv-x="1683" d="M119 598q0 171 74 332.5t193.5 277.5t277 186t319.5 70q278 0 452.5 -170t174.5 -436q0 -140 -48 -274.5t-132 -243t-193 -191.5t-237 -128.5t-257 -45.5q-278 0 -451 175t-173 448zM264 602q0 -217 134 -355t347 -138q131 0 261 59.5t230.5 158.5t163 237.5t62.5 287.5 q0 211 -134 345t-347 134q-89 0 -178 -26.5t-168 -73.5t-147.5 -114.5t-118 -147t-77.5 -174.5t-28 -193zM1057 1540l190 244h168l-225 -244h-133zM784 1540l181 244h147l-186 -244h-142z" />
<glyph unicode="&#x151;" horiz-adv-x="1275" d="M68 426q0 128 53.5 246t141.5 201t203 132.5t234 49.5q209 0 340 -124.5t131 -320.5q0 -130 -54.5 -249t-142.5 -202.5t-202.5 -133.5t-232.5 -50q-210 0 -340.5 126t-130.5 325zM211 430q0 -145 91.5 -237.5t238.5 -92.5q89 0 177 39.5t156.5 106t111 161t42.5 197.5 q0 143 -92 233.5t-238 90.5q-122 0 -234 -65.5t-182.5 -181.5t-70.5 -251zM791 1196l190 244h168l-225 -244h-133zM518 1196l180 244h148l-187 -244h-141z" />
<glyph unicode="&#x152;" horiz-adv-x="1943" d="M121 588q0 173 70.5 334.5t187.5 279t274.5 188t325.5 70.5q51 0 144.5 -10t127.5 -10h711l-25 -127h-667l-103 -525h547l-26 -126h-547l-103 -535h705l-25 -127h-723q-29 0 -116.5 -10t-130.5 -10q-142 0 -260 45.5t-198.5 126.5t-124.5 193t-44 243zM266 582 q0 -209 131 -340t353 -131q35 0 71.5 4t56.5 8l19 4l229 1186q-63 16 -141 16q-192 0 -358 -101t-263.5 -273.5t-97.5 -372.5z" />
<glyph unicode="&#x153;" horiz-adv-x="2074" d="M68 426q0 128 53.5 246t141.5 201t203 132.5t234 49.5q155 0 267 -76t159 -203h4q79 127 205 203t277 76q185 0 280 -102t95 -271q0 -36 -7.5 -79.5t-15.5 -68.5l-8 -26h-789q-8 -41 -8 -88q0 -141 87 -230.5t241 -89.5q52 0 106 13t93.5 31t71.5 36.5t48 31.5l17 13 l45 -114q-7 -6 -19.5 -15t-53 -32.5t-83.5 -41.5t-105.5 -32.5t-123.5 -14.5q-161 0 -275 74.5t-157 206.5h-4q-89 -129 -224.5 -205t-281.5 -76q-210 0 -341.5 126t-131.5 325zM1194 623h643q6 34 6 71q0 119 -64 181.5t-169 62.5q-133 0 -247.5 -83.5t-168.5 -231.5z M211 430q0 -145 92 -237.5t238 -92.5q121 0 233 66t184 183.5t72 254.5q0 143 -92 233.5t-238 90.5q-123 0 -235.5 -65.5t-183 -181.5t-70.5 -251z" />
<glyph unicode="&#x154;" horiz-adv-x="1282" d="M90 0l281 1440h473q126 0 200 -39q80 -39 125 -115t45 -176q0 -170 -101.5 -301t-262.5 -168v-4q10 -18 24 -59l205 -578h-151l-211 606h-367l-117 -606h-143zM375 733h334q151 0 255.5 101t104.5 262q0 101 -64 159t-178 58h-340zM727 1540l191 244h172l-228 -244h-135z " />
<glyph unicode="&#x155;" horiz-adv-x="729" d="M51 0l199 1030h137l-37 -182l-24 -90h4q57 120 157 201t220 81q37 0 61 -6l-27 -137q-28 4 -51 4q-64 0 -125 -32.5t-108.5 -85t-87.5 -120.5t-66 -138.5t-39 -139.5l-74 -385h-139zM481 1196l191 244h172l-228 -244h-135z" />
<glyph unicode="&#x156;" horiz-adv-x="1282" d="M90 0l281 1440h473q126 0 200 -39q80 -39 125 -115t45 -176q0 -170 -101.5 -301t-262.5 -168v-4q10 -18 24 -59l205 -578h-151l-211 606h-367l-117 -606h-143zM375 733h334q151 0 255.5 101t104.5 262q0 101 -64 159t-178 58h-340zM465 -129h135v-29q0 -67 -21 -123.5 t-69 -132.5h-115q40 68 58 119.5t18 108.5q0 27 -6 57z" />
<glyph unicode="&#x157;" horiz-adv-x="729" d="M51 0l199 1030h137l-37 -182l-24 -90h4q57 120 157 201t220 81q37 0 61 -6l-27 -137q-28 4 -51 4q-64 0 -125 -32.5t-108.5 -85t-87.5 -120.5t-66 -138.5t-39 -139.5l-74 -385h-139zM35 -129h135v-29q0 -67 -21 -123.5t-69 -132.5h-115q40 68 58 119.5t18 108.5 q0 27 -6 57z" />
<glyph unicode="&#x158;" horiz-adv-x="1282" d="M90 0l281 1440h473q126 0 200 -39q80 -39 125 -115t45 -176q0 -170 -101.5 -301t-262.5 -168v-4q10 -18 24 -59l205 -578h-151l-211 606h-367l-117 -606h-143zM375 733h334q151 0 255.5 101t104.5 262q0 101 -64 159t-178 58h-340zM729 1540l-123 244h129l78 -164h4 l144 164h141l-219 -244h-154z" />
<glyph unicode="&#x159;" horiz-adv-x="729" d="M51 0l199 1030h137l-37 -182l-24 -90h4q57 120 157 201t220 81q37 0 61 -6l-27 -137q-28 4 -51 4q-64 0 -125 -32.5t-108.5 -85t-87.5 -120.5t-66 -138.5t-39 -139.5l-74 -385h-139zM483 1196l-123 244h129l78 -164h4l144 164h141l-219 -244h-154z" />
<glyph unicode="&#x15a;" horiz-adv-x="1101" d="M20 160l95 100q5 -6 14.5 -16t43 -36t71 -45.5t98 -35.5t125.5 -16q134 0 238 83t104 212q0 59 -33 107t-85.5 81.5t-116 64.5t-127 66t-116 75.5t-85.5 102t-33 137.5q0 110 66 207.5t182.5 157t253.5 59.5q73 0 139.5 -14.5t109 -35t74.5 -40.5t46 -34l14 -15l-84 -108 q-4 5 -12.5 12.5t-37.5 26.5t-61 34t-82.5 27t-103.5 12q-151 0 -255 -90t-104 -199q0 -53 33 -96.5t85.5 -75.5t116 -63t127 -66.5t116 -78.5t85.5 -108t33 -146q0 -84 -37 -163t-100.5 -138t-155 -94.5t-194.5 -35.5q-86 0 -163.5 19t-127 46t-86.5 54.5t-54 46.5z M666 1540l190 244h172l-227 -244h-135z" />
<glyph unicode="&#x15b;" horiz-adv-x="905" d="M-6 125l84 92q4 -5 12 -13t35.5 -28t59 -35.5t82 -28t104.5 -12.5q59 0 113 20.5t92 65t38 103.5q0 37 -26 67.5t-67 53t-90.5 43.5t-99.5 46.5t-91 56.5t-67 78.5t-26 106.5q0 74 33 135t87.5 99.5t121.5 59t137 20.5q61 0 116.5 -11.5t90.5 -28t61.5 -33.5t37.5 -28 l12 -12l-78 -98l-9 9t-28 21t-48 26t-68.5 20.5t-88.5 9.5q-57 0 -109 -17.5t-91 -61.5t-39 -106q0 -38 26 -68.5t67 -53t91 -44t100.5 -47t91.5 -56.5t67 -79t26 -108q0 -134 -112 -224t-269 -90q-72 0 -137 15.5t-107.5 37.5t-74.5 44t-46 38zM504 1196l190 244h172 l-227 -244h-135z" />
<glyph unicode="&#x15c;" horiz-adv-x="1101" d="M20 160l95 100q5 -6 14.5 -16t43 -36t71 -45.5t98 -35.5t125.5 -16q134 0 238 83t104 212q0 59 -33 107t-85.5 81.5t-116 64.5t-127 66t-116 75.5t-85.5 102t-33 137.5q0 110 66 207.5t182.5 157t253.5 59.5q73 0 139.5 -14.5t109 -35t74.5 -40.5t46 -34l14 -15l-84 -108 q-4 5 -12.5 12.5t-37.5 26.5t-61 34t-82.5 27t-103.5 12q-151 0 -255 -90t-104 -199q0 -53 33 -96.5t85.5 -75.5t116 -63t127 -66.5t116 -78.5t85.5 -108t33 -146q0 -84 -37 -163t-100.5 -138t-155 -94.5t-194.5 -35.5q-86 0 -163.5 19t-127 46t-86.5 54.5t-54 46.5z M481 1540l219 244h154l123 -244h-129l-78 166h-4l-143 -166h-142z" />
<glyph unicode="&#x15d;" horiz-adv-x="905" d="M-6 125l84 92q4 -5 12 -13t35.5 -28t59 -35.5t82 -28t104.5 -12.5q59 0 113 20.5t92 65t38 103.5q0 37 -26 67.5t-67 53t-90.5 43.5t-99.5 46.5t-91 56.5t-67 78.5t-26 106.5q0 74 33 135t87.5 99.5t121.5 59t137 20.5q61 0 116.5 -11.5t90.5 -28t61.5 -33.5t37.5 -28 l12 -12l-78 -98l-9 9t-28 21t-48 26t-68.5 20.5t-88.5 9.5q-57 0 -109 -17.5t-91 -61.5t-39 -106q0 -38 26 -68.5t67 -53t91 -44t100.5 -47t91.5 -56.5t67 -79t26 -108q0 -134 -112 -224t-269 -90q-72 0 -137 15.5t-107.5 37.5t-74.5 44t-46 38zM319 1196l220 244h153 l123 -244h-129l-78 166h-4l-143 -166h-142z" />
<glyph unicode="&#x15e;" horiz-adv-x="1101" d="M252 -313q35 -11 82 -11t83 18.5t36 61.5q0 28 -28 44t-77 16l-31 -2l72 166q-71 8 -135 29t-105 46t-71.5 49t-43.5 40l-14 16l95 100q5 -6 14.5 -16t43 -36t71 -45.5t98 -35.5t125.5 -16q134 0 238 83t104 212q0 59 -33 107t-85.5 81.5t-116 64.5t-127 66t-116 75.5 t-85.5 102t-33 137.5q0 110 66 207.5t182.5 157t253.5 59.5q73 0 139.5 -14.5t109 -35t74.5 -40.5t46 -34l14 -15l-84 -108q-4 5 -12.5 12.5t-37.5 26.5t-61 34t-82.5 27t-103.5 12q-151 0 -255 -90t-104 -199q0 -53 33 -96.5t85.5 -75.5t116 -63t127 -66.5t116 -78.5 t85.5 -108t33 -146q0 -112 -61.5 -209.5t-171.5 -158t-244 -63.5l-33 -88q49 -8 84 -42.5t35 -90.5q0 -86 -68 -130t-153 -44q-30 0 -58 3t-40 6l-13 3z" />
<glyph unicode="&#x15f;" horiz-adv-x="905" d="M147 -313q35 -11 82 -11t83 18.5t36 61.5q0 28 -27.5 44t-76.5 16l-31 -2l72 168q-55 8 -105.5 25.5t-82.5 37t-56.5 38t-35.5 30.5l-11 12l84 92q4 -5 12 -13t35.5 -28t59 -35.5t82 -28t104.5 -12.5q59 0 113 20.5t92 65t38 103.5q0 37 -26 67.5t-67 53t-90.5 43.5 t-99.5 46.5t-91 56.5t-67 78.5t-26 106.5q0 74 33 135t87.5 99.5t121.5 59t137 20.5q61 0 116.5 -11.5t90.5 -28t61.5 -33.5t37.5 -28l12 -12l-78 -98l-9 9t-28 21t-48 26t-68.5 20.5t-88.5 9.5q-57 0 -109 -17.5t-91 -61.5t-39 -106q0 -38 26 -68.5t67 -53t91 -44 t100.5 -47t91.5 -56.5t67 -79t26 -108q0 -134 -112 -224t-269 -90l-33 -88q49 -8 84 -42.5t35 -90.5q0 -86 -68 -130t-153 -44q-30 0 -58 3t-40 6l-13 3z" />
<glyph unicode="&#x160;" horiz-adv-x="1101" d="M20 160l95 100q5 -6 14.5 -16t43 -36t71 -45.5t98 -35.5t125.5 -16q134 0 238 83t104 212q0 59 -33 107t-85.5 81.5t-116 64.5t-127 66t-116 75.5t-85.5 102t-33 137.5q0 110 66 207.5t182.5 157t253.5 59.5q73 0 139.5 -14.5t109 -35t74.5 -40.5t46 -34l14 -15l-84 -108 q-4 5 -12.5 12.5t-37.5 26.5t-61 34t-82.5 27t-103.5 12q-151 0 -255 -90t-104 -199q0 -53 33 -96.5t85.5 -75.5t116 -63t127 -66.5t116 -78.5t85.5 -108t33 -146q0 -84 -37 -163t-100.5 -138t-155 -94.5t-194.5 -35.5q-86 0 -163.5 19t-127 46t-86.5 54.5t-54 46.5z M666 1540l-123 244h129l78 -164h4l143 164h141l-219 -244h-153z" />
<glyph unicode="&#x161;" horiz-adv-x="905" d="M-6 125l84 92q4 -5 12 -13t35.5 -28t59 -35.5t82 -28t104.5 -12.5q59 0 113 20.5t92 65t38 103.5q0 37 -26 67.5t-67 53t-90.5 43.5t-99.5 46.5t-91 56.5t-67 78.5t-26 106.5q0 74 33 135t87.5 99.5t121.5 59t137 20.5q61 0 116.5 -11.5t90.5 -28t61.5 -33.5t37.5 -28 l12 -12l-78 -98l-9 9t-28 21t-48 26t-68.5 20.5t-88.5 9.5q-57 0 -109 -17.5t-91 -61.5t-39 -106q0 -38 26 -68.5t67 -53t91 -44t100.5 -47t91.5 -56.5t67 -79t26 -108q0 -134 -112 -224t-269 -90q-72 0 -137 15.5t-107.5 37.5t-74.5 44t-46 38zM504 1196l-123 244h129 l78 -164h4l143 164h142l-220 -244h-153z" />
<glyph unicode="&#x162;" horiz-adv-x="1191" d="M401 0l256 1313h-514l23 127h1173l-22 -127h-518l-254 -1313h-27l-43 -113q49 -8 84 -42.5t35 -90.5q0 -86 -68 -130t-153 -44q-30 0 -58 3t-41 6l-12 3l21 95q35 -11 82 -11t82.5 18.5t35.5 61.5q0 28 -27.5 44t-76.5 16l-31 -2l80 186h-27z" />
<glyph unicode="&#x163;" horiz-adv-x="684" d="M100 -313q35 -11 82 -11t83 18.5t36 61.5q0 28 -27.5 44t-76.5 16l-31 -2l96 223q-108 70 -108 246q0 40 10 112l100 508h-135l23 119h137l57 293h137l-59 -293h260l-22 -119h-259l-98 -510q-10 -58 -10 -92q0 -47 11.5 -81.5t28.5 -53.5t41.5 -30.5t46.5 -15t48 -3.5 l59 4l-24 -125q-24 -4 -53 -4q-63 0 -115 14l-45 -119q49 -8 84 -42.5t35 -90.5q0 -59 -36 -100t-84.5 -57.5t-101.5 -16.5q-30 0 -57.5 3t-40.5 6l-12 3z" />
<glyph unicode="&#x164;" horiz-adv-x="1191" d="M401 0l256 1313h-514l23 127h1173l-22 -127h-518l-254 -1313h-144zM700 1540l-122 244h129l77 -164h4l144 164h141l-219 -244h-154z" />
<glyph unicode="&#x165;" horiz-adv-x="681" d="M152 283q0 40 10 112l100 508h-135l23 119h137l57 293h137l-59 -293h260l-23 -119h-258l-98 -510q-10 -58 -10 -92q0 -47 11.5 -81.5t28.5 -53.5t41.5 -30.5t46.5 -15t48 -3.5l59 4l-24 -125q-24 -4 -53 -4q-57 0 -104 11.5t-94 41t-74 90t-27 148.5zM643 1440h135v-29 q0 -65 -21 -121.5t-69 -132.5h-115q40 68 58 119t18 106q0 28 -6 58z" />
<glyph unicode="&#x166;" horiz-adv-x="1243" d="M223 664l23 116h329l105 533h-516l24 127h1174l-23 -127h-518l-104 -533h340l-23 -116h-340l-129 -664h-141l129 664h-330z" />
<glyph unicode="&#x167;" horiz-adv-x="729" d="M82 569l20 109h134l45 225h-136l23 119h137l57 293h138l-58 -293h258l-22 -119h-258l-45 -225h260l-21 -109h-260l-32 -176q-11 -64 -11 -92q0 -47 11.5 -81.5t28.5 -53.5t42 -30.5t47 -15t49 -3.5l58 4l-25 -125q-24 -4 -53 -4q-57 0 -104 11.5t-94 41t-74 90t-27 148.5 q0 47 12 112l33 174h-133z" />
<glyph unicode="&#x168;" horiz-adv-x="1476" d="M156 393q0 55 12 117l182 930h142l-183 -934q-10 -49 -10 -96q0 -142 90.5 -221.5t251.5 -79.5q186 0 317.5 107t167.5 294l183 930h143l-188 -948q-47 -239 -214.5 -378t-410.5 -139q-220 0 -351.5 111t-131.5 307zM614 1546q45 240 217 240q36 0 65 -15t47 -37 t34.5 -44t36.5 -37t43 -15q77 0 104 142h111q-24 -121 -76.5 -180.5t-142.5 -59.5q-36 0 -64.5 15t-46.5 36.5t-34.5 43t-37 36.5t-43.5 15q-41 0 -66.5 -44t-35.5 -96h-111z" />
<glyph unicode="&#x169;" horiz-adv-x="1206" d="M94 242q0 50 17 137l125 651h139l-119 -612q-14 -74 -14 -142q0 -81 40.5 -125.5t139.5 -44.5q111 0 212.5 66.5t167 169t87.5 215.5l92 473h139l-200 -1030h-138l29 147l27 97h-4q-18 -33 -45 -67.5t-69.5 -71t-91.5 -65t-113 -47t-132 -18.5q-127 0 -208 64.5 t-81 202.5zM406 1202q45 240 217 240q36 0 64.5 -15t47 -37t34.5 -44t36 -37t43 -15q77 0 104 142h111q-24 -121 -76.5 -180.5t-142.5 -59.5q-36 0 -64.5 15t-46.5 36t-34.5 42.5t-37 36.5t-43.5 15q-41 0 -66.5 -43.5t-35.5 -95.5h-110z" />
<glyph unicode="&#x16a;" horiz-adv-x="1476" d="M156 393q0 55 12 117l182 930h142l-183 -934q-10 -49 -10 -96q0 -142 90.5 -221.5t251.5 -79.5q186 0 317.5 107t167.5 294l183 930h143l-188 -948q-47 -239 -214.5 -378t-410.5 -139q-220 0 -351.5 111t-131.5 307zM680 1608l20 112h506l-20 -112h-506z" />
<glyph unicode="&#x16b;" horiz-adv-x="1206" d="M94 242q0 50 17 137l125 651h139l-119 -612q-14 -74 -14 -142q0 -81 40.5 -125.5t139.5 -44.5q111 0 212.5 66.5t167 169t87.5 215.5l92 473h139l-200 -1030h-138l29 147l27 97h-4q-18 -33 -45 -67.5t-69.5 -71t-91.5 -65t-113 -47t-132 -18.5q-127 0 -208 64.5 t-81 202.5zM471 1264l21 112h505l-20 -112h-506z" />
<glyph unicode="&#x16c;" horiz-adv-x="1476" d="M156 393q0 55 12 117l182 930h142l-183 -934q-10 -49 -10 -96q0 -142 90.5 -221.5t251.5 -79.5q186 0 317.5 107t167.5 294l183 930h143l-188 -948q-47 -239 -214.5 -378t-410.5 -139q-220 0 -351.5 111t-131.5 307zM922 1534q-98 0 -161 61t-42 158l6 31h113l-7 -27 q-11 -64 18 -95.5t83 -31.5q52 0 94 32t53 95l6 27h113l-6 -31q-19 -111 -93 -165t-177 -54z" />
<glyph unicode="&#x16d;" horiz-adv-x="1206" d="M94 242q0 50 17 137l125 651h139l-119 -612q-14 -74 -14 -142q0 -81 40.5 -125.5t139.5 -44.5q111 0 212.5 66.5t167 169t87.5 215.5l92 473h139l-200 -1030h-138l29 147l27 97h-4q-18 -33 -45 -67.5t-69.5 -71t-91.5 -65t-113 -47t-132 -18.5q-127 0 -208 64.5 t-81 202.5zM715 1190q-98 0 -161 61t-42 158l6 31h113l-6 -27q-11 -64 17.5 -95.5t82.5 -31.5q52 0 94 32t53 95l7 27h112l-6 -31q-19 -111 -93 -165t-177 -54z" />
<glyph unicode="&#x16e;" horiz-adv-x="1476" d="M156 393q0 55 12 117l182 930h142l-183 -934q-10 -49 -10 -96q0 -142 90.5 -221.5t251.5 -79.5q186 0 317.5 107t167.5 294l183 930h143l-188 -948q-47 -239 -214.5 -378t-410.5 -139q-220 0 -351.5 111t-131.5 307zM926 1518q-65 0 -103.5 34t-38.5 93q0 68 52 115.5 t120 47.5q65 0 103.5 -34t38.5 -95q0 -66 -53 -113.5t-119 -47.5zM928 1595q34 0 58 24.5t24 59.5q0 23 -15.5 38.5t-40.5 15.5q-33 0 -57.5 -25t-24.5 -61q0 -24 15 -38t41 -14z" />
<glyph unicode="&#x16f;" horiz-adv-x="1206" d="M94 242q0 50 17 137l125 651h139l-119 -612q-14 -74 -14 -142q0 -81 40.5 -125.5t139.5 -44.5q111 0 212.5 66.5t167 169t87.5 215.5l92 473h139l-200 -1030h-138l29 147l27 97h-4q-18 -33 -45 -67.5t-69.5 -71t-91.5 -65t-113 -47t-132 -18.5q-127 0 -208 64.5 t-81 202.5zM719 1174q-65 0 -103 33.5t-38 92.5q0 68 52.5 116t119.5 48q65 0 103 -34t38 -95q0 -66 -53 -113.5t-119 -47.5zM721 1251q34 0 58 24.5t24 59.5q0 23 -15.5 38.5t-39.5 15.5q-33 0 -57.5 -25t-24.5 -61q0 -24 14.5 -38t40.5 -14z" />
<glyph unicode="&#x170;" horiz-adv-x="1476" d="M156 393q0 55 12 117l182 930h142l-183 -934q-10 -49 -10 -96q0 -142 90.5 -221.5t251.5 -79.5q186 0 317.5 107t167.5 294l183 930h143l-188 -948q-47 -239 -214.5 -378t-410.5 -139q-220 0 -351.5 111t-131.5 307zM956 1540l191 244h168l-225 -244h-134zM684 1540 l180 244h148l-187 -244h-141z" />
<glyph unicode="&#x171;" horiz-adv-x="1206" d="M94 242q0 50 17 137l125 651h139l-119 -612q-14 -74 -14 -142q0 -81 40.5 -125.5t139.5 -44.5q111 0 212.5 66.5t167 169t87.5 215.5l92 473h139l-200 -1030h-138l29 147l27 97h-4q-18 -33 -45 -67.5t-69.5 -71t-91.5 -65t-113 -47t-132 -18.5q-127 0 -208 64.5 t-81 202.5zM750 1196l190 244h168l-225 -244h-133zM477 1196l180 244h148l-187 -244h-141z" />
<glyph unicode="&#x172;" horiz-adv-x="1478" d="M526 -264q0 123 150 241q-12 -2 -37 -2q-220 0 -351.5 111t-131.5 307q0 55 12 117l182 930h142l-183 -934q-10 -55 -10 -96q0 -142 90.5 -221.5t251.5 -79.5q186 0 317.5 107t167.5 294l183 930h143l-188 -948q-15 -78 -44.5 -144t-60.5 -110.5t-78 -86.5t-81.5 -66 t-86.5 -56q-48 -29 -78 -48.5t-66.5 -46.5t-57 -49.5t-35 -50.5t-14.5 -55q0 -34 27.5 -55t54.5 -25l28 -4l-53 -115q-4 0 -11 1t-27 5t-38 10t-40.5 18.5t-38.5 28t-27 40t-11 53.5z" />
<glyph unicode="&#x173;" horiz-adv-x="1206" d="M592 -264q0 141 190 268l29 143l27 97h-4q-18 -33 -45 -67.5t-69.5 -71t-91.5 -65t-113 -47t-132 -18.5q-127 0 -208 64.5t-81 202.5q0 50 17 137l125 651h139l-119 -612q-14 -74 -14 -142q0 -81 40.5 -125.5t139.5 -44.5q111 0 212.5 66.5t167 169t87.5 215.5l92 473 h139l-200 -1030q-193 -130 -193 -221q0 -21 11.5 -37.5t27.5 -25t32.5 -13.5t27.5 -7l12 -1l-54 -115q-4 0 -11 1t-27 5t-38 10t-40 18.5t-38 28t-27 40t-11 53.5z" />
<glyph unicode="&#x174;" horiz-adv-x="1908" d="M334 0l-98 1440h145l63 -1118l2 -154h5q32 80 67 154l537 1118h141l72 -1118l4 -154h4q30 82 61 154l498 1118h156l-654 -1440h-172l-69 1014q-3 37 -4 91t0 89v35h-5q-51 -121 -94 -213l-491 -1016h-168zM891 1540l219 244h154l122 -244h-129l-77 166h-4l-144 -166h-141 z" />
<glyph unicode="&#x175;" horiz-adv-x="1642" d="M262 0l-147 1030h139l100 -772l8 -111h5q28 60 55 111l399 768h140l104 -768l10 -111h4q24 58 51 111l402 772h149l-546 -1030h-152l-111 739l-10 111h-4q-26 -62 -53 -111l-391 -739h-152zM670 1196l219 244h153l123 -244h-129l-78 166h-4l-143 -166h-141z" />
<glyph unicode="&#x176;" horiz-adv-x="1155" d="M377 0l123 618l-324 822h152l202 -522q13 -34 27.5 -77t22.5 -69l8 -27h4q60 94 119 170l405 525h172l-649 -826l-121 -614h-141zM494 1540l219 244h153l123 -244h-129l-78 166h-4l-143 -166h-141z" />
<glyph unicode="&#x177;" horiz-adv-x="1021" d="M-115 -264q5 -5 14 -11.5t39 -18t62 -11.5q125 0 229 166l93 149l-234 1020h145l160 -770l19 -108h2q28 57 57 106l447 772h157l-753 -1249q-61 -102 -143 -156.5t-175 -54.5q-52 0 -99 15t-68 31l-21 15zM365 1196l219 244h153l123 -244h-129l-78 166h-4l-143 -166h-141 z" />
<glyph unicode="&#x178;" horiz-adv-x="1155" d="M377 0l123 618l-324 822h152l202 -522q13 -34 27.5 -77t22.5 -69l8 -27h4q60 94 119 170l405 525h172l-649 -826l-121 -614h-141zM854 1608l35 176h127l-35 -176h-127zM545 1608l35 176h125l-33 -176h-127z" />
<glyph unicode="&#x179;" horiz-adv-x="1210" d="M-35 0l21 100l942 1082q30 35 62 67.5t48 48.5l17 15v4q-33 -4 -105 -4h-690l27 127h979l-21 -101l-944 -1081q-30 -35 -62 -67.5t-49 -48.5l-16 -15v-4q35 4 105 4h737l-25 -127h-1026zM737 1540l191 244h172l-228 -244h-135z" />
<glyph unicode="&#x17a;" horiz-adv-x="1034" d="M-33 0l17 90l706 723q21 22 45.5 45.5t38.5 35.5l14 13v4q-32 -4 -98 -4h-524l24 123h820l-19 -92l-708 -721q-22 -22 -47 -45.5t-40 -35.5l-14 -13v-4q35 4 103 4h567l-23 -123h-862zM557 1196l191 244h172l-228 -244h-135z" />
<glyph unicode="&#x17b;" horiz-adv-x="1210" d="M-35 0l21 100l942 1082q30 35 62 67.5t48 48.5l17 15v4q-33 -4 -105 -4h-690l27 127h979l-21 -101l-944 -1081q-30 -35 -62 -67.5t-49 -48.5l-16 -15v-4q35 4 105 4h737l-25 -127h-1026zM756 1610l35 174h133l-33 -174h-135z" />
<glyph unicode="&#x17c;" horiz-adv-x="1034" d="M-33 0l17 90l706 723q21 22 45.5 45.5t38.5 35.5l14 13v4q-32 -4 -98 -4h-524l24 123h820l-19 -92l-708 -721q-22 -22 -47 -45.5t-40 -35.5l-14 -13v-4q35 4 103 4h567l-23 -123h-862zM575 1266l35 174h133l-32 -174h-136z" />
<glyph unicode="&#x17d;" horiz-adv-x="1210" d="M-35 0l21 100l942 1082q30 35 62 67.5t48 48.5l17 15v4q-33 -4 -105 -4h-690l27 127h979l-21 -101l-944 -1081q-30 -35 -62 -67.5t-49 -48.5l-16 -15v-4q35 4 105 4h737l-25 -127h-1026zM739 1540l-123 244h129l78 -164h4l144 164h141l-219 -244h-154z" />
<glyph unicode="&#x17e;" horiz-adv-x="1034" d="M-33 0l17 90l706 723q21 22 45.5 45.5t38.5 35.5l14 13v4q-32 -4 -98 -4h-524l24 123h820l-19 -92l-708 -721q-22 -22 -47 -45.5t-40 -35.5l-14 -13v-4q35 4 103 4h567l-23 -123h-862zM557 1196l-123 244h129l78 -164h4l143 164h142l-219 -244h-154z" />
<glyph unicode="&#x17f;" horiz-adv-x="530" d="M104 0l175 903h-129l22 119h129l10 49q19 96 59.5 168.5t85 111.5t99.5 62.5t94.5 30t77.5 6.5l78 -4l-27 -125q-18 4 -47 4t-56.5 -4.5t-64 -20.5t-66 -42.5t-55.5 -76t-38 -114.5l-207 -1067h-140z" />
<glyph unicode="&#x192;" horiz-adv-x="1157" d="M-68 -82q59 -10 127 -10q28 0 55.5 4.5t65.5 21t69.5 43.5t62.5 77t50 116l162 575h-182l23 119h192l68 234q26 94 70.5 164t90 107t101 60t95 29t81.5 6q41 0 87.5 -4t72.5 -8l26 -4l-22 -121q-92 12 -164 12q-29 0 -56.5 -4.5t-65 -21t-68.5 -43.5t-62 -76.5 t-51 -116.5l-62 -213h256l-22 -119h-266l-172 -602q-26 -92 -70.5 -161t-90 -106t-100.5 -59t-94.5 -28t-79.5 -6q-37 0 -75 3.5t-57 7.5l-19 3z" />
<glyph unicode="&#x218;" horiz-adv-x="1101" d="M20 160l95 100q5 -6 14.5 -16t43 -36t71 -45.5t98 -35.5t125.5 -16q134 0 238 83t104 212q0 59 -33 107t-85.5 81.5t-116 64.5t-127 66t-116 75.5t-85.5 102t-33 137.5q0 110 66 207.5t182.5 157t253.5 59.5q73 0 139.5 -14.5t109 -35t74.5 -40.5t46 -34l14 -15l-84 -108 q-4 5 -12.5 12.5t-37.5 26.5t-61 34t-82.5 27t-103.5 12q-151 0 -255 -90t-104 -199q0 -53 33 -96.5t85.5 -75.5t116 -63t127 -66.5t116 -78.5t85.5 -108t33 -146q0 -84 -37 -163t-100.5 -138t-155 -94.5t-194.5 -35.5q-86 0 -163.5 19t-127 46t-86.5 54.5t-54 46.5z M342 -129h135v-29q0 -67 -21 -123.5t-69 -132.5h-115q40 68 58 119.5t18 108.5q0 27 -6 57z" />
<glyph unicode="&#x219;" horiz-adv-x="905" d="M-6 125l84 92q4 -5 12 -13t35.5 -28t59 -35.5t82 -28t104.5 -12.5q59 0 113 20.5t92 65t38 103.5q0 37 -26 67.5t-67 53t-90.5 43.5t-99.5 46.5t-91 56.5t-67 78.5t-26 106.5q0 74 33 135t87.5 99.5t121.5 59t137 20.5q61 0 116.5 -11.5t90.5 -28t61.5 -33.5t37.5 -28 l12 -12l-78 -98l-9 9t-28 21t-48 26t-68.5 20.5t-88.5 9.5q-57 0 -109 -17.5t-91 -61.5t-39 -106q0 -38 26 -68.5t67 -53t91 -44t100.5 -47t91.5 -56.5t67 -79t26 -108q0 -134 -112 -224t-269 -90q-72 0 -137 15.5t-107.5 37.5t-74.5 44t-46 38zM250 -129h135v-29 q0 -67 -21 -123.5t-69 -132.5h-115q40 68 58 119.5t18 108.5q0 27 -6 57z" />
<glyph unicode="&#x21a;" horiz-adv-x="1191" d="M401 0l256 1313h-514l23 127h1173l-22 -127h-518l-254 -1313h-144zM383 -129h135v-29q0 -67 -21 -123.5t-69 -132.5h-115q40 68 58 119.5t18 108.5q0 27 -6 57z" />
<glyph unicode="&#x21b;" horiz-adv-x="681" d="M152 283q0 40 10 112l100 508h-135l23 119h137l57 293h137l-59 -293h260l-23 -119h-258l-98 -510q-10 -58 -10 -92q0 -47 11.5 -81.5t28.5 -53.5t41.5 -30.5t46.5 -15t48 -3.5l59 4l-24 -125q-24 -4 -53 -4q-57 0 -104 11.5t-94 41t-74 90t-27 148.5zM231 -129h136v-29 q0 -66 -21.5 -122.5t-69.5 -133.5h-114q40 68 58 119.5t18 108.5q0 22 -7 57z" />
<glyph unicode="&#x2c6;" horiz-adv-x="1032" d="M125 1540l219 244h154l123 -244h-129l-78 166h-4l-144 -166h-141z" />
<glyph unicode="&#x2c7;" horiz-adv-x="1032" d="M309 1540l-123 244h129l78 -164h4l144 164h141l-219 -244h-154z" />
<glyph unicode="&#x2d8;" horiz-adv-x="1034" d="M385 1534q-98 0 -161 61t-42 158l6 31h113l-6 -27q-11 -64 17.5 -95.5t82.5 -31.5q52 0 94.5 32t53.5 95l6 27h113l-7 -31q-19 -111 -93 -165t-177 -54z" />
<glyph unicode="&#x2d9;" horiz-adv-x="1034" d="M328 1610l34 174h134l-33 -174h-135z" />
<glyph unicode="&#x2da;" horiz-adv-x="1034" d="M387 1518q-65 0 -103 33.5t-38 93.5q0 68 52 115.5t120 47.5q65 0 103 -34t38 -95q0 -66 -53 -113.5t-119 -47.5zM389 1595q34 0 58 24.5t24 59.5q0 23 -15.5 38.5t-39.5 15.5q-33 0 -57.5 -25t-24.5 -61q0 -24 14.5 -38t40.5 -14z" />
<glyph unicode="&#x2db;" horiz-adv-x="1032" d="M233 -264q0 49 24 96.5t64.5 87t82 69.5t88.5 56l96 -29q-9 -5 -23.5 -14t-52 -37t-66 -55t-52 -63.5t-23.5 -67.5q0 -34 27 -55t54 -25l27 -4l-53 -115q-4 0 -11 1t-27 5t-38 10t-40.5 18.5t-38.5 28t-27 40t-11 53.5z" />
<glyph unicode="&#x2dc;" horiz-adv-x="1032" d="M74 1546q45 240 217 240q36 0 64.5 -15t47 -37t34.5 -44t36 -37t43 -15q78 0 105 142h110q-24 -121 -76.5 -180.5t-142.5 -59.5q-36 0 -64.5 15t-46.5 36.5t-34.5 43t-36.5 36.5t-43 15q-41 0 -67 -44t-36 -96h-110z" />
<glyph unicode="&#x2dd;" horiz-adv-x="1032" d="M362 1540l191 244h168l-225 -244h-134zM90 1540l180 244h148l-187 -244h-141z" />
<glyph unicode="&#x3bc;" horiz-adv-x="1245" d="M-16 -410l278 1440h139l-118 -612q-17 -90 -17 -142q0 -80 41.5 -125t141.5 -45q84 0 164 39t140 103t103 144.5t59 164.5l91 473h139l-199 -1030h-137l29 147l26 97h-4q-24 -42 -63 -85.5t-95 -86.5t-133 -70t-159 -27q-150 0 -213 88h-4q-9 -106 -19 -157l-63 -316 h-127z" />
<glyph unicode="&#x1e9e;" horiz-adv-x="1372" d="M72 0l209 1067q33 164 154.5 268.5t285.5 104.5h639l-19 -99l-409 -456l-66 -72v-4q74 -3 136 -22t113.5 -57t80.5 -103.5t29 -153.5q0 -142 -90.5 -267t-227.5 -175q-91 -31 -256 -31h-252l25 127h235q137 0 195 20q96 35 160.5 126.5t64.5 193.5q0 109 -67 166t-221 57 h-125l20 101l352 401q36 41 64.5 71t39.5 40l11 10v4q-12 -4 -86 -4h-344q-111 0 -195.5 -73t-105.5 -181l-209 -1059h-141z" />
<glyph unicode="&#x2000;" horiz-adv-x="904" />
<glyph unicode="&#x2001;" horiz-adv-x="1808" />
<glyph unicode="&#x2002;" horiz-adv-x="904" />
<glyph unicode="&#x2003;" horiz-adv-x="1808" />
<glyph unicode="&#x2004;" horiz-adv-x="602" />
<glyph unicode="&#x2005;" horiz-adv-x="452" />
<glyph unicode="&#x2006;" horiz-adv-x="301" />
<glyph unicode="&#x2007;" horiz-adv-x="301" />
<glyph unicode="&#x2008;" horiz-adv-x="226" />
<glyph unicode="&#x2009;" horiz-adv-x="24" />
<glyph unicode="&#x200a;" horiz-adv-x="100" />
<glyph unicode="&#x2010;" horiz-adv-x="999" d="M190 518l23 127h582l-25 -127h-580z" />
<glyph unicode="&#x2011;" horiz-adv-x="999" d="M190 518l23 127h582l-25 -127h-580z" />
<glyph unicode="&#x2012;" horiz-adv-x="999" d="M190 518l23 127h582l-25 -127h-580z" />
<glyph unicode="&#x2013;" horiz-adv-x="1441" d="M193 522l22 119h1022l-20 -119h-1024z" />
<glyph unicode="&#x2014;" horiz-adv-x="1851" d="M193 522l22 119h1432l-21 -119h-1433z" />
<glyph unicode="&#x2018;" horiz-adv-x="440" d="M205 1108l182 350h117l-146 -350h-153z" />
<glyph unicode="&#x2019;" horiz-adv-x="432" d="M211 1108l147 350h152l-182 -350h-117z" />
<glyph unicode="&#x201a;" horiz-adv-x="495" d="M-43 -184l145 352h154l-182 -352h-117z" />
<glyph unicode="&#x201c;" horiz-adv-x="684" d="M451 1108l182 350h117l-148 -350h-151zM205 1108l182 350h117l-146 -350h-153z" />
<glyph unicode="&#x201d;" horiz-adv-x="677" d="M457 1108l145 350h154l-183 -350h-116zM211 1108l147 350h152l-182 -350h-117z" />
<glyph unicode="&#x201e;" horiz-adv-x="741" d="M203 -184l145 352h154l-183 -352h-116zM-43 -184l147 352h152l-182 -352h-117z" />
<glyph unicode="&#x2020;" horiz-adv-x="804" d="M193 -102l196 1013h-239l22 119h240l80 410h135l-78 -410h248l-23 -119h-250l-196 -1013h-135z" />
<glyph unicode="&#x2021;" horiz-adv-x="878" d="M229 -102l90 469h-239l22 118h240l84 426h-240l23 119h240l79 410h136l-78 -410h248l-23 -119h-250l-84 -426h250l-25 -118h-247l-90 -469h-136z" />
<glyph unicode="&#x2022;" horiz-adv-x="823" d="M408 303q-122 0 -207.5 85.5t-85.5 207.5t85.5 207.5t207.5 85.5q121 0 205.5 -85.5t84.5 -207.5t-84.5 -207.5t-205.5 -85.5z" />
<glyph unicode="&#x2026;" horiz-adv-x="1458" d="M1014 0l33 170h163l-32 -170h-164zM532 0l33 170h164l-33 -170h-164zM51 0l33 170h164l-33 -170h-164z" />
<glyph unicode="&#x202f;" horiz-adv-x="361" />
<glyph unicode="&#x2030;" horiz-adv-x="2189" d="M475 895q-117 0 -185.5 68.5t-68.5 183.5q0 121 103 219t231 98q113 0 182.5 -70t69.5 -180q0 -125 -102 -222t-230 -97zM18 0l1360 1440h160l-1364 -1440h-156zM483 1010q79 0 140 61t61 143q0 58 -38 97t-99 39q-79 0 -141 -62t-62 -143q0 -58 38.5 -96.5t100.5 -38.5z M1434 227q0 121 101.5 219.5t229.5 98.5q114 0 184 -70t70 -180q0 -125 -102 -222.5t-229 -97.5q-116 0 -185 68.5t-69 183.5zM741 227q0 121 103 219.5t231 98.5q114 0 183 -70t69 -180q0 -125 -102 -222.5t-230 -97.5q-115 0 -184.5 69t-69.5 183zM1554 225q0 -59 39 -97 t103 -38q79 0 139.5 60.5t60.5 142.5q0 59 -38.5 98t-100.5 39q-78 0 -140.5 -62t-62.5 -143zM864 225q0 -59 39 -97t101 -38q79 0 139.5 60.5t60.5 142.5q0 59 -38 98t-99 39q-78 0 -140.5 -62t-62.5 -143z" />
<glyph unicode="&#x2039;" horiz-adv-x="688" d="M354 158l-264 424l393 417h160l-407 -428l258 -413h-140z" />
<glyph unicode="&#x203a;" horiz-adv-x="686" d="M31 158l407 428l-258 413h139l265 -424l-394 -417h-159z" />
<glyph unicode="&#x2044;" horiz-adv-x="323" d="M-373 0h-129l967 1440h127z" />
<glyph unicode="&#x205f;" horiz-adv-x="452" />
<glyph unicode="&#x2070;" d="M289 846q-260 0 -260 291q0 73 12 153.5t41.5 169t73.5 158t116 115t160 45.5q262 0 262 -295q0 -59 -9 -125t-27 -139t-51 -138.5t-75.5 -118.5t-105.5 -84.5t-137 -31.5zM289 952q61 0 111.5 36.5t82.5 93t54 128.5t31.5 139.5t9.5 129.5q0 192 -146 192 q-62 0 -112.5 -37t-82.5 -94t-54 -129.5t-31 -140t-9 -129.5q0 -189 146 -189z" />
<glyph unicode="&#x2074;" d="M395 866l45 234h-436l14 78l545 579h119l-109 -555h134l-19 -102h-133l-47 -234h-113zM170 1202h291l53 279q4 24 13 56t15 51.5t5 19.5h-4q-43 -56 -86 -101l-287 -301v-4z" />
<glyph unicode="&#x2075;" d="M303 846q-56 0 -105 14.5t-79 35t-52 41.5t-31 35l-9 15l84 68q2 -4 6.5 -11t21 -25t36.5 -31.5t54 -24.5t72 -11q92 0 167 69t75 163q0 69 -49 114t-125 45q-42 0 -84.5 -12.5t-64.5 -24.5l-21 -12l-66 27l137 436h449l-21 -102h-352l-49 -160l-27 -76h4q50 25 113 25 q121 0 196.5 -72.5t75.5 -185.5q0 -133 -108 -236.5t-248 -103.5z" />
<glyph unicode="&#x2076;" d="M322 846q-129 0 -201 86t-72 231q0 56 15 122.5t42.5 135t71 132.5t96 114.5t121.5 80.5t144 30q50 0 96.5 -11t68.5 -23l21 -11l-59 -91q-51 29 -129 29q-109 0 -197.5 -89t-134.5 -222h4q39 36 97 58t114 22q108 0 175 -65t67 -173q0 -159 -103 -257.5t-237 -98.5z M326 952q96 0 157.5 73t61.5 173q0 66 -41 105.5t-113 39.5q-81 0 -153 -56.5t-72 -129.5q0 -82 42.5 -143.5t117.5 -61.5z" />
<glyph unicode="&#x2077;" d="M12 866l488 672l90 117v4q-40 -4 -103 -4h-350l19 102h594l-15 -76l-590 -815h-133z" />
<glyph unicode="&#x2078;" d="M317 846q-121 0 -202.5 61.5t-81.5 173.5q0 52 22.5 102t58 87t63 59t54.5 39q-73 63 -73 148q0 62 28 113.5t73.5 83t99.5 48.5t108 17q112 0 184 -53t72 -148q0 -38 -15 -79t-34.5 -71t-46.5 -60.5t-41 -44t-29 -26.5q100 -68 100 -166q0 -116 -102.5 -200t-237.5 -84z M543 1126q0 28 -12 50.5t-40 42.5t-50 33t-65 33.5t-63 31.5q-25 -14 -48 -31.5t-51.5 -46.5t-46 -68t-17.5 -81q0 -65 50 -103.5t119 -38.5q82 0 153 52t71 126zM270 1522q0 -15 3 -28t11.5 -25.5t15.5 -22t22 -20.5t24.5 -17.5t30 -17.5t30 -16t33.5 -16.5t33 -15.5 q18 14 37 32.5t44 48t40.5 67t15.5 74.5q0 54 -42.5 82t-104.5 28q-72 0 -132.5 -40.5t-60.5 -112.5z" />
<glyph unicode="&#x2079;" d="M33 891l57 90q53 -29 131 -29q109 0 197 90.5t133 223.5h-4q-39 -36 -96.5 -59t-114.5 -23q-108 0 -174 65.5t-66 173.5q0 106 50.5 189t126.5 124.5t161 41.5q130 0 202.5 -86.5t72.5 -231.5q0 -56 -15 -122t-42.5 -134.5t-71 -132.5t-96 -114.5t-121.5 -80.5t-144 -30 q-50 0 -96.5 11t-68.5 23zM367 1280q81 0 153 57t72 131q0 81 -42.5 143t-117.5 62q-95 0 -158 -73.5t-63 -172.5q0 -68 42 -107.5t114 -39.5z" />
<glyph unicode="&#x2080;" d="M94 -342q-260 0 -260 291q0 73 12 153.5t42 169t74 158t116 115t160 45.5q262 0 262 -295q0 -72 -12 -152t-42.5 -168t-75 -157.5t-116.5 -114.5t-160 -45zM94 -236q61 0 111.5 36.5t82.5 93t54 128.5t31.5 139.5t9.5 129.5q0 192 -145 192q-62 0 -112.5 -37t-82.5 -94 t-54 -129.5t-31 -140t-9 -129.5q0 -189 145 -189z" />
<glyph unicode="&#x2081;" d="M-131 -322l20 103h193l113 584l14 49h-4q-10 -16 -49 -49l-97 -78l-59 82l244 200h106l-153 -788h188l-18 -103h-498z" />
<glyph unicode="&#x2082;" d="M-170 -322q2 83 34.5 152t83 116t110.5 87.5t120 75t109.5 70t80.5 81t31 98.5q0 55 -39 91t-102 36q-48 0 -99 -25t-77 -50l-27 -25l-65 78l13.5 13.5t37 30.5t59 39t75.5 30.5t89 13.5q118 0 185 -61.5t67 -161.5q0 -66 -26.5 -121.5t-70 -95t-96.5 -74t-109 -66.5 t-105 -64t-86.5 -74.5t-51.5 -90.5h449l-21 -103h-569z" />
<glyph unicode="&#x2083;" d="M90 -344q-53 0 -103 14t-83.5 33.5t-59 39.5t-37.5 34l-12 14l78 72q3 -4 9 -11t27 -24.5t44.5 -30.5t61 -24t77.5 -11q86 0 152.5 61.5t66.5 151.5q0 65 -51 103.5t-121 38.5h-67l-19 63l248 236l61 51v4q-38 -6 -75 -6h-312l19 102h538l-14 -73l-299 -285 q33 -4 67 -18.5t67 -40t54 -70t21 -100.5q0 -128 -98.5 -226t-239.5 -98z" />
<glyph unicode="&#x2084;" d="M190 -322l46 234h-437l15 78l544 579h119l-108 -555h133l-19 -102h-133l-47 -234h-113zM-35 14h291l53 279q4 24 13 56t15 51.5t5 19.5h-4q-43 -56 -86 -101l-287 -301v-4z" />
<glyph unicode="&#x2085;" d="M94 -342q-56 0 -105 14.5t-79 35t-52 41.5t-31 35l-9 15l84 68q2 -4 6.5 -11t21 -25t36.5 -31.5t54 -24.5t72 -11q92 0 167 69t75 163q0 69 -49 114.5t-125 45.5q-42 0 -84.5 -12.5t-63.5 -25.5l-22 -12l-66 27l137 436h449l-21 -102h-352l-49 -160l-27 -76h5 q49 25 112 25q121 0 197 -72.5t76 -185.5q0 -133 -108.5 -236.5t-248.5 -103.5z" />
<glyph unicode="&#x2086;" d="M127 -342q-129 0 -200.5 86t-71.5 231q0 68 20.5 149t62.5 163t99 150t137.5 110.5t169.5 42.5q50 0 96.5 -11t67.5 -23l22 -11l-59 -90q-51 28 -129 28q-109 0 -197.5 -89t-134.5 -222h4q39 36 97 58t114 22q108 0 175 -65t67 -173q0 -159 -103 -257.5t-237 -98.5z M131 -236q96 0 157.5 73t61.5 173q0 67 -41 106.5t-112 39.5q-81 0 -153.5 -57t-72.5 -130q0 -82 42.5 -143.5t117.5 -61.5z" />
<glyph unicode="&#x2087;" d="M-172 -324l487 672l91 117v4q-40 -4 -103 -4h-350l18 102h594l-14 -75l-590 -816h-133z" />
<glyph unicode="&#x2088;" d="M119 -340q-121 0 -203 62t-82 174q0 52 22.5 101.5t58.5 86.5t63 59t55 39q-74 64 -74 148q0 62 28 113.5t73.5 83t99.5 48.5t108 17q112 0 184 -53t72 -148q0 -47 -20.5 -95.5t-53.5 -88t-52.5 -59t-39.5 -37.5q101 -69 101 -166q0 -116 -102.5 -200.5t-237.5 -84.5z M344 -59q0 28 -12 50.5t-39.5 42.5t-49.5 32.5t-65 33t-63 31.5q-25 -14 -48 -31.5t-52 -46.5t-46.5 -68t-17.5 -81q0 -65 50 -103.5t120 -38.5q81 0 152 52.5t71 126.5zM72 336q0 -15 3 -28t11 -25t15.5 -22t22.5 -20.5t24.5 -17.5t29.5 -17.5t30 -15.5t33 -16t33 -16 q19 14 37.5 32t44 47.5t41 67t15.5 74.5q0 54 -43 82t-105 28q-72 0 -132 -40.5t-60 -112.5z" />
<glyph unicode="&#x2089;" d="M-178 -297l57 90q53 -29 131 -29q109 0 197 90.5t133 223.5h-4q-39 -36 -96.5 -59t-114.5 -23q-108 0 -174 66t-66 174q0 106 50.5 188.5t126.5 124t161 41.5q130 0 202.5 -86.5t72.5 -231.5q0 -56 -15 -122t-42.5 -134.5t-71 -132.5t-96 -114.5t-121.5 -80.5t-144 -30 q-50 0 -96.5 11t-67.5 23zM156 92q81 0 153 57.5t72 131.5q0 80 -42.5 142t-117.5 62q-95 0 -158 -73.5t-63 -171.5q0 -68 42 -108t114 -40z" />
<glyph unicode="&#x20ac;" horiz-adv-x="1200" d="M121 815l18 105h125q102 240 316.5 392t459.5 152q56 0 109 -7t79 -14l25 -7l-57 -127q-72 20 -158 20q-192 0 -359.5 -113t-256.5 -296h627l-41 -105h-629q-28 -97 -33 -166h598l-39 -104h-555q5 -91 36.5 -169t86.5 -137.5t140.5 -93.5t191.5 -34q45 0 92 7t71 14l25 7 l6 -135q-87 -29 -200 -29q-261 0 -425 157.5t-175 412.5h-131l18 104h113q6 84 30 166h-108z" />
<glyph unicode="&#x2122;" horiz-adv-x="2027" d="M1016 543l71 897h107l236 -514q8 -17 15 -38t10 -34l3 -12h4q11 45 29 84l235 514h107l70 -897h-113l-51 608l2 59h-4l-230 -499h-94l-229 499h-4l2 -59l-52 -608h-114zM504 543v790h-320v107h758v-107h-321v-790h-117z" />
<glyph unicode="&#x2212;" horiz-adv-x="1241" d="M-16 522v119h1036v-119h-1036z" />
<glyph unicode="&#x221e;" horiz-adv-x="1021" d="M393 360q-146 0 -250 104.5t-104 250.5q0 147 103.5 249.5t250.5 102.5q148 0 250 -102t102 -250q0 -147 -102.5 -251t-249.5 -104z" />
<glyph unicode="&#x2248;" horiz-adv-x="1241" d="M68 657l-68 91q59 59 137.5 100t161.5 41q53 0 101.5 -15t84 -36t69.5 -42t72.5 -36t78.5 -15q62 0 124 33t107 82l68 -90q-57 -59 -135.5 -100t-163.5 -41q-65 0 -124.5 22.5t-97 49t-87 49t-97.5 22.5q-116 0 -231 -115zM68 301l-68 90q59 59 137.5 100t161.5 41 q65 0 124.5 -22.5t97 -49t87 -49t97.5 -22.5q61 0 123 33.5t108 81.5l68 -90q-57 -59 -135.5 -100.5t-163.5 -41.5q-53 0 -101.5 15t-84 36t-69.5 42t-72.5 36t-78.5 15q-116 0 -231 -115z" />
<glyph unicode="&#x2260;" horiz-adv-x="1241" d="M139 170l127 174h-241v119h325l176 237h-501v119h583l176 240l86 -62l-133 -178h242v-119h-324l-176 -237h500v-119h-582l-172 -233z" />
<glyph unicode="&#x2264;" horiz-adv-x="1241" d="M23 530v103l925 414v-138l-751 -325v-4l751 -326v-137zM25 -213h923v-119h-923v119z" />
<glyph unicode="&#x2265;" horiz-adv-x="1241" d="M55 117v137l754 326v4l-754 325v138l926 -414v-103zM55 -213h924v-119h-924v119z" />
<glyph unicode="&#xe000;" horiz-adv-x="1034" d="M0 1034h1034v-1034h-1034v1034z" />
<glyph horiz-adv-x="686" d="M137 -129h135v-29q0 -67 -21 -123.5t-69 -132.5h-114q39 67 57 119t18 109q0 27 -6 57z" />
<glyph horiz-adv-x="2314" d="M225 -10v311l-258 148v569l258 145v310l543 290l274 -145l271 145l542 -290v-310l254 -145v-569l-254 -148v-311l-542 -289l-271 145l-274 -145zM307 61l488 -258l247 136l242 -136l488 258v285l233 131v510l-233 135v279l-488 258l-242 -131l-247 131l-488 -258v-279 l-233 -135v-510l233 -131v-285zM377 131v248l-203 123v461l203 118v252l440 234l225 -121l220 121l438 -234v-252l205 -118v-461l-205 -123v-248l-438 -233l-220 118l-225 -118zM788 186h123v445h447v108h-447v367h361q33 0 44 -11.5t11 -43.5v-78h115v131q0 60 -26 86.5 t-89 26.5h-665v-111h126v-920z" />
<glyph horiz-adv-x="1157" d="M-68 440q0 82 10.5 173t34 191.5t58.5 194t88 178.5t118.5 148.5t153.5 101t189 37.5q405 0 405 -467q0 -83 -10 -173t-33.5 -190.5t-57.5 -193.5t-87.5 -178.5t-118 -148.5t-153.5 -100.5t-191 -37.5q-211 0 -308.5 123.5t-97.5 341.5zM80 440q0 -331 262 -331 q78 0 145.5 33t117.5 88t91 129.5t67.5 155.5t44.5 167.5t26 164.5t8 148q0 336 -262 336q-102 0 -187.5 -59t-142 -153t-96 -213.5t-57 -237.5t-17.5 -228z" />
<glyph horiz-adv-x="1157" d="M-41 0l23 127h323l203 1042l18 80h-4q-20 -29 -90 -86l-178 -147l-78 100l393 324h133l-258 -1313h318l-25 -127h-778z" />
<glyph horiz-adv-x="1157" d="M-117 0q2 97 35.5 182t88.5 150t125.5 123.5t148 108t155 96.5t147 96t123.5 100t85.5 115t31.5 135q0 101 -67 162t-185 61q-60 0 -119 -20t-101 -48.5t-75.5 -57t-49.5 -48.5l-17 -20l-100 79q8 10 22.5 27t62.5 60t100 76t132 60t160 27q183 0 286 -95.5t103 -252.5 q0 -82 -28.5 -155.5t-77.5 -131.5t-112.5 -110.5t-135.5 -98.5t-145 -89.5t-142 -89t-124.5 -92t-95.5 -103.5t-53 -119h746l-25 -127h-899z" />
<glyph horiz-adv-x="1157" d="M-117 172l97 98q4 -6 13 -17t41 -38.5t69.5 -48.5t99 -38t129.5 -17q72 0 142 28.5t125 77t88.5 119t33.5 147.5q0 119 -87 182.5t-222 63.5h-107l-18 84l440 422q20 20 42.5 40t34.5 30l13 10v4q-41 -6 -117 -6h-530l25 127h841l-18 -94l-524 -498q47 -3 94 -14.5 t99 -38.5t91 -66t64.5 -102.5t25.5 -141.5q0 -99 -43 -193t-115.5 -163.5t-171.5 -111.5t-206 -42q-63 0 -122.5 11t-103 28t-81.5 38t-63.5 42.5t-43.5 38.5t-26 28z" />
<glyph horiz-adv-x="1157" d="M-129 399l18 93l879 948h166l-178 -916h205l-25 -125h-205l-78 -399h-141l78 399h-719zM78 524h536l117 602l33 136h-4q-1 0 -13 -16.5t-34 -44t-43 -48.5z" />
<glyph horiz-adv-x="1157" d="M-98 180l102 92q4 -7 11 -17.5t34 -38.5t59 -49t87.5 -38.5t117.5 -17.5q79 0 155.5 31t136.5 84t97 129.5t37 160.5q0 120 -86 195t-223 75q-69 0 -138 -19t-104 -39l-34 -19l-88 32l213 699h700l-25 -127h-571l-115 -365l-28 -82h4q11 6 30 14.5t75.5 23t111.5 14.5 q190 0 308 -112t118 -286q0 -148 -81 -275t-213 -198.5t-280 -71.5q-86 0 -160 21t-118 51t-76 60.5t-45 51.5z" />
<glyph horiz-adv-x="1157" d="M383 -25q-203 0 -319.5 142t-116.5 377q0 75 16 162.5t49.5 181t81 183.5t114 170.5t144 141t176 96t205.5 35.5q77 0 146.5 -15t100.5 -29l30 -15l-72 -119q-9 5 -26.5 12.5t-70.5 20t-106 12.5q-109 0 -208.5 -50t-173 -134t-127.5 -184t-85 -209h4q65 77 168.5 122.5 t208.5 45.5q179 0 283 -103t104 -276q0 -103 -37.5 -203.5t-103.5 -182t-167 -132t-218 -50.5zM381 109q161 0 273 125.5t112 304.5q0 119 -72 187.5t-200 68.5q-62 0 -131.5 -24t-129.5 -65.5t-99.5 -105t-39.5 -133.5q0 -90 31.5 -170t98.5 -134t157 -54z" />
<glyph horiz-adv-x="1157" d="M-23 0l814 1180q24 35 50 68t40 49l14 16v4q-37 -4 -109 -4h-661l25 127h935l-18 -99l-930 -1341h-160z" />
<glyph horiz-adv-x="1157" d="M-90 356q0 76 31.5 149.5t73 123t93.5 93.5t81.5 62.5t48.5 28.5q-136 100 -136 244q0 76 34.5 148.5t96 130t155.5 93t204 35.5q189 0 293 -85.5t104 -235.5q0 -62 -24.5 -129t-56 -115.5t-74.5 -97.5t-65.5 -70t-43.5 -39q162 -104 162 -260q0 -125 -74.5 -231 t-199 -166t-269.5 -60q-191 0 -312.5 102t-121.5 279zM737 430q0 38 -17.5 72t-43 58.5t-69.5 51.5t-79.5 44.5t-92 44t-89.5 44.5q-28 -15 -57 -34t-73 -56.5t-76.5 -78.5t-56.5 -98.5t-24 -117.5q0 -116 82.5 -185t204.5 -69q97 0 185.5 38.5t147 114.5t58.5 171z M250 1057q0 -32 10 -60.5t32.5 -53t45 -43.5t61.5 -40.5t66 -35t75 -35.5t74 -35q230 191 230 381q0 92 -69 145t-187 53q-146 0 -242 -81.5t-96 -194.5z" />
<glyph horiz-adv-x="1157" d="M-86 35l72 119q10 -5 27 -12.5t70.5 -20t106.5 -12.5q87 0 169 33t146.5 89t119.5 130.5t93.5 156t63.5 168.5h-4q-61 -74 -164 -121t-211 -47q-180 0 -284.5 103t-104.5 276q0 103 38 203.5t104.5 182t168 131.5t218.5 50q203 0 318.5 -141.5t115.5 -376.5 q0 -75 -16 -162.5t-50 -181t-81 -183.5t-114 -170.5t-144 -141.5t-176 -96.5t-206 -35.5q-77 0 -146 15t-100 30zM426 645q62 0 132.5 24t131.5 65.5t101 105t40 133.5q0 90 -31.5 170t-98.5 134t-156 54q-161 0 -274 -125.5t-113 -304.5q0 -119 71 -187.5t197 -68.5z" />
<glyph horiz-adv-x="1075" d="M250 651l22 127h582l-25 -127h-579z" />
<glyph horiz-adv-x="665" d="M293 -133q-100 259 -100 545q0 636 417 1144h135q-423 -534 -423 -1148q0 -291 96 -541h-125z" />
<glyph horiz-adv-x="665" d="M94 -133h-135q424 535 424 1149q0 290 -96 540h125q100 -259 100 -544q0 -635 -418 -1145z" />
<glyph horiz-adv-x="647" d="M109 -133l329 1689h277l-23 -114h-149l-281 -1460h148l-23 -115h-278z" />
<glyph horiz-adv-x="645" d="M-6 -18h147l283 1460h-150l25 114h276l-327 -1689h-277z" />
<glyph horiz-adv-x="763" d="M236 125q0 51 12 115l37 186q6 37 6 63q0 44 -14 77.5t-33.5 51t-39.5 28.5t-34 14l-14 2l24 126q7 1 19 3.5t45 17.5t60 38t55 69.5t40 107.5l35 174q19 97 56.5 167.5t76 106.5t88.5 57t82 25.5t68 4.5h35l-21 -115h-20q-20 0 -40 -3.5t-51.5 -18.5t-57.5 -40.5 t-51 -75.5t-38 -118l-41 -207q-12 -60 -38.5 -108t-56 -74t-57 -43.5t-45.5 -23.5l-18 -5v-4q5 -2 13 -6.5t28.5 -22.5t36 -39.5t28.5 -58.5t13 -80q0 -24 -6 -59l-43 -219q-10 -58 -10 -91q0 -44 12 -76.5t28.5 -49t40 -26t38.5 -11.5t32 -2h19l-23 -115q-13 -2 -33 -2 q-23 0 -48.5 4.5t-62 20.5t-64.5 42.5t-48 76.5t-20 116z" />
<glyph horiz-adv-x="761" d="M4 -20q20 0 39 3t51 17.5t58 39.5t51.5 76t38.5 120l45 229q12 62 38.5 111.5t56 76t57 44t45.5 23.5l18 5v4q-5 2 -13 6.5t-28.5 22t-36 38.5t-28.5 57t-13 77q0 24 6 59l39 197q10 58 10 90q0 37 -8 66t-22.5 46.5t-29.5 29t-34 16.5t-31.5 6.5t-25.5 1.5h-19l23 114 q15 3 33 3q23 0 48.5 -4.5t62 -21t64.5 -43t48 -76.5t20 -116q0 -50 -12 -114l-33 -164q-6 -37 -6 -64q0 -44 14 -77.5t34 -50.5t39.5 -28t33.5 -14l14 -2l-24 -127q-7 -1 -19 -3.5t-45 -17t-60 -37.5t-55 -69.5t-40 -107.5l-39 -197q-72 -362 -375 -362l-31 2l23 115h18z " />
<glyph horiz-adv-x="1677" d="M170 580q0 117 34 231.5t93.5 211.5t142.5 180.5t178.5 142t205 91.5t218.5 33q98 0 175 -17t127.5 -46t84 -70.5t48 -88t14.5 -101.5q0 -26 -8 -80l-123 -629h145l-22 -114h-531q-163 0 -260.5 94.5t-97.5 240.5q0 84 38.5 166.5t102.5 145t151.5 101t180.5 38.5h285 q4 24 4 39q0 89 -76 145t-231 56q-143 0 -278.5 -64t-235.5 -168t-161 -244.5t-61 -287.5q0 -217 136.5 -356.5t363.5 -139.5l-22 -121q-176 0 -318.5 79.5t-222.5 219t-80 312.5zM737 662q0 -97 64 -160.5t168 -63.5h254l108 563h-250q-135 0 -239.5 -103t-104.5 -236z" />
<glyph horiz-adv-x="1140" d="M778 281l-262 424l422 417h162l-441 -428l261 -413h-142zM420 281l-264 424l393 417h160l-408 -428l258 -413h-139z" />
<glyph horiz-adv-x="1138" d="M467 281l410 428l-261 413h142l262 -424l-391 -417h-162zM78 281l438 428l-260 413h141l262 -424l-419 -417h-162z" />
<glyph horiz-adv-x="765" d="M418 281l-262 424l393 417h160l-410 -428l260 -413h-141z" />
<glyph horiz-adv-x="763" d="M92 281l410 428l-260 413h141l262 -424l-393 -417h-160z" />
<glyph horiz-adv-x="1517" d="M250 645l22 119h1022l-20 -119h-1024z" />
<glyph horiz-adv-x="1927" d="M250 645l22 119h1432l-21 -119h-1433z" />
<glyph horiz-adv-x="626" d="M229 625l31 170h166l-33 -170h-164z" />
<glyph horiz-adv-x="1030" d="M641 1278l35 162h160l-33 -162h-162zM100 287q0 74 24.5 138.5t65 112t89.5 90t100.5 81.5t95.5 78t77.5 88t43.5 102l16 86h140l-19 -92q-15 -69 -49.5 -129t-78 -103.5t-92.5 -84t-95.5 -78.5t-84 -77.5t-60.5 -90t-23 -107.5q0 -85 61 -138.5t164 -53.5 q64 0 130.5 21.5t100.5 43.5l35 21l60 -113q-6 -4 -17.5 -11.5t-48 -26t-74 -32.5t-92.5 -25.5t-108 -11.5q-162 0 -261.5 85.5t-99.5 226.5z" />
<glyph horiz-adv-x="690" d="M391 1278l33 162h162l-35 -162h-160zM152 0l215 1063h131l-203 -1063h-143z" />
<glyph horiz-adv-x="899" d="M467 428q-121 0 -207 86t-86 207t86 207t207 86t206 -85.5t85 -207.5t-85 -207.5t-206 -85.5z" />
<glyph horiz-adv-x="1200" d="M94 416q0 99 25.5 201t77 195t121 165.5t165 116t201.5 43.5q103 0 181.5 -35.5t125.5 -97.5t70.5 -140.5t23.5 -171.5q0 -99 -25 -200t-75.5 -193.5t-119 -165t-164.5 -115.5t-203 -43q-104 0 -183 35t-126.5 96.5t-71 139.5t-23.5 170zM240 422q0 -140 66.5 -231 t197.5 -91q79 0 150 36t123 96t90 136t57.5 158t19.5 160q0 140 -66.5 232t-197.5 92q-98 0 -183.5 -55.5t-140 -142t-85.5 -189.5t-31 -201z" />
<glyph horiz-adv-x="929" d="M18 0l25 123h317l142 727l22 108h-4q-37 -26 -90 -55l-233 -127l-50 107l414 229h129l-192 -989h284l-24 -123h-740z" />
<glyph horiz-adv-x="1067" d="M-2 0l20 100q168 99 285.5 174t219.5 152t162.5 141.5t94 130.5t33.5 131q0 88 -65.5 134.5t-169.5 46.5q-52 0 -106.5 -17t-96 -41t-76 -48t-52.5 -41l-18 -17l-67 104q8 8 22 20.5t59.5 44.5t93.5 57t118.5 45t138.5 20q180 0 272 -82.5t92 -210.5q0 -98 -43 -187 t-136 -177t-217.5 -172t-307.5 -187v-4q41 6 117 6h506l-23 -123h-856z" />
<glyph horiz-adv-x="1046" d="M-90 -78l92 90q4 -6 12 -16t37 -36t62.5 -45.5t89 -35.5t116.5 -16q92 0 180.5 41.5t149 123.5t60.5 183q0 112 -89 170.5t-223 58.5h-108l-19 86l422 389q20 19 42.5 37.5t35.5 27.5l12 9v4q-40 -4 -116 -4h-465l22 123h787l-17 -86l-522 -471q49 -2 98 -12.5 t101.5 -35.5t92 -61.5t65.5 -96t26 -132.5q0 -100 -44.5 -190t-118.5 -153t-172.5 -99.5t-203.5 -36.5q-81 0 -153 19t-116 46t-76.5 54t-45.5 46z" />
<glyph horiz-adv-x="1183" d="M-39 76l16 92l857 944h155l-178 -911h221l-24 -125h-222l-59 -314h-137l59 314h-688zM164 201h510l117 596l32 135h-4q-49 -68 -96 -121l-559 -608v-2z" />
<glyph horiz-adv-x="1081" d="M-49 -57l94 84q4 -6 11 -16t33 -35t57 -44t83 -35t111 -16q73 0 146.5 25t136.5 70.5t102 118.5t39 161q0 117 -85.5 182.5t-211.5 65.5q-67 0 -136 -18t-105 -36l-36 -18l-86 31l205 649h676l-22 -123h-553l-105 -332q-6 -21 -13.5 -39.5t-11.5 -27.5l-4 -8h5 q100 43 219 43q177 0 293 -96.5t116 -264.5q0 -150 -83.5 -268.5t-212 -179t-273.5 -60.5q-80 0 -149.5 19.5t-111.5 47t-72.5 54.5t-42.5 47z" />
<glyph horiz-adv-x="1193" d="M117 455q0 87 22.5 186.5t65 202.5t110 198t150 169t193 118.5t231.5 44.5q77 0 146 -14t99 -28l31 -15l-71 -111q-9 5 -25.5 11.5t-69.5 18t-108 11.5q-108 0 -206 -47t-171 -126t-126 -175t-83 -201h4q69 76 169.5 119t207.5 43q181 0 287 -97t106 -259q0 -98 -40 -193 t-109 -169.5t-169 -120.5t-212 -46q-203 0 -317.5 131t-114.5 349zM260 434q0 -84 32 -158.5t100.5 -125t160.5 -50.5q159 0 270 115.5t111 282.5q0 111 -74 176t-205 65q-93 0 -184 -41t-151 -112.5t-60 -151.5z" />
<glyph horiz-adv-x="1024" d="M2 -238l770 1104q23 33 47 63.5t37 44.5l12 15v4q-34 -4 -106 -4h-633l25 123h907l-17 -92l-882 -1258h-160z" />
<glyph horiz-adv-x="1185" d="M68 332q0 68 27.5 134.5t64.5 112t86 88t79 62.5t58 35q-133 94 -133 227q0 70 33.5 138.5t93.5 123.5t151 89t197 34q183 0 286 -80.5t103 -218.5q0 -59 -23.5 -122t-54 -109.5t-70.5 -92.5t-62 -66.5t-40 -35.5q156 -99 156 -245q0 -113 -72.5 -212.5t-194.5 -159 t-261 -59.5q-183 0 -303.5 97t-120.5 260zM874 401q0 31 -11 58t-34.5 50t-49 42.5t-64 39.5t-70 35t-77.5 36t-76 36q-28 -14 -57 -31.5t-71.5 -52t-74.5 -72.5t-55 -92t-23 -110q0 -109 82 -174.5t201 -65.5q87 0 174 37.5t146.5 108.5t59.5 155zM391 995 q0 -35 16.5 -66.5t38 -53t64 -47t72.5 -39.5t87 -39.5t85 -38.5q17 12 39 30.5t55.5 54t59.5 74t45.5 90.5t19.5 103q0 88 -68 137t-184 49q-140 0 -235 -75t-95 -179z" />
<glyph horiz-adv-x="1193" d="M78 -94q9 -5 26 -12t70 -19t107 -12q108 0 206 47.5t170.5 127t125.5 175t83 201.5h-4q-67 -76 -168.5 -119t-208.5 -43q-180 0 -285.5 97t-105.5 259q0 98 40 193t109 169.5t169.5 120.5t212.5 46q201 0 315.5 -131t114.5 -349q0 -87 -22.5 -186.5t-65 -202.5t-110 -198 t-150 -169t-193 -118.5t-231.5 -44.5q-77 0 -146 14t-99 28l-30 15zM512 373q93 0 185 41t153 112.5t61 151.5q0 132 -78.5 232t-214.5 100q-159 0 -269.5 -114.5t-110.5 -281.5q0 -111 73 -176t201 -65z" />
<glyph horiz-adv-x="1157" d="M-66 416q0 99 25.5 201t77 195t121 165.5t165 116t201.5 43.5q103 0 181.5 -35.5t126 -97.5t71 -140.5t23.5 -171.5q0 -99 -25 -200t-75.5 -193.5t-119.5 -165t-164.5 -115.5t-203.5 -43q-104 0 -183 35t-126.5 96.5t-71 139.5t-23.5 170zM80 422q0 -140 66.5 -231 t197.5 -91q79 0 150 36t123 96t90 136t57.5 158t19.5 160q0 140 -66.5 232t-197.5 92q-98 0 -183.5 -55.5t-140 -142t-85.5 -189.5t-31 -201z" />
<glyph horiz-adv-x="1157" d="M4 0l25 123h317l141 727l23 108h-4q-37 -26 -90 -55l-234 -127l-49 107l414 229h129l-193 -989h285l-25 -123h-739z" />
<glyph horiz-adv-x="1157" d="M-74 0l21 100q168 99 285.5 174.5t219.5 152t162 141t93.5 130.5t33.5 131q0 88 -65.5 134.5t-169.5 46.5q-52 0 -106.5 -17t-96 -41t-75.5 -48t-52 -41l-18 -17l-68 104q8 8 22 20.5t59.5 44.5t93.5 57t118.5 45t138.5 20q180 0 272.5 -82.5t92.5 -210.5 q0 -79 -29.5 -152.5t-84 -141t-143.5 -139t-195.5 -140t-252.5 -150.5v-4q41 6 117 6h506l-23 -123h-856z" />
<glyph horiz-adv-x="1157" d="M-141 -78l92 90q4 -6 12 -16t37 -36t62.5 -45.5t89 -35.5t116.5 -16q92 0 180 41.5t148.5 123t60.5 183.5q0 112 -88.5 170.5t-222.5 58.5h-108l-19 86l422 389q20 19 42.5 37.5t34.5 27.5l13 9v4q-41 -4 -117 -4h-464l22 123h786l-16 -86l-522 -471q49 -2 98 -12.5 t101.5 -35.5t92 -61.5t65.5 -96t26 -132.5q0 -100 -44.5 -190t-118.5 -153t-172.5 -99.5t-203.5 -36.5q-81 0 -153 19t-116 46t-76.5 54t-46.5 46z" />
<glyph horiz-adv-x="1157" d="M-166 76l16 92l857 944h155l-178 -911h221l-24 -125h-222l-59 -314h-137l59 314h-688zM37 201h510l117 596l32 135h-4q-49 -68 -96 -121l-559 -608v-2z" />
<glyph horiz-adv-x="1157" d="M-133 -57l94 84q4 -6 11 -16t33 -35t57 -44t83 -35t111 -16q73 0 146.5 25t136.5 70.5t102 118.5t39 161q0 117 -85.5 182.5t-211.5 65.5q-67 0 -136 -18t-105 -36l-36 -18l-86 31l205 649h676l-22 -123h-553l-105 -332q-6 -21 -13 -39.5t-11 -27.5l-4 -8h4 q100 43 219 43q177 0 293 -96.5t116 -264.5q0 -150 -83.5 -268.5t-212 -179t-273.5 -60.5q-80 0 -149.5 19.5t-111.5 47t-72.5 54.5t-42.5 47z" />
<glyph horiz-adv-x="1157" d="M-55 455q0 87 22.5 186.5t65 202.5t110 198t150 169t193 118.5t231.5 44.5q77 0 146 -14t99 -28l31 -15l-71 -111q-9 5 -25.5 11.5t-69.5 18t-108 11.5q-108 0 -206 -47t-171 -126t-126 -175t-83 -201h4q69 76 169.5 119t207.5 43q181 0 287 -97t106 -259q0 -98 -40 -193 t-109 -169.5t-169 -120.5t-212 -46q-203 0 -317.5 131t-114.5 349zM88 434q0 -84 32 -158.5t100.5 -125t160.5 -50.5q159 0 270 115.5t111 282.5q0 111 -74 176t-205 65q-93 0 -184 -41t-151 -112.5t-60 -151.5z" />
<glyph horiz-adv-x="1157" d="M-59 -238l770 1104q23 33 47 63.5t36 44.5l13 15v4q-35 -4 -107 -4h-632l24 123h907l-16 -92l-883 -1258h-159z" />
<glyph horiz-adv-x="1157" d="M-92 332q0 68 27.5 134.5t64.5 112t86 88t79 62.5t58 35q-133 94 -133 227q0 70 33.5 138.5t93.5 123.5t151 89t197 34q183 0 286 -80.5t103 -218.5q0 -59 -23.5 -122t-53.5 -109.5t-70 -92.5t-62 -66.5t-40 -35.5q155 -98 155 -245q0 -113 -72.5 -212.5t-194.5 -159 t-261 -59.5q-183 0 -303.5 97t-120.5 260zM715 401q0 35 -17.5 67t-41.5 55t-67.5 49t-77.5 42t-90.5 42t-88.5 42q-28 -14 -57 -31.5t-71.5 -52t-74.5 -72.5t-55 -92t-23 -110q0 -109 82 -174.5t201 -65.5q87 0 174 37.5t147 108.5t60 155zM231 995q0 -35 16.5 -66.5 t38 -53t64 -47t72.5 -39.5t87 -39.5t85 -38.5q17 12 39 30.5t55.5 54t59.5 74t45.5 90.5t19.5 103q0 88 -68 137t-184 49q-140 0 -235 -75t-95 -179z" />
<glyph horiz-adv-x="1157" d="M-61 -94q9 -5 26 -12t69.5 -19t106.5 -12q108 0 206 47.5t171 127t126 175.5t83 201h-4q-67 -76 -168.5 -119t-208.5 -43q-180 0 -285.5 97t-105.5 259q0 98 40 193t108.5 169.5t169 120.5t212.5 46q201 0 315.5 -131t114.5 -349q0 -87 -22.5 -186.5t-65 -202.5 t-110 -198t-150 -169t-193 -118.5t-231.5 -44.5q-77 0 -145.5 14t-98.5 28l-30 15zM373 373q93 0 185 41t153 112.5t61 151.5q0 132 -78.5 232t-214.5 100q-159 0 -270 -114.5t-111 -281.5q0 -111 73.5 -176t201.5 -65z" />
<glyph horiz-adv-x="1062" d="M23 174l96 94q5 -7 13.5 -18t39.5 -39t66 -50t91.5 -39.5t116.5 -17.5q72 0 137.5 25.5t110.5 79.5t45 125q0 44 -29 79.5t-75.5 61.5t-103 51t-113 54t-103 63.5t-75.5 86.5t-29 116q0 145 113.5 241.5t285.5 110.5l37 176h115l-37 -178q50 -6 97 -21.5t77.5 -32.5 t54 -33.5t34.5 -26.5l11 -11l-84 -100l-11 11t-32 24.5t-54 31t-76 24.5t-97 11q-51 0 -100 -12.5t-92.5 -38t-70 -70t-26.5 -102.5q0 -40 22.5 -73t60 -55.5t85 -46t97 -43t97 -48t85 -60.5t60 -80t22.5 -106q0 -148 -120 -251.5t-296 -109.5l-37 -188h-115l39 195 q-65 9 -123.5 32t-95 49.5t-64 51t-39.5 41.5z" />
<glyph horiz-adv-x="1155" d="M113 526q0 115 44.5 219t120 179t174.5 123t207 59l35 174h117l-35 -174q60 -6 114 -24.5t89 -41t61.5 -44t37.5 -36.5l12 -14l-82 -98q-4 5 -10.5 14t-32.5 32t-56 40.5t-81 32t-107 14.5q-89 0 -173 -34t-148.5 -92.5t-104 -142.5t-39.5 -177q0 -132 88 -212.5 t231 -80.5q55 0 110 14.5t94.5 35t71 40.5t47.5 34l15 15l52 -115q-6 -6 -17.5 -16t-50.5 -35t-80.5 -45t-105 -37.5t-127.5 -19.5l-33 -166h-117l33 172q-164 25 -259 133t-95 274z" />
<glyph horiz-adv-x="1257" d="M6 0l21 123h131l73 379h-92l21 106h92l45 230q32 163 167.5 263.5t319.5 100.5q59 0 114.5 -11.5t92.5 -27.5t65.5 -32t41.5 -27l14 -12l-90 -99q-4 3 -10.5 8.5t-30.5 19.5t-50.5 24.5t-68.5 19t-86 8.5q-134 0 -227.5 -74t-114.5 -182l-43 -209h473l-20 -106h-471 l-74 -379h692l-22 -123h-963z" />
<glyph horiz-adv-x="1230" d="M145 313l21 105h340l10 47l-45 108h-276l22 105h213l-209 504h152l172 -428q14 -33 29 -75.5t24 -68.5l8 -26h4q60 94 117 170l332 428h170l-402 -504h211l-20 -105h-275l-86 -108l-10 -47h342l-20 -105h-340l-60 -313h-143l59 313h-340z" />
<glyph horiz-adv-x="1163" d="M-76 -127q59 -10 125 -10q28 0 55.5 4.5t65.5 21t69.5 43.5t62.5 77.5t50 117.5l148 524h-183l23 117h195l67 242q19 68 47 123.5t59 92.5t67.5 65.5t70 44t70.5 25t64.5 12.5t55.5 3q42 0 89 -4t73 -8l27 -4l-25 -123q-90 14 -162 14q-227 0 -303 -264l-63 -219h256 l-23 -117h-266l-156 -551q-22 -78 -55.5 -139.5t-73 -99.5t-79.5 -64t-83.5 -38t-75.5 -16.5t-65 -4.5q-38 0 -76.5 3.5t-57.5 6.5l-19 4z" />
<glyph horiz-adv-x="1265" d="M131 655l19 101h141q39 93 102 171.5t148.5 141t199 98t242.5 35.5q55 0 108 -8t79 -16l26 -7l-55 -114q-76 20 -158 20q-188 0 -326.5 -89.5t-212.5 -231.5h572l-43 -101h-570q-23 -78 -26 -139h549l-43 -100h-502q23 -140 128 -227t288 -87q45 0 91 7t70 13l23 7 l6 -125q-85 -29 -194 -29q-127 0 -229.5 34.5t-169.5 95.5t-106.5 139.5t-49.5 171.5h-154l20 100h129q3 59 23 139h-125z" />
<glyph d="M250 528q-260 0 -260 291q0 73 12 153.5t41.5 169t73.5 158t116 115t160 45.5q262 0 262 -295q0 -59 -9 -125t-27 -139t-51 -138.5t-75.5 -118.5t-105.5 -84.5t-137 -31.5zM250 635q75 0 134 54t91 137.5t48 169.5t16 165q0 193 -146 193q-62 0 -112.5 -37t-82.5 -94 t-54 -130t-31 -140.5t-9 -129.5q0 -188 146 -188z" />
<glyph d="M-2 549l20 102h193l113 584l14 49h-4q-10 -16 -49 -49l-97 -78l-59 82l244 201h106l-153 -789h188l-18 -102h-498z" />
<glyph d="M-37 549q2 83 34.5 152t83 116t110.5 87.5t120 75t109.5 70t80.5 81t31 98.5q0 55 -39 91t-102 36q-31 0 -63 -10.5t-56 -25t-43.5 -29.5t-30.5 -25l-10 -11l-65 78l13.5 13.5t37 30.5t59 39t75.5 30.5t89 13.5q118 0 185 -61.5t67 -161.5q0 -66 -26.5 -121.5t-70 -95 t-96.5 -74t-109 -66.5t-105 -64t-86.5 -74.5t-51.5 -90.5h449l-21 -102h-569z" />
<glyph d="M252 528q-53 0 -103 14t-83.5 34t-59 40t-37.5 34l-12 14l78 71q3 -4 9 -11t27 -24t44.5 -30t61 -24t77.5 -11q86 0 152.5 61.5t66.5 151.5q0 64 -51 102.5t-121 38.5h-68l-18 64l248 235l61 51v4q-38 -6 -75 -6h-312l19 103h538l-14 -74l-299 -285q33 -4 67 -18.5 t67 -40t54 -70t21 -100.5q0 -128 -98.5 -226t-239.5 -98z" />
<glyph d="M317 549l45 233h-436l15 78l544 580h119l-108 -555h133l-19 -103h-133l-47 -233h-113zM92 885h291l53 278q4 24 13 56t15 51.5t5 19.5h-4q-43 -55 -86 -100l-287 -301v-4z" />
<glyph d="M236 528q-56 0 -105 14.5t-79 35.5t-52.5 42t-31.5 36l-9 14l84 67q2 -4 6.5 -11t21 -24.5t36.5 -31t54 -24.5t72 -11q92 0 167 68.5t75 162.5q0 69 -49 114.5t-125 45.5q-42 0 -84.5 -12t-64.5 -24l-21 -13l-65 27l137 436h448l-20 -103h-352l-50 -159l-26 -76h4 q49 24 112 24q121 0 197 -72.5t76 -185.5q0 -133 -108 -236.5t-248 -103.5z" />
<glyph d="M258 528q-128 0 -200 86.5t-72 231.5q0 68 20.5 148.5t62.5 163t99 150t137.5 110t169.5 42.5q50 0 97 -11t68 -23l22 -11l-60 -90q-51 29 -129 29q-109 0 -197.5 -89.5t-134.5 -222.5h4q39 36 97 58t114 22q108 0 175 -64.5t67 -172.5q0 -81 -29.5 -149.5t-77.5 -113 t-108.5 -69.5t-124.5 -25zM262 635q96 0 157.5 73t61.5 173q0 67 -41 106t-112 39q-81 0 -153.5 -56.5t-72.5 -129.5q0 -82 42.5 -143.5t117.5 -61.5z" />
<glyph d="M-18 549l487 672l90 116v4q-39 -4 -102 -4h-351l19 103h594l-14 -76l-590 -815h-133z" />
<glyph d="M264 526q-121 0 -202.5 62t-81.5 174q0 52 22.5 102t58 87t63 59t54.5 39q-74 64 -74 147q0 82 49 144t118 90t143 28q112 0 184 -53t72 -148q0 -47 -20.5 -95.5t-53.5 -88t-52.5 -59t-39.5 -37.5q100 -68 100 -166q0 -116 -102.5 -200.5t-237.5 -84.5zM489 807 q0 28 -12 50.5t-39.5 42.5t-49.5 32.5t-65 33t-63 31.5q-25 -14 -48 -31.5t-52 -46.5t-46.5 -68t-17.5 -81q0 -65 50 -103t120 -38q81 0 152 52t71 126zM217 1202q0 -16 5.5 -31.5t11.5 -27t21.5 -24.5t25 -21t32 -20.5t32.5 -17.5t38 -18.5t37 -17.5q18 14 37 32t44 47.5 t40.5 67t15.5 74.5q0 54 -42.5 82.5t-104.5 28.5q-72 0 -132.5 -41t-60.5 -113z" />
<glyph d="M0 573l57 91q53 -29 131 -29q109 0 197.5 90t132.5 223h-4q-39 -36 -96.5 -59t-114.5 -23q-108 0 -174 66t-66 174q0 106 50.5 188.5t126.5 124t161 41.5q130 0 202.5 -86t72.5 -231q0 -67 -20.5 -148t-63 -163.5t-99 -150t-137.5 -110.5t-170 -43q-50 0 -96.5 11 t-67.5 23zM334 963q81 0 153 57t72 131q0 81 -42.5 143t-117.5 62q-95 0 -158 -73.5t-63 -172.5q0 -68 42 -107.5t114 -39.5z" />
<glyph d="M158 -20q-260 0 -260 290q0 73 12 153.5t41.5 169t73.5 158t116 115t160 45.5q262 0 262 -295q0 -50 -6 -105.5t-20.5 -118t-35.5 -120.5t-54 -111.5t-73.5 -93.5t-96 -63.5t-119.5 -23.5zM158 86q61 0 111.5 36.5t82.5 93t54 128t31 139t9 129.5q0 193 -145 193 q-62 0 -112.5 -37t-82.5 -94t-54 -130t-31 -140.5t-9 -129.5q0 -188 146 -188z" />
<glyph d="M-78 0l21 102h192l113 584l14 49h-4q-10 -16 -49 -49l-96 -78l-60 82l244 201h106l-153 -789h188l-18 -102h-498z" />
<glyph d="M-133 0q2 83 34.5 152t83 116t110.5 87.5t120 75t109.5 70t80.5 81t31 98.5q0 55 -39 91t-102 36q-48 0 -99 -25t-78 -50l-26 -25l-65 77l13.5 13.5t37 30.5t59 39t75.5 30.5t89 13.5q118 0 185 -61.5t67 -161.5q0 -66 -26.5 -121.5t-70 -95t-96.5 -74t-109 -66.5 t-105 -64t-86.5 -74.5t-51.5 -90.5h449l-21 -102h-569z" />
<glyph d="M141 -20q-53 0 -103 14t-83.5 33.5t-59 39.5t-37.5 34l-12 14l78 71q3 -4 9 -11t27 -24t44.5 -30t61 -24t77.5 -11q86 0 152.5 61.5t66.5 151.5q0 65 -51 103t-121 38h-67l-19 64l248 235l62 52v4q-39 -7 -76 -7h-311l18 103h539l-15 -74l-299 -285q33 -4 67 -18.5 t67 -40t54 -70t21 -100.5q0 -128 -98 -225.5t-240 -97.5z" />
<glyph d="M240 0l45 233h-437l15 78l545 580h118l-108 -555h133l-19 -103h-133l-47 -233h-112zM14 336h291l53 278q4 24 13 56t15 51.5t5 19.5h-4q-43 -55 -86 -100l-287 -301v-4z" />
<glyph d="M133 -20q-56 0 -105 14.5t-79 35t-52 41.5t-31 35l-9 15l84 67q2 -4 6.5 -11t21 -24.5t36.5 -31t54 -24.5t72 -11q92 0 167 68.5t75 162.5q0 69 -49 114.5t-125 45.5q-42 0 -84.5 -12.5t-64.5 -24.5l-21 -12l-66 27l137 436h449l-21 -103h-352l-49 -159l-27 -76h4 q50 25 113 25q121 0 196.5 -73t75.5 -186q0 -133 -108 -236t-248 -103z" />
<glyph d="M176 -20q-129 0 -200.5 86t-71.5 231q0 68 20.5 148.5t62.5 163t99 150t137.5 110t169.5 42.5q50 0 97 -11.5t68 -22.5l22 -11l-60 -90q-51 29 -129 29q-109 0 -197.5 -89t-134.5 -222h4q38 35 96 57t115 22q108 0 175 -64.5t67 -172.5q0 -159 -103 -257.5t-237 -98.5z M180 86q96 0 157.5 73t61.5 173q0 67 -41 106t-112 39q-81 0 -153.5 -56.5t-72.5 -129.5q0 -82 42.5 -143.5t117.5 -61.5z" />
<glyph d="M-117 0l488 672l90 116v5q-40 -5 -103 -5h-350l19 103h594l-15 -76l-590 -815h-133z" />
<glyph d="M162 -20q-121 0 -203 61.5t-82 173.5q0 52 22.5 102t58.5 87t63.5 59t54.5 39q-74 64 -74 147q0 62 28 113.5t73.5 83t99.5 48.5t108 17q112 0 184 -52.5t72 -147.5q0 -38 -15 -79t-34.5 -71t-46.5 -60.5t-41 -44t-29 -26.5q101 -69 101 -166q0 -116 -102.5 -200 t-237.5 -84zM387 260q0 28 -12 50.5t-39.5 42.5t-49.5 32.5t-65 33.5t-63 32q-25 -14 -48.5 -32t-52 -46.5t-46 -68t-17.5 -81.5q0 -65 50 -103t120 -38q81 0 152 52t71 126zM115 655q0 -15 3 -28t11 -25t15.5 -22t22.5 -20.5t24.5 -17.5t29.5 -17.5t30 -15.5t33 -16t33 -16 q19 14 37.5 32t44 47.5t41 67t15.5 74.5q0 54 -43 82.5t-105 28.5q-72 0 -132 -41t-60 -113z" />
<glyph d="M-117 25l58 90q53 -29 131 -29q109 0 196.5 90t132.5 223h-4q-39 -36 -96.5 -59t-114.5 -23q-108 0 -173.5 65.5t-65.5 174.5q0 106 50.5 188.5t126.5 124t161 41.5q130 0 202 -86t72 -231q0 -67 -20.5 -147.5t-62.5 -163t-99 -150.5t-137.5 -110.5t-169.5 -42.5 q-50 0 -97 11t-69 23zM217 414q81 0 153 57t72 131q0 81 -42 143t-117 62q-95 0 -158.5 -74t-63.5 -172q0 -68 42 -107.5t114 -39.5z" />
</font>
</defs>
</svg>
