<?xml version="1.0" encoding="utf-8"?>
<!-- Generator: Adobe Illustrator 15.1.0, SVG Export Plug-In . SVG Version: 6.00 Build 0)  -->
<!DOCTYPE svg PUBLIC "-//W3C//DTD SVG 1.1//EN" "http://www.w3.org/Graphics/SVG/1.1/DTD/svg11.dtd">
<svg version="1.1" id="Layer_1" xmlns="http://www.w3.org/2000/svg" xmlns:xlink="http://www.w3.org/1999/xlink" x="0px" y="0px"
	 width="1000px" height="1207.519px" viewBox="0 0 1000 1207.519" enable-background="new 0 0 1000 1207.519" xml:space="preserve">
<g>
	<g>
		<polygon points="265.229,928.221 190.976,959.273 190.976,1046.312 265.229,1077.387 413.703,1015.236 413.703,946.412 
			499.98,982.519 512.095,977.481 512.095,1036.577 512.039,1036.638 437.774,1067.707 437.774,1154.606 512.039,1185.703 
			660.523,1123.592 660.523,1036.577 660.545,933.397 674.614,939.291 897.308,846.008 897.308,816.252 978.185,782.395 
			978.185,221.934 499.98,21.821 21.815,221.934 21.815,782.395 265.257,884.278 265.257,928.221 		"/>
		<path d="M512.039,1207.519c-2.859,0-5.719-0.563-8.411-1.692l-74.281-31.098c-8.109-3.39-13.388-11.326-13.388-20.122v-86.899
			c0-8.801,5.278-16.727,13.399-20.122l60.922-25.484v-19.995l-54.767-22.915v36.046c0,8.796-5.278,16.732-13.387,20.129
			l-148.479,62.133c-5.384,2.263-11.449,2.263-16.845,0l-74.242-31.069c-8.115-3.39-13.393-11.333-13.393-20.117v-87.038
			c0-8.797,5.283-16.727,13.398-20.122l60.877-25.463v-14.89l-230.049-96.28C5.278,799.128,0,791.191,0,782.395V221.934
			c0-8.796,5.278-16.738,13.393-20.128L491.558,1.692c5.384-2.257,11.455-2.257,16.839,0l478.21,200.113
			c8.109,3.39,13.393,11.332,13.393,20.128v560.461c0,8.797-5.283,16.733-13.387,20.124l-67.49,28.249v15.24
			c0,8.792-5.272,16.729-13.382,20.124l-222.699,93.287c-0.218,0.095-0.452,0.184-0.687,0.263l-0.011,163.91
			c0,8.791-5.284,16.728-13.399,20.112l-148.484,62.122C517.769,1206.955,514.904,1207.519,512.039,1207.519z M459.589,1140.091
			l52.455,21.965l126.669-52.99l0.017-175.672c0-7.295,3.653-14.114,9.729-18.158c6.082-4.043,13.779-4.775,20.509-1.948
			l5.641,2.355l200.883-84.145v-15.246c0-8.797,5.283-16.733,13.393-20.129l67.49-28.244V236.443L499.98,45.463L43.625,236.443
			v531.436l230.049,96.275c8.115,3.401,13.393,11.327,13.393,20.124v43.942c0,9.367-5.903,17.353-14.192,20.446l-60.078,25.128
			v57.99l52.432,21.954l126.648-53.019v-54.309c0-7.294,3.658-14.109,9.734-18.164c6.077-4.037,13.772-4.774,20.508-1.954
			l77.883,32.589l3.714-1.547c6.735-2.793,14.42-2.05,20.48,2.005c6.066,4.038,9.708,10.853,9.708,18.141v59.096
			c0,4.651-1.492,9.21-4.272,12.957c-2.334,3.167-5.535,5.708-9.171,7.228l-60.872,25.462V1140.091z"/>
	</g>
	<polygon fill="#50B848" points="512.039,1185.982 437.774,1154.88 437.774,1067.914 512.039,1098.984 	"/>
	<polygon fill="#378B36" points="437.774,1067.914 512.039,1036.833 586.275,1067.914 512.039,1098.984 	"/>
	<polygon fill="#50B848" points="586.275,928.494 586.275,1067.914 512.095,1036.851 512.095,897.38 	"/>
	<polygon fill="#378B36" points="586.275,928.494 586.275,1047.316 512.095,1016.242 512.095,897.38 	"/>
	<polygon fill="#18601F" points="660.545,897.38 660.545,1036.851 660.523,1036.851 660.523,1123.882 586.275,1154.88 
		512.039,1185.982 512.039,1098.984 586.275,1067.914 586.275,1067.914 586.275,928.494 	"/>
	<g>
		<polygon fill="#50B848" points="265.229,1077.649 190.976,1046.58 190.976,959.553 265.229,990.662 		"/>
		<polygon fill="#378B36" points="190.976,959.553 265.229,928.494 339.46,959.553 265.229,990.662 		"/>
		<polygon fill="#50B848" points="339.466,887.818 339.466,959.569 265.257,928.494 265.257,856.788 		"/>
		<polygon fill="#378B36" points="339.466,887.818 339.466,944.837 265.257,913.767 265.257,856.788 		"/>
		<polygon fill="#18601F" points="413.708,856.788 413.708,928.494 413.703,928.494 413.703,1015.51 339.46,1046.597 
			265.229,1077.649 265.229,990.662 339.46,959.553 339.466,959.553 339.466,887.818 		"/>
	</g>
	<polygon fill="#00460D" points="586.275,1047.316 660.523,1016.477 660.523,923.094 586.297,957.397 	"/>
	<polygon fill="#50B848" points="499.98,982.81 21.815,782.69 21.815,222.213 499.98,422.387 	"/>
	<polygon fill="#18601F" points="499.98,982.81 978.185,782.69 978.185,222.213 499.98,422.387 	"/>
	<polygon fill="#378B36" points="21.815,222.213 499.98,22.1 978.185,222.213 499.98,422.387 	"/>
	<g>
		<g>
			<polygon fill="#378B36" points="600.361,821.457 674.614,852.554 823.094,790.331 748.856,759.307 			"/>
		</g>
		<polygon fill="#50B848" points="674.614,939.593 600.361,908.473 600.361,821.439 674.614,852.554 		"/>
		<polygon fill="#18601F" points="897.308,586.035 897.308,846.288 823.094,877.33 748.856,908.438 748.856,908.473 
			674.614,939.593 674.614,852.554 748.856,821.457 748.856,821.412 823.094,790.331 823.094,617.122 		"/>
		<polygon fill="#50B848" points="823.094,617.122 823.094,790.393 748.856,759.351 748.856,673.073 748.84,673.073 748.84,586.035 
			748.856,586.035 		"/>
		<polygon fill="#378B36" points="897.308,586.035 823.094,617.122 748.856,586.035 748.84,586.035 823.094,554.971 
			823.094,554.943 		"/>
	</g>
	<polygon fill="#FFFFFF" points="180.464,487.106 72.008,441.723 72.008,314.657 180.464,360.041 	"/>
	<polygon points="148.071,435.635 104.413,417.333 104.413,366.146 148.071,384.448 	"/>
	<polygon fill="#FFFFFF" points="437.517,894.146 74.729,742.886 74.729,615.815 437.517,767.075 	"/>
	<polygon fill="#FFFFFF" points="434.792,594.854 326.392,549.459 326.392,422.387 434.792,467.744 	"/>
	<polygon points="402.432,543.349 358.773,525.035 358.773,473.87 402.432,492.128 	"/>
	<polygon fill="#00460D" points="897.308,816.536 897.128,614.256 918.358,807.724 	"/>
	<polygon points="600.361,908.473 674.614,939.593 674.614,959.569 	"/>
	<g>
		<polygon points="501.924,1001.273 495.166,985.027 634.145,927.154 655.072,938.106 		"/>
	</g>
	<g>
		<polygon points="249.876,897.234 256.684,880.999 447.542,961.05 454.451,983.653 		"/>
	</g>
</g>
</svg>
