<?xml version="1.0" encoding="utf-8"?>
<!-- Generator: Adobe Illustrator 15.1.0, SVG Export Plug-In . SVG Version: 6.00 Build 0)  -->
<!DOCTYPE svg PUBLIC "-//W3C//DTD SVG 1.1//EN" "http://www.w3.org/Graphics/SVG/1.1/DTD/svg11.dtd">
<svg version="1.1" id="Layer_1" xmlns="http://www.w3.org/2000/svg" xmlns:xlink="http://www.w3.org/1999/xlink" x="0px" y="0px"
	 width="1200px" height="174.871px" viewBox="0 0 1200 174.871" enable-background="new 0 0 1200 174.871" xml:space="preserve">
<g>
	<path fill="#FFFFFF" d="M86.714,174.871C36.956,174.871,0,136.47,0,87.92v-0.482C0,39.371,36.231,0,88.162,0
		c31.884,0,50.966,10.625,66.666,26.085L131.157,53.38C118.115,41.545,104.83,34.3,87.921,34.3
		c-28.501,0-49.033,23.669-49.033,52.656v0.482c0,28.987,20.048,53.133,49.033,53.133c19.324,0,31.159-7.728,44.443-19.803
		l23.672,23.91C138.645,163.277,119.322,174.871,86.714,174.871z"/>
	<path fill="#FFFFFF" d="M248.55,174.871c-52.173,0-89.612-38.884-89.612-86.951v-0.482C158.938,39.371,196.86,0,249.033,0
		c52.172,0,89.612,38.889,89.612,86.956v0.482C338.645,135.5,300.723,174.871,248.55,174.871z M299.756,87.438
		c0-28.987-21.255-53.138-51.207-53.138s-50.725,23.669-50.725,52.656v0.482c0,28.987,21.255,53.133,51.208,53.133
		c29.951,0,50.723-23.664,50.723-52.651V87.438z"/>
	<path fill="#FFFFFF" d="M423.188,171.974h-65.942V2.897h65.942c53.139,0,89.853,36.474,89.853,84.059v0.482
		C513.042,135.019,476.327,171.974,423.188,171.974z M474.15,87.438c0-29.951-20.529-50.964-50.962-50.964h-28.746v101.929h28.746
		c30.433,0,50.962-20.531,50.962-50.482V87.438z"/>
	<path fill="#FFFFFF" d="M531.645,171.974V2.897h127.534v33.089h-90.579v34.3h79.708v33.094h-79.708v35.505h91.786v33.089H531.645z"
		/>
	<path fill="#FFFFFF" d="M764.251,171.974H683.82V2.897h78.5c34.541,0,55.794,17.147,55.794,43.719v0.482
		c0,19.085-10.145,29.71-22.221,36.474c19.564,7.487,31.641,18.844,31.641,41.544v0.482
		C827.535,156.514,802.417,171.974,764.251,171.974z M781.16,52.898c0-11.112-8.697-17.394-24.396-17.394H720.05v35.75h34.299
		c16.424,0,26.811-5.312,26.811-17.875V52.898z M790.582,120.527c0-11.353-8.456-18.357-27.538-18.357H720.05v37.196h44.201
		c16.427,0,26.331-5.799,26.331-18.357V120.527z"/>
	<path fill="#FFFFFF" d="M855.073,171.974V2.897h37.197v169.076H855.073z"/>
	<path fill="#FFFFFF" d="M1006.28,37.197v134.777h-37.197V37.197h-51.449V2.897h140.094v34.299H1006.28z"/>
	<path fill="#FFFFFF" d="M1137.924,174.389c-25.603,0-51.449-8.938-71.737-27.049l21.978-26.331
		c15.22,12.559,31.161,20.532,50.482,20.532c15.217,0,24.398-6.041,24.398-15.942v-0.482c0-9.419-5.797-14.25-34.059-21.495
		c-34.059-8.696-56.038-18.116-56.038-51.692v-0.482c0-30.674,24.636-50.964,59.179-50.964c24.636,0,45.649,7.727,62.799,21.495
		L1175.604,50c-14.975-10.389-29.71-16.67-43.962-16.67c-14.25,0-21.736,6.522-21.736,14.737v0.482
		c0,11.112,7.245,14.732,36.471,22.224c34.299,8.933,53.623,21.254,53.623,50.718v0.487
		C1200,155.55,1174.397,174.389,1137.924,174.389z"/>
</g>
</svg>
