<?xml version="1.0" encoding="utf-8"?>
<!-- Generator: Adobe Illustrator 15.1.0, SVG Export Plug-In . SVG Version: 6.00 Build 0)  -->
<!DOCTYPE svg PUBLIC "-//W3C//DTD SVG 1.1//EN" "http://www.w3.org/Graphics/SVG/1.1/DTD/svg11.dtd">
<svg version="1.1" id="Layer_1" xmlns="http://www.w3.org/2000/svg" xmlns:xlink="http://www.w3.org/1999/xlink" x="0px" y="0px"
	 width="414.438px" height="427.484px" viewBox="0 0 414.438 427.484" enable-background="new 0 0 414.438 427.484"
	 xml:space="preserve">
<g>
	<path fill="#FFFFFF" d="M361.197,0H53.241C23.837,0,0,23.837,0,53.241V294.04c0,29.404,23.837,53.241,53.241,53.241h205.035
		c0,0,9.133,69.41,101.02,80.203c0,0-47.326-28.382-47.326-80.203h49.229c29.403,0,53.24-23.837,53.24-53.241V53.241
		C414.438,23.837,390.601,0,361.197,0z"/>
	<g>
		<path fill="#57B94E" d="M65.687,46.262h12.637l9.635,93.67l10.268-93.67h12.637l10.268,93.512l9.635-93.512h12.321L129.66,156.833
			h-16.428l-8.846-79.295l-8.846,79.295H79.113L65.687,46.262z"/>
		<path fill="#57B94E" d="M195.37,156.833h-12.479l-2.686-18.481H159.83l-2.527,18.481H145.14l17.06-110.887h16.111L195.37,156.833z
			 M161.409,126.979h17.218l-8.53-61.13L161.409,126.979z"/>
		<path fill="#57B94E" d="M209.902,156.833V57.951h-16.586V46.262h45.809v11.689h-16.586v98.882H209.902z"/>
		<path fill="#57B94E" d="M289.988,114.342v22.904c0,13.742-6.793,20.535-20.535,20.535h-4.107
			c-13.742,0-20.534-6.792-20.534-20.535V65.849c0-13.742,6.792-20.535,20.534-20.535h4.107c13.584,0,20.219,6.634,20.219,20.219
			v19.903h-12.32V65.217c0-5.687-2.686-8.372-8.372-8.372h-3.159c-5.687,0-8.372,2.686-8.372,8.372v72.661
			c0,5.687,2.686,8.372,8.372,8.372h3.475c5.687,0,8.372-2.686,8.372-8.372v-23.536H289.988z"/>
		<path fill="#57B94E" d="M334.215,94.439V46.262h12.637v110.571h-12.637v-50.547H313.68v50.547h-12.637V46.262h12.637v48.178
			H334.215z"/>
		<path fill="#57B94E" d="M103.362,296.21H90.883l-2.685-18.481H67.821l-2.527,18.481H53.131l17.06-110.887h16.112L103.362,296.21z
			 M69.401,266.355h17.217l-8.529-61.13L69.401,266.355z"/>
		<path fill="#57B94E" d="M164.174,185.639h12.479l-17.533,110.888h-13.9l-17.533-110.888h12.794l11.847,84.508L164.174,185.639z"/>
		<path fill="#57B94E" d="M198.135,296.21h-12.637V185.639h12.637V296.21z"/>
		<path fill="#57B94E" d="M210.295,185.639h20.851c16.585,0,24.483,7.898,24.483,24.483v61.604c0,16.585-7.898,24.483-24.483,24.483
			h-20.851V185.639z M222.932,284.679h7.582c8.53,0,12.479-4.265,12.479-12.795v-61.919c0-8.53-3.949-12.794-12.479-12.794h-7.582
			V284.679z"/>
		<path fill="#57B94E" d="M302.068,185.639v11.689h-22.113v36.646h21.324v11.531h-21.324v39.016h22.43v11.689h-35.066V185.639
			H302.068z"/>
		<path fill="#57B94E" d="M337.767,297.157h-4.739c-13.742,0-20.534-6.792-20.534-20.534v-71.397
			c0-13.742,6.792-20.535,20.534-20.535h4.739c13.742,0,20.534,6.792,20.534,20.535v71.397
			C358.301,290.365,351.509,297.157,337.767,297.157z M337.293,196.222h-3.791c-5.687,0-8.372,2.686-8.372,8.372v72.661
			c0,5.687,2.686,8.372,8.372,8.372h3.791c5.687,0,8.371-2.686,8.371-8.372v-72.661
			C345.664,198.907,342.979,196.222,337.293,196.222z"/>
	</g>
</g>
</svg>
