<?xml version="1.0" encoding="utf-8"?>
<!-- Generator: Adobe Illustrator 15.1.0, SVG Export Plug-In . SVG Version: 6.00 Build 0)  -->
<!DOCTYPE svg PUBLIC "-//W3C//DTD SVG 1.1//EN" "http://www.w3.org/Graphics/SVG/1.1/DTD/svg11.dtd">
<svg version="1.1" id="Layer_1" xmlns="http://www.w3.org/2000/svg" xmlns:xlink="http://www.w3.org/1999/xlink" x="0px" y="0px"
	 width="414.438px" height="427.484px" viewBox="0 0 414.438 427.484" enable-background="new 0 0 414.438 427.484"
	 xml:space="preserve">
<g>
	<path fill="#FFFFFF" d="M361.197,0H53.241C23.837,0,0,23.837,0,53.241V294.04c0,29.404,23.837,53.241,53.241,53.241h205.035
		c0,0,9.133,69.41,101.02,80.203c0,0-47.326-28.382-47.326-80.203h49.229c29.403,0,53.24-23.837,53.24-53.241V53.241
		C414.438,23.837,390.601,0,361.197,0z"/>
	<text transform="matrix(1 0 0 1 61.5801 156.833)"><tspan x="0" y="0" fill="#57B94E" font-family="'Tungsten-Medium'" font-size="157.9592" letter-spacing="-4">W</tspan><tspan x="80.874" y="0" fill="#57B94E" font-family="'Tungsten-Medium'" font-size="157.9592" letter-spacing="-6">A</tspan><tspan x="130.157" y="0" fill="#57B94E" font-family="'Tungsten-Medium'" font-size="157.9592" letter-spacing="-1">T</tspan><tspan x="177.545" y="0" fill="#57B94E" font-family="'Tungsten-Medium'" font-size="157.9592">CH</tspan><tspan x="-11.134" y="139.377" fill="#57B94E" font-family="'Tungsten-Medium'" font-size="157.9592">A VIDEO</tspan></text>
</g>
</svg>
